<?xml version="1.1" encoding="UTF-8" standalone="no"?>
<!DOCTYPE svg PUBLIC "-//W3C//DTD SVG 1.0//EN" "http://www.w3.org/TR/2001/REC-SVG-20010904/DTD/svg10.dtd">
<svg xmlns:svg="http://www.w3.org/2000/svg" xmlns="http://www.w3.org/2000/svg" version="1.1" width="100%" height="100%" viewBox="0 0 48 48" id="_android01">
<defs id="defs2385"/>
<g id="android01" style="display:inline">
<path d="M 10.41,15.95 L 10.56,15.95 C 12.18,15.95 13.49,17.25 13.49,18.88 L 13.49,28.19 C 13.49,29.82 12.18,31.13 10.56,31.13 L 10.41,31.13 C 8.78,31.13 7.48,29.82 7.48,28.19 L 7.48,18.88 C 7.48,17.25 8.78,15.95 10.41,15.95 z" id="r2481" style="fill:#95c03c;fill-opacity:1;fill-rule:evenodd;stroke:#ffffff;stroke-width:1.29;stroke-linecap:butt;stroke-linejoin:miter;marker:none;stroke-miterlimit:4;stroke-dashoffset:0;stroke-opacity:1;visibility:visible;display:inline;overflow:visible;enable-background:accumulate"/>
<path d="M 38.13,15.95 L 38.28,15.95 C 39.90,15.95 41.21,17.25 41.21,18.88 L 41.21,28.19 C 41.21,29.82 39.90,31.13 38.28,31.13 L 38.13,31.13 C 36.51,31.13 35.20,29.82 35.20,28.19 L 35.20,18.88 C 35.20,17.25 36.51,15.95 38.13,15.95 z" id="r3255" style="fill:#95c03c;fill-opacity:1;fill-rule:evenodd;stroke:#ffffff;stroke-width:1.29;stroke-linecap:butt;stroke-linejoin:miter;marker:none;stroke-miterlimit:4;stroke-dashoffset:0;stroke-opacity:1;visibility:visible;display:inline;overflow:visible;enable-background:accumulate"/>
<path d="M 13.5,15.93 C 13.49,15.95 13.5,15.97 13.5,16 L 13.5,32.59 C 13.5,34.21 14.81,35.53 16.43,35.53 L 17.37,35.53 L 17.37,40.18 C 17.37,41.81 18.68,43.12 20.31,43.12 L 20.46,43.12 C 22.09,43.12 23.40,41.81 23.40,40.18 L 23.40,35.53 L 25.59,35.53 L 25.59,40.18 C 25.59,41.81 26.90,43.12 28.53,43.12 L 28.68,43.12 C 30.31,43.12 31.59,41.81 31.59,40.18 L 31.59,35.53 L 32.40,35.53 C 34.03,35.53 35.34,34.21 35.34,32.59 L 35.34,16 C 35.34,15.97 35.34,15.95 35.34,15.93 L 13.5,15.93 z" id="r3257" style="fill:#95c03c;fill-opacity:1;fill-rule:evenodd;stroke:#ffffff;stroke-width:1.29;stroke-linecap:butt;stroke-linejoin:miter;marker:none;stroke-miterlimit:4;stroke-dashoffset:0;stroke-opacity:1;visibility:visible;display:inline;overflow:visible;enable-background:accumulate"/>
<path d="M 17.75,4.09 C 17.62,4.11 17.51,4.17 17.40,4.25 C 16.95,4.55 16.82,5.14 17.12,5.59 L 18.59,7.75 C 15.54,9.47 13.5,12.47 13.5,15.93 L 35.31,15.93 C 35.31,12.46 33.25,9.43 30.18,7.71 L 31.62,5.59 C 31.92,5.14 31.79,4.55 31.34,4.25 C 30.89,3.94 30.30,4.05 30,4.5 L 28.37,6.87 C 27.14,6.44 25.80,6.21 24.40,6.21 C 22.98,6.21 21.62,6.46 20.37,6.90 L 18.75,4.5 C 18.52,4.16 18.12,4.01 17.75,4.09 z" id="p3274" style="opacity:1;fill:#95c03c;fill-opacity:1;fill-rule:evenodd;stroke:#ffffff;stroke-width:1.30;stroke-linecap:butt;stroke-linejoin:miter;marker:none;stroke-miterlimit:4;stroke-dasharray:none;stroke-dashoffset:0;stroke-opacity:1;visibility:visible;display:inline;overflow:visible;enable-background:accumulate"/>
<path d="M 21.28,11.55 A 1.28,1.32 0 1 1 18.70,11.55 A 1.28,1.32 0 1 1 21.28,11.55 z" transform="matrix(0.86,0,0,0.86,2.60,1.20)" id="p3287" style="opacity:1;fill:#fcfefa;fill-opacity:1;fill-rule:evenodd;stroke:none;marker:none;visibility:visible;display:inline;overflow:visible;enable-background:accumulate"/>
<path d="M 21.28,11.55 A 1.28,1.32 0 1 1 18.70,11.55 A 1.28,1.32 0 1 1 21.28,11.55 z" transform="matrix(0.86,0,0,0.86,11.36,1.20)" id="p3289" style="opacity:1;fill:#fcfefa;fill-opacity:1;fill-rule:evenodd;stroke:none;marker:none;visibility:visible;display:inline;overflow:visible;enable-background:accumulate"/>
</g>
</svg>
