<?xml version="1.0" encoding="UTF-8" standalone="no"?>
<!DOCTYPE svg PUBLIC "-//W3C//DTD SVG 1.0//EN" "http://www.w3.org/TR/2001/REC-SVG-20010904/DTD/svg10.dtd">
<svg xmlns:svg="http://www.w3.org/2000/svg" xmlns="http://www.w3.org/2000/svg" xmlns:xlink="http://www.w3.org/1999/xlink" version="1.0" width="100%" height="100%" viewBox="0 0 48 48" id="svg2383">
<defs id="defs2385"/>
<path d="M 23.96,1.56 C 11.67,1.56 1.68,11.52 1.68,23.81 C 1.68,36.10 11.67,46.06 23.96,46.06 C 36.25,46.06 46.21,36.10 46.21,23.81 C 46.21,11.52 36.25,1.56 23.96,1.56 z M 23.62,7.37 C 24.55,7.42 25.45,7.70 26.18,8.28 L 28.87,10.40 L 36.34,16.25 L 39.06,18.34 C 41.01,19.87 41.40,23.07 39.87,25.03 L 37.31,28.31 L 31.43,35.81 L 34.53,38.25 L 22.37,39.71 L 20.84,27.56 L 23.96,29.96 L 26.90,26.21 L 29.46,22.90 L 24.09,18.68 L 13.46,32.28 L 6,26.43 L 19.53,9.12 C 20.48,7.90 22.08,7.28 23.62,7.37 z" id="p3165" style="fill:#ffffff;fill-opacity:0.50;fill-rule:evenodd;stroke:none;marker:none;visibility:visible;display:inline;overflow:visible;enable-background:accumulate"/>
<path d="M 46.21,23.80 C 46.21,36.09 36.24,46.06 23.95,46.06 C 11.66,46.06 1.70,36.09 1.70,23.80 C 1.70,11.51 11.66,1.55 23.95,1.55 C 36.24,1.55 46.21,11.51 46.21,23.80 z" id="p2393" style="fill:none;fill-opacity:0.82;fill-rule:evenodd;stroke:#000000;stroke-width:1.99;stroke-linecap:round;stroke-linejoin:round;marker:none;stroke-miterlimit:4;stroke-dasharray:none;stroke-dashoffset:0;stroke-opacity:1;visibility:visible;display:inline;overflow:visible;enable-background:accumulate"/>
<path d="M 26.18,8.29 C 24.22,6.76 21.04,7.15 19.51,9.11 L 5.98,26.44 L 13.46,32.28 L 24.08,18.70 L 29.47,22.91 L 26.89,26.21 L 23.95,29.98 L 20.84,27.55 L 22.36,39.73 L 34.52,38.23 L 31.43,35.82 L 37.29,28.32 L 39.87,25.01 C 41.40,23.05 41.01,19.88 39.06,18.35 L 36.35,16.23 L 28.88,10.40 L 26.18,8.29 L 26.18,8.29 z" id="p2826-5-3" style="fill:none;fill-opacity:1;stroke:#000000;stroke-width:2;marker:none;stroke-miterlimit:4;stroke-dasharray:none;stroke-opacity:1;visibility:visible;display:inline;overflow:visible;enable-background:accumulate"/>
</svg>
