<?xml version="1.0" encoding="UTF-8" standalone="no"?>
<!DOCTYPE svg PUBLIC "-//W3C//DTD SVG 1.0//EN" "http://www.w3.org/TR/2001/REC-SVG-20010904/DTD/svg10.dtd">
<svg xmlns:svg="http://www.w3.org/2000/svg" xmlns="http://www.w3.org/2000/svg" xmlns:xlink="http://www.w3.org/1999/xlink" version="1.0" width="100%" height="100%" viewBox="0 0 48 48" id="svg2383">
<defs id="defs2385"/>
<path d="M 9.62,6.78 C 4.78,10.86 1.68,16.98 1.68,23.81 C 1.68,34.61 9.39,43.59 19.59,45.62 L 9.62,6.78 z" id="p3165" style="fill:#ff0202;fill-opacity:0.75;fill-rule:evenodd;stroke:none;marker:none;visibility:visible;display:inline;overflow:visible;enable-background:accumulate"/>
<path d="M 36.37,5.34 L 23,19.90 L 41.87,37.06 C 44.61,33.36 46.21,28.77 46.21,23.81 C 46.21,16.11 42.31,9.33 36.37,5.34 z" id="p2397" style="fill:#fffc2e;fill-opacity:0.75;fill-rule:evenodd;stroke:none;marker:none;visibility:visible;display:inline;overflow:visible;enable-background:accumulate"/>
<path d="M 23.96,1.56 C 18.50,1.56 13.49,3.51 9.62,6.78 L 15.18,28.40 L 36.37,5.34 C 32.83,2.95 28.56,1.56 23.96,1.56 z" id="p3177" style="fill:#2e54ff;fill-opacity:0.75;fill-rule:evenodd;stroke:none;"/>
<path d="M 23,19.90 L 15.18,28.40 L 19.59,45.62 C 21.00,45.90 22.47,46.06 23.96,46.06 C 31.29,46.06 37.82,42.52 41.87,37.06 L 23,19.90 z" id="p3183" style="fill:#2eff38;fill-opacity:0.75;fill-rule:evenodd;stroke:none;marker:none;visibility:visible;display:inline;overflow:visible;enable-background:accumulate"/>
<path d="M 46.21,23.80 C 46.21,36.09 36.24,46.06 23.95,46.06 C 11.66,46.06 1.70,36.09 1.70,23.80 C 1.70,11.51 11.66,1.55 23.95,1.55 C 36.24,1.55 46.21,11.51 46.21,23.80 z" id="p2393" style="fill:none;fill-opacity:0.82;fill-rule:evenodd;stroke:#000000;stroke-width:1.99;stroke-linecap:round;stroke-linejoin:round;marker:none;stroke-miterlimit:4;stroke-dasharray:none;stroke-dashoffset:0;stroke-opacity:1;visibility:visible;display:inline;overflow:visible;enable-background:accumulate"/>
</svg>
