<?xml version="1.0" encoding="UTF-8" standalone="no"?>
<!DOCTYPE svg PUBLIC "-//W3C//DTD SVG 1.0//EN" "http://www.w3.org/TR/2001/REC-SVG-20010904/DTD/svg10.dtd">
<svg xmlns:svg="http://www.w3.org/2000/svg" xmlns="http://www.w3.org/2000/svg" xmlns:xlink="http://www.w3.org/1999/xlink" version="1.0" width="100%" height="100%" viewBox="0 0 48 48" id="svg2383">
<defs id="defs2385"/>
<path d="M 46.21,23.80 C 46.21,36.09 36.24,46.06 23.95,46.06 C 11.66,46.06 1.70,36.09 1.70,23.80 C 1.70,11.51 11.66,1.55 23.95,1.55 C 36.24,1.55 46.21,11.51 46.21,23.80 z" id="p3165" style="fill:#fcfcfc;fill-opacity:0.75;fill-rule:evenodd;stroke:none;marker:none;visibility:visible;display:inline;overflow:visible;enable-background:accumulate"/>
<path d="M 46.21,23.80 C 46.21,36.09 36.24,46.06 23.95,46.06 C 11.66,46.06 1.70,36.09 1.70,23.80 C 1.70,11.51 11.66,1.55 23.95,1.55 C 36.24,1.55 46.21,11.51 46.21,23.80 z" id="p2393" style="fill:none;fill-opacity:0.82;fill-rule:evenodd;stroke:#000000;stroke-width:1.99;stroke-linecap:round;stroke-linejoin:round;marker:none;stroke-miterlimit:4;stroke-dasharray:none;stroke-dashoffset:0;stroke-opacity:1;visibility:visible;display:inline;overflow:visible;enable-background:accumulate"/>
<path d="M 22.68,7.47 C 20.31,7.47 18.37,9.37 18.37,11.75 L 18.37,17.94 L 12.18,17.94 C 9.81,17.94 7.9,19.84 7.9,22.22 L 7.9,25.15 C 7.9,27.53 9.81,29.44 12.18,29.44 L 18.37,29.44 L 18.37,35.62 C 18.37,38 20.31,39.9 22.68,39.9 L 25.59,39.9 C 27.96,39.9 29.87,38 29.87,35.62 L 29.87,29.44 L 36.06,29.44 C 38.43,29.44 40.34,27.53 40.34,25.15 L 40.34,22.22 C 40.34,19.84 38.43,17.94 36.06,17.94 L 29.87,17.94 L 29.87,11.75 C 29.87,9.37 27.96,7.47 25.59,7.47 L 22.68,7.47 z" id="r3167" style="fill:#000000;fill-opacity:1;fill-rule:evenodd;stroke:#ffffff;stroke-width:2;stroke-linecap:round;stroke-linejoin:round;marker:none;stroke-miterlimit:4;stroke-dashoffset:0;stroke-opacity:1;visibility:visible;display:inline;overflow:visible;enable-background:accumulate"/>
</svg>
