<?xml version="1.0" encoding="UTF-8" standalone="no"?>
<!-- Created with Inkscape (http://www.inkscape.org/) -->
<svg
   xmlns:svg="http://www.w3.org/2000/svg"
   xmlns="http://www.w3.org/2000/svg"
   version="1.0"
   width="100%"
   height="100%"
   viewBox="0 0 48 48"
   id="svg2383">
  <defs
     id="defs2385" />
  <path
     d="M 46.21,23.8 C 46.21,36.09 36.24,46.06 23.95,46.06 C 11.66,46.06 1.7,36.09 1.7,23.8 C 1.7,11.51 11.66,1.55 23.95,1.55 C 36.24,1.55 46.21,11.51 46.21,23.8 z"
     id="p3187"
     style="fill:#ffffff;fill-opacity:0.75;fill-rule:evenodd;stroke:none;marker:none;visibility:visible;display:inline;overflow:visible;enable-background:accumulate" />
  <path
     d="M 46.21,23.8 C 46.21,36.09 36.24,46.06 23.95,46.06 C 11.66,46.06 1.7,36.09 1.7,23.8 C 1.7,11.51 11.66,1.55 23.95,1.55 C 36.24,1.55 46.21,11.51 46.21,23.8 z"
     id="p2393"
     style="fill:none;fill-opacity:0.81000001;fill-rule:evenodd;stroke:#000000;stroke-width:1.99000001;stroke-linecap:round;stroke-linejoin:round;marker:none;stroke-miterlimit:4;stroke-dasharray:none;stroke-dashoffset:0;stroke-opacity:1;visibility:visible;display:inline;overflow:visible;enable-background:accumulate" />
  <path
     d="M 20.03125,4 C 19.617938,4.0448616 19.306606,4.3968026 19.3125,4.8125 L 19.3125,20.125 C 19.310691,20.341038 19.395712,20.548753 19.54848,20.70152 C 19.701247,20.854288 19.908962,20.939309 20.125,20.9375 L 23.28125,20.9375 C 23.497288,20.939309 23.705003,20.854288 23.85777,20.70152 C 24.010538,20.548753 24.095559,20.341038 24.09375,20.125 L 24.09375,14 L 28.53125,14 L 28.53125,20.125 C 28.529441,20.341038 28.614462,20.548753 28.76723,20.70152 C 28.919997,20.854288 29.127712,20.939309 29.34375,20.9375 L 32.5,20.9375 C 32.716038,20.939309 32.923753,20.854288 33.07652,20.70152 C 33.229288,20.548753 33.314309,20.341038 33.3125,20.125 L 33.3125,4.8125 C 33.314309,4.5964621 33.229288,4.3887468 33.07652,4.2359796 C 32.923753,4.0832124 32.716038,3.998191 32.5,4 L 29.3125,4 C 29.096462,3.998191 28.888747,4.0832124 28.73598,4.2359796 C 28.583212,4.3887468 28.498191,4.5964621 28.5,4.8125 L 28.5,9.75 L 24.09375,9.75 L 24.09375,4.8125 C 24.095559,4.5964621 24.010538,4.3887468 23.85777,4.2359796 C 23.705003,4.0832124 23.497288,3.998191 23.28125,4 L 20.125,4 C 20.093776,3.9981805 20.062474,3.9981805 20.03125,4 z M 35.4375,4 C 35.024188,4.0448616 34.712856,4.3968026 34.71875,4.8125 L 34.71875,20.125 C 34.716941,20.341038 34.801962,20.548753 34.95473,20.70152 C 35.107497,20.854288 35.315212,20.939309 35.53125,20.9375 L 46.96875,20.9375 C 47.184788,20.939309 47.392503,20.854288 47.54527,20.70152 C 47.698038,20.548753 47.783059,20.341038 47.78125,20.125 L 47.78125,17.5 C 47.783059,17.283962 47.698038,17.076247 47.54527,16.92348 C 47.392503,16.770712 47.184788,16.685691 46.96875,16.6875 L 39.5,16.6875 L 39.5,14.34375 L 46,14.34375 C 46.216038,14.345559 46.423753,14.260538 46.57652,14.10777 C 46.729288,13.955003 46.814309,13.747288 46.8125,13.53125 L 46.8125,10.90625 C 46.814309,10.690212 46.729288,10.482497 46.57652,10.32973 C 46.423753,10.176962 46.216038,10.091941 46,10.09375 L 39.5,10.09375 L 39.5,8.25 L 46.59375,8.25 C 46.809788,8.251809 47.017503,8.1667876 47.17027,8.0140204 C 47.323038,7.8612532 47.408059,7.6535379 47.40625,7.4375 L 47.40625,4.8125 C 47.408059,4.5964621 47.323038,4.3887468 47.17027,4.2359796 C 47.017503,4.0832124 46.809788,3.998191 46.59375,4 L 35.53125,4 C 35.500026,3.9981805 35.468724,3.9981805 35.4375,4 z M 49.46875,4 C 49.055438,4.0448616 48.744106,4.3968026 48.75,4.8125 L 48.75,20.125 C 48.748191,20.341038 48.833212,20.548753 48.98598,20.70152 C 49.138747,20.854288 49.346462,20.939309 49.5625,20.9375 L 60.03125,20.9375 C 60.247288,20.939309 60.455003,20.854288 60.60777,20.70152 C 60.760538,20.548753 60.845559,20.341038 60.84375,20.125 L 60.84375,17.5 C 60.845559,17.283962 60.760538,17.076247 60.60777,16.92348 C 60.455003,16.770712 60.247288,16.685691 60.03125,16.6875 L 53.53125,16.6875 L 53.53125,4.8125 C 53.533059,4.5964621 53.448038,4.3887468 53.29527,4.2359796 C 53.142503,4.0832124 52.934788,3.998191 52.71875,4 L 49.5625,4 C 49.531276,3.9981805 49.499974,3.9981805 49.46875,4 z M 62.21875,4 C 61.805438,4.0448616 61.494106,4.3968026 61.5,4.8125 L 61.5,20.125 C 61.498191,20.341038 61.583212,20.548753 61.73598,20.70152 C 61.888747,20.854288 62.096462,20.939309 62.3125,20.9375 L 65.4375,20.9375 C 65.653538,20.939309 65.861253,20.854288 66.01402,20.70152 C 66.166788,20.548753 66.251809,20.341038 66.25,20.125 L 66.25,15.46875 L 69.375,15.46875 C 70.970677,15.46875 72.381551,14.870906 73.34375,13.8125 C 74.305949,12.754094 74.8125,11.271936 74.8125,9.5625 C 74.812501,7.8776089 74.301215,6.4507112 73.28125,5.46875 C 72.261285,4.4867888 70.799093,4 69.0625,4 L 62.3125,4 C 62.281276,3.9981805 62.249974,3.9981805 62.21875,4 L 62.21875,4 z M 66.25,8.25 L 68.375,8.25 C 69.095996,8.2500001 69.481748,8.4011042 69.6875,8.59375 C 69.893252,8.7863958 70.03125,9.0981023 70.03125,9.75 C 70.031249,10.389585 69.89214,10.686002 69.6875,10.875 C 69.48286,11.063998 69.097638,11.21875 68.375,11.21875 L 66.25,11.21875 L 66.25,8.25 z"
     transform="matrix(0.5113775,0,0,1.7533963,0.4668349,1.8974305)"
     id="path3274"
     style="font-size:20.98081017px;font-style:normal;font-variant:normal;font-weight:bold;font-stretch:normal;opacity:1;fill:#000000;fill-opacity:1;fill-rule:evenodd;stroke:#ffffff;stroke-width:1.05606139;stroke-linecap:round;stroke-linejoin:round;marker:none;marker-start:none;marker-mid:none;marker-end:none;stroke-miterlimit:4;stroke-dasharray:none;stroke-dashoffset:0;stroke-opacity:1;visibility:visible;display:inline;overflow:visible;enable-background:accumulate;font-family:Nimbus Sans L;-inkscape-font-specification:Nimbus Sans L Bold" />
</svg>
