<?xml version="1.0" encoding="UTF-8" standalone="no"?>
<!DOCTYPE svg PUBLIC "-//W3C//DTD SVG 1.0//EN" "http://www.w3.org/TR/2001/REC-SVG-20010904/DTD/svg10.dtd">
<svg xmlns:svg="http://www.w3.org/2000/svg" xmlns="http://www.w3.org/2000/svg" xmlns:xlink="http://www.w3.org/1999/xlink" version="1.0" width="100%" height="100%" viewBox="0 0 48 48" id="svg2383">
<defs id="defs2385"/>
<path d="M 46.21,23.8 C 46.21,36.09 36.24,46.06 23.95,46.06 C 11.66,46.06 1.7,36.09 1.7,23.8 C 1.7,11.51 11.66,1.55 23.95,1.55 C 36.24,1.55 46.21,11.51 46.21,23.8 z" id="p3187" style="fill:#ffffff;fill-opacity:0.75;fill-rule:evenodd;stroke:none;marker:none;visibility:visible;display:inline;overflow:visible;enable-background:accumulate"/>
<path d="M 46.21,23.8 C 46.21,36.09 36.24,46.06 23.95,46.06 C 11.66,46.06 1.7,36.09 1.7,23.8 C 1.7,11.51 11.66,1.55 23.95,1.55 C 36.24,1.55 46.21,11.51 46.21,23.8 z" id="p2393" style="fill:none;fill-opacity:0.81;fill-rule:evenodd;stroke:#000000;stroke-width:1.99;stroke-linecap:round;stroke-linejoin:round;marker:none;stroke-miterlimit:4;stroke-dasharray:none;stroke-dashoffset:0;stroke-opacity:1;visibility:visible;display:inline;overflow:visible;enable-background:accumulate"/>
<path d="M 23.53,10.5 C 17.15,10.5 11.98,15.12 10.75,21.15 L 5.96,21.15 C 5.29,21.14 4.70,21.60 4.53,22.25 C 4.36,22.90 4.66,23.58 5.25,23.90 L 12.59,28.15 C 13.04,28.41 13.60,28.41 14.06,28.15 L 21.37,23.90 C 21.97,23.58 22.26,22.88 22.08,22.23 C 21.90,21.58 21.30,21.13 20.62,21.15 L 16.71,21.15 C 17.76,18.37 20.35,16.37 23.53,16.37 C 25.57,16.37 27.37,17.18 28.71,18.53 L 28.75,18.5 C 29.48,19.31 30.56,19.67 31.59,19.43 C 32.67,19.18 33.53,18.32 33.78,17.25 C 34.01,16.22 33.65,15.13 32.84,14.40 L 32.87,14.37 C 32.84,14.34 32.78,14.34 32.75,14.31 C 30.36,11.97 27.11,10.5 23.53,10.5 z M 33.59,18.87 C 33.38,18.89 33.18,18.95 33,19.06 L 25.65,23.28 C 25.06,23.60 24.77,24.28 24.94,24.93 C 25.11,25.58 25.70,26.03 26.37,26.03 L 30.34,26.03 C 29.37,28.95 26.79,31.09 23.53,31.09 C 21.48,31.09 19.64,30.27 18.31,28.93 L 18.28,28.96 C 17.57,28.18 16.48,27.79 15.46,28.03 C 14.40,28.27 13.50,29.09 13.25,30.21 C 13.01,31.24 13.37,32.33 14.18,33.06 L 14.15,33.09 C 14.18,33.12 14.24,33.12 14.28,33.15 C 16.67,35.49 19.94,36.96 23.53,36.96 C 29.99,36.96 35.20,32.17 36.34,26.03 L 41.03,26.03 C 41.70,26.03 42.29,25.58 42.46,24.93 C 42.63,24.28 42.33,23.60 41.75,23.28 L 34.43,19.06 C 34.18,18.91 33.88,18.85 33.59,18.87 z" id="p3209" style="fill:#000000;fill-opacity:1;fill-rule:evenodd;stroke:#ffffff;stroke-width:2;stroke-linecap:round;stroke-linejoin:round;marker:none;stroke-miterlimit:4;stroke-dashoffset:0;stroke-opacity:1;visibility:visible;display:inline;overflow:visible;enable-background:accumulate"/>
<path d="M 4.25,0.25 C 2.03,0.25 0.25,2.03 0.25,4.25 L 0.25,6.96 L 17.12,23.87 L 0.25,40.75 L 0.25,43.75 C 0.25,45.96 2.03,47.75 4.25,47.75 L 8.40,47.75 L 24.71,31.43 L 41.03,47.75 L 43.75,47.75 C 45.96,47.75 47.75,45.96 47.75,43.75 L 47.75,39.37 L 32.25,23.87 L 47.75,8.40 L 47.75,4.25 C 47.75,2.03 45.96,0.25 43.75,0.25 L 40.75,0.25 L 24.68,16.31 L 8.62,0.25 L 4.25,0.25 z" id="r2394" style="fill:#b62929;fill-opacity:1;fill-rule:evenodd;stroke:#ffffff;stroke-width:1;stroke-linecap:round;stroke-linejoin:round;marker:none;stroke-miterlimit:4;stroke-dasharray:none;stroke-dashoffset:0;stroke-opacity:1;visibility:visible;display:inline;overflow:visible;enable-background:accumulate"/>
</svg>
