<?xml version="1.0" encoding="UTF-8" standalone="no"?>
<!DOCTYPE svg PUBLIC "-//W3C//DTD SVG 1.0//EN" "http://www.w3.org/TR/2001/REC-SVG-20010904/DTD/svg10.dtd">
<svg xmlns:svg="http://www.w3.org/2000/svg" xmlns="http://www.w3.org/2000/svg" xmlns:xlink="http://www.w3.org/1999/xlink" version="1.0" width="100%" height="100%" viewBox="0 0 48 48" id="svg2383">
<defs id="defs2385"/>
<path d="M 46.21,23.80 C 46.21,36.09 36.24,46.06 23.95,46.06 C 11.66,46.06 1.70,36.09 1.70,23.80 C 1.70,11.51 11.66,1.55 23.95,1.55 C 36.24,1.55 46.21,11.51 46.21,23.80 z" id="p3165" style="fill:#fcfcfc;fill-opacity:0.75;fill-rule:evenodd;stroke:none;marker:none;visibility:visible;display:inline;overflow:visible;enable-background:accumulate"/>
<path d="M 46.21,23.80 C 46.21,36.09 36.24,46.06 23.95,46.06 C 11.66,46.06 1.70,36.09 1.70,23.80 C 1.70,11.51 11.66,1.55 23.95,1.55 C 36.24,1.55 46.21,11.51 46.21,23.80 z" id="p2393" style="fill:none;fill-opacity:0.82;fill-rule:evenodd;stroke:#000000;stroke-width:1.99;stroke-linecap:round;stroke-linejoin:round;marker:none;stroke-miterlimit:4;stroke-dasharray:none;stroke-dashoffset:0;stroke-opacity:1;visibility:visible;display:inline;overflow:visible;enable-background:accumulate"/>
<path d="M 32.88,9.46 C 31.15,9.47 29.41,10.1 28.01,11.27 C 27.21,11.94 26.64,12.77 26.19,13.64 C 25.16,13.09 23.96,13.1 23.1,13.99 C 22.1,15.03 22.25,16.55 23.1,17.52 L 23.07,17.55 C 20.97,19.31 15.6,23.78 14.01,25.11 C 12.46,26.41 12.05,28.16 12.07,29.24 C 12.07,29.26 12.07,29.25 12.07,29.27 C 11.33,29.88 10.54,30.58 10.54,30.58 L 10.01,31.02 C 9.24,31.66 9.13,32.8 9.76,33.58 L 10.19,34.11 C 10.2,34.13 10.21,34.16 10.23,34.18 L 10.41,34.39 L 10.48,34.46 L 11.76,36.05 C 11.8,36.11 11.84,36.16 11.88,36.21 L 12.16,36.49 L 12.19,36.46 L 12.51,36.86 C 12.82,37.25 13.28,37.49 13.77,37.53 C 14.27,37.57 14.76,37.41 15.13,37.08 L 15.63,36.64 C 15.63,36.64 16.45,35.99 17.16,35.39 C 17.19,35.4 17.17,35.39 17.19,35.39 C 18.29,35.61 20.06,35.47 21.6,34.18 C 23.19,32.85 28.5,28.4 30.63,26.61 L 30.82,26.83 C 31.43,27.58 32.34,27.9 33.29,27.74 C 34.19,27.58 34.98,26.9 35.29,26.05 C 35.48,25.51 35.42,24.91 35.23,24.33 C 36.15,24.03 37.07,23.61 37.85,22.96 C 41.06,20.27 41.48,15.42 38.79,12.21 C 37.27,10.4 35.09,9.44 32.88,9.46 z M 26.29,21.43 L 27.41,22.77 C 26.59,23.46 25.75,24.18 24.44,25.27 L 21.69,25.27 C 23.65,23.63 25.23,22.31 26.29,21.43 z" id="p3314" style="fill:#000000;fill-opacity:1;fill-rule:evenodd;stroke:#ffffff;stroke-width:2;stroke-linecap:round;stroke-linejoin:round;marker:none;stroke-miterlimit:4;stroke-dasharray:none;stroke-dashoffset:0;stroke-opacity:1;visibility:visible;display:inline;overflow:visible;enable-background:accumulate"/>
</svg>
