<?xml version="1.0" encoding="UTF-8" standalone="no"?>
<!DOCTYPE svg PUBLIC "-//W3C//DTD SVG 1.0//EN" "http://www.w3.org/TR/2001/REC-SVG-20010904/DTD/svg10.dtd">
<svg xmlns:svg="http://www.w3.org/2000/svg" xmlns="http://www.w3.org/2000/svg" xmlns:xlink="http://www.w3.org/1999/xlink" version="1.0" width="100%" height="100%" viewBox="0 0 48 48" id="svg2383">
<defs id="defs2385"/>
<path d="M 46.21,23.80 C 46.21,36.09 36.24,46.06 23.95,46.06 C 11.66,46.06 1.70,36.09 1.70,23.80 C 1.70,11.51 11.66,1.55 23.95,1.55 C 36.24,1.55 46.21,11.51 46.21,23.80 z" id="p3165" style="fill:#fcfcfc;fill-opacity:0.75;fill-rule:evenodd;stroke:none;marker:none;visibility:visible;display:inline;overflow:visible;enable-background:accumulate"/>
<path d="M 46.21,23.80 C 46.21,36.09 36.24,46.06 23.95,46.06 C 11.66,46.06 1.70,36.09 1.70,23.80 C 1.70,11.51 11.66,1.55 23.95,1.55 C 36.24,1.55 46.21,11.51 46.21,23.80 z" id="p2393" style="fill:none;fill-opacity:0.82;fill-rule:evenodd;stroke:#000000;stroke-width:1.99;stroke-linecap:round;stroke-linejoin:round;marker:none;stroke-miterlimit:4;stroke-dasharray:none;stroke-dashoffset:0;stroke-opacity:1;visibility:visible;display:inline;overflow:visible;enable-background:accumulate"/>
<path d="M 14.06,8.74 C 13.1,8.84 12.37,9.71 12.37,10.75 L 12.37,16.25 C 12.37,16.78 12.57,17.29 12.92,17.67 C 13.27,18.05 13.74,18.26 14.24,18.26 L 21.75,18.26 L 11.59,29.73 C 11.26,30.11 11.08,30.61 11.08,31.13 L 11.08,36.46 C 11.08,37 11.28,37.51 11.63,37.89 C 11.98,38.27 12.45,38.48 12.95,38.48 L 35.48,38.48 C 35.97,38.48 36.45,38.27 36.8,37.89 C 37.15,37.51 37.34,37 37.34,36.46 L 37.34,30.94 C 37.34,30.4 37.15,29.89 36.8,29.51 C 36.45,29.13 35.97,28.92 35.48,28.92 L 26.05,28.92 L 36.35,17.29 C 36.68,16.91 36.87,16.41 36.86,15.89 L 36.86,10.75 C 36.86,10.22 36.67,9.7 36.32,9.33 C 35.97,8.95 35.49,8.74 35,8.74 L 14.24,8.74 C 14.18,8.73 14.12,8.73 14.06,8.74 z" id="p3389" style="fill:#000000;fill-opacity:1;stroke:#ffffff;stroke-width:2;stroke-linecap:butt;stroke-linejoin:miter;stroke-miterlimit:4;stroke-dasharray:none;stroke-opacity:1"/>
<path d="M 4.25,0.25 C 2.03,0.25 0.25,2.03 0.25,4.25 L 0.25,6.96 L 17.12,23.87 L 0.25,40.75 L 0.25,43.75 C 0.25,45.96 2.03,47.75 4.25,47.75 L 8.40,47.75 L 24.71,31.43 L 41.03,47.75 L 43.75,47.75 C 45.96,47.75 47.75,45.96 47.75,43.75 L 47.75,39.37 L 32.25,23.87 L 47.75,8.40 L 47.75,4.25 C 47.75,2.03 45.96,0.25 43.75,0.25 L 40.75,0.25 L 24.68,16.31 L 8.62,0.25 L 4.25,0.25 z" id="r2394" style="fill:#b62929;fill-opacity:1;fill-rule:evenodd;stroke:#ffffff;stroke-width:1;stroke-linecap:round;stroke-linejoin:round;marker:none;stroke-miterlimit:4;stroke-dasharray:none;stroke-dashoffset:0;stroke-opacity:1;visibility:visible;display:inline;overflow:visible;enable-background:accumulate"/>
</svg>
