<?xml version="1.0" encoding="UTF-8" standalone="no"?>
<!DOCTYPE svg PUBLIC "-//W3C//DTD SVG 1.0//EN" "http://www.w3.org/TR/2001/REC-SVG-20010904/DTD/svg10.dtd">
<svg xmlns:svg="http://www.w3.org/2000/svg" xmlns="http://www.w3.org/2000/svg" xmlns:xlink="http://www.w3.org/1999/xlink" version="1.0" width="100%" height="100%" viewBox="0 0 48 48" id="svg2383">
<defs id="defs2385"/>
<path d="M 46.21,23.80 C 46.21,36.09 36.24,46.06 23.95,46.06 C 11.66,46.06 1.70,36.09 1.70,23.80 C 1.70,11.51 11.66,1.55 23.95,1.55 C 36.24,1.55 46.21,11.51 46.21,23.80 z" id="p3165" style="fill:#fcfcfc;fill-opacity:0.75;fill-rule:evenodd;stroke:none;marker:none;visibility:visible;display:inline;overflow:visible;enable-background:accumulate"/>
<path d="M 46.21,23.80 C 46.21,36.09 36.24,46.06 23.95,46.06 C 11.66,46.06 1.70,36.09 1.70,23.80 C 1.70,11.51 11.66,1.55 23.95,1.55 C 36.24,1.55 46.21,11.51 46.21,23.80 z" id="p2393" style="fill:none;fill-opacity:0.82;fill-rule:evenodd;stroke:#000000;stroke-width:1.99;stroke-linecap:round;stroke-linejoin:round;marker:none;stroke-miterlimit:4;stroke-dasharray:none;stroke-dashoffset:0;stroke-opacity:1;visibility:visible;display:inline;overflow:visible;enable-background:accumulate"/>
<path d="M 35.32,8.39 C 34.74,8.48 34.21,8.79 33.82,9.27 L 33.42,9.71 L 33.45,9.74 C 33.35,9.84 33.30,9.97 33.23,10.08 L 24.17,12.36 C 24.15,12.36 24.15,12.39 24.13,12.39 L 23.95,12.42 L 23.95,12.46 C 23.45,12.55 23.07,12.87 22.82,13.27 L 22.79,13.24 L 12.04,26.05 L 8.92,29.80 C 8.57,30.19 8.46,30.73 8.51,31.17 C 8.51,31.18 8.51,31.19 8.51,31.21 L 9.20,36.24 C 9.25,36.66 9.44,37.13 9.85,37.46 L 13.92,40.80 C 14.24,41.09 14.68,41.29 15.20,41.27 L 20.26,41.05 C 20.80,41.04 21.26,40.78 21.60,40.39 C 21.60,40.38 21.60,40.37 21.60,40.36 L 24.70,36.67 L 35.42,23.89 L 35.42,23.86 L 35.54,23.74 L 35.51,23.71 C 35.62,23.55 35.71,23.44 35.73,23.36 C 35.82,23.25 35.97,23.10 36.01,22.64 L 36.95,13.02 C 37.00,12.96 37.06,12.89 37.10,12.83 L 37.13,12.86 L 37.20,12.77 L 37.54,12.39 C 38.03,11.83 38.16,11.10 38.07,10.46 C 37.99,9.83 37.65,9.18 37.04,8.77 C 36.51,8.41 35.86,8.31 35.32,8.39 z M 33.29,13.77 L 33.04,16.24 C 33.03,16.24 33.02,16.24 33.01,16.24 L 30.85,14.46 C 30.86,14.47 30.82,14.42 30.79,14.39 L 33.29,13.77 z M 17.92,28.92 L 20.88,31.39 L 21.35,34.89 L 19.29,37.33 L 15.70,37.49 L 12.76,35.02 L 12.29,31.55 L 14.35,29.05 L 17.92,28.92 z M 16.07,30.17 C 15.22,30.08 14.24,30.28 13.60,31.05 C 12.98,31.79 12.92,32.78 13.17,33.61 C 13.41,34.44 13.96,35.18 14.70,35.80 C 15.43,36.41 16.25,36.79 17.10,36.89 C 17.96,36.99 18.92,36.76 19.54,36.02 C 20.16,35.28 20.21,34.32 19.98,33.49 C 19.74,32.66 19.22,31.89 18.48,31.27 C 17.76,30.67 16.96,30.27 16.07,30.17 z" id="p3209" style="fill:#000000;fill-opacity:1;fill-rule:evenodd;stroke:#ffffff;stroke-width:2;stroke-linecap:round;stroke-linejoin:round;marker:none;stroke-miterlimit:4;stroke-dashoffset:0;stroke-opacity:1;visibility:visible;display:inline;overflow:visible;enable-background:accumulate"/>
</svg>
