<?xml version="1.0" encoding="UTF-8" standalone="no"?>
<!DOCTYPE svg PUBLIC "-//W3C//DTD SVG 1.0//EN" "http://www.w3.org/TR/2001/REC-SVG-20010904/DTD/svg10.dtd">
<svg xmlns:svg="http://www.w3.org/2000/svg" xmlns="http://www.w3.org/2000/svg" xmlns:xlink="http://www.w3.org/1999/xlink" version="1.0" width="100%" height="100%" viewBox="0 0 48 48" id="svg2383">
<defs id="defs2385"/>
<path d="M 46.21,23.8 C 46.21,36.09 36.24,46.06 23.95,46.06 C 11.66,46.06 1.7,36.09 1.7,23.8 C 1.7,11.51 11.66,1.55 23.95,1.55 C 36.24,1.55 46.21,11.51 46.21,23.8 z" id="p3165" style="fill:#000000;fill-opacity:0.75;fill-rule:evenodd;stroke:none;marker:none;visibility:visible;display:inline;overflow:visible;enable-background:accumulate"/>
<path d="M 46.21,23.8 C 46.21,36.09 36.24,46.06 23.95,46.06 C 11.66,46.06 1.7,36.09 1.7,23.8 C 1.7,11.51 11.66,1.55 23.95,1.55 C 36.24,1.55 46.21,11.51 46.21,23.8 z" id="p2393" style="fill:none;fill-opacity:0.81;fill-rule:evenodd;stroke:#000000;stroke-width:1.99;stroke-linecap:round;stroke-linejoin:round;marker:none;stroke-miterlimit:4;stroke-dasharray:none;stroke-dashoffset:0;stroke-opacity:1;visibility:visible;display:inline;overflow:visible;enable-background:accumulate"/>
<path d="M 23.90,40.19 C 22.86,40.16 21.87,39.75 21.12,39.03 L 8.90,27.37 C 7.78,26.35 7.31,24.80 7.65,23.32 C 8.00,21.85 9.12,20.67 10.57,20.25 C 12.03,19.82 13.60,20.22 14.68,21.28 L 24.03,30.15 L 33.21,21.31 C 34.26,20.13 35.88,19.64 37.41,20.04 C 38.94,20.44 40.11,21.66 40.45,23.20 C 40.79,24.74 40.24,26.34 39.03,27.34 L 26.93,39.00 C 26.12,39.79 25.03,40.21 23.90,40.19 L 23.90,40.19 z" id="p3181" style="opacity:1;fill:#ffffff;fill-opacity:1;fill-rule:evenodd;stroke:#000000;stroke-width:2.64;stroke-linecap:round;stroke-linejoin:round;marker:none;stroke-miterlimit:4;stroke-dasharray:none;stroke-dashoffset:0;stroke-opacity:1;visibility:visible;display:inline;overflow:visible;enable-background:accumulate"/>
</svg>
