<?xml version="1.0" encoding="UTF-8" standalone="no"?>
<!-- Created with Inkscape (http://www.inkscape.org/) -->
<svg
   xmlns:svg="http://www.w3.org/2000/svg"
   xmlns="http://www.w3.org/2000/svg"
   version="1.0"
   width="100%"
   height="100%"
   viewBox="0 0 48 48"
   id="svg2383">
  <defs
     id="defs2385" />
  <path
     d="M 46.21,23.8 C 46.21,36.09 36.24,46.06 23.95,46.06 C 11.66,46.06 1.7,36.09 1.7,23.8 C 1.7,11.51 11.66,1.55 23.95,1.55 C 36.24,1.55 46.21,11.51 46.21,23.8 z"
     id="p3187"
     style="fill:#ffffff;fill-opacity:0.75;fill-rule:evenodd;stroke:none;marker:none;visibility:visible;display:inline;overflow:visible;enable-background:accumulate" />
  <path
     d="M 46.21,23.8 C 46.21,36.09 36.24,46.06 23.95,46.06 C 11.66,46.06 1.7,36.09 1.7,23.8 C 1.7,11.51 11.66,1.55 23.95,1.55 C 36.24,1.55 46.21,11.51 46.21,23.8 z"
     id="p2393"
     style="fill:none;fill-opacity:0.81000001;fill-rule:evenodd;stroke:#000000;stroke-width:1.99000001;stroke-linecap:round;stroke-linejoin:round;marker:none;stroke-miterlimit:4;stroke-dasharray:none;stroke-dashoffset:0;stroke-opacity:1;visibility:visible;display:inline;overflow:visible;enable-background:accumulate" />
  <path
     d="M 28.625,7.84375 L 28.625,12.53125 L 23.8125,8.34375 L 6.78125,23.09375 L 11.78125,23.09375 L 11.78125,34.8125 L 35.59375,34.8125 L 35.59375,23.09375 L 40.8125,23.09375 L 35.4375,18.4375 L 35.4375,7.84375 L 28.625,7.84375 z M 25.4375,22.65625 L 30.755662,22.65625 L 30.755662,31.82557 L 25.4375,31.82557 L 25.4375,22.65625 z M 15.65625,22.875 L 21.449559,22.875 L 21.449559,29.024486 L 15.65625,29.024486 L 15.65625,22.875 z"
     id="path3231"
     style="fill:#000000;fill-opacity:1;fill-rule:evenodd;stroke:none;stroke-width:1px;stroke-linecap:butt;stroke-linejoin:miter;stroke-opacity:1" />
  <path
     d="M 28.625,7.84375 L 28.625,12.53125 L 23.8125,8.34375 L 6.78125,23.09375 L 11.78125,23.09375 L 11.78125,34.8125 L 35.59375,34.8125 L 35.59375,23.09375 L 40.8125,23.09375 L 35.4375,18.4375 L 35.4375,7.84375 L 28.625,7.84375 z"
     id="path3246"
     style="opacity:1;fill:none;fill-opacity:1;fill-rule:evenodd;stroke:#ffffff;stroke-width:1;stroke-linecap:round;stroke-linejoin:round;marker:none;marker-start:none;marker-mid:none;marker-end:none;stroke-miterlimit:4;stroke-dasharray:none;stroke-dashoffset:0;stroke-opacity:1;visibility:visible;display:inline;overflow:visible;enable-background:accumulate" />
</svg>
