<?xml version="1.0" encoding="UTF-8" standalone="no"?>
<!DOCTYPE svg PUBLIC "-//W3C//DTD SVG 1.0//EN" "http://www.w3.org/TR/2001/REC-SVG-20010904/DTD/svg10.dtd">
<svg xmlns:svg="http://www.w3.org/2000/svg" xmlns="http://www.w3.org/2000/svg" xmlns:xlink="http://www.w3.org/1999/xlink" version="1.0" width="100%" height="100%" viewBox="0 0 48 48" id="svg2383">
<defs id="defs2385"/>
<path d="M 46.21,23.8 C 46.21,36.09 36.24,46.06 23.95,46.06 C 11.66,46.06 1.7,36.09 1.7,23.8 C 1.7,11.51 11.66,1.55 23.95,1.55 C 36.24,1.55 46.21,11.51 46.21,23.8 z" id="p3165" style="fill:#ffffff;fill-opacity:0.75;fill-rule:evenodd;stroke:none;marker:none;visibility:visible;display:inline;overflow:visible;enable-background:accumulate"/>
<path d="M 46.21,23.8 C 46.21,36.09 36.24,46.06 23.95,46.06 C 11.66,46.06 1.7,36.09 1.7,23.8 C 1.7,11.51 11.66,1.55 23.95,1.55 C 36.24,1.55 46.21,11.51 46.21,23.8 z" id="p2393" style="fill:none;fill-opacity:0.81;fill-rule:evenodd;stroke:#000000;stroke-width:1.99;stroke-linecap:round;stroke-linejoin:round;marker:none;stroke-miterlimit:4;stroke-dasharray:none;stroke-dashoffset:0;stroke-opacity:1;visibility:visible;display:inline;overflow:visible;enable-background:accumulate"/>
<path d="M 23.90,8.54 C 22.86,8.57 21.87,8.98 21.12,9.70 L 8.90,21.35 C 7.78,22.38 7.31,23.93 7.65,25.41 C 8.00,26.88 9.12,28.06 10.57,28.48 C 12.03,28.90 13.60,28.51 14.68,27.45 L 24.03,18.57 L 33.21,27.42 C 34.26,28.60 35.88,29.09 37.41,28.69 C 38.94,28.29 40.11,27.07 40.45,25.53 C 40.79,23.99 40.24,22.39 39.03,21.39 L 26.93,9.73 C 26.12,8.94 25.03,8.51 23.90,8.54 L 23.90,8.54 z" id="p3181" style="opacity:1;fill:#000000;fill-opacity:1;fill-rule:evenodd;stroke:#ffffff;stroke-width:2.64;stroke-linecap:round;stroke-linejoin:round;marker:none;stroke-miterlimit:4;stroke-dasharray:none;stroke-dashoffset:0;stroke-opacity:1;visibility:visible;display:inline;overflow:visible;enable-background:accumulate"/>
</svg>
