<?xml version="1.0" encoding="UTF-8" standalone="no"?>
<!DOCTYPE svg PUBLIC "-//W3C//DTD SVG 1.0//EN" "http://www.w3.org/TR/2001/REC-SVG-20010904/DTD/svg10.dtd">
<svg xmlns:svg="http://www.w3.org/2000/svg" xmlns="http://www.w3.org/2000/svg" xmlns:xlink="http://www.w3.org/1999/xlink" version="1.0" width="100%" height="100%" viewBox="0 0 48 48" id="svg2383">
<defs id="defs2385"/>
<path d="M 23.93,1.56 C 19.91,1.56 16.16,2.63 12.90,4.5 L 12.90,13.09 L 24.21,13.09 L 24.21,1.75 L 26.90,1.75 C 25.93,1.62 24.94,1.56 23.93,1.56 z M 24.21,13.09 L 24.21,24.43 L 35.56,24.43 L 35.56,13.09 L 24.21,13.09 z M 35.56,13.09 L 43.46,13.09 C 41.59,9.68 38.86,6.83 35.56,4.81 L 35.56,13.09 z M 35.56,24.43 L 35.56,35.78 L 42.71,35.78 C 44.82,32.49 46.07,28.60 46.18,24.43 L 35.56,24.43 z M 35.56,35.78 L 24.21,35.78 L 24.21,46.06 C 28.36,46.01 32.25,44.83 35.56,42.81 L 35.56,35.78 z M 24.21,35.78 L 24.21,24.43 L 12.90,24.43 L 12.90,35.78 L 24.21,35.78 z M 12.90,35.78 L 5.18,35.78 C 7.12,38.80 9.78,41.33 12.90,43.12 L 12.90,35.78 z M 12.90,24.43 L 12.90,13.09 L 4.43,13.09 C 2.69,16.26 1.68,19.93 1.68,23.81 C 1.68,24.02 1.71,24.22 1.71,24.43 L 12.90,24.43 z M 1.71,24.43 C 1.73,24.96 1.76,25.48 1.81,26 C 1.76,25.48 1.73,24.95 1.71,24.43 z M 4.43,13.09 C 4.68,12.64 4.94,12.21 5.21,11.78 C 4.94,12.20 4.68,12.64 4.43,13.09 z M 12.90,4.5 C 12.02,5.00 11.17,5.56 10.37,6.18 C 11.18,5.56 12.01,5.00 12.90,4.5 z M 10.37,6.18 C 10.02,6.46 9.67,6.73 9.34,7.03 C 9.67,6.74 10.02,6.45 10.37,6.18 z M 8.90,7.43 C 8.62,7.69 8.35,7.94 8.09,8.21 C 8.35,7.95 8.62,7.69 8.90,7.43 z M 8.09,8.21 C 7.73,8.57 7.39,8.95 7.06,9.34 C 7.39,8.95 7.73,8.58 8.09,8.21 z M 44.21,14.62 C 44.36,14.93 44.49,15.24 44.62,15.56 C 44.49,15.24 44.35,14.93 44.21,14.62 z M 45.09,16.84 C 45.19,17.13 45.28,17.44 45.37,17.75 C 45.28,17.44 45.19,17.14 45.09,16.84 z M 45.87,19.87 C 45.93,20.21 45.98,20.53 46.03,20.87 C 45.98,20.54 45.93,20.20 45.87,19.87 z M 2.40,29.37 C 2.50,29.74 2.60,30.07 2.71,30.43 C 2.60,30.08 2.49,29.73 2.40,29.37 z" id="p3172" style="opacity:1;fill:#ffffff;fill-opacity:0.75;fill-rule:evenodd;stroke:none;marker:none;visibility:visible;display:inline;overflow:visible;enable-background:accumulate"/>
<path d="M 46.21,23.8 C 46.21,36.09 36.24,46.06 23.95,46.06 C 11.66,46.06 1.7,36.09 1.7,23.8 C 1.7,11.51 11.66,1.55 23.95,1.55 C 36.24,1.55 46.21,11.51 46.21,23.8 z" id="p2393" style="fill:none;fill-opacity:0.81;fill-rule:evenodd;stroke:#000000;stroke-width:1.99;stroke-linecap:round;stroke-linejoin:round;marker:none;stroke-miterlimit:4;stroke-dasharray:none;stroke-dashoffset:0;stroke-opacity:1;visibility:visible;display:inline;overflow:visible;enable-background:accumulate"/>
<path d="M 24.21,1.75 L 24.21,13.09 L 35.56,13.09 L 35.56,4.81 C 32.98,3.23 30.03,2.16 26.90,1.75 L 24.21,1.75 z M 35.56,13.09 L 35.56,24.43 L 46.18,24.43 C 46.19,24.22 46.21,24.02 46.21,23.81 C 46.21,19.93 45.21,16.26 43.46,13.09 L 35.56,13.09 z M 35.56,24.43 L 24.21,24.43 L 24.21,35.78 L 35.56,35.78 L 35.56,24.43 z M 35.56,35.78 L 35.56,42.81 C 38.44,41.04 40.89,38.63 42.71,35.78 L 35.56,35.78 z M 24.21,35.78 L 12.90,35.78 L 12.90,43.12 C 16.16,44.99 19.91,46.06 23.93,46.06 C 24.03,46.06 24.12,46.06 24.21,46.06 L 24.21,35.78 z M 12.90,35.78 L 12.90,24.43 L 1.71,24.43 C 1.83,28.60 3.08,32.49 5.18,35.78 L 12.90,35.78 z M 12.90,24.43 L 24.21,24.43 L 24.21,13.09 L 12.90,13.09 L 12.90,24.43 z M 12.90,13.09 L 12.90,4.5 C 9.35,6.53 6.41,9.50 4.43,13.09 L 12.90,13.09 z" id="r2383" style="opacity:1;fill:#000000;fill-opacity:0.75;fill-rule:evenodd;stroke:none;marker:none;visibility:visible;display:inline;overflow:visible;enable-background:accumulate"/>
</svg>
