<?xml version="1.0" encoding="UTF-8" standalone="no"?>
<!DOCTYPE svg PUBLIC "-//W3C//DTD SVG 1.0//EN" "http://www.w3.org/TR/2001/REC-SVG-20010904/DTD/svg10.dtd">
<svg xmlns:svg="http://www.w3.org/2000/svg" xmlns="http://www.w3.org/2000/svg" xmlns:xlink="http://www.w3.org/1999/xlink" version="1.0" width="100%" height="100%" viewBox="0 0 48 48" id="svg2383">
<defs id="defs2385">
<linearGradient id="lg3178">
<stop id="s3180" style="stop-color:#ffffff;stop-opacity:1" offset="0"/>
<stop id="s3186" style="stop-color:#ffffff;stop-opacity:1" offset="0.5"/>
<stop id="s3188" style="stop-color:#000000;stop-opacity:1" offset="0.5"/>
<stop id="s3182" style="stop-color:#000000;stop-opacity:1" offset="1"/>
</linearGradient>
<linearGradient id="lg3166">
<stop id="s3168" style="stop-color:#000000;stop-opacity:1" offset="0"/>
<stop id="s3174" style="stop-color:#000000;stop-opacity:1" offset="0.5"/>
<stop id="s3176" style="stop-color:#ffffff;stop-opacity:1" offset="0.5"/>
<stop id="s3170" style="stop-color:#ffffff;stop-opacity:1" offset="1"/>
</linearGradient>
<linearGradient id="lg3154">
<stop id="s3156" style="stop-color:#fcfcfc;stop-opacity:0.74" offset="0"/>
<stop id="s3162" style="stop-color:#ffffff;stop-opacity:0.74" offset="0.5"/>
<stop id="s3164" style="stop-color:#000000;stop-opacity:0.74" offset="0.5"/>
<stop id="s3158" style="stop-color:#000000;stop-opacity:0.74" offset="1"/>
</linearGradient>
<linearGradient x1="2.94" y1="23.74" x2="45.31" y2="23.74" id="lg2403" xlink:href="#lg3166" gradientUnits="userSpaceOnUse"/>
<linearGradient x1="2.94" y1="23.74" x2="45.31" y2="23.74" id="lg2405" xlink:href="#lg3178" gradientUnits="userSpaceOnUse"/>
<linearGradient x1="0.14" y1="23.92" x2="48" y2="23.92" id="lg2409" xlink:href="#lg3154" gradientUnits="userSpaceOnUse" gradientTransform="matrix(0.93,0,0,0.93,1.57,1.56)"/>
</defs>
<path d="M 46.21,23.80 C 46.21,36.09 36.24,46.06 23.95,46.06 C 11.66,46.06 1.70,36.09 1.70,23.80 C 1.70,11.51 11.66,1.55 23.95,1.55 C 36.24,1.55 46.21,11.51 46.21,23.80 z" id="p3165" style="fill:url(#lg2409);fill-opacity:1;fill-rule:evenodd;stroke:none;marker:none;visibility:visible;display:inline;overflow:visible;enable-background:accumulate"/>
<path d="M 46.21,23.80 C 46.21,36.09 36.24,46.06 23.95,46.06 C 11.66,46.06 1.70,36.09 1.70,23.80 C 1.70,11.51 11.66,1.55 23.95,1.55 C 36.24,1.55 46.21,11.51 46.21,23.80 z" id="p2393" style="fill:none;fill-opacity:0.82;fill-rule:evenodd;stroke:#000000;stroke-width:1.99;stroke-linecap:round;stroke-linejoin:round;marker:none;stroke-miterlimit:4;stroke-dasharray:none;stroke-dashoffset:0;stroke-opacity:1;visibility:visible;display:inline;overflow:visible;enable-background:accumulate"/>
<path d="M 24.16,3.56 L 16.78,16.34 L 3.94,23.75 L 16.78,31.15 L 24.16,43.93 L 31.5,31.15 L 44.31,23.75 L 31.5,16.34 L 24.16,3.56 z M 17.06,16.65 L 21.66,16.65 L 21.66,18.71 L 21.66,21.25 L 19.13,21.25 L 17.06,21.25 L 17.06,16.65 z M 26.66,16.65 L 31.25,16.65 L 31.25,21.25 L 29.19,21.25 L 26.66,21.25 L 26.66,18.71 L 26.66,16.65 z M 17.06,26.25 L 19.13,26.25 L 21.66,26.25 L 21.66,28.78 L 21.66,30.84 L 17.06,30.84 L 17.06,26.25 z M 26.66,26.25 L 29.19,26.25 L 31.25,26.25 L 31.25,30.84 L 26.66,30.84 L 26.66,28.78 L 26.66,26.25 z" id="p3414" style="fill:url(#lg2403);fill-opacity:1;fill-rule:evenodd;stroke:url(#lg2405);stroke-width:2;stroke-linecap:butt;stroke-linejoin:round;stroke-miterlimit:4;stroke-dasharray:none;stroke-opacity:1"/>
</svg>
