<?xml version="1.0" encoding="UTF-8" standalone="no"?>
<!-- Created with Inkscape (http://www.inkscape.org/) -->
<svg
   xmlns:dc="http://purl.org/dc/elements/1.1/"
   xmlns:cc="http://creativecommons.org/ns#"
   xmlns:rdf="http://www.w3.org/1999/02/22-rdf-syntax-ns#"
   xmlns:svg="http://www.w3.org/2000/svg"
   xmlns="http://www.w3.org/2000/svg"
   xmlns:sodipodi="http://sodipodi.sourceforge.net/DTD/sodipodi-0.dtd"
   xmlns:inkscape="http://www.inkscape.org/namespaces/inkscape"
   version="1.0"
   width="100%"
   height="100%"
   viewBox="0 0 48 48"
   id="_stabilo01"
   style="display:inline"
   sodipodi:version="0.32"
   inkscape:version="0.46"
   sodipodi:docname="iconline03.svg"
   inkscape:output_extension="org.inkscape.output.svg.inkscape">
  <metadata
     id="metadata183">
    <rdf:RDF>
      <cc:Work
         rdf:about="">
        <dc:format>image/svg+xml</dc:format>
        <dc:type
           rdf:resource="http://purl.org/dc/dcmitype/StillImage" />
      </cc:Work>
    </rdf:RDF>
  </metadata>
  <sodipodi:namedview
     inkscape:window-height="670"
     inkscape:window-width="1242"
     inkscape:pageshadow="2"
     inkscape:pageopacity="0.0"
     guidetolerance="10.0"
     gridtolerance="10.0"
     objecttolerance="10.0"
     borderopacity="1.0"
     bordercolor="#666666"
     pagecolor="#ffffff"
     id="base"
     showgrid="false"
     inkscape:zoom="4.8541667"
     inkscape:cx="31.64019"
     inkscape:cy="23.052914"
     inkscape:window-x="13"
     inkscape:window-y="227"
     inkscape:current-layer="_stabilo01" />
  <defs
     id="defs2385" />
  <path
     d="M 4.25,0.25 C 2.034,0.25 0.25,2.034 0.25,4.25 L 0.25,43.75 C 0.25,45.966 2.034,47.75 4.25,47.75 L 43.75,47.75 C 45.966,47.75 47.75,45.966 47.75,43.75 L 47.75,4.25 C 47.75,2.034 45.966,0.25 43.75,0.25 L 4.25,0.25 z"
     id="r2593"
     style="opacity:1;fill:#fffbfb;fill-opacity:1;fill-rule:evenodd;stroke:none;marker:none;visibility:visible;display:inline;overflow:visible;enable-background:accumulate" />
  <path
     style="opacity:1;fill:#0a0f33;fill-opacity:1;fill-rule:evenodd;stroke:none;stroke-width:13.80000019;stroke-linecap:round;stroke-linejoin:miter;marker:none;stroke-miterlimit:4;stroke-dasharray:none;stroke-dashoffset:0;stroke-opacity:1;visibility:visible;display:inline;overflow:visible;enable-background:accumulate"
     d="M 1.53125 1.3125 C 0.7413271 2.0422741 0.25 3.0848038 0.25 4.25 L 0.25 26.125 L 0.8125 27.59375 C 0.60650447 27.838728 0.42135909 28.104656 0.25 28.375 L 0.25 35.75 C 0.47724962 36.108572 0.7433793 36.442246 1.03125 36.75 L 0.25 39.6875 L 0.25 43.75 C 0.25 45.966 2.034 47.75 4.25 47.75 L 11.8125 47.75 C 12.375218 47.035725 12.81248 46.186479 13.0625 45.25 L 14.3125 40.53125 C 16.991406 41.812587 20.307178 41.2486 22.40625 38.9375 L 23.0625 38.21875 L 25.9375 38.09375 C 28.409619 38.067966 30.667994 36.711939 31.875 34.5625 L 32.34375 35.59375 C 33.255722 37.989085 35.424205 39.692413 37.96875 40 C 40.513298 40.307585 43.012286 39.171536 44.46875 37.0625 C 45.485836 35.589707 45.856756 33.807973 45.59375 32.09375 L 47.75 31.84375 L 47.75 17.9375 L 42.25 18.59375 L 46.4375 12.59375 C 47.955994 10.488509 48.155907 7.7146098 46.96875 5.40625 C 45.781592 3.0978904 43.408218 1.6456105 40.8125 1.65625 C 38.532289 1.6649356 36.403581 2.7994673 35.125 4.6875 L 33.84375 6.53125 C 32.523207 5.2820179 30.735364 4.5848868 28.84375 4.65625 C 26.532264 4.7414181 24.425401 5.9641231 23.21875 7.9375 C 22.0121 9.9108767 21.866167 12.372431 22.84375 14.46875 L 23.875 16.78125 L 19.3125 21.8125 L 21.09375 15.15625 C 21.694015 13.0118 21.207396 10.704621 19.8125 8.96875 C 18.417603 7.2328795 16.285891 6.2816902 14.0625 6.40625 C 11.805647 6.5316167 9.7973387 7.7330108 8.625 9.5625 L 7.15625 5.75 C 6.2522043 3.3129271 4.0706046 1.6233834 1.53125 1.3125 z "
     id="path3430" />
  <rect
     width="47.5"
     height="47.5"
     ry="4"
     x="0.25"
     y="0.25"
     id="r3365"
     style="opacity:1;fill:none;fill-opacity:1;fill-rule:evenodd;stroke:#000000;stroke-width:0.5;stroke-linecap:round;stroke-linejoin:miter;marker:none;stroke-miterlimit:4;stroke-dasharray:none;stroke-dashoffset:0;stroke-opacity:1;visibility:visible;display:inline;overflow:visible;enable-background:accumulate" />
</svg>
