<?xml version="1.0" encoding="UTF-8" standalone="no"?>
<!-- Created with Inkscape (http://www.inkscape.org/) -->
<svg
   xmlns:svg="http://www.w3.org/2000/svg"
   xmlns="http://www.w3.org/2000/svg"
   version="1.0"
   width="100%"
   height="100%"
   viewBox="0 0 48 48"
   id="_stabilo01"
   style="display:inline">
  <defs
     id="defs2385" />
  <path
     d="M 4.25,0.25 C 2.034,0.25 0.25,2.034 0.25,4.25 L 0.25,43.75 C 0.25,45.966 2.034,47.75 4.25,47.75 L 43.75,47.75 C 45.966,47.75 47.75,45.966 47.75,43.75 L 47.75,4.25 C 47.75,2.034 45.966,0.25 43.75,0.25 L 4.25,0.25 z"
     id="r2593"
     style="opacity:1;fill:#fffbfb;fill-opacity:1;fill-rule:evenodd;stroke:none;marker:none;visibility:visible;display:inline;overflow:visible;enable-background:accumulate" />
  <path
     d="M 0.78125,3.0625 C 0.66306234,3.0603706 0.55466733,3.0877651 0.4375,3.09375 C 0.32746419,3.4602922 0.25,3.846688 0.25,4.25 L 0.25,21.15625 L 2.75,27.625 C 1.337992,28.686425 0.45104063,30.382962 0.53125,32.28125 C 0.60810604,34.100176 1.5421704,35.670612 2.9375,36.625 L 1.46875,42.15625 C 0.89097316,43.949861 1.3450326,45.927892 2.65625,47.28125 C 2.7330991,47.360569 2.8252318,47.426505 2.90625,47.5 C 3.3269917,47.649614 3.7766624,47.75 4.25,47.75 L 9.4375,47.75 C 10.384468,47.02213 11.056451,45.985089 11.3125,44.78125 L 13.25,37.5 C 13.980284,38.431075 15.023323,39.093874 16.21875,39.34375 C 18.023463,39.720984 19.880973,39.107444 21.09375,37.71875 L 21.8125,36.9375 L 25.875,36.75 C 28.938454,36.620558 31.316942,34.032204 31.1875,30.96875 C 31.137576,29.787213 30.698908,28.716913 30.03125,27.84375 L 30.5625,27.25 L 33.96875,34.84375 C 35.125096,37.415326 38.147174,38.562596 40.71875,37.40625 C 43.290326,36.249904 44.437596,33.227826 43.28125,30.65625 L 43.21875,30.53125 L 47.75,30 L 47.75,19.75 L 38.84375,20.8125 L 38.5625,20.1875 C 39.081311,19.809153 39.554717,19.344618 39.90625,18.78125 L 44.96875,11.5625 C 46.078349,10.006987 46.219247,7.9483326 45.34375,6.25 C 44.468252,4.5516674 42.723214,3.4985298 40.8125,3.5 C 39.136961,3.5068767 37.571664,4.3362502 36.625,5.71875 L 33.84375,9.65625 L 33.8125,9.5625 C 32.983776,7.6222256 31.045966,6.3924618 28.9375,6.46875 C 27.229281,6.5312115 25.673612,7.4483052 24.78125,8.90625 C 23.888887,10.364195 23.778488,12.169126 24.5,13.71875 L 26.03125,17.09375 L 17.96875,25.96875 L 16.3125,26.0625 L 19.34375,14.71875 C 19.799579,13.131004 19.467908,11.416115 18.4375,10.125 C 17.407092,8.8338863 15.805552,8.1264399 14.15625,8.21875 C 11.931068,8.3450693 10.045582,9.9015441 9.5,12.0625 L 8.75,14.875 L 5.46875,6.40625 C 4.7449025,4.431967 2.8836308,3.1042598 0.78125,3.0625 z"
     id="path3430"
     style="opacity:1;fill:#0a0f33;fill-opacity:1;fill-rule:evenodd;stroke:#262b52;stroke-width:4.4000001;stroke-linecap:round;stroke-linejoin:miter;marker:none;stroke-miterlimit:4;stroke-dasharray:none;stroke-dashoffset:0;stroke-opacity:0.72272728;visibility:visible;display:inline;overflow:visible;enable-background:accumulate" />
  <rect
     width="47.5"
     height="47.5"
     ry="4"
     x="0.25"
     y="0.25"
     id="r3365"
     style="opacity:1;fill:none;fill-opacity:1;fill-rule:evenodd;stroke:#000000;stroke-width:0.5;stroke-linecap:round;stroke-linejoin:miter;marker:none;stroke-miterlimit:4;stroke-dasharray:none;stroke-dashoffset:0;stroke-opacity:1;visibility:visible;display:inline;overflow:visible;enable-background:accumulate" />
</svg>
