<?xml version="1.0" encoding="UTF-8" standalone="no"?>
<!-- Created with Inkscape (http://www.inkscape.org/) -->
<svg
   xmlns:svg="http://www.w3.org/2000/svg"
   xmlns="http://www.w3.org/2000/svg"
   xmlns:xlink="http://www.w3.org/1999/xlink"
   xmlns:inkscape="http://www.inkscape.org/namespaces/inkscape"
   version="1.0"
   width="100%"
   height="100%"
   viewBox="0 0 48 48"
   id="_stabilo01"
   style="display:inline">
  <defs
     id="defs2385">
    <linearGradient
       id="linearGradient3370">
      <stop
         id="stop3372"
         style="stop-color:#6ac67d;stop-opacity:0"
         offset="0" />
      <stop
         id="stop3374"
         style="stop-color:#419d46;stop-opacity:1"
         offset="1" />
    </linearGradient>
    <linearGradient
       x1="6.4465032"
       y1="23.323002"
       x2="41.466503"
       y2="23.323002"
       id="linearGradient3376"
       xlink:href="#linearGradient3370"
       gradientUnits="userSpaceOnUse" />
    <filter
       id="filter3648">
      <feGaussianBlur
         id="feGaussianBlur3650"
         stdDeviation="1.1304913"
         inkscape:collect="always" />
    </filter>
  </defs>
  <rect
     width="47.5"
     height="47.5"
     ry="4"
     x="0.25"
     y="0.25"
     id="rect2593"
     style="opacity:1;fill:#c8c8c8;fill-opacity:1;fill-rule:evenodd;stroke:none;stroke-width:0.5;stroke-linecap:round;stroke-linejoin:miter;marker:none;marker-start:none;marker-mid:none;marker-end:none;stroke-miterlimit:4;stroke-dasharray:none;stroke-dashoffset:0;stroke-opacity:1;visibility:visible;display:inline;overflow:visible;enable-background:accumulate" />
  <rect
     width="47.5"
     height="47.5"
     ry="4"
     x="0.25"
     y="0.25"
     id="rect3365"
     style="opacity:1;fill:none;fill-opacity:1;fill-rule:evenodd;stroke:#000000;stroke-width:0.5;stroke-linecap:round;stroke-linejoin:miter;marker:none;marker-start:none;marker-mid:none;marker-end:none;stroke-miterlimit:4;stroke-dasharray:none;stroke-dashoffset:0;stroke-opacity:1;visibility:visible;display:inline;overflow:visible;enable-background:accumulate" />
  <g
     id="g3186"
     style="filter:url(#filter3648)">
    <path
       d="M 10.021503,15.681043 L 10.171503,15.681043 C 11.791503,15.681043 13.101503,16.981043 13.101503,18.611043 L 13.101503,27.921043 C 13.101503,29.551043 11.791503,30.861043 10.171503,30.861043 L 10.021503,30.861043 C 8.3915032,30.861043 7.0915032,29.551043 7.0915032,27.921043 L 7.0915032,18.611043 C 7.0915032,16.981043 8.3915032,15.681043 10.021503,15.681043 z"
       id="r2481"
       style="fill:#97c13b;fill-opacity:1;fill-rule:evenodd;stroke:#ffffff;stroke-width:1.28999996;stroke-linecap:butt;stroke-linejoin:miter;marker:none;stroke-miterlimit:4;stroke-dashoffset:0;stroke-opacity:1;visibility:visible;display:inline;overflow:visible;enable-background:accumulate" />
    <path
       d="M 37.741503,15.681043 L 37.891503,15.681043 C 39.511503,15.681043 40.821503,16.981043 40.821503,18.611043 L 40.821503,27.921043 C 40.821503,29.551043 39.511503,30.861043 37.891503,30.861043 L 37.741503,30.861043 C 36.121503,30.861043 34.811503,29.551043 34.811503,27.921043 L 34.811503,18.611043 C 34.811503,16.981043 36.121503,15.681043 37.741503,15.681043 z"
       id="r3255"
       style="fill:#97c13b;fill-opacity:1;fill-rule:evenodd;stroke:#ffffff;stroke-width:1.28999996;stroke-linecap:butt;stroke-linejoin:miter;marker:none;stroke-miterlimit:4;stroke-dashoffset:0;stroke-opacity:1;visibility:visible;display:inline;overflow:visible;enable-background:accumulate" />
    <path
       d="M 13.111503,15.661043 C 13.101503,15.681043 13.111503,15.701043 13.111503,15.731043 L 13.111503,32.321043 C 13.111503,33.941043 14.421503,35.261043 16.041503,35.261043 L 16.981503,35.261043 L 16.981503,39.911043 C 16.981503,41.541043 18.291503,42.851043 19.921503,42.851043 L 20.071503,42.851043 C 21.701503,42.851043 23.011503,41.541043 23.011503,39.911043 L 23.011503,35.261043 L 25.201503,35.261043 L 25.201503,39.911043 C 25.201503,41.541043 26.511503,42.851043 28.141503,42.851043 L 28.291503,42.851043 C 29.921503,42.851043 31.201503,41.541043 31.201503,39.911043 L 31.201503,35.261043 L 32.011503,35.261043 C 33.641503,35.261043 34.951503,33.941043 34.951503,32.321043 L 34.951503,15.731043 C 34.951503,15.701043 34.951503,15.681043 34.951503,15.661043 L 13.111503,15.661043 z"
       id="r3257"
       style="fill:#97c13b;fill-opacity:1;fill-rule:evenodd;stroke:#ffffff;stroke-width:1.28999996;stroke-linecap:butt;stroke-linejoin:miter;marker:none;stroke-miterlimit:4;stroke-dashoffset:0;stroke-opacity:1;visibility:visible;display:inline;overflow:visible;enable-background:accumulate" />
    <path
       d="M 17.361503,3.8210429 C 17.231503,3.8410429 17.121503,3.9010429 17.011503,3.9810429 C 16.561503,4.2810429 16.431503,4.8710429 16.731503,5.3210429 L 18.201503,7.4810429 C 15.151503,9.2010429 13.111503,12.201043 13.111503,15.661043 L 34.921503,15.661043 C 34.921503,12.191043 32.861503,9.1610429 29.791503,7.4410429 L 31.231503,5.3210429 C 31.531503,4.8710429 31.401503,4.2810429 30.951503,3.9810429 C 30.501503,3.6710429 29.911503,3.7810429 29.611503,4.2310429 L 27.981503,6.6010429 C 26.751503,6.1710429 25.411503,5.9410429 24.011503,5.9410429 C 22.591503,5.9410429 21.231503,6.1910429 19.981503,6.6310429 L 18.361503,4.2310429 C 18.131503,3.8910429 17.731503,3.7410429 17.361503,3.8210429 z"
       id="p3274"
       style="fill:#97c13b;fill-opacity:1;fill-rule:evenodd;stroke:#ffffff;stroke-width:1.29999995;stroke-linecap:butt;stroke-linejoin:miter;marker:none;stroke-miterlimit:4;stroke-dasharray:none;stroke-dashoffset:0;stroke-opacity:1;visibility:visible;display:inline;overflow:visible;enable-background:accumulate" />
    <path
       d="M 20.512303,10.864043 C 20.512303,11.495894 20.015608,12.008112 19.402903,12.008112 C 18.790199,12.008112 18.293503,11.495894 18.293503,10.864043 C 18.293503,10.232191 18.790199,9.7199737 19.402903,9.7199737 C 20.015608,9.7199737 20.512303,10.232191 20.512303,10.864043 L 20.512303,10.864043 z"
       id="p3287"
       style="fill:#ffffff;fill-opacity:1;fill-rule:evenodd;stroke:none;marker:none;stroke-opacity:1;visibility:visible;display:inline;overflow:visible;enable-background:accumulate" />
    <path
       d="M 29.272303,10.864043 C 29.272303,11.495894 28.775607,12.008112 28.162903,12.008112 C 27.550199,12.008112 27.053503,11.495894 27.053503,10.864043 C 27.053503,10.232191 27.550199,9.7199737 28.162903,9.7199737 C 28.775607,9.7199737 29.272303,10.232191 29.272303,10.864043 L 29.272303,10.864043 z"
       id="p3289"
       style="fill:#ffffff;fill-opacity:1;fill-rule:evenodd;stroke:none;marker:none;stroke-opacity:1;visibility:visible;display:inline;overflow:visible;enable-background:accumulate" />
  </g>
</svg>
