<?xml version="1.0" encoding="UTF-8" standalone="no"?>
<!-- Created with Inkscape (http://www.inkscape.org/) -->
<svg
   xmlns:svg="http://www.w3.org/2000/svg"
   xmlns="http://www.w3.org/2000/svg"
   version="1.0"
   width="100%"
   height="100%"
   viewBox="0 0 48 48"
   id="_stabilo01"
   style="display:inline">
  <defs
     id="defs2385" />
  <path
     d="M 4.25,0.25 C 2.034,0.25 0.25,2.034 0.25,4.25 L 0.25,43.75 C 0.25,45.966 2.034,47.75 4.25,47.75 L 43.75,47.75 C 45.966,47.75 47.75,45.966 47.75,43.75 L 47.75,4.25 C 47.75,2.034 45.966,0.25 43.75,0.25 L 4.25,0.25 z"
     id="r2593"
     style="opacity:1;fill:#fffbfb;fill-opacity:1;fill-rule:evenodd;stroke:none;marker:none;visibility:visible;display:inline;overflow:visible;enable-background:accumulate" />
  <path
     d="M 35.125,4.6875 L 30.8125,10.90625 L 29.84375,11.34375 L 29.28125,10.8125 L 28.09375,12.125 L 22.84375,14.46875 L 23.875,16.78125 L 19.3125,21.78125 L 21.09375,15.15625 L 9.625,12.125 L 7.15625,5.75 L 0.25,8.40625 L 0.25,26.125 L 1.1875,28.5625 L 3.46875,27.6875 L 0.25,39.71875 L 0.25,41.84375 L 13.0625,45.25 L 14.84375,38.5625 L 21.6875,38.28125 L 22.40625,38.9375 L 23.0625,38.21875 L 25.9375,38.09375 L 25.8125,35.1875 L 30.0625,30.5 L 32.34375,35.59375 L 38.59375,32.78125 L 38.625,32.90625 L 47.75,31.8125 L 47.75,17.9375 L 42.25,18.59375 L 46.4375,12.59375 L 35.125,4.6875 z M 39.875,18.75 L 40.03125,18.84375 L 39.9375,18.84375 L 39.875,18.75 z"
     id="path3430"
     style="opacity:1;fill:#0a0f33;fill-opacity:1;fill-rule:evenodd;stroke:none;stroke-width:13.80000019;stroke-linecap:butt;stroke-linejoin:miter;marker:none;stroke-miterlimit:4;stroke-dasharray:none;stroke-dashoffset:0;stroke-opacity:1;visibility:visible;display:inline;overflow:visible;enable-background:accumulate" />
  <rect
     width="47.5"
     height="47.5"
     ry="4"
     x="0.25"
     y="0.25"
     id="r3365"
     style="opacity:1;fill:none;fill-opacity:1;fill-rule:evenodd;stroke:#000000;stroke-width:0.5;stroke-linecap:round;stroke-linejoin:miter;marker:none;stroke-miterlimit:4;stroke-dasharray:none;stroke-dashoffset:0;stroke-opacity:1;visibility:visible;display:inline;overflow:visible;enable-background:accumulate" />
</svg>
