<?xml version="1.0" encoding="UTF-8" standalone="no"?>
<!-- Created with Inkscape (http://www.inkscape.org/) -->
<svg
   xmlns:svg="http://www.w3.org/2000/svg"
   xmlns="http://www.w3.org/2000/svg"
   version="1.0"
   width="100%"
   height="100%"
   viewBox="0 0 48 48"
   id="_stabilo01"
   style="display:inline">
  <defs
     id="defs2385">
    <filter
       id="filter4022">
      <feBlend
         mode="screen"
         in2="BackgroundImage"
         id="feBlend4024" />
    </filter>
    <clipPath
       id="clipPath3129">
      <rect
         width="48"
         height="48"
         ry="0"
         x="0"
         y="0"
         id="rect3131"
         style="opacity:1;fill:#000000;fill-opacity:1;fill-rule:evenodd;stroke:#d7d7d7;stroke-width:0.91611463;stroke-linecap:round;stroke-linejoin:miter;marker:none;marker-start:none;marker-mid:none;marker-end:none;stroke-miterlimit:4;stroke-dasharray:none;stroke-dashoffset:0;stroke-opacity:0.86818183;visibility:visible;display:inline;overflow:visible;enable-background:accumulate" />
    </clipPath>
  </defs>
  <rect
     width="47.5"
     height="47.5"
     ry="4"
     x="0.25"
     y="0.25"
     id="rect2593"
     style="opacity:1;fill:#b62929;fill-opacity:1;fill-rule:evenodd;stroke:none;stroke-width:0.5;stroke-linecap:round;stroke-linejoin:miter;marker:none;marker-start:none;marker-mid:none;marker-end:none;stroke-miterlimit:4;stroke-dasharray:none;stroke-dashoffset:0;stroke-opacity:1;visibility:visible;display:inline;overflow:visible;enable-background:accumulate" />
  <path
     d="M 38.04,6.5349998 C 36.24,4.7449998 33.34,4.7449998 31.55,6.5349998 L 24.04,14.065 L 16.49,6.5049998 C 14.69,4.7149998 11.78,4.7149998 9.9900004,6.5049998 L 6.5100004,9.9849998 C 4.7100004,11.795 4.7100004,14.685 6.5100004,16.485 L 14.05,24.025 L 6.5400004,31.555 C 4.7500004,33.335 4.7500004,36.235 6.5400004,38.045 L 9.9900004,41.495 C 11.78,43.285 14.69,43.285 16.49,41.495 L 24.01,33.965 L 31.51,41.495 C 33.31,43.285 36.22,43.285 38.01,41.495 L 41.49,38.015 C 43.29,36.205 43.29,33.305 41.49,31.515 L 33.98,24.005 L 41.49,16.485 C 43.29,14.685 43.29,11.795 41.49,9.9849998 L 38.04,6.5349998 z"
     id="r3226"
     style="fill:#c03c3c;fill-opacity:1;fill-rule:evenodd;stroke:#ffffff;stroke-width:1.5;stroke-linecap:round;stroke-linejoin:miter;marker:none;stroke-miterlimit:4;stroke-dasharray:none;stroke-dashoffset:0;stroke-opacity:1;visibility:visible;display:inline;overflow:visible;enable-background:accumulate" />
  <rect
     width="47.5"
     height="47.5"
     ry="4"
     x="0.25"
     y="0.25"
     id="rect3365"
     style="opacity:1;fill:none;fill-opacity:1;fill-rule:evenodd;stroke:#000000;stroke-width:0.5;stroke-linecap:round;stroke-linejoin:miter;marker:none;marker-start:none;marker-mid:none;marker-end:none;stroke-miterlimit:4;stroke-dasharray:none;stroke-dashoffset:0;stroke-opacity:1;visibility:visible;display:inline;overflow:visible;enable-background:accumulate" />
</svg>
