<?xml version="1.0" encoding="UTF-8" standalone="no"?>
<!-- Created with Inkscape (http://www.inkscape.org/) -->
<svg
   xmlns:svg="http://www.w3.org/2000/svg"
   xmlns="http://www.w3.org/2000/svg"
   xmlns:xlink="http://www.w3.org/1999/xlink"
   version="1.0"
   width="100%"
   height="100%"
   viewBox="0 0 48 48"
   id="_stabilo01"
   style="display:inline">
  <defs
     id="defs2385">
    <filter
       id="filter4022">
      <feBlend
         mode="screen"
         in2="BackgroundImage"
         id="feBlend4024" />
    </filter>
    <clipPath
       id="clipPath3129">
      <rect
         width="48"
         height="48"
         ry="0"
         x="0"
         y="0"
         id="r3131"
         style="opacity:1;fill:#000000;fill-opacity:1;fill-rule:evenodd;stroke:#d7d7d7;stroke-width:0.91000003;stroke-linecap:round;stroke-linejoin:miter;marker:none;stroke-miterlimit:4;stroke-dasharray:none;stroke-dashoffset:0;stroke-opacity:0.86000001;visibility:visible;display:inline;overflow:visible;enable-background:accumulate" />
    </clipPath>
    <linearGradient
       x1="45.91"
       y1="45.650002"
       x2="6.23"
       y2="2.4300001"
       id="lg2418"
       xlink:href="#lg3892"
       gradientUnits="userSpaceOnUse" />
    <linearGradient
       id="lg3920-2">
      <stop
         id="s3922-8"
         style="stop-color:#000000;stop-opacity:1"
         offset="0" />
      <stop
         id="s3924-9"
         style="stop-color:#363838;stop-opacity:1"
         offset="1" />
    </linearGradient>
    <linearGradient
       x1="24.280001"
       y1="6.8600001"
       x2="24.280001"
       y2="37.880001"
       id="lg3926-9"
       xlink:href="#lg3920-2"
       gradientUnits="userSpaceOnUse" />
    <linearGradient
       x1="24.280001"
       y1="6.8600001"
       x2="24.280001"
       y2="37.880001"
       id="lg3926"
       xlink:href="#lg3920"
       gradientUnits="userSpaceOnUse" />
    <linearGradient
       x1="45.91"
       y1="45.650002"
       x2="6.23"
       y2="2.4300001"
       id="lg3898"
       xlink:href="#lg3892"
       gradientUnits="userSpaceOnUse" />
    <linearGradient
       id="lg3892">
      <stop
         id="s3894"
         style="stop-color:#050707;stop-opacity:1"
         offset="0" />
      <stop
         id="s3896"
         style="stop-color:#d6d6d6;stop-opacity:1"
         offset="1" />
    </linearGradient>
    <linearGradient
       id="lg3920">
      <stop
         id="s3922"
         style="stop-color:#000000;stop-opacity:1"
         offset="0" />
      <stop
         id="s3924"
         style="stop-color:#363838;stop-opacity:1"
         offset="1" />
    </linearGradient>
    <linearGradient
       x1="23.870001"
       y1="21.450001"
       x2="23.870001"
       y2="41.560001"
       id="lg2479"
       xlink:href="#lg3934"
       gradientUnits="userSpaceOnUse" />
    <linearGradient
       x1="9.8900003"
       y1="9.3900003"
       x2="40.07"
       y2="9.3900003"
       id="lg2475"
       xlink:href="#lg4189"
       gradientUnits="userSpaceOnUse" />
    <linearGradient
       x1="9.8900003"
       y1="9.3900003"
       x2="40.07"
       y2="9.3900003"
       id="lg4195"
       xlink:href="#lg4189"
       gradientUnits="userSpaceOnUse" />
    <linearGradient
       x1="23.870001"
       y1="21.450001"
       x2="23.870001"
       y2="41.560001"
       id="lg3940"
       xlink:href="#lg3934"
       gradientUnits="userSpaceOnUse" />
    <linearGradient
       id="lg3934">
      <stop
         id="s3936"
         style="stop-color:#772527;stop-opacity:1"
         offset="0" />
      <stop
         id="s3938"
         style="stop-color:#ff9f46;stop-opacity:1"
         offset="1" />
    </linearGradient>
    <linearGradient
       id="lg4189">
      <stop
         id="s4191"
         style="stop-color:#db2525;stop-opacity:1"
         offset="0" />
      <stop
         id="s4201"
         style="stop-color:#decd0e;stop-opacity:1"
         offset="0.25" />
      <stop
         id="s4203"
         style="stop-color:#36e41f;stop-opacity:1"
         offset="0.37" />
      <stop
         id="s4197"
         style="stop-color:#28ddbe;stop-opacity:1"
         offset="0.5" />
      <stop
         id="s4199"
         style="stop-color:#232bd8;stop-opacity:1"
         offset="0.75" />
      <stop
         id="s4193"
         style="stop-color:#dc2eb6;stop-opacity:1"
         offset="1" />
    </linearGradient>
    <linearGradient
       id="lg4189-954">
      <stop
         id="s2453"
         style="stop-color:#5b5b5b;stop-opacity:1"
         offset="0" />
      <stop
         id="s2455"
         style="stop-color:#bcbcbc;stop-opacity:1"
         offset="0.25" />
      <stop
         id="s2457"
         style="stop-color:#9a9a9a;stop-opacity:1"
         offset="0.37" />
      <stop
         id="s2459"
         style="stop-color:#a3a3a3;stop-opacity:1"
         offset="0.5" />
      <stop
         id="s2461"
         style="stop-color:#3c3c3c;stop-opacity:1"
         offset="0.75" />
      <stop
         id="s2463"
         style="stop-color:#727272;stop-opacity:1"
         offset="1" />
    </linearGradient>
    <linearGradient
       x1="9.8900003"
       y1="9.3900003"
       x2="40.07"
       y2="9.3900003"
       id="lg2475-51"
       xlink:href="#lg4189-954"
       gradientUnits="userSpaceOnUse" />
    <linearGradient
       id="lg3934-130">
      <stop
         id="s2447"
         style="stop-color:#3e3e3e;stop-opacity:1"
         offset="0" />
      <stop
         id="s2449"
         style="stop-color:#b2b2b2;stop-opacity:1"
         offset="1" />
    </linearGradient>
    <linearGradient
       x1="23.870001"
       y1="21.450001"
       x2="23.870001"
       y2="41.560001"
       id="lg2479-392"
       xlink:href="#lg3934-130"
       gradientUnits="userSpaceOnUse" />
    <linearGradient
       x1="23.870001"
       y1="21.450001"
       x2="23.870001"
       y2="41.560001"
       id="lg3444"
       xlink:href="#lg3934"
       gradientUnits="userSpaceOnUse" />
    <linearGradient
       x1="9.8900003"
       y1="9.3900003"
       x2="40.07"
       y2="9.3900003"
       id="lg3442"
       xlink:href="#lg4189"
       gradientUnits="userSpaceOnUse" />
    <linearGradient
       x1="9.8900003"
       y1="9.3900003"
       x2="40.07"
       y2="9.3900003"
       id="lg3440"
       xlink:href="#lg4189"
       gradientUnits="userSpaceOnUse" />
    <linearGradient
       x1="23.870001"
       y1="21.450001"
       x2="23.870001"
       y2="41.560001"
       id="lg3438"
       xlink:href="#lg3934"
       gradientUnits="userSpaceOnUse" />
    <linearGradient
       id="lg3432">
      <stop
         id="s3434"
         style="stop-color:#3e3e3e;stop-opacity:1"
         offset="0" />
      <stop
         id="s3436"
         style="stop-color:#b2b2b2;stop-opacity:1"
         offset="1" />
    </linearGradient>
    <linearGradient
       id="lg3418">
      <stop
         id="s3420"
         style="stop-color:#5b5b5b;stop-opacity:1"
         offset="0" />
      <stop
         id="s3422"
         style="stop-color:#bcbcbc;stop-opacity:1"
         offset="0.25" />
      <stop
         id="s3424"
         style="stop-color:#9a9a9a;stop-opacity:1"
         offset="0.37" />
      <stop
         id="s3426"
         style="stop-color:#a3a3a3;stop-opacity:1"
         offset="0.5" />
      <stop
         id="s3428"
         style="stop-color:#3c3c3c;stop-opacity:1"
         offset="0.75" />
      <stop
         id="s3430"
         style="stop-color:#727272;stop-opacity:1"
         offset="1" />
    </linearGradient>
    <filter
       id="filter3810">
      <feBlend
         mode="screen"
         in2="BackgroundImage"
         id="feBlend3812" />
    </filter>
    <clipPath
       id="clipPath3814">
      <rect
         width="48"
         height="48"
         ry="0"
         x="0"
         y="0"
         id="rect3816"
         style="opacity:1;fill:#000000;fill-opacity:1;fill-rule:evenodd;stroke:#d7d7d7;stroke-width:0.91611463;stroke-linecap:round;stroke-linejoin:miter;marker:none;marker-start:none;marker-mid:none;marker-end:none;stroke-miterlimit:4;stroke-dasharray:none;stroke-dashoffset:0;stroke-opacity:0.86818183;visibility:visible;display:inline;overflow:visible;enable-background:accumulate" />
    </clipPath>
    <filter
       id="filter3687">
      <feBlend
         mode="screen"
         in2="BackgroundImage"
         id="feBlend3689" />
    </filter>
    <clipPath
       id="clipPath3691">
      <rect
         width="48"
         height="48"
         ry="0"
         x="0"
         y="0"
         id="rect3693"
         style="opacity:1;fill:#000000;fill-opacity:1;fill-rule:evenodd;stroke:#d7d7d7;stroke-width:0.91611463;stroke-linecap:round;stroke-linejoin:miter;marker:none;marker-start:none;marker-mid:none;marker-end:none;stroke-miterlimit:4;stroke-dasharray:none;stroke-dashoffset:0;stroke-opacity:0.86818183;visibility:visible;display:inline;overflow:visible;enable-background:accumulate" />
    </clipPath>
    <linearGradient
       x1="23.956503"
       y1="15.397541"
       x2="23.956503"
       y2="43.496044"
       id="linearGradient3622"
       xlink:href="#linearGradient3616"
       gradientUnits="userSpaceOnUse" />
    <linearGradient
       x1="23.956503"
       y1="15.397541"
       x2="23.956503"
       y2="43.496044"
       id="linearGradient3614"
       xlink:href="#linearGradient3608"
       gradientUnits="userSpaceOnUse" />
    <clipPath
       id="clipPath2639">
      <rect
         width="48"
         height="48"
         ry="0"
         x="0"
         y="0"
         id="rect3131"
         style="opacity:1;fill:#000000;fill-opacity:1;fill-rule:evenodd;stroke:#d7d7d7;stroke-width:0.91611463;stroke-linecap:round;stroke-linejoin:miter;marker:none;marker-start:none;marker-mid:none;marker-end:none;stroke-miterlimit:4;stroke-dasharray:none;stroke-dashoffset:0;stroke-opacity:0.86818183;visibility:visible;display:inline;overflow:visible;enable-background:accumulate" />
    </clipPath>
    <filter
       id="filter2635">
      <feBlend
         mode="screen"
         in2="BackgroundImage"
         id="feBlend2637" />
    </filter>
    <linearGradient
       id="linearGradient3608">
      <stop
         id="stop3610"
         style="stop-color:#95c03c;stop-opacity:1"
         offset="0" />
      <stop
         id="stop3612"
         style="stop-color:#95c03c;stop-opacity:0.39215687"
         offset="1" />
    </linearGradient>
    <linearGradient
       id="linearGradient3616">
      <stop
         id="stop3618"
         style="stop-color:#ffffff;stop-opacity:1"
         offset="0" />
      <stop
         id="stop3620"
         style="stop-color:#ffffff;stop-opacity:0.42105263"
         offset="1" />
    </linearGradient>
  </defs>
  <rect
     width="47.5"
     height="47.5"
     ry="4"
     x="0.25"
     y="0.25"
     id="r2593"
     style="opacity:1;fill:#fffbfb;fill-opacity:1;fill-rule:evenodd;stroke:none;marker:none;visibility:visible;display:inline;overflow:visible;enable-background:accumulate" />
  <rect
     width="47.5"
     height="47.5"
     ry="4"
     x="0.25"
     y="0.25"
     id="r3365"
     style="opacity:1;fill:none;fill-opacity:1;fill-rule:evenodd;stroke:#000000;stroke-width:0.5;stroke-linecap:round;stroke-linejoin:miter;marker:none;stroke-miterlimit:4;stroke-dasharray:none;stroke-dashoffset:0;stroke-opacity:1;visibility:visible;display:inline;overflow:visible;enable-background:accumulate" />
  <path
     d="M 34.496489,2.1901702 C 34.196489,2.1901702 33.966489,2.4301702 33.966489,2.7201702 L 33.966489,9.2501702 C 33.966489,9.5501712 34.196489,9.7801702 34.496489,9.7801702 L 35.276489,9.7801702 C 35.576489,9.7801702 35.806489,9.5501712 35.806489,9.2501702 L 35.806489,2.7201702 C 35.806489,2.4301702 35.576489,2.1901702 35.276489,2.1901702 L 34.496489,2.1901702 z M 28.186489,4.8201702 C 28.046489,4.8201702 27.916489,4.8701702 27.806489,4.9701702 L 27.246489,5.5301702 C 27.036489,5.7401702 27.036489,6.0701702 27.246489,6.2801702 L 31.836489,10.88017 C 32.046489,11.09017 32.406489,11.09017 32.616489,10.88017 L 33.146489,10.32017 C 33.356489,10.11017 33.356489,9.7701712 33.146489,9.5701702 L 28.556489,4.9701702 C 28.456489,4.8701702 28.316489,4.8201702 28.186489,4.8201702 z M 41.586489,4.8201702 C 41.456489,4.8201702 41.286489,4.8701702 41.186489,4.9701702 L 36.586489,9.5701702 C 36.376489,9.7701712 36.376489,10.11017 36.586489,10.32017 L 37.146489,10.88017 C 37.356489,11.09017 37.696489,11.09017 37.896489,10.88017 L 42.526489,6.2801702 C 42.736489,6.0701702 42.736489,5.7401702 42.526489,5.5301702 L 41.966489,4.9701702 C 41.856489,4.8701702 41.726489,4.8201702 41.586489,4.8201702 z M 25.026489,11.66017 C 24.726489,11.66017 24.496489,11.89017 24.496489,12.19017 L 24.496489,13.00017 C 24.496489,13.30017 24.726489,13.53017 25.026489,13.53017 L 31.526489,13.53017 C 31.826489,13.53017 32.056489,13.30017 32.056489,13.00017 L 32.056489,12.19017 C 32.056489,11.89017 31.826489,11.66017 31.526489,11.66017 L 25.026489,11.66017 z M 38.246489,11.66017 C 37.946489,11.66017 37.716489,11.89017 37.716489,12.19017 L 37.716489,13.00017 C 37.716489,13.30017 37.946489,13.53017 38.246489,13.53017 L 44.746489,13.53017 C 45.036489,13.53017 45.276489,13.30017 45.276489,13.00017 L 45.276489,12.19017 C 45.276489,11.89017 45.036489,11.66017 44.746489,11.66017 L 38.246489,11.66017 z M 32.216489,14.16017 C 32.076489,14.16017 31.946489,14.21017 31.836489,14.32017 L 27.246489,18.91017 C 27.036489,19.12017 27.036489,19.45017 27.246489,19.66017 L 27.806489,20.22017 C 28.016489,20.43017 28.346489,20.43017 28.556489,20.22017 L 33.146489,15.63017 C 33.356489,15.42017 33.356489,15.09017 33.146489,14.88017 L 32.616489,14.32017 C 32.516489,14.21017 32.346489,14.16017 32.216489,14.16017 z M 37.526489,14.16017 C 37.386489,14.16017 37.256489,14.21017 37.146489,14.32017 L 36.586489,14.88017 C 36.376489,15.09017 36.376489,15.42017 36.586489,15.63017 L 41.186489,20.22017 C 41.386489,20.43017 41.756489,20.43017 41.966489,20.22017 L 42.526489,19.66017 C 42.736489,19.45017 42.736489,19.12017 42.526489,18.91017 L 37.896489,14.32017 C 37.796489,14.21017 37.666489,14.16017 37.526489,14.16017 z M 34.496489,15.41017 C 34.196489,15.41017 33.966489,15.68017 33.966489,15.97017 L 33.966489,22.47017 C 33.966489,22.77017 34.196489,23.00017 34.496489,23.00017 L 35.276489,23.00017 C 35.576489,23.00017 35.806489,22.77017 35.806489,22.47017 L 35.806489,15.97017 C 35.806489,15.68017 35.576489,15.41017 35.276489,15.41017 L 34.496489,15.41017 z"
     id="r4297"
     style="fill:#000000;fill-opacity:0.70999995;fill-rule:evenodd;stroke:#ffffff;stroke-width:0.40000001;stroke-linecap:butt;stroke-linejoin:miter;marker:none;stroke-miterlimit:4;stroke-dasharray:none;stroke-dashoffset:0;stroke-opacity:1;visibility:visible;display:inline;overflow:visible;enable-background:accumulate" />
  <g
     transform="translate(-6.0851084e-2,3.8843164)"
     id="blue01"
     style="display:inline">
    <path
       d="M 2.84,21.27 C 2.46,21.87 3.03,22.59 3.44,23.16 C 3.86,23.73 5.87,26.23 5.87,26.23 C 5.87,26.23 5.71,26.79 6.29,26.99 C 6.42,27.04 6.55,27.03 6.55,27.03 C 6.55,27.03 7.8,28.21 9.02,29.19 C 10.23,30.18 13.11,31.69 13.61,32.03 C 14.1,32.38 15.35,33.32 15.99,33.21 C 16.64,33.1 17.13,32.45 17.05,31.84 C 16.98,31.24 15.46,29 14.63,27.9 C 13.79,26.8 11.75,24.49 11.22,23.96 C 10.69,23.43 10.5,23.31 10.5,23.31 C 10.5,23.31 10,21.95 8.68,22.22 C 7.35,22.48 6.82,23.31 6.67,23.73 C 6.52,24.15 6.4,24.3 6.4,24.3 C 6.4,24.3 4.43,22.14 2.84,21.27 z"
       id="p2533"
       style="opacity:1;fill:#083bc6;fill-opacity:1;fill-rule:evenodd;stroke:none" />
    <path
       d="M 9.15,22.18 C 9.01,22.17 8.85,22.18 8.68,22.21 C 8.43,22.26 8.22,22.35 8.03,22.43 C 10.85,24.5 13.97,27.89 16.78,32.75 C 16.99,32.49 17.1,32.16 17.06,31.84 C 16.98,31.23 15.45,29 14.62,27.9 C 13.79,26.8 11.74,24.49 11.21,23.96 C 10.68,23.43 10.5,23.31 10.5,23.31 C 10.5,23.31 10.13,22.27 9.15,22.18 z"
       id="p3333"
       style="fill:#0a2a83;fill-opacity:0.43000004;fill-rule:evenodd;stroke:none" />
    <path
       d="M 2.84,21.28 C 2.46,21.88 3.02,22.58 3.43,23.15 C 3.85,23.72 5.87,26.25 5.87,26.25 C 5.87,26.25 5.7,26.79 6.28,27 C 6.41,27.04 6.56,27.03 6.56,27.03 C 6.56,27.03 7.81,28.2 9.03,29.18 C 9.51,29.58 10.27,30.07 11.03,30.53 C 8.54,25.93 8.48,24.46 10.43,23.21 C 10.31,22.94 9.83,21.98 8.68,22.21 C 7.36,22.48 6.83,23.33 6.68,23.75 C 6.53,24.16 6.4,24.31 6.4,24.31 C 6.4,24.31 4.43,22.15 2.84,21.28 z"
       id="p3308"
       style="fill:#032581;fill-opacity:0.43000004;fill-rule:evenodd;stroke:none;display:inline" />
    <path
       d="M 2.84,21.28 C 2.46,21.88 3.02,22.58 3.43,23.15 C 3.85,23.72 5.87,26.25 5.87,26.25 C 5.87,26.25 5.7,26.79 6.28,27 C 6.41,27.04 6.56,27.03 6.56,27.03 C 6.56,27.03 7.81,28.2 9.03,29.18 C 10.24,30.17 13.13,31.69 13.62,32.03 C 14.11,32.37 15.35,33.33 16,33.21 C 16.17,33.18 16.32,33.09 16.46,33 C 15.34,32.1 12.52,29.83 10.56,27.87 C 9.05,26.37 7.82,24.8 6.87,23.37 C 6.78,23.51 6.72,23.64 6.68,23.75 C 6.53,24.16 6.4,24.31 6.4,24.31 C 6.4,24.31 4.43,22.15 2.84,21.28 z"
       id="p3311"
       style="fill:#18192b;fill-opacity:0.27999998;fill-rule:evenodd;stroke:none;display:inline" />
    <path
       d="M 14.93,28.37 C 14.89,30.78 13.97,31.42 12.37,31.31 C 12.86,31.59 13.47,31.92 13.62,32.03 C 14.11,32.37 15.35,33.33 16,33.21 C 16.64,33.1 17.13,32.45 17.06,31.84 C 16.99,31.3 15.78,29.54 14.93,28.37 z"
       id="p3314"
       style="fill:#032581;fill-opacity:0.26000001;fill-rule:evenodd;stroke:none;display:inline" />
    <path
       d="M 2.81,21.34 C 2.51,21.93 3.03,22.6 3.43,23.15 C 3.85,23.72 5.87,26.25 5.87,26.25 C 5.87,26.25 5.7,26.79 6.28,27 C 6.41,27.04 6.56,27.03 6.56,27.03 C 6.56,27.03 7.81,28.2 9.03,29.18 C 10.24,30.17 13.13,31.69 13.62,32.03 C 13.69,32.07 13.84,32.18 13.93,32.25 C 12.03,29.66 8.53,26.39 7.37,25.21 C 6.89,24.73 6.66,24.35 6.53,24.06 C 6.45,24.21 6.4,24.31 6.4,24.31 C 6.46,24.52 6.52,24.73 6.68,24.9 C 7.62,25.86 7.14,25.66 7.4,25.9 C 7.67,26.14 11.71,30.34 11.71,30.34 C 11.71,30.34 10.43,29.49 9.5,28.84 C 8.56,28.19 6.98,26.57 6.09,25.59 C 5.31,24.73 3.88,22.88 2.81,21.34 z"
       id="p3317"
       style="fill:#acad6f;fill-opacity:0.15;fill-rule:evenodd;stroke:none;display:inline" />
    <path
       d="M 11.69,33.82 C 11.69,34.214429 11.307203,34.534176 10.835,34.534176 C 10.362797,34.534176 9.98,34.214429 9.98,33.82 C 9.98,33.425571 10.362797,33.105824 10.835,33.105824 C 11.307203,33.105824 11.69,33.425571 11.69,33.82 z"
       transform="matrix(0.66,-0.67,0.45,0.54,-6.48,21.17)"
       id="p3348"
       style="opacity:1;fill:#0d2d86;fill-opacity:1;fill-rule:nonzero;stroke:none;marker:none;visibility:visible;display:inline;overflow:visible;enable-background:accumulate" />
    <path
       d="M 16.41,32.42 C 16.41,32.550181 16.342843,32.655714 16.26,32.655714 C 16.177157,32.655714 16.11,32.550181 16.11,32.42 C 16.11,32.289819 16.177157,32.184286 16.26,32.184286 C 16.342843,32.184286 16.41,32.289819 16.41,32.42 z"
       transform="matrix(1.44,-0.34,-0.5,1.65,9.41,-15.65)"
       id="p3355"
       style="opacity:1;fill:#5880ef;fill-opacity:0.27000002;fill-rule:nonzero;stroke:none;marker:none;visibility:visible;display:inline;overflow:visible;enable-background:accumulate" />
    <path
       d="M 16.41,32.42 C 16.41,32.550181 16.342843,32.655714 16.26,32.655714 C 16.177157,32.655714 16.11,32.550181 16.11,32.42 C 16.11,32.289819 16.177157,32.184286 16.26,32.184286 C 16.342843,32.184286 16.41,32.289819 16.41,32.42 z"
       transform="matrix(1.48,-0.1,-0.77,1.54,16.48,-16.48)"
       id="p3357"
       style="opacity:1;fill:#5880ef;fill-opacity:0.47000002;fill-rule:nonzero;stroke:none;marker:none;visibility:visible;display:inline;overflow:visible;enable-background:accumulate" />
    <path
       d="M 6.6,27.1 C 5.66,26.58 6.35,25.62 6.71,25.46 C 6.76,24.8 6.41,23.96 7.69,23.07 C 8.96,22.18 10.01,22.73 10.4,23.3"
       id="p3359"
       style="fill:none;fill-rule:evenodd;stroke:#093dd4;stroke-width:0.30000001;stroke-linecap:round;stroke-linejoin:miter;stroke-miterlimit:4;stroke-dasharray:none;stroke-opacity:0.76999996;display:inline" />
    <path
       d="M 9.3,23.16 C 10.36,24.1 11.13,24.9 11.61,25.44"
       id="p3362"
       style="fill:none;fill-rule:evenodd;stroke:#dee79b;stroke-width:0.30000001;stroke-linecap:round;stroke-linejoin:miter;stroke-miterlimit:4;stroke-dasharray:none;stroke-opacity:0.06000001;display:inline" />
    <path
       d="M 2.99,15.29 C 1.86,14.9 2.6,12.74 3.78,13.01 C 4.82,13.26 36.07,23.12 37.56,23.51 C 39.06,23.91 42.69,25.65 42.69,25.65 L 42.74,25.8 C 42.74,25.8 45.4,27.37 46.05,27.76 C 46.5,28.03 46.33,28.68 45.82,28.69 C 45.32,28.7 42.54,28.24 41.64,28.14 C 40.75,28.04 38.51,27.44 37.36,27.1 C 36.22,26.75 4.13,15.68 2.99,15.29 z"
       id="p3365"
       style="fill:#9db7ca;fill-opacity:1;fill-rule:evenodd;stroke:none" />
    <path
       d="M 14.5,17.07 C 14.28,17.12 14.17,17.4 14.17,17.63 C 14.17,17.86 14.24,18 14.46,18.06 L 37.62,26.06 C 38.76,26.45 38.25,24.79 38.03,24.71 L 14.78,17.12 C 14.68,17.08 14.6,17.04 14.5,17.07 z"
       id="p3372"
       style="fill:#131313;fill-opacity:0.83999999;fill-rule:evenodd;stroke:none;display:inline" />
    <path
       d="M 37.71,23.59 C 36.98,24.52 36.7,25.3 36.65,26.84 C 36.7,26.86 37.35,27.08 37.37,27.09 C 38.51,27.44 40.76,28.05 41.65,28.15 C 42.55,28.25 45.31,28.69 45.81,28.68 C 46.32,28.67 46.5,28.04 46.06,27.78 C 45.41,27.39 42.75,25.81 42.75,25.81 L 42.68,25.65 C 42.68,25.65 39.28,24.05 37.71,23.59 z"
       id="p3370"
       style="fill:#7e7645;fill-opacity:1;fill-rule:evenodd;stroke:none;display:inline" />
    <path
       d="M 39.05,24.97 L 44.09,26.73"
       id="p3424"
       style="fill:none;fill-rule:evenodd;stroke:#4f2819;stroke-width:0.69;stroke-linecap:round;stroke-linejoin:miter;stroke-miterlimit:4;stroke-dasharray:none;stroke-opacity:0.61000001" />
    <path
       d="M 36.6,24.04 L 38.71,24.73"
       id="p3422"
       style="fill:none;fill-rule:evenodd;stroke:#8cadea;stroke-width:0.5;stroke-linecap:round;stroke-linejoin:miter;stroke-miterlimit:4;stroke-dasharray:none;stroke-opacity:0.68000016" />
    <path
       d="M 37.71,23.59 C 36.98,24.52 36.7,25.3 36.65,26.84 C 36.7,26.86 37.35,27.08 37.37,27.09 C 38.51,27.44 40.76,28.05 41.65,28.15 C 41.7,28.16 41.84,28.17 41.9,28.18 C 41.96,27.09 42.09,26.41 42.68,25.65 C 42.68,25.65 39.28,24.05 37.71,23.59 z"
       id="p3398"
       style="fill:#9db7ca;fill-opacity:0.26000001;fill-rule:evenodd;stroke:none" />
    <path
       d="M 3.56,13 C 2.51,13.01 1.94,14.91 3,15.28 C 3.01,15.28 3.38,15.39 3.4,15.4 C 3.26,14.96 3.25,14.65 3.25,14.65 C 3.24,14.65 4.72,15.04 5.18,15.18 C 5.28,15 4.68,14.97 4.91,14.48 C 5.1,14.05 5.52,14.32 5.59,14.15 C 4.74,13.83 4.33,13.79 4.68,13.31 C 4.54,13.27 3.82,13.04 3.78,13.03 C 3.7,13.01 3.63,12.99 3.56,13 z"
       id="p3374"
       style="fill:#083bc6;fill-opacity:1;fill-rule:evenodd;stroke:none;display:inline" />
    <path
       d="M 4.09,13.12 C 3.96,13.33 3.84,13.54 3.84,13.56 C 3.84,13.59 3.38,13.41 2.96,13.25 C 2.67,13.49 2.5,13.88 2.46,14.28 L 3.37,14.56 L 3.37,14.68 C 3.41,14.69 3.64,14.77 3.78,14.81 C 3.77,14.56 3.82,13.98 4.12,13.4 C 4.17,13.31 4.24,13.24 4.31,13.18 C 4.21,13.15 4.18,13.15 4.09,13.12 z M 4.62,13.43 C 4.33,13.74 4.23,14.27 4.21,14.93 C 4.64,15.05 4.95,15.11 5.18,15.18 C 5.28,15 4.68,14.99 4.9,14.5 C 5.09,14.07 5.52,14.32 5.59,14.15 C 4.84,13.87 4.46,13.78 4.62,13.43 z"
       id="p3430"
       style="fill:#080b1c;fill-opacity:0.38999999;fill-rule:evenodd;stroke:none;display:inline" />
    <path
       d="M 11.03,17.35 L 41.69,28"
       id="p3389"
       style="fill:none;fill-rule:evenodd;stroke:#dde9fc;stroke-width:0.69;stroke-linecap:round;stroke-linejoin:miter;stroke-miterlimit:4;stroke-dasharray:none;stroke-opacity:0.6" />
    <path
       d="M 36.4,25.97 L 38.49,26.7"
       id="p3391"
       style="fill:none;fill-rule:evenodd;stroke:#d7e6ff;stroke-width:1px;stroke-linecap:round;stroke-linejoin:miter;stroke-opacity:0.77999998" />
    <path
       d="M 40.68,26.3 L 45.92,28.18"
       id="p3408"
       style="fill:none;fill-rule:evenodd;stroke:#cec1b5;stroke-width:0.40000001;stroke-linecap:round;stroke-linejoin:miter;stroke-miterlimit:4;stroke-dasharray:none;stroke-opacity:0.52999998;display:inline" />
    <path
       d="M 8.78,15.18 C 7.93,14.91 7.89,16 8.28,16.2 C 8.67,16.39 9.06,16.43 9.06,16.43 C 9.06,16.43 9.02,16.2 9.14,15.88 C 9.25,15.57 9.68,15.53 9.68,15.53 L 8.78,15.18 z"
       id="p3395"
       style="fill:#131313;fill-opacity:0.62000002;fill-rule:evenodd;stroke:none;display:inline" />
    <path
       d="M 7.74,15.22 L 23.51,20.46"
       id="p3393"
       style="fill:none;fill-rule:evenodd;stroke:#c4d2f8;stroke-width:0.30000001;stroke-linecap:round;stroke-linejoin:miter;stroke-miterlimit:4;stroke-dasharray:none;stroke-opacity:0.81999984" />
    <path
       d="M 41.9,28.18 C 41.96,27.09 42.09,26.41 42.68,25.65"
       id="p3403"
       style="fill:none;fill-opacity:0.26000001;fill-rule:evenodd;stroke:#3b3d43;stroke-width:0.2;stroke-linecap:butt;stroke-linejoin:miter;stroke-miterlimit:4;stroke-dasharray:none;stroke-opacity:0.81999984;display:inline" />
    <path
       d="M 37.46,25.2 L 39.99,26.02"
       id="p3410"
       style="fill:none;fill-rule:evenodd;stroke:#cec1b5;stroke-width:0.60000002;stroke-linecap:round;stroke-linejoin:miter;stroke-miterlimit:4;stroke-dasharray:none;stroke-opacity:0.52999998;display:inline" />
    <path
       d="M 42.3,26.14 C 42.3,26.14 38.87,24.49 37.56,24.06 C 36.24,23.64 4.55,13.73 4.55,13.73"
       id="p3405"
       style="fill:none;fill-rule:evenodd;stroke:#191c20;stroke-width:0.2;stroke-linecap:butt;stroke-linejoin:miter;stroke-miterlimit:4;stroke-dasharray:none;stroke-opacity:0.83999999;display:inline" />
    <path
       d="M 36.91,25.29 L 38.15,25.7"
       id="p3412"
       style="fill:none;fill-rule:evenodd;stroke:#eef2f8;stroke-width:0.30000001;stroke-linecap:round;stroke-linejoin:miter;stroke-miterlimit:4;stroke-dasharray:none;stroke-opacity:0.88999999;display:inline" />
    <path
       d="M 44.31,27.82 L 45.52,28.22"
       id="p3417"
       style="fill:none;fill-rule:evenodd;stroke:#726a3f;stroke-width:0.40000001;stroke-linecap:round;stroke-linejoin:miter;stroke-miterlimit:4;stroke-dasharray:none;stroke-opacity:0.88999999" />
    <path
       d="M 41.55,26.75 L 41.89,26.85"
       id="p3419"
       style="fill:none;fill-rule:evenodd;stroke:#eeedeb;stroke-width:0.40000001;stroke-linecap:round;stroke-linejoin:miter;stroke-miterlimit:4;stroke-dasharray:none;stroke-opacity:0.79000005;display:inline" />
    <path
       d="M 38.1,25.34 L 38.27,24.88"
       id="p3426"
       style="fill:none;fill-rule:evenodd;stroke:#c7e8f6;stroke-width:0.30000001;stroke-linecap:round;stroke-linejoin:miter;stroke-miterlimit:4;stroke-dasharray:none;stroke-opacity:0.82999998" />
    <path
       d="M 3.1,14.68 L 6,15.65"
       id="p3428"
       style="fill:none;fill-rule:evenodd;stroke:#cadcf1;stroke-width:0.40000001;stroke-linecap:round;stroke-linejoin:miter;stroke-miterlimit:4;stroke-dasharray:none;stroke-opacity:0.62000002" />
    <path
       d="M 15.66,32.95 C 15.48,32.73 15.59,32.3 15.91,31.98 C 16.22,31.66 16.62,31.57 16.8,31.79"
       id="p3351"
       style="fill:none;fill-opacity:1;fill-rule:nonzero;stroke:#090f59;stroke-width:0.19;stroke-linecap:round;stroke-linejoin:miter;marker:none;stroke-miterlimit:4;stroke-dashoffset:0;stroke-opacity:1;visibility:visible;display:inline;overflow:visible;enable-background:accumulate" />
    <path
       d="M 2.84,21.27 C 2.46,21.87 3.03,22.59 3.44,23.16 C 3.86,23.73 5.87,26.23 5.87,26.23 C 5.87,26.23 5.71,26.79 6.29,26.99 C 6.42,27.04 6.55,27.03 6.55,27.03 C 6.55,27.03 7.8,28.21 9.02,29.19 C 10.23,30.18 13.11,31.69 13.61,32.03 C 14.1,32.38 15.35,33.32 15.99,33.21 C 16.64,33.1 17.13,32.45 17.05,31.84 C 16.98,31.24 15.46,29 14.63,27.9 C 13.79,26.8 11.75,24.49 11.22,23.96 C 10.69,23.43 10.5,23.31 10.5,23.31 C 10.5,23.31 10,21.95 8.68,22.22 C 7.35,22.48 6.82,23.31 6.67,23.73 C 6.52,24.15 6.4,24.3 6.4,24.3 C 6.4,24.3 4.43,22.14 2.84,21.27 z"
       id="p3305"
       style="opacity:1;fill:none;fill-opacity:1;fill-rule:evenodd;stroke:#070921;stroke-width:0.5;stroke-linecap:butt;stroke-linejoin:miter;stroke-miterlimit:4;stroke-dasharray:none;stroke-opacity:1" />
    <path
       d="M 2.99,15.29 C 1.86,14.9 2.6,12.74 3.78,13.01 C 4.82,13.26 36.07,23.12 37.56,23.51 C 39.06,23.91 42.69,25.65 42.69,25.65 L 42.74,25.8 C 42.74,25.8 45.4,27.37 46.05,27.76 C 46.5,28.03 46.33,28.68 45.82,28.69 C 45.32,28.7 42.54,28.24 41.64,28.14 C 40.75,28.04 38.51,27.44 37.36,27.1 C 36.22,26.75 4.13,15.68 2.99,15.29 z"
       id="p3367"
       style="fill:none;fill-opacity:1;fill-rule:evenodd;stroke:#070809;stroke-width:0.5;stroke-linecap:butt;stroke-linejoin:miter;stroke-miterlimit:4;stroke-dasharray:none;stroke-opacity:1;display:inline" />
  </g>
</svg>
