<?xml version="1.0" encoding="UTF-8" standalone="no"?>
<!-- Created with Inkscape (http://www.inkscape.org/) -->
<svg
   xmlns:svg="http://www.w3.org/2000/svg"
   xmlns="http://www.w3.org/2000/svg"
   version="1.0"
   width="100%"
   height="100%"
   viewBox="0 0 48 48"
   id="_stabilo01"
   style="display:inline">
  <defs
     id="defs2385" />
  <path
     d="M 4.25,0.25 C 2.034,0.25 0.25,2.034 0.25,4.25 L 0.25,43.75 C 0.25,45.966 2.034,47.75 4.25,47.75 L 43.75,47.75 C 45.966,47.75 47.75,45.966 47.75,43.75 L 47.75,4.25 C 47.75,2.034 45.966,0.25 43.75,0.25 L 4.25,0.25 z"
     id="r2593"
     style="opacity:1;fill:#fffbfb;fill-opacity:1;fill-rule:evenodd;stroke:none;marker:none;visibility:visible;display:inline;overflow:visible;enable-background:accumulate" />
  <path
     d="M 35.021459,41.922747 L 29.356223,4.7381974"
     id="path3348"
     style="fill:none;fill-rule:evenodd;stroke:#0a0f33;stroke-width:5.19999981;stroke-linecap:round;stroke-linejoin:miter;stroke-miterlimit:4;stroke-dasharray:none;stroke-opacity:1" />
  <path
     d="M 42.117505,9.0893241 L 7.530562,23.872049"
     id="path3350"
     style="fill:none;fill-rule:evenodd;stroke:#0a0f33;stroke-width:5.19999981;stroke-linecap:round;stroke-linejoin:miter;stroke-miterlimit:4;stroke-dasharray:none;stroke-opacity:1;display:inline" />
  <path
     d="M 8.6549203,42.150184 L 17.71418,5.6438082"
     id="path3352"
     style="fill:none;fill-rule:evenodd;stroke:#0a0f33;stroke-width:5.19999981;stroke-linecap:round;stroke-linejoin:miter;stroke-miterlimit:4;stroke-dasharray:none;stroke-opacity:1;display:inline" />
  <path
     d="M 0.25,26.71875 L 0.25,32.0625 L 22.25,37.1875 C 23.160286,37.415787 24.135322,37.149568 24.78125,36.46875 C 25.427178,35.78793 25.650815,34.80328 25.375,33.90625 C 25.099184,33.009222 24.354351,32.325301 23.4375,32.125 L 0.25,26.71875 z"
     id="path3363"
     style="fill:#0a0f33;fill-opacity:1;fill-rule:evenodd;stroke:none;stroke-width:5.19999981;stroke-linecap:round;stroke-linejoin:miter;stroke-miterlimit:4;stroke-dasharray:none;stroke-opacity:1;display:inline" />
  <path
     d="M 26,20.5 C 24.933655,20.521878 23.99723,21.187992 23.625,22.1875 C 23.252769,23.187008 23.520226,24.317197 24.3125,25.03125 L 46.8125,46.3125 C 47.39075,45.619147 47.75,44.727536 47.75,43.75 L 47.75,40.03125 L 27.875,21.25 C 27.376568,20.757602 26.700519,20.487182 26,20.5 z"
     id="path3354"
     style="fill:#0a0f33;fill-opacity:1;fill-rule:evenodd;stroke:none;stroke-width:5.19999981;stroke-linecap:round;stroke-linejoin:miter;stroke-miterlimit:4;stroke-dasharray:none;stroke-opacity:1;display:inline" />
  <rect
     width="47.5"
     height="47.5"
     ry="4"
     x="0.25"
     y="0.25"
     id="r3365"
     style="opacity:1;fill:none;fill-opacity:1;fill-rule:evenodd;stroke:#000000;stroke-width:0.5;stroke-linecap:round;stroke-linejoin:miter;marker:none;stroke-miterlimit:4;stroke-dasharray:none;stroke-dashoffset:0;stroke-opacity:1;visibility:visible;display:inline;overflow:visible;enable-background:accumulate" />
</svg>
