<?xml version="1.0" encoding="UTF-8" standalone="no"?>
<!-- Created with Inkscape (http://www.inkscape.org/) -->
<svg
   xmlns:dc="http://purl.org/dc/elements/1.1/"
   xmlns:cc="http://creativecommons.org/ns#"
   xmlns:rdf="http://www.w3.org/1999/02/22-rdf-syntax-ns#"
   xmlns:svg="http://www.w3.org/2000/svg"
   xmlns="http://www.w3.org/2000/svg"
   xmlns:xlink="http://www.w3.org/1999/xlink"
   xmlns:sodipodi="http://sodipodi.sourceforge.net/DTD/sodipodi-0.dtd"
   xmlns:inkscape="http://www.inkscape.org/namespaces/inkscape"
   version="1.0"
   width="100%"
   height="100%"
   viewBox="0 0 48 48"
   id="_stabilo01"
   style="display:inline"
   sodipodi:version="0.32"
   inkscape:version="0.46"
   sodipodi:docname="iconopacity2.svg"
   inkscape:output_extension="org.inkscape.output.svg.inkscape">
  <metadata
     id="metadata27">
    <rdf:RDF>
      <cc:Work
         rdf:about="">
        <dc:format>image/svg+xml</dc:format>
        <dc:type
           rdf:resource="http://purl.org/dc/dcmitype/StillImage" />
      </cc:Work>
    </rdf:RDF>
  </metadata>
  <sodipodi:namedview
     inkscape:window-height="670"
     inkscape:window-width="672"
     inkscape:pageshadow="2"
     inkscape:pageopacity="0.0"
     guidetolerance="10.0"
     gridtolerance="10.0"
     objecttolerance="10.0"
     borderopacity="1.0"
     bordercolor="#666666"
     pagecolor="#ffffff"
     id="base"
     showgrid="false"
     inkscape:zoom="9.7083333"
     inkscape:cx="18.116765"
     inkscape:cy="24"
     inkscape:window-x="376"
     inkscape:window-y="158"
     inkscape:current-layer="_stabilo01" />
  <defs
     id="defs2385">
    <inkscape:perspective
       sodipodi:type="inkscape:persp3d"
       inkscape:vp_x="0 : 0.5 : 1"
       inkscape:vp_y="0 : 1000 : 0"
       inkscape:vp_z="1 : 0.5 : 1"
       inkscape:persp3d-origin="0.5 : 0.33333333 : 1"
       id="perspective31" />
    <linearGradient
       id="linearGradient3616">
      <stop
         id="stop3618"
         style="stop-color:#ffffff;stop-opacity:1"
         offset="0" />
      <stop
         id="stop3620"
         style="stop-color:#ffffff;stop-opacity:0.42105263"
         offset="1" />
    </linearGradient>
    <linearGradient
       id="linearGradient3608">
      <stop
         id="stop3610"
         style="stop-color:#95c03c;stop-opacity:1"
         offset="0" />
      <stop
         id="stop3612"
         style="stop-color:#95c03c;stop-opacity:0.39215687"
         offset="1" />
    </linearGradient>
    <linearGradient
       x1="23.956503"
       y1="15.397541"
       x2="23.956503"
       y2="43.496044"
       id="linearGradient3614"
       xlink:href="#linearGradient3608"
       gradientUnits="userSpaceOnUse" />
    <linearGradient
       x1="23.956503"
       y1="15.397541"
       x2="23.956503"
       y2="43.496044"
       id="linearGradient3622"
       xlink:href="#linearGradient3616"
       gradientUnits="userSpaceOnUse" />
    <linearGradient
       inkscape:collect="always"
       xlink:href="#linearGradient3608"
       id="linearGradient2437"
       gradientUnits="userSpaceOnUse"
       x1="23.956503"
       y1="15.397541"
       x2="23.956503"
       y2="43.496044" />
    <linearGradient
       inkscape:collect="always"
       xlink:href="#linearGradient3616"
       id="linearGradient2439"
       gradientUnits="userSpaceOnUse"
       x1="23.956503"
       y1="15.397541"
       x2="23.956503"
       y2="43.496044" />
    <linearGradient
       inkscape:collect="always"
       xlink:href="#linearGradient3608"
       id="linearGradient2442"
       gradientUnits="userSpaceOnUse"
       x1="23.956503"
       y1="15.397541"
       x2="23.956503"
       y2="43.496044" />
    <linearGradient
       inkscape:collect="always"
       xlink:href="#linearGradient3616"
       id="linearGradient2444"
       gradientUnits="userSpaceOnUse"
       x1="23.956503"
       y1="15.397541"
       x2="23.956503"
       y2="43.496044" />
    <linearGradient
       inkscape:collect="always"
       xlink:href="#linearGradient3608"
       id="linearGradient2447"
       gradientUnits="userSpaceOnUse"
       x1="23.956503"
       y1="15.397541"
       x2="23.956503"
       y2="43.496044" />
    <linearGradient
       inkscape:collect="always"
       xlink:href="#linearGradient3616"
       id="linearGradient2449"
       gradientUnits="userSpaceOnUse"
       x1="23.956503"
       y1="15.397541"
       x2="23.956503"
       y2="43.496044" />
    <linearGradient
       inkscape:collect="always"
       xlink:href="#linearGradient3608"
       id="linearGradient2452"
       gradientUnits="userSpaceOnUse"
       x1="23.956503"
       y1="15.397541"
       x2="23.956503"
       y2="43.496044" />
    <linearGradient
       inkscape:collect="always"
       xlink:href="#linearGradient3616"
       id="linearGradient2454"
       gradientUnits="userSpaceOnUse"
       x1="23.956503"
       y1="15.397541"
       x2="23.956503"
       y2="43.496044" />
    <marker
       style="overflow:visible"
       id="Arrow1Mend"
       orient="auto"
       refY="0"
       refX="0">
      <path
         style="fill-rule:evenodd;stroke:#000000;stroke-width:1pt;marker-start:none"
         id="path3202"
         transform="matrix(-0.4,0,0,-0.4,-4,0)"
         d="M 0,0 L 5,-5 L -12.5,0 L 5,5 L 0,0 z" />
    </marker>
    <filter
       id="filter2594">
      <feBlend
         id="feBlend2596"
         in2="BackgroundImage"
         mode="screen" />
    </filter>
    <clipPath
       id="clipPath2598">
      <rect
         style="opacity:1;fill:#000000;fill-opacity:1;fill-rule:evenodd;stroke:#d7d7d7;stroke-width:0.91611463;stroke-linecap:round;stroke-linejoin:miter;marker:none;marker-start:none;marker-mid:none;marker-end:none;stroke-miterlimit:4;stroke-dasharray:none;stroke-dashoffset:0;stroke-opacity:0.86818183;visibility:visible;display:inline;overflow:visible;enable-background:accumulate"
         id="rect2600"
         y="0"
         x="0"
         ry="0"
         height="48"
         width="48" />
    </clipPath>
    <clipPath
       id="clipPath3129">
      <rect
         style="opacity:1;fill:#000000;fill-opacity:1;fill-rule:evenodd;stroke:#d7d7d7;stroke-width:0.91611463;stroke-linecap:round;stroke-linejoin:miter;marker:none;marker-start:none;marker-mid:none;marker-end:none;stroke-miterlimit:4;stroke-dasharray:none;stroke-dashoffset:0;stroke-opacity:0.86818183;visibility:visible;display:inline;overflow:visible;enable-background:accumulate"
         id="rect3131"
         y="0"
         x="0"
         ry="0"
         height="48"
         width="48" />
    </clipPath>
    <filter
       id="filter4022">
      <feBlend
         mode="screen"
         in2="BackgroundImage"
         id="feBlend4024" />
    </filter>
    <inkscape:perspective
       id="perspective2544"
       inkscape:persp3d-origin="0.5 : 0.33333333 : 1"
       inkscape:vp_z="1 : 0.5 : 1"
       inkscape:vp_y="0 : 1000 : 0"
       inkscape:vp_x="0 : 0.5 : 1"
       sodipodi:type="inkscape:persp3d" />
  </defs>
  <rect
     width="47.5"
     height="47.5"
     ry="4"
     x="0.25"
     y="0.25"
     id="rect2593"
     style="opacity:1;fill:#e0e0e0;fill-opacity:1;fill-rule:evenodd;stroke:none;stroke-width:0.5;stroke-linecap:round;stroke-linejoin:miter;marker:none;marker-start:none;marker-mid:none;marker-end:none;stroke-miterlimit:4;stroke-dasharray:none;stroke-dashoffset:0;stroke-opacity:1;visibility:visible;display:inline;overflow:visible;enable-background:accumulate" />
  <path
     d="M 4.25,0.25 C 2.034,0.25 0.25,2.034 0.25,4.25 L 0.25,6.21875 L 6.125,6.21875 L 6.125,0.25 L 4.25,0.25 z M 6.125,6.21875 L 6.125,12.15625 L 12.09375,12.15625 L 12.09375,6.21875 L 6.125,6.21875 z M 12.09375,6.21875 L 18.03125,6.21875 L 18.03125,0.25 L 12.09375,0.25 L 12.09375,6.21875 z M 18.03125,6.21875 L 18.03125,12.15625 L 24,12.15625 L 24,6.25 L 29.9375,6.25 L 29.9375,0.28125 L 24,0.28125 L 24,6.21875 L 18.03125,6.21875 z M 29.9375,6.25 L 29.9375,12.1875 L 35.90625,12.1875 L 35.90625,6.25 L 29.9375,6.25 z M 35.90625,6.25 L 41.84375,6.25 L 41.84375,0.28125 L 35.90625,0.28125 L 35.90625,6.25 z M 41.84375,6.25 L 41.84375,12.1875 L 47.75,12.1875 L 47.75,6.25 L 41.84375,6.25 z M 41.84375,12.1875 L 35.90625,12.1875 L 35.90625,18.125 L 41.84375,18.125 L 41.84375,12.1875 z M 41.84375,18.125 L 41.84375,24.09375 L 47.75,24.09375 L 47.75,18.125 L 41.84375,18.125 z M 41.84375,24.09375 L 35.90625,24.09375 L 35.90625,30.03125 L 41.84375,30.03125 L 41.84375,24.09375 z M 41.84375,30.03125 L 41.84375,35.96875 L 47.75,35.96875 L 47.75,30.03125 L 41.84375,30.03125 z M 41.84375,35.96875 L 35.90625,35.96875 L 35.90625,41.9375 L 41.84375,41.9375 L 41.84375,35.96875 z M 41.84375,41.9375 L 41.84375,47.75 L 43.75,47.75 C 45.966,47.75 47.75,45.966 47.75,43.75 L 47.75,41.9375 L 41.84375,41.9375 z M 35.90625,41.9375 L 29.9375,41.9375 L 29.9375,47.75 L 35.90625,47.75 L 35.90625,41.9375 z M 29.9375,41.9375 L 29.9375,35.96875 L 24,35.96875 L 24,41.9375 L 29.9375,41.9375 z M 29.9375,35.96875 L 35.90625,35.96875 L 35.90625,30.03125 L 29.9375,30.03125 L 29.9375,35.96875 z M 29.9375,30.03125 L 29.9375,24.09375 L 24,24.09375 L 24,30.03125 L 29.9375,30.03125 z M 29.9375,24.09375 L 35.90625,24.09375 L 35.90625,18.125 L 29.9375,18.125 L 29.9375,24.09375 z M 29.9375,18.125 L 29.9375,12.1875 L 24,12.1875 L 24,18.125 L 29.9375,18.125 z M 18.03125,12.15625 L 12.09375,12.15625 L 12.09375,18.125 L 18.03125,18.125 L 18.03125,12.15625 z M 18.03125,18.125 L 18.03125,24.0625 L 23.96875,24.0625 L 23.96875,18.125 L 18.03125,18.125 z M 18.03125,24.0625 L 12.0625,24.0625 L 12.0625,30 L 18.03125,30 L 18.03125,24.0625 z M 18.03125,30 L 18.03125,35.9375 L 23.96875,35.9375 L 23.96875,30 L 18.03125,30 z M 18.03125,35.9375 L 12.0625,35.9375 L 12.0625,41.90625 L 18.03125,41.90625 L 18.03125,35.9375 z M 18.03125,41.90625 L 18.03125,47.75 L 23.96875,47.75 L 23.96875,41.90625 L 18.03125,41.90625 z M 12.0625,41.90625 L 6.125,41.90625 L 6.125,47.75 L 12.0625,47.75 L 12.0625,41.90625 z M 6.125,41.90625 L 6.125,35.9375 L 0.25,35.9375 L 0.25,41.90625 L 6.125,41.90625 z M 6.125,35.9375 L 12.0625,35.9375 L 12.0625,30 L 6.125,30 L 6.125,35.9375 z M 6.125,30 L 6.125,24.0625 L 0.25,24.0625 L 0.25,30 L 6.125,30 z M 6.125,24.0625 L 12.0625,24.0625 L 12.0625,18.09375 L 6.125,18.09375 L 6.125,24.0625 z M 6.125,18.09375 L 6.125,12.15625 L 0.25,12.15625 L 0.25,18.09375 L 6.125,18.09375 z"
     id="rect3569"
     style="opacity:1;fill:#9f9f9f;fill-opacity:1;fill-rule:evenodd;stroke:none;stroke-width:0.5;stroke-linecap:round;stroke-linejoin:miter;marker:none;marker-start:none;marker-mid:none;marker-end:none;stroke-miterlimit:4;stroke-dasharray:none;stroke-dashoffset:0;stroke-opacity:1;visibility:visible;display:inline;overflow:visible;enable-background:accumulate" />
  <rect
     width="47.5"
     height="47.5"
     ry="4"
     x="0.25"
     y="0.25"
     id="rect3365"
     style="opacity:1;fill:none;fill-opacity:1;fill-rule:evenodd;stroke:#000000;stroke-width:0.5;stroke-linecap:round;stroke-linejoin:miter;marker:none;marker-start:none;marker-mid:none;marker-end:none;stroke-miterlimit:4;stroke-dasharray:none;stroke-dashoffset:0;stroke-opacity:1;visibility:visible;display:inline;overflow:visible;enable-background:accumulate" />
  <path
     style="fill:url(#linearGradient2452);fill-opacity:1;fill-rule:evenodd;stroke:url(#linearGradient2454);stroke-width:1.28999996;stroke-linecap:butt;stroke-linejoin:miter;marker:none;stroke-miterlimit:4;stroke-dashoffset:0;stroke-opacity:1;visibility:visible;display:inline;overflow:visible;enable-background:accumulate"
     id="r2481"
     d="M 10.021503,15.681043 L 10.171503,15.681043 C 11.791503,15.681043 13.101503,16.981043 13.101503,18.611043 L 13.101503,27.921043 C 13.101503,29.551043 11.791503,30.861043 10.171503,30.861043 L 10.021503,30.861043 C 8.3915032,30.861043 7.0915032,29.551043 7.0915032,27.921043 L 7.0915032,18.611043 C 7.0915032,16.981043 8.3915032,15.681043 10.021503,15.681043 z" />
  <path
     style="fill:url(#linearGradient2447);fill-opacity:1;fill-rule:evenodd;stroke:url(#linearGradient2449);stroke-width:1.28999996;stroke-linecap:butt;stroke-linejoin:miter;marker:none;stroke-miterlimit:4;stroke-dashoffset:0;stroke-opacity:1;visibility:visible;display:inline;overflow:visible;enable-background:accumulate"
     id="r3255"
     d="M 37.741503,15.681043 L 37.891503,15.681043 C 39.511503,15.681043 40.821503,16.981043 40.821503,18.611043 L 40.821503,27.921043 C 40.821503,29.551043 39.511503,30.861043 37.891503,30.861043 L 37.741503,30.861043 C 36.121503,30.861043 34.811503,29.551043 34.811503,27.921043 L 34.811503,18.611043 C 34.811503,16.981043 36.121503,15.681043 37.741503,15.681043 z" />
  <path
     style="fill:url(#linearGradient2442);fill-opacity:1;fill-rule:evenodd;stroke:url(#linearGradient2444);stroke-width:1.28999996;stroke-linecap:butt;stroke-linejoin:miter;marker:none;stroke-miterlimit:4;stroke-dashoffset:0;stroke-opacity:1;visibility:visible;display:inline;overflow:visible;enable-background:accumulate"
     id="r3257"
     d="M 13.111503,15.661043 C 13.101503,15.681043 13.111503,15.701043 13.111503,15.731043 L 13.111503,32.321043 C 13.111503,33.941043 14.421503,35.261043 16.041503,35.261043 L 16.981503,35.261043 L 16.981503,39.911043 C 16.981503,41.541043 18.291503,42.851043 19.921503,42.851043 L 20.071503,42.851043 C 21.701503,42.851043 23.011503,41.541043 23.011503,39.911043 L 23.011503,35.261043 L 25.201503,35.261043 L 25.201503,39.911043 C 25.201503,41.541043 26.511503,42.851043 28.141503,42.851043 L 28.291503,42.851043 C 29.921503,42.851043 31.201503,41.541043 31.201503,39.911043 L 31.201503,35.261043 L 32.011503,35.261043 C 33.641503,35.261043 34.951503,33.941043 34.951503,32.321043 L 34.951503,15.731043 C 34.951503,15.701043 34.951503,15.681043 34.951503,15.661043 L 13.111503,15.661043 z" />
  <path
     style="fill:url(#linearGradient2437);fill-opacity:1;fill-rule:evenodd;stroke:url(#linearGradient2439);stroke-width:1.29999995;stroke-linecap:butt;stroke-linejoin:miter;marker:none;stroke-miterlimit:4;stroke-dasharray:none;stroke-dashoffset:0;stroke-opacity:1;visibility:visible;display:inline;overflow:visible;enable-background:accumulate"
     id="p3274"
     d="M 17.361503,3.8210429 C 17.231503,3.8410429 17.121503,3.9010429 17.011503,3.9810429 C 16.561503,4.2810429 16.431503,4.8710429 16.731503,5.3210429 L 18.201503,7.4810429 C 15.151503,9.2010429 13.111503,12.201043 13.111503,15.661043 L 34.921503,15.661043 C 34.921503,12.191043 32.861503,9.1610429 29.791503,7.4410429 L 31.231503,5.3210429 C 31.531503,4.8710429 31.401503,4.2810429 30.951503,3.9810429 C 30.501503,3.6710429 29.911503,3.7810429 29.611503,4.2310429 L 27.981503,6.6010429 C 26.751503,6.1710429 25.411503,5.9410429 24.011503,5.9410429 C 22.591503,5.9410429 21.231503,6.1910429 19.981503,6.6310429 L 18.361503,4.2310429 C 18.131503,3.8910429 17.731503,3.7410429 17.361503,3.8210429 z" />
  <path
     style="fill:#ffffff;fill-opacity:1;fill-rule:evenodd;stroke:none;marker:none;visibility:visible;display:inline;overflow:visible;enable-background:accumulate"
     id="p3287"
     d="M 20.512303,10.864043 C 20.512303,11.495894 20.015608,12.008112 19.402903,12.008112 C 18.790199,12.008112 18.293503,11.495894 18.293503,10.864043 C 18.293503,10.232191 18.790199,9.7199737 19.402903,9.7199737 C 20.015608,9.7199737 20.512303,10.232191 20.512303,10.864043 L 20.512303,10.864043 z" />
  <path
     style="fill:#ffffff;fill-opacity:1;fill-rule:evenodd;stroke:none;marker:none;visibility:visible;display:inline;overflow:visible;enable-background:accumulate"
     id="p3289"
     d="M 29.272303,10.864043 C 29.272303,11.495894 28.775607,12.008112 28.162903,12.008112 C 27.550199,12.008112 27.053503,11.495894 27.053503,10.864043 C 27.053503,10.232191 27.550199,9.7199737 28.162903,9.7199737 C 28.775607,9.7199737 29.272303,10.232191 29.272303,10.864043 L 29.272303,10.864043 z" />
  <path
     d="M 7.0625,17.690317 L 7.0625,22.096567 L 4.03125,21.440317 L 9.875,28.096567 L 15.75,21.440317 L 12.6875,22.096567 L 12.6875,17.690317 L 7.0625,17.690317 z M 3.8125,28.190317 C 3.2256974,28.190317 2.75,28.666014 2.75,29.252817 C 2.7499999,29.83962 3.2256974,30.315317 3.8125,30.315317 L 15.5625,30.315317 C 16.149303,30.315317 16.625,29.83962 16.625,29.252817 C 16.625,28.666014 16.149303,28.190317 15.5625,28.190317 L 3.8125,28.190317 z"
     id="path2414"
     style="fill:#000000;fill-opacity:0.78431373;fill-rule:evenodd;stroke:#ffffff;stroke-width:0.5;stroke-linecap:round;stroke-linejoin:round;stroke-miterlimit:4;stroke-dasharray:none;stroke-opacity:1" />
  <path
     d="M 37.53125,16.377817 L 38.1875,19.440317 L 33.78125,19.440317 L 33.78125,25.065317 L 38.1875,25.065317 L 37.53125,28.096567 L 44.1875,22.252817 L 37.53125,16.377817 z M 32.5625,28.190317 C 31.975697,28.190317 31.5,28.666014 31.5,29.252817 C 31.5,29.83962 31.975697,30.315317 32.5625,30.315317 L 44.28125,30.315317 C 44.868053,30.315317 45.34375,29.83962 45.34375,29.252817 C 45.34375,28.666014 44.868053,28.190317 44.28125,28.190317 L 32.5625,28.190317 z"
     id="path2416"
     style="fill:#000000;fill-opacity:0.78431373;fill-rule:evenodd;stroke:#ffffff;stroke-width:0.5;stroke-linecap:round;stroke-linejoin:round;stroke-miterlimit:4;stroke-dasharray:none;stroke-opacity:1;display:inline" />
  <path
     d="M 13.626988,34.384253 L 5.0380898,39.329801 L 13.626988,44.275348 L 13.626988,34.384253 z"
     id="path2430"
     style="fill:#000000;fill-opacity:0.78431373;fill-rule:evenodd;stroke:#ffffff;stroke-width:0.5;stroke-linecap:round;stroke-linejoin:round;marker:none;marker-start:none;marker-mid:none;marker-end:none;stroke-miterlimit:4;stroke-dasharray:none;stroke-dashoffset:0;stroke-opacity:1;visibility:visible;display:inline;overflow:visible;enable-background:accumulate" />
  <path
     d="M 35.242868,34.353406 L 43.885729,39.329801 L 35.242868,44.306195 L 35.242868,34.353406 z"
     id="path2435"
     style="fill:#000000;fill-opacity:0.78431373;fill-rule:evenodd;stroke:#ffffff;stroke-width:0.49999997;stroke-linecap:round;stroke-linejoin:round;marker:none;marker-start:none;marker-mid:none;marker-end:none;stroke-miterlimit:4;stroke-dasharray:none;stroke-dashoffset:0;stroke-opacity:1;visibility:visible;display:inline;overflow:visible;enable-background:accumulate" />
</svg>
