<?xml version="1.0" encoding="UTF-8" standalone="no"?>
<!-- Created with Inkscape (http://www.inkscape.org/) -->
<svg
   xmlns:svg="http://www.w3.org/2000/svg"
   xmlns="http://www.w3.org/2000/svg"
   version="1.0"
   width="100%"
   height="100%"
   viewBox="0 0 48 48"
   id="_stabilo01"
   style="display:inline">
  <defs
     id="defs2385" />
  <path
     d="M 4.25,0.25 C 2.034,0.25 0.25,2.034 0.25,4.25 L 0.25,43.75 C 0.25,45.966 2.034,47.75 4.25,47.75 L 43.75,47.75 C 45.966,47.75 47.75,45.966 47.75,43.75 L 47.75,4.25 C 47.75,2.034 45.966,0.25 43.75,0.25 L 4.25,0.25 z"
     id="r2593"
     style="opacity:1;fill:#fffbfb;fill-opacity:1;fill-rule:evenodd;stroke:none;marker:none;visibility:visible;display:inline;overflow:visible;enable-background:accumulate" />
  <path
     d="M 29.09375,0.75 C 27.976311,0.81806836 26.94717,1.3428182 26.25,2.21875 C 25.55283,3.0946817 25.253107,4.23953 25.4375,5.34375 L 26.375,11.53125 L 19.625,14.40625 L 21.5625,6.59375 C 21.885406,5.3580238 21.600125,4.0426688 20.78125,3.0625 C 19.962374,2.0823311 18.710958,1.5583052 17.4375,1.65625 C 15.715127,1.7794606 14.27237,3.0070691 13.875,4.6875 L 10.5,18.3125 L 5.96875,20.25 C 4.6177429,20.771027 3.6558723,22.001647 3.46875,23.4375 C 3.3284081,24.51439 3.6541588,25.58014 4.3125,26.40625 L 0.25,25.4375 L 0.25,33.5625 L 6.34375,35 L 4.8125,41.1875 C 4.2861036,43.310345 5.5646555,45.473604 7.6875,46 C 9.8103445,46.526396 11.973604,45.216595 12.5,43.09375 L 14.0625,36.8125 L 21.84375,38.625 C 23.231795,38.989432 24.695153,38.567941 25.6875,37.53125 C 26.679847,36.494561 27.049727,34.995797 26.625,33.625 C 26.200272,32.254203 25.060899,31.231508 23.65625,30.9375 L 15.96875,29.125 L 17.25,24.03125 L 22.40625,21.8125 C 21.887948,23.291598 22.284505,24.929094 23.4375,26 L 29.46875,31.78125 L 31.125,42.53125 C 31.461549,44.688612 33.467638,46.149049 35.625,45.8125 C 37.782362,45.475951 39.274049,43.469862 38.9375,41.3125 L 38.84375,40.75 L 45.65625,47.25 C 46.903354,46.574209 47.75,45.2735 47.75,43.75 L 47.75,38.3125 L 36.90625,27.9375 L 35.125,16.375 L 43.65625,12.71875 C 45.424339,11.982679 46.415463,10.08833 46,8.21875 C 45.584536,6.3491699 43.882178,5.0429563 41.96875,5.125 C 41.482828,5.1519833 41.006074,5.268523 40.5625,5.46875 L 33.875,8.3125 L 33.25,4.15625 C 32.969162,2.1082862 31.156982,0.62311591 29.09375,0.75 z"
     id="path3159"
     style="fill:#0a0f33;fill-opacity:1;fill-rule:evenodd;stroke:none;stroke-width:7.9000001;stroke-linecap:round;stroke-linejoin:miter;stroke-miterlimit:4;stroke-dasharray:none;stroke-opacity:1;display:inline" />
  <rect
     width="47.5"
     height="47.5"
     ry="4"
     x="0.25"
     y="0.25"
     id="r3365"
     style="opacity:1;fill:none;fill-opacity:1;fill-rule:evenodd;stroke:#000000;stroke-width:0.5;stroke-linecap:round;stroke-linejoin:miter;marker:none;stroke-miterlimit:4;stroke-dasharray:none;stroke-dashoffset:0;stroke-opacity:1;visibility:visible;display:inline;overflow:visible;enable-background:accumulate" />
</svg>
