<?xml version="1.0" encoding="UTF-8" standalone="no"?>
<!-- Created with Inkscape (http://www.inkscape.org/) -->
<svg
   xmlns:svg="http://www.w3.org/2000/svg"
   xmlns="http://www.w3.org/2000/svg"
   version="1.0"
   width="100%"
   height="100%"
   viewBox="0 0 48 48"
   id="_stabilo01"
   style="display:inline">
  <defs
     id="defs2385" />
  <path
     d="M 4.25,0.25 C 2.034,0.25 0.25,2.034 0.25,4.25 L 0.25,43.75 C 0.25,45.966 2.034,47.75 4.25,47.75 L 43.75,47.75 C 45.966,47.75 47.75,45.966 47.75,43.75 L 47.75,4.25 C 47.75,2.034 45.966,0.25 43.75,0.25 L 4.25,0.25 z"
     id="r2593"
     style="opacity:1;fill:#fffbfb;fill-opacity:1;fill-rule:evenodd;stroke:none;marker:none;visibility:visible;display:inline;overflow:visible;enable-background:accumulate" />
  <rect
     width="47.5"
     height="47.5"
     ry="4"
     x="0.25"
     y="0.25"
     id="r3365"
     style="opacity:1;fill:none;fill-opacity:1;fill-rule:evenodd;stroke:#000000;stroke-width:0.5;stroke-linecap:round;stroke-linejoin:miter;marker:none;stroke-miterlimit:4;stroke-dasharray:none;stroke-dashoffset:0;stroke-opacity:1;visibility:visible;display:inline;overflow:visible;enable-background:accumulate" />
  <path
     d="M 23.984375,2.734375 C 12.243122,2.734375 2.734375,12.274372 2.734375,24.015625 C 2.734375,35.756878 12.243122,45.265625 23.984375,45.265625 C 35.725628,45.265625 45.265625,35.756878 45.265625,24.015625 C 45.265625,12.274372 35.725628,2.734375 23.984375,2.734375 z"
     id="path2439"
     style="fill:#0a0f33;fill-opacity:1;fill-rule:evenodd;stroke:#ffffff;stroke-width:1;stroke-linecap:round;stroke-linejoin:round;marker:none;marker-start:none;marker-mid:none;marker-end:none;stroke-miterlimit:4;stroke-dashoffset:0;stroke-opacity:1;visibility:visible;display:inline;overflow:visible;enable-background:accumulate" />
</svg>
