<?xml version="1.0" encoding="UTF-8" standalone="no"?>
<!-- Created with Inkscape (http://www.inkscape.org/) -->
<svg
   xmlns:svg="http://www.w3.org/2000/svg"
   xmlns="http://www.w3.org/2000/svg"
   version="1.0"
   width="100%"
   height="100%"
   viewBox="0 0 48 48"
   id="_stabilo01"
   style="display:inline">
  <defs
     id="defs2385" />
  <path
     d="M 4.25,0.25 C 2.034,0.25 0.25,2.034 0.25,4.25 L 0.25,43.75 C 0.25,45.966 2.034,47.75 4.25,47.75 L 43.75,47.75 C 45.966,47.75 47.75,45.966 47.75,43.75 L 47.75,4.25 C 47.75,2.034 45.966,0.25 43.75,0.25 L 4.25,0.25 z"
     id="r2593"
     style="opacity:1;fill:#fffbfb;fill-opacity:1;fill-rule:evenodd;stroke:none;marker:none;visibility:visible;display:inline;overflow:visible;enable-background:accumulate" />
  <path
     d="M 35.021459,41.922747 L 29.356223,4.7381974"
     id="path3348"
     style="opacity:1;fill:none;fill-opacity:1;fill-rule:evenodd;stroke:#0a0f33;stroke-width:2.79999995;stroke-linecap:round;stroke-linejoin:miter;marker:none;marker-start:none;marker-mid:none;marker-end:none;stroke-miterlimit:4;stroke-dasharray:none;stroke-dashoffset:0;stroke-opacity:1;visibility:visible;display:inline;overflow:visible;enable-background:accumulate" />
  <path
     d="M 42.117505,9.0893241 L 7.530562,23.872049"
     id="path3350"
     style="opacity:1;fill:none;fill-opacity:1;fill-rule:evenodd;stroke:#0a0f33;stroke-width:2.79999995;stroke-linecap:round;stroke-linejoin:miter;marker:none;marker-start:none;marker-mid:none;marker-end:none;stroke-miterlimit:4;stroke-dasharray:none;stroke-dashoffset:0;stroke-opacity:1;visibility:visible;display:inline;overflow:visible;enable-background:accumulate" />
  <path
     d="M 8.6549203,42.150184 L 17.71418,5.6438082"
     id="path3352"
     style="fill:none;fill-rule:evenodd;stroke:#0a0f33;stroke-width:2.79999995;stroke-linecap:round;stroke-linejoin:miter;stroke-miterlimit:4;stroke-dasharray:none;stroke-opacity:1;display:inline" />
  <path
     d="M 26,21.84375 C 25.463767,21.913375 25.010733,22.298194 24.84375,22.8125 C 24.676767,23.326806 24.825689,23.878656 25.21875,24.25 L 47.34375,45.46875 C 47.592226,44.947017 47.75,44.368398 47.75,43.75 L 47.75,41.96875 L 27.15625,22.25 C 26.853713,21.944139 26.427361,21.79434 26,21.84375 z M 0.25,28.03125 L 0.25,30.875 L 21.9375,35.78125 C 22.441154,35.944286 23.003226,35.814371 23.375,35.4375 C 23.746776,35.060631 23.857376,34.501387 23.6875,34 C 23.517624,33.498613 23.086789,33.135773 22.5625,33.0625 L 0.25,28.03125 z"
     id="path3394"
     style="opacity:1;fill:#0a0f33;fill-opacity:1;fill-rule:evenodd;stroke:none;stroke-width:2.79999995;stroke-linecap:round;stroke-linejoin:miter;marker:none;stroke-miterlimit:4;stroke-dasharray:none;stroke-dashoffset:0;stroke-opacity:1;visibility:visible;display:inline;overflow:visible;enable-background:accumulate" />
  <rect
     width="47.5"
     height="47.5"
     ry="4"
     x="0.25"
     y="0.25"
     id="r3365"
     style="opacity:1;fill:none;fill-opacity:1;fill-rule:evenodd;stroke:#000000;stroke-width:0.5;stroke-linecap:round;stroke-linejoin:miter;marker:none;stroke-miterlimit:4;stroke-dasharray:none;stroke-dashoffset:0;stroke-opacity:1;visibility:visible;display:inline;overflow:visible;enable-background:accumulate" />
</svg>
