<?xml version="1.0" encoding="UTF-8" standalone="no"?>
<!-- Created with Inkscape (http://www.inkscape.org/) -->

<svg
   xmlns:svg="http://www.w3.org/2000/svg"
   xmlns="http://www.w3.org/2000/svg"
   version="1.1"
   width="100%"
   height="100%"
   viewBox="0 0 48 48"
   id="_stabilo01"
   style="display:inline">
  <defs
     id="defs2385" />
  <path
     d="M 0,0 48,0 48,48 0,48 0,0 z"
     id="r2593"
     style="fill:#fffbfb;fill-opacity:1;fill-rule:evenodd;stroke:none;marker:none;visibility:visible;display:inline;overflow:visible;enable-background:accumulate" />
  <rect
     width="47.5"
     height="47.5"
     ry="4"
     x="0.25"
     y="0.25"
     id="r3365"
     style="fill:none;stroke:#000000;stroke-width:0.5;stroke-linecap:round;stroke-linejoin:miter;stroke-miterlimit:4;stroke-opacity:1;stroke-dasharray:none;stroke-dashoffset:0;marker:none;visibility:visible;display:inline;overflow:visible;enable-background:accumulate" />
  <g
     transform="matrix(0.97,0,0,0.97,1,0.61)"
     id="g2552"
     style="display:inline">
    <g
       id="layer2"
       style="display:inline">
      <path
         d="m 6.28,36.49 c 0.15,0.14 11.92,9.14 11.92,9.14 0,0 -0.09,0.16 0.08,0.32 0.16,0.17 0.41,0.33 1.63,0.25 1.22,-0.08 20.98,-2.78 21.47,-2.78 0.48,0 0.65,-1.06 0.73,-1.46 0.08,-0.41 0.82,-30.37 0.9,-30.94 C 43.09,10.45 41.86,10.04 41.62,9.88 41.38,9.72 41.05,9.88 39.5,9.47 37.95,9.06 37.38,8.98 37.05,8.82 36.72,8.66 36.23,8.82 35.01,8.49 33.78,8.17 25.7,6.04 25.7,6.04 c 0,0 -0.65,0.17 -2.69,0.25 C 20.97,6.37 7.5,6.94 6.69,6.94 c -0.82,0 -1.23,0.08 -1.23,1.39 0,1.3 0.49,26.36 0.49,27.26 0,0.35 0.18,0.76 0.33,0.9 z"
         id="p2482"
         style="fill:#565656;fill-opacity:1;fill-rule:evenodd;stroke:none" />
      <path
         d="m 22.37,6.31 c -2.8,0.11 -14.9,0.62 -15.69,0.62 -0.47,0 -0.8,0.04 -1,0.32 1.73,0.54 4.8,1.43 5.66,1.71 1.19,0.4 0.88,0.27 1.62,-0.43 0.75,-0.71 4.97,-0.88 6.6,-0.97 1.62,-0.09 2.59,0.37 2.59,0.37 l 0.44,-1.4 -0.22,-0.22 z"
         id="p3775"
         style="fill:#b9b9b9;fill-opacity:0.27999998;fill-rule:evenodd;stroke:none" />
      <path
         d="m 22.86,6.48 c 0,0 0,1.8 -0.7,1.95 -0.71,0.16 -3.75,0.71 -3.75,0.71 l -3.04,0.15 c 0,0 2.26,1.56 2.57,1.56 0.31,0 2.66,0.7 2.66,0.7 l 6.24,-0.31 c 0,0 -2.11,-0.7 -2.42,-1.4 -0.31,-0.7 0.7,-2.03 0.62,-2.73 C 24.97,6.4 22.78,6.48 22.86,6.48 z"
         id="p3753"
         style="fill:#0e0e0e;fill-opacity:0.18000004;fill-rule:evenodd;stroke:none;display:inline" />
      <path
         d="m 25.71,6.06 c 0,0 -0.64,0.13 -2.68,0.22 -1.71,0.06 -10.05,0.43 -13.66,0.56 6.24,0.24 14.6,0.63 17.06,1.22 3.28,0.78 9.94,2.56 9.94,2.56 L 42.59,10.4 C 42.23,10.15 41.76,9.97 41.62,9.87 41.38,9.71 41.05,9.87 39.5,9.46 37.94,9.06 37.38,8.97 37.06,8.81 36.73,8.64 36.22,8.82 35,8.5 33.77,8.17 25.71,6.06 25.71,6.06 z"
         id="p3743"
         style="fill:#b9b9b9;fill-opacity:0.16000001;fill-rule:evenodd;stroke:none" />
      <path
         d="m 27.18,6.43 c -0.75,1.88 -0.8,3.67 0.82,4.66 1.68,1.03 9.68,-0.06 14.4,-0.81 C 42.09,10.1 41.74,9.95 41.62,9.87 41.38,9.71 41.05,9.87 39.5,9.46 37.94,9.06 37.38,8.97 37.06,8.81 36.73,8.64 36.22,8.82 35,8.5 33.96,8.22 29.02,6.91 27.18,6.43 z"
         id="p3745"
         style="fill:#b9b9b9;fill-opacity:0.16000001;fill-rule:evenodd;stroke:none" />
      <path
         d="M 5.59,7.4 C 5.5,7.61 5.46,7.91 5.46,8.34 c 0,0.28 0.06,3.86 0.1,5.87 2.43,0.38 5.33,0.98 7.06,1.88 3.32,1.73 6.91,10.37 6.91,10.37 L 19.93,11.84 5.59,7.4 z"
         id="p3607"
         style="fill:#282828;fill-opacity:0.26000001;fill-rule:evenodd;stroke:none;display:inline" />
      <path
         d="M 5.59,7.4 C 5.5,7.61 5.46,7.91 5.46,8.34 c 0,0.49 0.1,5.61 0.19,10.31 2.38,0.7 6.09,0.46 8.85,-1.34 4.25,-2.79 5.43,-5.6 5.43,-5.6 L 5.59,7.4 z"
         id="p3613"
         style="fill:#282828;fill-opacity:0.26000001;fill-rule:evenodd;stroke:none;display:inline" />
      <path
         d="m 5.68,7.25 c -0.14,0.2 -0.22,0.53 -0.22,1.09 0,0.07 0.03,1.32 0.04,1.53 2.36,0.49 5.76,1.22 8.46,2.13 3.99,1.32 6.22,4.62 6.22,4.62 L 20.34,12.12 5.68,7.25 z"
         id="p3610"
         style="fill:#282828;fill-opacity:0.26000001;fill-rule:evenodd;stroke:none;display:inline" />
      <path
         d="m 18.4,19.64 -1.96,-0.86 0.11,-6.21 1.91,0.57 -0.06,6.5 z"
         id="p3583"
         style="fill:#191919;fill-opacity:1;fill-rule:evenodd;stroke:none;display:inline" />
      <path
         d="m 41.68,9.9 c -5.71,0.29 -20.23,1 -21.25,1 -1.22,0 -1.83,0.43 -1.93,0.94 -0.1,0.49 -0.48,31.2 -0.5,33.62 0,0.01 0.18,0.16 0.18,0.16 0,0 -0.07,0.18 0.1,0.34 0.16,0.17 0.4,0.34 1.62,0.25 1.23,-0.08 20.98,-2.78 21.47,-2.78 0.49,0 0.67,-1.06 0.75,-1.47 C 42.2,41.56 42.91,11.6 43,11.03 43.07,10.48 41.99,10.08 41.68,9.9 z"
         id="p3258"
         style="fill:#0c0c0c;fill-opacity:1;fill-rule:evenodd;stroke:none" />
      <path
         d="m 16.56,12.59 -0.03,0.97 1.18,0.4 0.66,-0.84 -1.81,-0.53 z"
         id="p3588"
         style="fill:#8c8c8c;fill-opacity:0.26000001;fill-rule:evenodd;stroke:none;display:inline" />
      <path
         d="m 43,10.93 -21.66,1.22 c 0.51,0.21 -0.09,1.52 -0.09,2.85 0,1.32 0.49,1.54 2.03,5.53 1.53,3.98 8.07,-0.72 12.06,2.65 3.98,3.37 5.53,16.64 5.53,17.66 0,0.63 0.46,1.27 1.06,1.87 0.09,-0.28 0.15,-0.57 0.19,-0.75 0.08,-0.4 0.79,-30.36 0.88,-30.93 0,-0.03 0,-0.07 0,-0.1 z"
         id="p3267"
         style="fill:#fcfcfc;fill-opacity:0.48999999;fill-rule:evenodd;stroke:none;display:inline" />
      <path
         d="m 43,10.93 -14.79,0.85 c 1.02,0.87 2.57,0.93 7.85,0.97 1.4,0.01 2.13,0.26 2.37,0.65 l 2.19,-0.12 0.16,7.28 c 0,0 0.91,-0.43 1.97,-1.13 0.08,-3.29 0.22,-8.25 0.25,-8.4 0,-0.03 0,-0.07 0,-0.1 z"
         id="p3574"
         style="fill:#b9b9b9;fill-opacity:0.83999999;fill-rule:evenodd;stroke:none;display:inline" />
      <path
         d="M 42.5,29.43 C 40.9,30.47 38.36,32 35.28,33.59 30.23,36.18 29.53,36.61 22.18,31 20.89,33.73 20.46,35.89 18.15,33.59 18.09,38.63 18,44.64 18,45.46 c 0,0.01 0.18,0.16 0.18,0.16 0,0 -0.07,0.18 0.1,0.34 0.16,0.17 0.4,0.34 1.62,0.25 1.23,-0.08 20.98,-2.78 21.47,-2.78 0.49,0 0.67,-1.06 0.75,-1.47 0.04,-0.17 0.21,-6.09 0.38,-12.53 z"
         id="p3415"
         style="fill:#5f5f5f;fill-opacity:0.70999995;fill-rule:evenodd;stroke:none;display:inline" />
      <path
         d="M 18.28,23.31 C 18.14,32.53 18.01,44 18,45.46 c 0,0.01 0.18,0.16 0.18,0.16 0,0 -0.07,0.18 0.1,0.34 0.16,0.17 0.4,0.34 1.62,0.25 0.01,0 0.14,-0.03 0.16,-0.03 -0.14,-1.26 -0.23,-2.73 -0.1,-4 0.31,-2.85 0.29,-1.51 0.6,0.22 0.3,1.73 0.62,1.81 1.84,1.81 1.18,0 8.08,-1.4 3.6,1.22 6.25,-0.82 15.04,-2 15.37,-2 0.36,0 0.55,-0.56 0.66,-1.03 -0.92,-0.68 -2.39,-1.34 -4.66,-1.44 -4.79,-0.2 -14.16,-2.12 -14.06,-6.5 0.1,-4.38 -3.03,-13.34 -3.03,-9.78 -0.21,2.45 -0.03,6.39 -0.13,6.6 -0.1,0.2 -0.79,1.44 -1.81,-7.63 -0.02,-0.15 -0.05,-0.21 -0.06,-0.34 z"
         id="p3421"
         style="fill:#3a3a3a;fill-opacity:0.62999998;fill-rule:evenodd;stroke:none;display:inline" />
      <path
         d="M 19.04,11.12 41.82,9.9"
         id="p3263"
         style="fill:none;stroke:#a3a3a3;stroke-width:0.40000001;stroke-linecap:round;stroke-linejoin:miter;stroke-miterlimit:4;stroke-opacity:0.81000001;stroke-dasharray:none;display:inline" />
      <path
         d="M 18.66,45.95 19.18,11.63"
         id="p3261"
         style="fill:none;stroke:#929292;stroke-width:0.40000001;stroke-linecap:round;stroke-linejoin:miter;stroke-miterlimit:4;stroke-opacity:0.88999999;stroke-dasharray:none;display:inline" />
      <path
         d="m 16.46,17.9 -0.03,0.88 1.97,0.87 0,-0.09 -0.72,-1.13 -1.22,-0.53 z"
         id="p3586"
         style="fill:#b9b9b9;fill-opacity:0.54000005;fill-rule:evenodd;stroke:none;display:inline" />
      <path
         d="m 16.66,17.87 1.05,0.43 0,-4.03 -1,-0.33 -0.05,3.93 z"
         id="p3592"
         style="fill:#000000;fill-opacity:0.83999999;fill-rule:evenodd;stroke:none;display:inline" />
      <path
         d="m 39.31,23.96 c 0,-0.07 -0.05,4.23 -0.22,6.04 1.34,1.44 2.07,2.3 3.28,4.06 0.09,-3.32 0.15,-5.96 0.25,-9.69 -1.85,3.79 -1.76,2.01 -3.31,-0.41 z"
         id="p3424"
         style="fill:#070707;fill-opacity:0.51000001;fill-rule:evenodd;stroke:none;display:inline" />
      <path
         d="m 23.49,14.69 c 4.29,-0.2 14.81,-0.71 15.32,-0.71 0.51,0 1.37,0.24 1.37,2.48 0,2.25 -0.65,21.63 -0.65,22.75 0,1.12 -0.21,1.12 -1.64,1.33 -1.43,0.2 -13.38,1.84 -14.09,1.84 -0.72,0 -1.64,-0.31 -1.64,-1.33 0,-1.02 0.21,-23.6 0.1,-24.62 -0.1,-1.02 0.62,-1.64 1.23,-1.74 z"
         id="p3270"
         style="fill:#525252;fill-opacity:0.98000004;fill-rule:evenodd;stroke:none;display:inline" />
      <path
         d="m 38.81,13.96 c -0.51,0 -11.02,0.52 -15.31,0.72 -0.49,0.08 -1.03,0.49 -1.19,1.16 6.92,0.92 12.75,0.42 17.72,5.81 0.05,-1.78 0.15,-4.69 0.15,-5.19 0,-2.24 -0.86,-2.5 -1.37,-2.5 z"
         id="p3511"
         style="fill:#e6e6e6;fill-opacity:0.11000001;fill-rule:evenodd;stroke:none" />
      <path
         d="m 38.81,13.96 c -0.51,0 -11.02,0.52 -15.31,0.72 -0.62,0.1 -1.33,0.73 -1.22,1.75 0.02,0.28 0.04,2.28 0.03,4.91 6.02,0.96 13.41,-0.59 14.97,0.91 0.6,0.57 1.55,1.71 2.65,3.09 0.12,-3.82 0.25,-8.03 0.25,-8.88 0,-2.24 -0.86,-2.5 -1.37,-2.5 z"
         id="p3513"
         style="fill:#e6e6e6;fill-opacity:0.11000001;fill-rule:evenodd;stroke:none" />
      <path
         d="m 23.71,23.09 c -0.65,0.31 -1.16,4.75 -0.31,5.94 0.65,0.91 0.58,3.89 -1.22,9.75 0,0.43 -0.03,2.18 -0.03,2.28 0,1.02 0.94,1.31 1.66,1.31 0.71,0 12.66,-1.64 14.09,-1.84 1.43,-0.21 1.63,-0.19 1.63,-1.32 0,-0.19 0.06,-2.63 0.09,-3.68 C 38.5,34.7 37.35,34.14 36.18,34.06 30.38,33.67 24.77,24.38 24,23.21 23.9,23.07 23.81,23.04 23.71,23.09 z"
         id="p3444"
         style="fill:#1e1e1e;fill-opacity:0.2;fill-rule:evenodd;stroke:none;display:inline" />
      <path
         d="m 40.03,22.21 c -4.84,5.27 -9.47,12.49 -13.22,19.82 3.83,-0.49 10.08,-1.36 11.09,-1.5 1.43,-0.21 1.63,-0.19 1.63,-1.32 0,-0.85 0.32,-10.57 0.5,-17 z"
         id="p3446"
         style="fill:#1e1e1e;fill-opacity:0.2;fill-rule:evenodd;stroke:none;display:inline" />
      <path
         d="m 38.81,13.96 c -0.36,0 -6.21,0.28 -10.85,0.5 -4,4.39 -4.1,6.47 -2.03,8.19 2.33,1.94 8.31,4.65 13.35,6 0.18,0.05 0.37,0.07 0.56,0.06 0.17,-5.47 0.34,-11.07 0.34,-12.25 0,-2.24 -0.86,-2.5 -1.37,-2.5 z"
         id="p3442"
         style="fill:#979797;fill-opacity:0.2;fill-rule:evenodd;stroke:none;display:inline" />
      <path
         d="m 25.64,16.94 c 0,0.96 -0.74,1.74 -1.64,1.74 -0.9,0 -1.63,-0.78 -1.63,-1.74 0,-0.96 0.73,-1.74 1.63,-1.74 0.9,0 1.64,0.78 1.64,1.74 z"
         transform="matrix(1.03,0,-0.1,1.03,1.13,-0.52)"
         id="p3273"
         style="fill:#000000;fill-opacity:1;fill-rule:evenodd;stroke:none;marker:none;visibility:visible;display:inline;overflow:visible;enable-background:accumulate" />
      <path
         d="m 38,28.18 c 0,4.06 -3.14,7.35 -7,7.35 -3.87,0 -7,-3.29 -7,-7.35 0,-4.07 3.13,-7.36 7,-7.36 3.86,0 7,3.29 7,7.36 z"
         transform="matrix(1,0,-0.094,1,2.64,0)"
         id="p3279"
         style="fill:#929292;fill-opacity:0.95999995;fill-rule:evenodd;stroke:none;marker:none;visibility:visible;display:inline;overflow:visible;enable-background:accumulate" />
      <path
         d="m 31.68,20.81 c -3.86,0 -7.3,3.31 -7.68,7.37 -0.02,0.17 -0.03,0.34 -0.04,0.5 1.42,-3.5 2.72,-5.18 2.72,-5.18 l 2.53,2.81 c 0,0 4.19,1.3 4.63,0.78 0.44,-0.53 3,-2.09 3,-2.09 0,0 0.55,1.19 1.19,2.25 -0.1,-3.62 -2.79,-6.44 -6.35,-6.44 z"
         id="p3288"
         style="fill:#ffffff;fill-opacity:0.76999996;fill-rule:evenodd;stroke:none;display:inline" />
      <path
         d="m 37.84,29.15 c -4.23,7.97 -10.88,4.91 -13,3.16 1.08,1.93 3.07,3.22 5.47,3.22 3.54,0 6.74,-2.78 7.53,-6.38 z"
         id="p3291"
         style="fill:#ffffff;fill-opacity:0.28999999;fill-rule:evenodd;stroke:none;display:inline" />
      <path
         d="m 31.68,20.81 c -3.83,0 -7.23,3.26 -7.65,7.28 0.57,0.45 1.69,0.72 3.87,0.75 4.8,0.07 8.03,-1.36 10.1,-0.97 0.21,-3.91 -2.56,-7.06 -6.32,-7.06 z"
         id="p3294"
         style="fill:#ffffff;fill-opacity:0.55;fill-rule:evenodd;stroke:none;display:inline" />
      <path
         d="m 31.62,21.56 c -1.62,0 -3.16,0.63 -4.37,1.69 l 3.37,3.96 0.69,0.32 3.78,-4.78 C 34.14,22 32.96,21.56 31.62,21.56 z m 5.03,3.09 -0.59,0.38 c 0.47,0.91 0.7,1.99 0.59,3.15 -0.07,0.79 -0.32,1.54 -0.65,2.22 l 0.59,0.28 c 0.37,-0.77 0.63,-1.61 0.72,-2.5 0.12,-1.29 -0.14,-2.51 -0.66,-3.53 z m -0.84,0.53 -0.66,0.44 c 0.38,0.74 0.56,1.61 0.47,2.56 -0.06,0.64 -0.24,1.26 -0.5,1.82 l 0.63,0.31 c 0.32,-0.66 0.55,-1.37 0.62,-2.13 0.1,-1.11 -0.11,-2.13 -0.56,-3 z M 25.5,25.5 c -0.43,0.81 -0.73,1.73 -0.82,2.68 -0.13,1.36 0.18,2.61 0.75,3.66 L 26,31.46 c -0.52,-0.94 -0.78,-2.05 -0.66,-3.28 0.08,-0.86 0.37,-1.66 0.75,-2.4 L 25.5,25.5 z m 0.84,0.37 c -0.38,0.7 -0.64,1.48 -0.72,2.31 -0.11,1.16 0.14,2.24 0.63,3.13 l 0.68,-0.44 c -0.42,-0.77 -0.65,-1.68 -0.56,-2.69 0.07,-0.72 0.3,-1.39 0.63,-2 l -0.66,-0.31 z m 5.81,3.19 -2.31,0.47 -0.38,0.25 -2.84,3.59 c 0.99,0.89 2.28,1.44 3.75,1.44 1.84,0 3.57,-0.84 4.84,-2.16 L 34.15,31.4 33.81,31 32.15,29.06 z"
         id="p3306"
         style="fill:#3a3a3a;fill-opacity:0.93999999;fill-rule:evenodd;stroke:none;marker:none;visibility:visible;display:inline;overflow:visible;enable-background:accumulate" />
      <path
         d="m 38,28.18 c 0,4.06 -3.14,7.35 -7,7.35 -3.87,0 -7,-3.29 -7,-7.35 0,-4.07 3.13,-7.36 7,-7.36 3.86,0 7,3.29 7,7.36 z"
         transform="matrix(0.59,0,-0.056,0.59,14.11,11.39)"
         id="p3334"
         style="fill:#000000;fill-opacity:1;fill-rule:evenodd;stroke:none;marker:none;visibility:visible;display:inline;overflow:visible;enable-background:accumulate" />
      <path
         d="m 35.09,28.59 c -1.9,0.66 -5.4,2.22 -6.41,1.31 -1.2,-1.09 -1.41,-1.23 -1.75,-0.28 0.41,1.7 1.84,2.94 3.66,2.94 2.17,0 4.09,-1.75 4.5,-3.97 z"
         id="p3467"
         style="fill:#6c6c6c;fill-opacity:0.45;fill-rule:evenodd;stroke:none;display:inline" />
      <path
         d="m 27.8,34.64 c 2.06,0.77 3.6,0.77 5.59,-0.29"
         id="p3356"
         style="fill:none;stroke:#ebebeb;stroke-width:0.60000002;stroke-linecap:round;stroke-linejoin:miter;stroke-miterlimit:4;stroke-opacity:0.76999996;stroke-dasharray:none" />
      <path
         d="m 28.14,22.89 c 0.43,-0.13 0.84,-0.53 1.31,-0.42 0.33,0.08 0.13,0.61 0.2,0.62 0.58,0.03 0.49,0.88 -0.05,0.94 -0.32,0.19 -0.9,0.56 -0.97,-0.06 -0.16,-0.36 -0.33,-0.72 -0.49,-1.08 z m 0.74,0.38 c 0.55,-0.03 0.24,-0.68 -0.09,-0.27 -0.02,0.1 0.05,0.18 0.09,0.27 z m 0.27,0.59 c 0.45,0.01 0.47,-0.69 -0.03,-0.37 -0.18,0.11 -0.03,0.25 0.03,0.37 z m 1.22,-1.04 c -0.08,-0.54 0.46,-0.99 0.98,-0.9 0.58,0.03 0.89,0.69 0.69,1.19 -0.22,0.74 -1.49,0.7 -1.64,-0.06 -0.02,-0.08 -0.03,-0.15 -0.03,-0.23 z m 0.51,-0.02 c -0.07,0.66 0.87,0.5 0.7,-0.08 0.03,-0.49 -0.7,-0.55 -0.71,-0.05 l 0,0.06 0.01,0.07 0,0 z m 2,-0.67 c 0.39,0.08 0.62,0.39 0.58,0.77 0.28,-0.2 0.64,-0.41 0.92,-0.05 -0.24,0.25 -0.95,0.39 -0.7,0.88 0.04,0.26 0.22,0.81 -0.23,0.51 -0.41,-0.12 -0.06,-1.04 -0.54,-0.54 -0.27,0.32 -1.1,-0.14 -0.41,-0.3 0.45,-0.14 0.61,-0.54 0.42,-0.97 -0.01,-0.1 -0.03,-0.2 -0.04,-0.3 z"
         id="text3358"
         style="font-size:2.30999994px;font-style:normal;font-variant:normal;font-weight:normal;font-stretch:normal;fill:#efefef;fill-opacity:0.81999984;stroke:none;font-family:Arial Black;-inkscape-font-specification:Arial Black" />
      <path
         d="m 27.79,32.36 c 0.6,0.16 -0.08,0.58 -0.08,0.92 0.11,0.13 0.64,0.29 0.27,0.47 -0.25,-0.08 -0.66,-0.28 -0.73,-0.46 0.18,-0.31 0.36,-0.62 0.54,-0.93 z m 1.44,0.75 c 0.57,0.08 0.08,0.65 -0.06,0.94 -0.29,0.28 -0.88,0.05 -0.94,-0.34 0.04,-0.29 0.17,-0.71 0.38,-0.86 0.53,0.12 -0.1,0.56 -0.01,0.88 0.31,0.51 0.52,-0.42 0.63,-0.62 z m 0.18,0.14 c 0.56,-0.2 0.51,0.48 0.62,0.66 0.01,-0.34 0.36,-0.88 0.66,-0.47 -0.1,0.33 0.09,0.84 -0.19,1.03 -0.38,-0.06 -0.01,-0.65 -0.13,-0.83 -0.16,0.23 -0.11,0.95 -0.51,0.75 -0.12,-0.2 -0.09,-0.71 -0.19,-0.75 -0.05,0.23 0.08,0.96 -0.31,0.7 -0.04,-0.36 0.05,-0.73 0.05,-1.09 z m 1.28,0.03 c 0.54,-0.22 0.37,0.5 0.47,0.81 0.23,0.42 -0.51,0.4 -0.36,-0.04 -0.04,-0.25 -0.07,-0.51 -0.11,-0.77 z m 0.45,-0.05 c 0.35,-0.24 0.62,0.21 0.89,0.37 -0.11,-0.22 -0.24,-0.84 0.18,-0.59 0.04,0.34 0.32,0.72 0.22,1.04 -0.33,0.26 -0.67,-0.49 -0.8,-0.29 0.21,0.23 0.07,0.78 -0.22,0.44 -0.07,-0.32 -0.19,-0.64 -0.27,-0.97 z m 1.3,0.21 c -0.32,-0.49 0.37,-1.1 0.83,-0.79 0.48,0.26 0.37,1.07 -0.21,1.12 -0.26,0.07 -0.52,-0.08 -0.62,-0.33 z m 0.32,-0.15 c 0.16,0.5 0.79,-0.1 0.35,-0.36 -0.23,-0.16 -0.57,0.11 -0.35,0.36 z m 1.17,0.04 c -0.18,-0.31 -0.58,-0.68 -0.61,-0.97 0.27,-0.17 0.76,-0.69 1.01,-0.24 0.06,0.23 -0.13,0.42 0.21,0.4 0.57,0.1 -0.06,0.58 -0.3,0.25 -0.33,-0.22 -0.24,0.21 -0.04,0.33 -0.02,0.13 -0.2,0.14 -0.27,0.23 z m -0.1,-0.76 c 0.42,-0.12 -0.01,-0.53 -0.11,-0.15 0.03,0.06 0.07,0.1 0.11,0.15 z"
         id="text3366"
         style="font-size:1.59000003px;font-style:normal;font-variant:normal;font-weight:normal;font-stretch:normal;fill:#efefef;fill-opacity:0.72000002;stroke:none;font-family:Arial Black;-inkscape-font-specification:Arial Black" />
      <path
         d="m 20.98,29.2 c 0.11,-4.15 0,-13.33 0,-14.43 0,-1.09 0.87,-1.64 1.86,-1.64 0.98,0 17.04,-0.98 17.81,-0.98 0.76,0 0.65,1.09 0.65,2.62 0,1.53 -0.54,25.25 -0.54,25.68 0,0.44 -0.44,0.88 -1.64,0.99 -1.2,0.11 -16.61,1.97 -16.61,1.97 l 0.33,-0.66 c 0,0 15.4,-1.97 15.95,-1.97 0.55,0 0.77,-0.65 0.77,-1.64 0,-0.98 0.65,-24.04 0.65,-24.48 0,-0.43 -0.55,-0.98 -1.42,-0.98 -0.87,0 -14.42,0.66 -15.19,0.66 -0.76,0 -1.64,0.65 -1.75,2.07 -0.11,1.42 0.22,12.57 0.22,13.55 0,0.99 -1.2,0.22 -1.09,-0.76 z"
         id="p3433"
         style="fill:#151515;fill-opacity:0.88999999;fill-rule:evenodd;stroke:none;display:inline" />
      <path
         d="m 21.74,42.31 c 0.55,0.99 0.44,1.2 1.42,1.1 0.99,-0.11 16.4,-2.08 16.4,-2.08"
         id="p3436"
         style="fill:none;stroke:#e0e0e0;stroke-width:0.30000001;stroke-linecap:round;stroke-linejoin:miter;stroke-miterlimit:4;stroke-opacity:0.79000005;stroke-dasharray:none;display:inline" />
      <path
         d="m 31.78,24.09 c -2.12,0 -4.01,1.8 -4.22,4.03 -0.21,2.23 1.35,4.03 3.47,4.03 1.32,0 2.55,-0.71 3.34,-1.78 0.12,-0.16 0.22,-0.33 0.31,-0.5 0.03,-0.06 0.07,-0.12 0.1,-0.19 0.21,-0.47 0.35,-0.97 0.4,-1.5 0.09,-0.89 -0.12,-1.74 -0.5,-2.43 0,-0.01 0.01,-0.03 0,-0.04 -0.1,-0.18 -0.21,-0.33 -0.34,-0.5 -0.63,-0.71 -1.52,-1.12 -2.56,-1.12 z"
         id="p3460"
         style="fill:#404040;fill-opacity:1;fill-rule:evenodd;stroke:none;marker:none;visibility:visible;display:inline;overflow:visible;enable-background:accumulate" />
      <path
         d="m 31.51,24.58 c -1.9,0 -3.6,1.62 -3.79,3.63 -0.19,2 1.21,3.62 3.12,3.62 1.19,0 2.3,-0.63 3.01,-1.6 0.1,-0.14 0.19,-0.29 0.28,-0.45 0.03,-0.05 0.06,-0.11 0.08,-0.17 0.19,-0.42 0.32,-0.87 0.37,-1.35 0.07,-0.8 -0.11,-1.56 -0.45,-2.19 -0.01,0 0,-0.02 0,-0.03 -0.09,-0.16 -0.19,-0.3 -0.31,-0.45 -0.56,-0.63 -1.37,-1.01 -2.31,-1.01 z"
         id="p3481"
         style="fill:#000000;fill-opacity:1;fill-rule:evenodd;stroke:none;marker:none;visibility:visible;display:inline;overflow:visible;enable-background:accumulate" />
      <path
         d="m 27.72,28.21 c -0.19,2 1.21,3.62 3.12,3.62 0.6,0 1.17,-0.15 1.68,-0.43"
         id="p3483"
         style="fill:none;stroke:#e0e0e0;stroke-width:0.2;stroke-linecap:round;stroke-linejoin:round;stroke-miterlimit:4;stroke-opacity:0.98999999;stroke-dasharray:none;stroke-dashoffset:0;marker:none;visibility:visible;display:inline;overflow:visible;enable-background:accumulate" />
      <path
         d="m 34.41,25.87 c 0,-0.01 0,-0.02 0,-0.03 -0.1,-0.18 -0.21,-0.33 -0.34,-0.49 -0.61,-0.7 -1.49,-1.11 -2.52,-1.11 -2.09,0 -3.95,1.78 -4.15,3.97"
         id="p3485"
         style="fill:none;stroke:#6e6e6e;stroke-width:0.40000001;stroke-linecap:round;stroke-linejoin:round;stroke-miterlimit:4;stroke-opacity:0.86000001;stroke-dasharray:none;stroke-dashoffset:0;marker:none;visibility:visible;display:inline;overflow:visible;enable-background:accumulate" />
      <path
         d="m 34.41,25.87 c 0,-0.01 0,-0.02 0,-0.03 -0.1,-0.18 -0.21,-0.33 -0.34,-0.49 -0.61,-0.7 -1.49,-1.11 -2.52,-1.11"
         id="p3487"
         style="fill:none;stroke:#dddddd;stroke-width:0.40000001;stroke-linecap:round;stroke-linejoin:round;stroke-miterlimit:4;stroke-opacity:0.86000001;stroke-dasharray:none;stroke-dashoffset:0;marker:none;visibility:visible;display:inline;overflow:visible;enable-background:accumulate" />
      <path
         d="m 30.71,24.68 c -1.56,0.38 -2.83,1.82 -3,3.53 -0.08,0.88 0.17,1.66 0.6,2.29 0.48,0.43 1.12,0.68 1.84,0.68 1.07,0 2.05,-0.57 2.69,-1.43 0.09,-0.13 0.17,-0.27 0.25,-0.41 0.02,-0.05 0.07,-0.07 0.09,-0.13 0.17,-0.38 0.27,-0.79 0.32,-1.21 0.06,-0.73 -0.11,-1.41 -0.41,-1.97 0,-0.01 0,-0.03 0,-0.03 -0.08,-0.15 -0.18,-0.28 -0.28,-0.41 -0.51,-0.57 -1.22,-0.91 -2.06,-0.91 -0.02,0 -0.03,0 -0.04,0 z"
         id="p3489"
         style="fill:#3f3f3f;fill-opacity:1;fill-rule:evenodd;stroke:none;marker:none;visibility:visible;display:inline;overflow:visible;enable-background:accumulate" />
      <path
         d="m 30.55,25.56 c -1.24,0 -2.33,1.05 -2.46,2.34 -0.12,1.3 0.79,2.35 2.02,2.35 0.77,0 1.49,-0.41 1.95,-1.04 0.06,-0.09 0.12,-0.19 0.18,-0.29 0.02,-0.03 0.04,-0.07 0.05,-0.11 0.13,-0.27 0.21,-0.56 0.24,-0.87 0.05,-0.52 -0.07,-1.01 -0.29,-1.42 0,0 0,-0.01 0,-0.02 -0.06,-0.1 -0.13,-0.19 -0.2,-0.29 -0.37,-0.41 -0.89,-0.65 -1.49,-0.65 z"
         id="p3494"
         style="fill:#000000;fill-opacity:1;fill-rule:evenodd;stroke:none;marker:none;visibility:visible;display:inline;overflow:visible;enable-background:accumulate" />
      <path
         d="m 30.56,25.56 c -1.24,0 -2.35,1.05 -2.47,2.34 -0.07,0.75 0.2,1.42 0.69,1.85 0,0 0.02,-0.01 0.03,0 0.25,0.11 0.53,0.18 0.84,0.18 0.77,0 1.48,-0.4 1.94,-1.03 0.07,-0.09 0.13,-0.18 0.19,-0.28 0.01,-0.04 0.04,-0.09 0.06,-0.12 0.12,-0.28 0.19,-0.54 0.22,-0.85 0.05,-0.52 -0.07,-1.03 -0.28,-1.44 C 31.72,26.11 31.66,26 31.59,25.9 31.56,25.86 31.5,25.84 31.46,25.81 31.19,25.67 30.9,25.56 30.56,25.56 z"
         id="p3496"
         style="fill:#4e4e4e;fill-opacity:1;fill-rule:evenodd;stroke:none;marker:none;visibility:visible;display:inline;overflow:visible;enable-background:accumulate" />
      <path
         d="m 30.56,25.56 c -1.24,0 -2.35,1.05 -2.47,2.34 -0.02,0.16 -0.01,0.29 0,0.44 1.83,0.42 2.05,-0.56 2.91,-0.56 0.28,0 0.67,0.03 1.03,0.06 0.01,-0.06 0.02,-0.12 0.03,-0.19 0.05,-0.52 -0.07,-1.03 -0.28,-1.44 C 31.72,26.11 31.66,26 31.59,25.9 31.56,25.86 31.5,25.84 31.46,25.81 31.19,25.67 30.9,25.56 30.56,25.56 z"
         id="p3501"
         style="fill:#131313;fill-opacity:1;fill-rule:evenodd;stroke:none" />
      <path
         d="m 30.56,25.56 c -0.4,0 -0.78,0.12 -1.13,0.31 l 0.03,1.38 2.6,-0.1 C 32.02,26.81 31.92,26.48 31.78,26.21 31.72,26.11 31.66,26 31.59,25.9 31.56,25.86 31.5,25.84 31.46,25.81 31.19,25.67 30.9,25.56 30.56,25.56 z"
         id="p3503"
         style="fill:#e6e6e6;fill-opacity:0.8;fill-rule:evenodd;stroke:none" />
      <path
         d="m 30.56,24.75 c -0.06,0.01 -0.13,0.01 -0.19,0.03 0,0 0,0.02 0,0.03 -0.02,0.04 -0.04,0.09 -0.03,0.15 -0.53,0.04 0.05,0.7 0.31,0.38 -0.04,-0.13 -0.02,-0.27 -0.03,-0.41 0.01,-0.08 0,-0.15 -0.03,-0.18 -0.01,-0.01 -0.02,0 -0.03,0 z m -0.6,0.21 c -0.06,0.03 -0.12,0.06 -0.18,0.1 0.02,0.02 0.04,0.02 0.06,0.06 0.03,0.09 -0.07,0.36 -0.19,0.22 -0.06,-0.05 -0.09,-0.11 -0.09,-0.16 -0.06,0.04 -0.11,0.09 -0.16,0.13 0.18,0.33 0.81,0.14 0.63,-0.25 C 30.02,25.04 30,25.01 30,25 29.99,24.98 29.97,24.98 29.96,24.96 z m 0.44,0.1 c 0.16,0.34 -0.45,0.02 0,0 z m -1.03,0.28 c -0.06,0.05 -0.13,0.1 -0.19,0.16 0.1,0.07 0.21,0.14 0.25,0.12 0.06,-0.11 0.01,-0.19 -0.06,-0.28 z m -0.34,0.28 c -0.06,0.06 -0.13,0.1 -0.19,0.16 0.08,0.08 0.18,0.13 0.31,0.06 -0.04,-0.07 -0.08,-0.15 -0.12,-0.22 z m -0.22,0.19 c -0.06,0.06 -0.13,0.12 -0.19,0.19 0.02,-0.01 0.04,-0.01 0.06,0 -0.29,0.35 0.24,0.21 0.28,-0.04 -0.05,-0.05 -0.1,-0.1 -0.15,-0.15 z m 4.25,0.59 c -0.03,0 -0.06,0.02 -0.1,0.03 -0.14,-0.03 -0.56,0.21 -0.28,0.32 0.43,-0.12 -0.26,0.32 0,0.46 0.18,-0.05 0.39,-0.1 0.57,-0.15 0.31,-0.16 -0.11,-0.21 -0.25,-0.19 0.22,-0.02 0.25,-0.44 0.06,-0.47 z m -0.03,0.78 c -0.41,0.03 -0.41,0.75 0.03,0.69 0.01,0 0.04,0 0.06,0 0.43,-0.02 0.33,-0.78 -0.09,-0.69 z m 0.06,0.19 c 0.15,0.03 0.21,0.25 -0.03,0.28 -0.1,0 -0.33,-0.18 -0.16,-0.25 0.06,-0.04 0.14,-0.04 0.19,-0.03 z m -5.28,0.31 c -0.02,0.07 -0.02,0.15 -0.03,0.22 0.01,0.03 -0.01,0.09 -0.03,0.13 -0.01,0.05 -0.03,0.1 -0.04,0.15 0.18,-0.04 0.38,-0.27 0.22,-0.47 -0.04,0.01 -0.08,-0.02 -0.12,-0.03 z m 5,0.22 c -0.08,0.03 -0.14,0.08 -0.13,0.19 0.18,-0.01 0.35,0.08 0.53,0.06 0.31,-0.13 -0.16,-0.33 -0.4,-0.25 z m 0.03,0.28 c -0.3,-0.08 -0.21,0.37 -0.31,0.53 l 0.06,0 c 0.11,-0.1 0.36,-0.2 0.56,-0.06 0.34,-0.27 -0.47,-0.17 -0.31,-0.47 z m -5.13,0.07 c 0,0.09 0,0.18 0,0.28 0.07,0.05 0.13,0.1 0.04,0.15 -0.01,0.01 -0.03,0 -0.04,0 0.01,0.08 0,0.15 0,0.22 0.01,0.09 0.05,0.17 0.07,0.25 0.09,-0.08 0.19,-0.14 0.18,-0.19 -0.07,-0.06 -0.13,-0.08 -0.21,-0.06 0.24,-0.12 0.21,-0.57 -0.04,-0.65 z m 4.85,0.56 c -0.13,-0.01 -0.26,0.27 -0.19,0.47 -0.08,-0.02 -0.15,0.02 -0.22,0.09 0.09,0.08 0.18,0.13 0.25,0.22 0.15,0.37 -0.35,-0.01 -0.44,0.06 -0.07,0.36 0.62,0.54 0.72,0.16 0.04,-0.12 -0.04,-0.27 -0.12,-0.38 -0.09,-0.02 -0.16,-0.06 -0.19,-0.12 0.07,0.02 0.14,0.05 0.19,0.12 0.31,0.27 0.72,-0.58 0.28,-0.43 l 0.03,0.03 c 0.19,0.4 -0.59,0.09 -0.22,-0.19 -0.02,-0.03 -0.07,-0.03 -0.09,-0.03 z m -4.44,0.44 c -0.11,0.04 -0.2,0.1 -0.31,0.12 0.02,0.07 0.04,0.15 0.06,0.22 0.18,-0.03 0.31,-0.15 0.25,-0.34 z m 0.09,0.18 c -0.09,0.07 -0.21,0.15 -0.31,0.22 0.03,0.08 0.06,0.17 0.1,0.25 0.01,0 0.02,0 0.03,0 0.21,0.23 0.14,-0.02 0.18,-0.15 0.31,0.34 0.24,-0.24 0,-0.32 z m 3.41,0.44 c -0.09,0.03 -0.18,0.08 -0.22,0.19 l 0.03,0.06 0.03,0.03 c 0.06,0.31 0.49,0.55 0.66,0.19 0.16,-0.34 -0.22,-0.56 -0.5,-0.47 z m 0.03,0.19 c 0.06,-0.03 0.13,-0.03 0.19,0 0.31,0.13 -0.25,0.33 -0.19,0 z m -0.31,0.15 c -0.26,-0.05 -0.58,0.19 -0.41,0.47 -0.05,-0.12 -0.14,-0.23 -0.22,-0.28 -0.46,-0.17 -0.47,0.45 -0.31,0.72 0.03,0.01 0.09,0.04 0.13,0.03 0,0 0.02,0 0.03,0 0.02,-0.01 0.05,-0.03 0.06,-0.06 -0.12,-0.33 0.11,-0.12 0.28,-0.06 0.07,-0.06 0.08,-0.19 0.03,-0.32 0.01,0.01 0.03,0 0.03,0 0.19,0.39 0.85,0.01 0.6,-0.34 -0.05,-0.09 -0.14,-0.14 -0.22,-0.16 z m -0.13,0.1 c 0.03,-0.01 0.06,0 0.1,0.03 0.25,0.15 -0.02,0.52 -0.19,0.25 -0.03,-0.07 0.02,-0.26 0.09,-0.28 z m -1.37,0.09 c -0.04,0.01 -0.06,0.03 -0.09,0.06 0.02,0.14 -0.02,0.28 -0.04,0.41 -0.07,0.31 0.27,0.29 0.29,0 0.46,0.03 0.13,-0.52 -0.16,-0.47 z m 0.75,0.13 c 0.09,0 0.14,0.2 -0.06,0.15 l -0.03,-0.03 0,-0.03 c 0.02,-0.06 0.06,-0.09 0.09,-0.09 z m -0.63,0.09 c 0.09,-0.04 0.31,0.15 -0.03,0.13 -0.03,-0.1 0,-0.12 0.03,-0.13 z"
         id="text3523"
         style="font-size:0.94px;font-style:normal;font-variant:normal;font-weight:normal;font-stretch:normal;fill:#e3e3e3;fill-opacity:0.5;stroke:none;font-family:Arial Black;-inkscape-font-specification:Arial Black" />
      <path
         d="m 24.46,15.43 c -0.8,0.07 -1.47,0.8 -1.56,1.66 -0.04,0.42 0.06,0.8 0.28,1.09 0.19,0.11 0.39,0.19 0.63,0.19 0.77,0 1.48,-0.68 1.56,-1.5 0.07,-0.7 -0.32,-1.27 -0.91,-1.44 z"
         id="p3548"
         style="fill:#515151;fill-opacity:1;fill-rule:evenodd;stroke:none;marker:none;visibility:visible;display:inline;overflow:visible;enable-background:accumulate" />
      <path
         d="m 24.46,15.43 c -0.47,0.04 -0.89,0.33 -1.18,0.72 l 0.53,0.03 0.12,2.19 c 0.73,-0.07 1.36,-0.72 1.44,-1.5 0.07,-0.7 -0.32,-1.27 -0.91,-1.44 z"
         id="p3553"
         style="fill:#242424;fill-opacity:1;fill-rule:evenodd;stroke:none" />
      <path
         d="m 24.46,15.43 c -0.17,0.02 -0.34,0.05 -0.5,0.13 l 0.04,2.09 1,0.1 c 0,-0.01 0.02,0 0.03,0 0.18,-0.25 0.31,-0.56 0.34,-0.88 0.07,-0.7 -0.32,-1.27 -0.91,-1.44 z"
         id="p3558"
         style="fill:#c5c5c5;fill-opacity:0.8;fill-rule:evenodd;stroke:none;display:inline" />
      <path
         d="m 25.64,16.94 c 0,0.96 -0.74,1.74 -1.64,1.74 -0.9,0 -1.63,-0.78 -1.63,-1.74 0,-0.96 0.73,-1.74 1.63,-1.74 0.9,0 1.64,0.78 1.64,1.74 z"
         transform="matrix(0.94,0,-0.0969,0.94,3.45,1.11)"
         id="p3546"
         style="fill:none;stroke:#989898;stroke-width:0.31;stroke-linecap:round;stroke-linejoin:round;stroke-miterlimit:4;stroke-opacity:1;stroke-dasharray:none;stroke-dashoffset:0;marker:none;visibility:visible;display:inline;overflow:visible;enable-background:accumulate" />
      <path
         d="m 25.64,16.94 c 0,0.96 -0.74,1.74 -1.64,1.74 -0.9,0 -1.63,-0.78 -1.63,-1.74 0,-0.96 0.73,-1.74 1.63,-1.74 0.9,0 1.64,0.78 1.64,1.74 z"
         transform="matrix(1.03,0,-0.1,1.03,8.18,-1.03)"
         id="p3564"
         style="fill:#000000;fill-opacity:1;fill-rule:evenodd;stroke:none;marker:none;visibility:visible;display:inline;overflow:visible;enable-background:accumulate" />
      <path
         d="m 31.51,14.92 c -0.8,0.07 -1.48,0.8 -1.56,1.66 -0.05,0.42 0.06,0.8 0.28,1.09 0.18,0.11 0.39,0.19 0.62,0.19 0.78,0 1.48,-0.68 1.56,-1.5 0.08,-0.7 -0.31,-1.28 -0.9,-1.44 z"
         id="p3566"
         style="fill:#9c9c9c;fill-opacity:1;fill-rule:evenodd;stroke:none;marker:none;visibility:visible;display:inline;overflow:visible;enable-background:accumulate" />
      <path
         d="m 31.51,14.92 c -0.48,0.04 -0.9,0.32 -1.19,0.72 l 0.53,0.03 0.13,2.19 c 0.72,-0.07 1.35,-0.72 1.43,-1.5 0.08,-0.7 -0.31,-1.28 -0.9,-1.44 z"
         id="p3568"
         style="fill:#b9b9b9;fill-opacity:1;fill-rule:evenodd;stroke:none;display:inline" />
      <path
         d="m 31.51,14.92 c -0.18,0.01 -0.34,0.05 -0.5,0.12 l 0.03,2.1 1,0.09 c 0,0 0.03,0.01 0.03,0 0.19,-0.24 0.31,-0.55 0.34,-0.87 0.08,-0.7 -0.31,-1.28 -0.9,-1.44 z"
         id="p3570"
         style="fill:#c5c5c5;fill-opacity:0.8;fill-rule:evenodd;stroke:none;display:inline" />
      <path
         d="m 25.64,16.94 c 0,0.96 -0.74,1.74 -1.64,1.74 -0.9,0 -1.63,-0.78 -1.63,-1.74 0,-0.96 0.73,-1.74 1.63,-1.74 0.9,0 1.64,0.78 1.64,1.74 z"
         transform="matrix(0.94,0,-0.0969,0.94,10.5,0.6)"
         id="p3572"
         style="fill:none;stroke:#bdbdbd;stroke-width:0.31;stroke-linecap:round;stroke-linejoin:round;stroke-miterlimit:4;stroke-opacity:1;stroke-dasharray:none;stroke-dashoffset:0;marker:none;visibility:visible;display:inline;overflow:visible;enable-background:accumulate" />
      <path
         d="m 41.63,14.66 c 0,-0.98 -0.54,-2.07 -1.53,-2.07 -0.98,0 -16.06,0.98 -16.61,0.98 -0.55,0 -1.97,0.22 -1.97,1.97 0,1.75 -0.11,23.06 -0.11,23.06"
         id="p3438"
         style="fill:none;stroke:#e5e5e5;stroke-width:0.40000001;stroke-linecap:round;stroke-linejoin:miter;stroke-miterlimit:4;stroke-opacity:0.51999996;stroke-dasharray:none;display:inline" />
      <path
         d="m 18.46,19.53 -0.7,-1.02 0,-4.4"
         id="p3597"
         style="fill:none;stroke:#3b3b3b;stroke-width:0.2;stroke-linecap:round;stroke-linejoin:miter;stroke-miterlimit:4;stroke-opacity:1;stroke-dasharray:none;display:inline" />
      <path
         d="m 16.58,13.68 1.15,0.37"
         id="p3595"
         style="fill:none;stroke:#d0d0d0;stroke-width:0.2;stroke-linecap:round;stroke-linejoin:miter;stroke-miterlimit:4;stroke-opacity:1;stroke-dasharray:none;display:inline" />
      <path
         d="m 5.63,7.44 12.89,4.08"
         id="p3625"
         style="fill:none;stroke:#191919;stroke-width:0.69;stroke-linecap:round;stroke-linejoin:miter;stroke-miterlimit:4;stroke-opacity:0.52999998;stroke-dasharray:none" />
      <path
         d="m 16.29,36.75 0.14,-4.52 0.4,0.41 -0.06,4.38 -0.48,-0.27 z"
         id="p3627"
         style="fill:#151515;fill-opacity:1;fill-rule:evenodd;stroke:none;display:inline" />
      <path
         d="m 16,32.43 c -0.66,0 -1.19,0.53 -1.19,1.16 0,0.63 0.53,1.12 1.19,1.12 0.26,0 0.52,-0.07 0.71,-0.21 l 0.04,-1.79 C 16.54,32.55 16.28,32.43 16,32.43 z"
         id="p3633"
         style="fill:#c2c2c2;fill-opacity:0.98999999;fill-rule:evenodd;stroke:none;marker:none;visibility:visible;display:inline;overflow:visible;enable-background:accumulate" />
      <path
         d="m 16.28,32.56 c -0.65,0 -1.19,0.52 -1.19,1.15 0,0.64 0.54,1.16 1.19,1.16 0.15,0 0.27,-0.04 0.4,-0.09 l 0.07,-2.1 c -0.16,-0.07 -0.3,-0.12 -0.47,-0.12 z"
         id="p3630"
         style="fill:#242424;fill-opacity:0.98999999;fill-rule:evenodd;stroke:none;marker:none;visibility:visible;display:inline;overflow:visible;enable-background:accumulate" />
      <path
         d="m 16,32.43 c -0.66,0 -1.19,0.53 -1.19,1.16 0,0.49 0.32,0.88 0.78,1.03 0.2,0.14 0.43,0.25 0.69,0.25 0.15,0 0.27,-0.04 0.4,-0.09 l 0,-0.28 c 0.01,-0.01 0.03,0 0.03,0 l 0.04,-1.79 0,-0.03 C 16.67,32.65 16.6,32.61 16.53,32.59 16.37,32.5 16.19,32.43 16,32.43 z"
         id="p3655"
         style="fill:none;stroke:#1c1c1c;stroke-width:0.40000001;stroke-linecap:round;stroke-linejoin:round;stroke-miterlimit:4;stroke-opacity:1;stroke-dasharray:none;stroke-dashoffset:0;marker:none;visibility:visible;display:inline;overflow:visible;enable-background:accumulate" />
      <path
         d="m 16.78,32.71 -0.12,4.07"
         id="p3641"
         style="fill:none;stroke:#0f0f0f;stroke-width:0.2;stroke-linecap:round;stroke-linejoin:miter;stroke-miterlimit:4;stroke-opacity:1;stroke-dasharray:none" />
      <path
         d="m 18.4,19.64 -2.09,-0.89 0.11,-6.28 2.04,0.67"
         id="p3664"
         style="fill:none;stroke:#0a0a0a;stroke-width:0.30000001;stroke-linecap:butt;stroke-linejoin:round;stroke-miterlimit:4;stroke-opacity:1;stroke-dasharray:none;display:inline" />
      <path
         d="m 23.01,6.48 c 0,0 -1.09,1.56 -0.78,1.72 0.32,0.16 1.72,0.39 2.03,0.08 0.31,-0.32 0.71,-1.8 0.71,-1.8 l -1.96,0 z"
         id="p3759"
         style="fill:#0e0e0e;fill-opacity:0.62000002;fill-rule:evenodd;stroke:none;display:inline" />
      <path
         d="m 22.94,6.56 c 0,0 -0.24,1.48 -0.71,1.72 -0.46,0.23 -1.36,0.29 -1.41,0.41 -0.17,0.36 -0.07,0.84 1.02,0.76 1.1,-0.08 2.58,-0.55 2.58,-0.55 0,0 1.01,-2.03 0.7,-2.26 C 24.81,6.4 22.94,6.56 22.94,6.56 z"
         id="p3756"
         style="fill:#0e0e0e;fill-opacity:0.33999999;fill-rule:evenodd;stroke:none;display:inline" />
      <path
         d="m 23.23,6.68 c 0,0 -1.22,1.45 -1.04,1.63 0.18,0.17 0.33,0.52 1.07,0.59 0.89,0.08 1.24,-0.27 1.24,-0.27 0,0 0.8,-1.86 0.62,-1.92 C 24.94,6.65 23.23,6.65 23.23,6.68 z"
         id="p3762"
         style="fill:#0e0e0e;fill-opacity:0.28999999;fill-rule:evenodd;stroke:none" />
      <path
         d="m 27.09,6.4 -0.03,0.03 -1.72,0.38 c 0,0 -0.56,1.41 -0.47,1.53 0.09,0.11 2.86,0.3 3.84,0.22 C 29.26,8.51 29.9,7.86 30.37,7.28 28.83,6.87 27.82,6.59 27.09,6.4 z"
         id="p3764"
         style="fill:#cdcdcd;fill-opacity:0.2;fill-rule:evenodd;stroke:none;display:inline" />
      <path
         d="m 22.62,6.31 c -0.5,0.02 -2.01,0.08 -3.12,0.12 -0.14,0.58 0.09,1.39 2.65,1.41 L 22.9,6.65 22.62,6.31 z"
         id="p3767"
         style="fill:#cdcdcd;fill-opacity:0.08999999;fill-rule:evenodd;stroke:none" />
    </g>
    <g
       id="layer3"
       style="display:inline">
      <path
         d="m 6.28,36.49 c 0.15,0.14 11.92,9.14 11.92,9.14 0,0 -0.09,0.16 0.08,0.32 0.16,0.17 0.41,0.33 1.63,0.25 1.22,-0.08 20.98,-2.78 21.47,-2.78 0.48,0 0.65,-1.06 0.73,-1.46 0.08,-0.41 0.82,-30.37 0.9,-30.94 C 43.09,10.45 41.86,10.04 41.62,9.88 41.38,9.72 41.05,9.88 39.5,9.47 37.95,9.06 37.38,8.98 37.05,8.82 36.72,8.66 36.23,8.82 35.01,8.49 33.78,8.17 25.7,6.04 25.7,6.04 c 0,0 -0.65,0.17 -2.69,0.25 C 20.97,6.37 7.5,6.94 6.69,6.94 c -0.82,0 -1.23,0.08 -1.23,1.39 0,1.3 0.49,26.36 0.49,27.26 0,0.35 0.18,0.76 0.33,0.9 z"
         id="p3255"
         style="fill:none;stroke:#000000;stroke-width:0.5;stroke-linecap:butt;stroke-linejoin:miter;stroke-miterlimit:4;stroke-opacity:1;stroke-dasharray:none" />
      <path
         d="m 13.4,8.82 c 0.44,0.42 1.11,0.5 1.94,0.53 0.83,0.03 3.19,-0.06 3.44,-0.14 0.25,-0.08 0.16,-0.22 0.16,-0.22 L 18.92,8.57 18.61,8.46 18.61,8.1 18.39,7.99 c 0,0 0.78,-1.11 1.19,-1.61 0.42,-0.5 1.31,-2.11 1.31,-2.11 0,0 1,1.11 1.19,1.3 0.19,0.2 0.72,0.78 0.78,0.98 0.05,0.19 0,0.27 0.38,0.27 0.39,0 2.81,0.03 3.2,-0.05 0.38,-0.09 0.77,-0.31 0.77,-0.31 l 0,-0.53 c 0,0 -0.91,-0.22 -1.5,-0.24 -0.58,-0.03 -0.8,-0.06 -0.8,-0.06 0,0 -0.03,-1.17 -0.03,-1.61 0,-0.44 -0.97,-2.19 -1.83,-2.27 -0.86,-0.09 -0.75,0.19 -1.55,0.19 -0.81,0 -2.31,0.08 -2.75,0.03 -0.44,-0.06 -1.05,0.27 -1.53,0.91 -0.47,0.64 -0.99,1.75 -0.99,2.67 0,0.91 -0.03,2.22 -0.03,2.22 0,0 -0.59,0.02 -0.75,0.02 -0.17,0 -0.33,0.09 -0.33,0.2 0,0.11 -1.14,0.11 -1.39,0.16 -0.25,0.06 -0.36,0.14 -0.33,0.67 z"
         id="p3660"
         style="fill:#2f2f2f;fill-opacity:1;fill-rule:evenodd;stroke:none" />
      <path
         d="m 22.62,1.84 c -1.49,0.23 -2.06,2.37 -2.06,2.37 l 0.19,0.32 c 0.03,-0.06 0.15,-0.25 0.15,-0.25 0,0 0.99,1.11 1.19,1.31 0.06,0.06 0.17,0.19 0.28,0.31 l 2.5,-1.15 c -0.01,-0.33 0,-0.52 0,-0.72 0,-0.33 -0.5,-1.35 -1.12,-1.91 C 23.73,2.11 23.73,2.1 23.71,2.09 23.34,1.88 22.98,1.78 22.62,1.84 z"
         id="p3666"
         style="fill:#676767;fill-opacity:1;fill-rule:evenodd;stroke:none;display:inline" />
      <path
         d="M 22.84,2.56 C 22.52,2.6 22.19,2.72 22,2.84 c -0.35,0.21 -0.97,1.23 -1.1,1.44 0,0 0.99,1.11 1.19,1.31 0.19,0.19 0.72,0.77 0.78,0.97 0.06,0.19 -0.01,0.25 0.38,0.25 0.38,0 2.79,0.05 3.18,-0.03 0.39,-0.09 0.78,-0.32 0.78,-0.32 l 0,-0.53 c 0,0 -0.05,0 -0.06,0 -0.17,0.08 -0.38,0.16 -0.5,0.19 C 26.35,6.2 24.9,6.09 24.9,6.09 L 24.87,5.4 24.9,5.28 C 24.9,5.01 24.87,4.64 24.87,4.25 24.75,4.5 24.63,4.71 24.62,4.62 24.58,4.39 23.99,3.13 23.65,2.75 23.48,2.55 23.16,2.52 22.84,2.56 z"
         id="p3670"
         style="fill:#000000;fill-opacity:0.98999999;fill-rule:evenodd;stroke:none;display:inline" />
      <path
         d="m 16.18,7.71 c 0,0.01 0,0.07 0,0.07 0,0 -0.55,0.03 -0.72,0.03 -0.16,0 -0.34,0.07 -0.34,0.19 0,0.11 -1.16,0.1 -1.41,0.15 -0.19,0.04 -0.28,0.11 -0.31,0.38 l 0.94,0.43 0.72,-0.09 c 0.87,0 1.75,-0.41 1.75,-0.41 L 16.43,7.93 16.18,7.71 z"
         id="p3682"
         style="fill:#b9b9b9;fill-opacity:0.79000005;fill-rule:evenodd;stroke:none;display:inline" />
      <path
         d="m 13.46,8.48 c 0.87,0.47 1.22,0.46 2.17,0.49 0.96,0.04 1.53,0.04 1.53,0.04"
         id="p3674"
         style="fill:none;stroke:#000000;stroke-width:0.40000001;stroke-linecap:round;stroke-linejoin:miter;stroke-miterlimit:4;stroke-opacity:1;stroke-dasharray:none;display:inline" />
      <path
         d="m 15.18,8.17 c 0,0 0.78,0.16 1.05,0.17 0.28,0 1.52,-0.1 1.52,-0.1"
         id="p3676"
         style="fill:none;stroke:#000000;stroke-width:0.40000001;stroke-linecap:round;stroke-linejoin:miter;stroke-miterlimit:4;stroke-opacity:1;stroke-dasharray:none;display:inline" />
      <path
         d="m 24.9,5.03 -0.03,1.12 0.94,0.31 1.4,-0.37 0,-0.16 c 0,0 -0.91,-0.22 -1.5,-0.25 C 25.13,5.65 24.9,5.62 24.9,5.62 c 0,0 0.01,-0.37 0,-0.59 z"
         id="p3686"
         style="fill:#8c8c8c;fill-opacity:0.79000005;fill-rule:evenodd;stroke:none;display:inline" />
      <path
         d="M 22.56,1.75 C 22.19,1.79 22.1,1.93 21.5,1.93 20.69,1.93 19.19,2.02 18.75,1.96 18.52,1.94 18.26,2 18,2.15 c 0.23,0.08 0.44,0.14 0.37,0.28 -0.18,0.36 -0.73,1.16 0.31,0.66 1.04,-0.51 3.13,-0.75 3.13,-0.75 l 1.25,-0.59 c -0.22,-0.03 -0.38,-0.02 -0.5,0 z"
         id="p3702"
         style="fill:#b9b9b9;fill-opacity:0.16000001;fill-rule:evenodd;stroke:none;display:inline" />
      <path
         d="m 22.56,1.75 c -0.37,0.04 -0.21,0.17 -0.81,0.17 -0.36,0.29 -0.8,0.6 -0.91,0.7 -0.22,0.2 -0.51,0.58 -0.72,0.97 -0.21,0.39 -0.4,0.79 -0.47,0.91 -0.02,0.03 -0.15,0.19 -0.31,0.4 -0.16,0.22 -0.36,0.51 -0.59,0.81 -0.47,0.61 -1.02,1.33 -1.44,1.91 l 0.31,0.22 c 0.41,-0.58 0.97,-1.3 1.44,-1.91 0.23,-0.3 0.43,-0.56 0.59,-0.78 0.16,-0.22 0.29,-0.37 0.35,-0.47 0.08,-0.15 0.25,-0.56 0.41,-0.96 0.15,-0.4 0.43,-0.77 0.53,-0.87 0.19,-0.17 0.5,-0.49 0.94,-0.81 0.18,-0.13 0.46,-0.2 0.68,-0.29 z"
         id="p3706"
         style="fill:#101010;fill-opacity:1;fill-rule:evenodd;stroke:none;display:inline" />
      <path
         d="M 18.71,1.96 C 18.68,1.99 18.65,2 18.62,2.03 18.22,2.29 17.81,2.62 17.56,2.87 17.27,3.16 17.04,3.63 16.87,4.06 16.7,4.48 16.59,4.84 16.59,4.84 l 0,0.03 0,0.03 0,2.56 0.41,0 0,-2.56 c 0.01,-0.05 0.04,-0.43 0.19,-0.8 0.17,-0.41 0.37,-0.78 0.51,-1 0.19,-0.29 0.44,-0.6 0.82,-0.85 0.37,-0.24 0.67,-0.32 0.8,-0.32 -0.38,0.01 -0.4,0.06 -0.57,0.03 -0.02,0 -0.03,0 -0.04,0 z"
         id="p3708"
         style="fill:#141414;fill-opacity:1;fill-rule:evenodd;stroke:none;display:inline" />
      <path
         d="m 17.41,7.49 c 0,0 1.81,-2.32 1.99,-2.55 0.18,-0.24 0.45,-0.78 0.45,-0.78"
         id="p3716"
         style="fill:none;stroke:#767676;stroke-width:0.2;stroke-linecap:round;stroke-linejoin:miter;stroke-miterlimit:4;stroke-opacity:0.72000002;stroke-dasharray:none;display:inline" />
      <path
         d="m 16.46,7.64 c 0,0 0.15,-0.3 0.15,-0.62 0,-0.33 -0.06,-1.95 0,-2.04 0.06,-0.09 0.29,-0.94 0.29,-0.94"
         id="p3714"
         style="fill:none;stroke:#494949;stroke-width:0.30000001;stroke-linecap:round;stroke-linejoin:miter;stroke-miterlimit:4;stroke-opacity:1;stroke-dasharray:none;display:inline" />
      <path
         d="m 17.84,2.99 c 0.2,-0.28 0.61,-0.8 0.96,-0.91"
         id="p3739"
         style="fill:none;stroke:#696969;stroke-width:0.30000001;stroke-linecap:round;stroke-linejoin:miter;stroke-miterlimit:4;stroke-opacity:0.76000001;stroke-dasharray:none" />
      <path
         d="m 13.4,8.82 c 0.44,0.42 1.11,0.5 1.94,0.53 0.83,0.03 3.19,-0.06 3.44,-0.14 0.25,-0.08 0.16,-0.22 0.16,-0.22 L 18.92,8.57 18.61,8.46 18.61,8.1 18.39,7.99 c 0,0 0.78,-1.11 1.19,-1.61 0.42,-0.5 1.31,-2.11 1.31,-2.11 0,0 1,1.11 1.19,1.3 0.19,0.2 0.72,0.78 0.78,0.98 0.05,0.19 0,0.27 0.38,0.27 0.39,0 2.81,0.03 3.2,-0.05 0.38,-0.09 0.77,-0.31 0.77,-0.31 l 0,-0.53 c 0,0 -0.91,-0.22 -1.5,-0.24 -0.58,-0.03 -0.8,-0.06 -0.8,-0.06 0,0 -0.03,-1.17 -0.03,-1.61 0,-0.44 -0.97,-2.19 -1.83,-2.27 -0.86,-0.09 -0.75,0.19 -1.55,0.19 -0.81,0 -2.31,0.08 -2.75,0.03 -0.44,-0.06 -1.05,0.27 -1.53,0.91 -0.47,0.64 -0.99,1.75 -0.99,2.67 0,0.91 -0.03,2.22 -0.03,2.22 0,0 -0.59,0.02 -0.75,0.02 -0.17,0 -0.33,0.09 -0.33,0.2 0,0.11 -1.14,0.11 -1.39,0.16 -0.25,0.06 -0.36,0.14 -0.33,0.67 z"
         id="p3662"
         style="fill:none;stroke:#0a0a0a;stroke-width:0.40000001;stroke-linecap:butt;stroke-linejoin:miter;stroke-miterlimit:4;stroke-opacity:1;stroke-dasharray:none;display:inline" />
      <path
         d="m 18.96,5.47 c 0.26,-0.3 0.67,-0.85 0.75,-1.01"
         id="p3741"
         style="fill:none;stroke:#d0d0d0;stroke-width:0.30000001;stroke-linecap:round;stroke-linejoin:miter;stroke-miterlimit:4;stroke-opacity:0.43999999;stroke-dasharray:none" />
    </g>
  </g>
</svg>
