<?xml version="1.0" encoding="UTF-8" standalone="no"?>
<!-- Created with Inkscape (http://www.inkscape.org/) -->

<svg
   xmlns:svg="http://www.w3.org/2000/svg"
   xmlns="http://www.w3.org/2000/svg"
   xmlns:xlink="http://www.w3.org/1999/xlink"
   version="1.1"
   width="100%"
   height="100%"
   viewBox="0 0 48 48"
   id="_stabilo01"
   style="display:inline">
  <defs
     id="defs2385">
    <filter
       color-interpolation-filters="sRGB"
       id="filter4022">
      <feBlend
         in2="BackgroundImage"
         mode="screen"
         id="feBlend4024" />
    </filter>
    <clipPath
       id="clipPath3129">
      <rect
         width="48"
         height="48"
         ry="0"
         x="0"
         y="0"
         id="r3131"
         style="fill:#000000;fill-opacity:1;fill-rule:evenodd;stroke:#d7d7d7;stroke-width:0.91000003;stroke-linecap:round;stroke-linejoin:miter;stroke-miterlimit:4;stroke-opacity:0.86000001;stroke-dasharray:none;stroke-dashoffset:0;marker:none;visibility:visible;display:inline;overflow:visible;enable-background:accumulate" />
    </clipPath>
    <linearGradient
       x1="45.91"
       y1="45.650002"
       x2="6.23"
       y2="2.4300001"
       id="lg2418"
       xlink:href="#lg3892"
       gradientUnits="userSpaceOnUse" />
    <linearGradient
       id="lg3920-2">
      <stop
         id="s3922-8"
         style="stop-color:#000000;stop-opacity:1"
         offset="0" />
      <stop
         id="s3924-9"
         style="stop-color:#363838;stop-opacity:1"
         offset="1" />
    </linearGradient>
    <linearGradient
       x1="24.280001"
       y1="6.8600001"
       x2="24.280001"
       y2="37.880001"
       id="lg3926-9"
       xlink:href="#lg3920-2"
       gradientUnits="userSpaceOnUse" />
    <linearGradient
       x1="24.280001"
       y1="6.8600001"
       x2="24.280001"
       y2="37.880001"
       id="lg3926"
       xlink:href="#lg3920"
       gradientUnits="userSpaceOnUse" />
    <linearGradient
       x1="45.91"
       y1="45.650002"
       x2="6.23"
       y2="2.4300001"
       id="lg3898"
       xlink:href="#lg3892"
       gradientUnits="userSpaceOnUse" />
    <linearGradient
       id="lg3892">
      <stop
         id="s3894"
         style="stop-color:#050707;stop-opacity:1"
         offset="0" />
      <stop
         id="s3896"
         style="stop-color:#d6d6d6;stop-opacity:1"
         offset="1" />
    </linearGradient>
    <linearGradient
       id="lg3920">
      <stop
         id="s3922"
         style="stop-color:#000000;stop-opacity:1"
         offset="0" />
      <stop
         id="s3924"
         style="stop-color:#363838;stop-opacity:1"
         offset="1" />
    </linearGradient>
    <linearGradient
       x1="23.870001"
       y1="21.450001"
       x2="23.870001"
       y2="41.560001"
       id="lg2479"
       xlink:href="#lg3934"
       gradientUnits="userSpaceOnUse" />
    <linearGradient
       x1="9.8900003"
       y1="9.3900003"
       x2="40.07"
       y2="9.3900003"
       id="lg2475"
       xlink:href="#lg4189"
       gradientUnits="userSpaceOnUse" />
    <linearGradient
       x1="9.8900003"
       y1="9.3900003"
       x2="40.07"
       y2="9.3900003"
       id="lg4195"
       xlink:href="#lg4189"
       gradientUnits="userSpaceOnUse" />
    <linearGradient
       x1="23.870001"
       y1="21.450001"
       x2="23.870001"
       y2="41.560001"
       id="lg3940"
       xlink:href="#lg3934"
       gradientUnits="userSpaceOnUse" />
    <linearGradient
       id="lg3934">
      <stop
         id="s3936"
         style="stop-color:#772527;stop-opacity:1"
         offset="0" />
      <stop
         id="s3938"
         style="stop-color:#ff9f46;stop-opacity:1"
         offset="1" />
    </linearGradient>
    <linearGradient
       id="lg4189">
      <stop
         id="s4191"
         style="stop-color:#db2525;stop-opacity:1"
         offset="0" />
      <stop
         id="s4201"
         style="stop-color:#decd0e;stop-opacity:1"
         offset="0.25" />
      <stop
         id="s4203"
         style="stop-color:#36e41f;stop-opacity:1"
         offset="0.37" />
      <stop
         id="s4197"
         style="stop-color:#28ddbe;stop-opacity:1"
         offset="0.5" />
      <stop
         id="s4199"
         style="stop-color:#232bd8;stop-opacity:1"
         offset="0.75" />
      <stop
         id="s4193"
         style="stop-color:#dc2eb6;stop-opacity:1"
         offset="1" />
    </linearGradient>
    <linearGradient
       id="lg4189-954">
      <stop
         id="s2453"
         style="stop-color:#5b5b5b;stop-opacity:1"
         offset="0" />
      <stop
         id="s2455"
         style="stop-color:#bcbcbc;stop-opacity:1"
         offset="0.25" />
      <stop
         id="s2457"
         style="stop-color:#9a9a9a;stop-opacity:1"
         offset="0.37" />
      <stop
         id="s2459"
         style="stop-color:#a3a3a3;stop-opacity:1"
         offset="0.5" />
      <stop
         id="s2461"
         style="stop-color:#3c3c3c;stop-opacity:1"
         offset="0.75" />
      <stop
         id="s2463"
         style="stop-color:#727272;stop-opacity:1"
         offset="1" />
    </linearGradient>
    <linearGradient
       x1="9.8900003"
       y1="9.3900003"
       x2="40.07"
       y2="9.3900003"
       id="lg2475-51"
       xlink:href="#lg4189-954"
       gradientUnits="userSpaceOnUse" />
    <linearGradient
       id="lg3934-130">
      <stop
         id="s2447"
         style="stop-color:#3e3e3e;stop-opacity:1"
         offset="0" />
      <stop
         id="s2449"
         style="stop-color:#b2b2b2;stop-opacity:1"
         offset="1" />
    </linearGradient>
    <linearGradient
       x1="23.870001"
       y1="21.450001"
       x2="23.870001"
       y2="41.560001"
       id="lg2479-392"
       xlink:href="#lg3934-130"
       gradientUnits="userSpaceOnUse" />
    <linearGradient
       x1="23.870001"
       y1="21.450001"
       x2="23.870001"
       y2="41.560001"
       id="lg3444"
       xlink:href="#lg3934"
       gradientUnits="userSpaceOnUse" />
    <linearGradient
       x1="9.8900003"
       y1="9.3900003"
       x2="40.07"
       y2="9.3900003"
       id="lg3442"
       xlink:href="#lg4189"
       gradientUnits="userSpaceOnUse" />
    <linearGradient
       x1="9.8900003"
       y1="9.3900003"
       x2="40.07"
       y2="9.3900003"
       id="lg3440"
       xlink:href="#lg4189"
       gradientUnits="userSpaceOnUse" />
    <linearGradient
       x1="23.870001"
       y1="21.450001"
       x2="23.870001"
       y2="41.560001"
       id="lg3438"
       xlink:href="#lg3934"
       gradientUnits="userSpaceOnUse" />
    <linearGradient
       id="lg3432">
      <stop
         id="s3434"
         style="stop-color:#3e3e3e;stop-opacity:1"
         offset="0" />
      <stop
         id="s3436"
         style="stop-color:#b2b2b2;stop-opacity:1"
         offset="1" />
    </linearGradient>
    <linearGradient
       id="lg3418">
      <stop
         id="s3420"
         style="stop-color:#5b5b5b;stop-opacity:1"
         offset="0" />
      <stop
         id="s3422"
         style="stop-color:#bcbcbc;stop-opacity:1"
         offset="0.25" />
      <stop
         id="s3424"
         style="stop-color:#9a9a9a;stop-opacity:1"
         offset="0.37" />
      <stop
         id="s3426"
         style="stop-color:#a3a3a3;stop-opacity:1"
         offset="0.5" />
      <stop
         id="s3428"
         style="stop-color:#3c3c3c;stop-opacity:1"
         offset="0.75" />
      <stop
         id="s3430"
         style="stop-color:#727272;stop-opacity:1"
         offset="1" />
    </linearGradient>
  </defs>
  <rect
     width="47.5"
     height="47.5"
     ry="4"
     x="0.25"
     y="0.25"
     id="r2593"
     style="fill:#fffbfb;fill-opacity:1;fill-rule:evenodd;stroke:none;marker:none;visibility:visible;display:inline;overflow:visible;enable-background:accumulate" />
  <rect
     width="47.5"
     height="47.5"
     ry="4"
     x="0.25"
     y="0.25"
     id="r3365"
     style="fill:none;stroke:#000000;stroke-width:0.5;stroke-linecap:round;stroke-linejoin:miter;stroke-miterlimit:4;stroke-opacity:1;stroke-dasharray:none;stroke-dashoffset:0;marker:none;visibility:visible;display:inline;overflow:visible;enable-background:accumulate" />
  <g
     transform="matrix(0.97144022,0,0,0.97144022,1.6450082,0.59867671)"
     id="g2967">
    <g
       id="layer2"
       style="display:inline">
      <path
         d="m 24.125,1.75 c -4.089565,0.055078 -13.55433,3.6718216 -13.46875,13.59375 0.05782,6.703601 4.167772,9.20845 5.84375,14.4375 0.407694,1.272006 -0.07996,2.976467 0.3125,3.78125 0.06717,0.137737 0.381603,0.701417 1,1.28125 -0.06949,0.190312 0.0045,0.325878 0.09375,0.46875 -0.252866,0.350727 0.006,0.965754 0.21875,1.1875 -0.103507,0.228072 0.09301,0.520697 0.34375,0.75 -0.786705,0.842916 -0.336937,1.165618 -0.09375,1.5 -0.534899,0.638024 -0.335228,1.103119 -0.03125,1.4375 -0.442473,0.777195 -0.240632,1.259368 0.09375,1.59375 -0.108432,0.347033 -0.474317,0.784169 0.5,1.6875 1.231091,1.141397 2.916471,2.06761 3.28125,2.25 0.36478,0.18239 0.717429,0.424375 0.875,0.46875 0.170969,0.04815 0.660509,0.06164 0.8125,0.03125 0.151992,-0.0304 0.981035,-0.49303 1.21875,-0.625 2.178913,-1.209649 3.328257,-2.08781 3.375,-2.65625 0.730029,-0.610734 0.586085,-1.478118 0.3125,-1.8125 0.472873,-0.625373 0.315786,-1.222551 -0.03125,-1.5 0.47199,-0.459766 0.427277,-1.28636 0.0625,-1.46875 0.293115,-0.264626 0.342898,-0.544025 0.3125,-1 C 29.12585,36.700276 29,36.125 29,36.125 c 0,0 0.23233,-0.323819 0.15625,-0.625 0.09951,-0.126973 0.322178,-0.28006 0.21875,-0.59375 0.604984,-0.375027 0.75818,-0.721067 0.96875,-1.09375 0.980758,-1.735829 0.423092,-2.612331 1.3125,-5.0625 1.114068,-3.069071 5.81704,-7.287296 5.75,-13.65625 C 37.298292,4.8373348 27.881689,1.699405 24.125,1.75 z"
         id="path2965"
         style="fill:#c8c8cb;fill-opacity:1;stroke:none" />
      <path
         d="m 24.125,1.75 c -4.089566,0.055078 -13.55433,3.6718218 -13.46875,13.59375 0.0019,0.22556 0.02038,0.439934 0.03125,0.65625 1.406031,-3.632114 2.799879,-4.238323 4.40625,-5.15625 2.125504,-1.2145734 3.121712,-3.7201422 4.4375,-4.125 1.315788,-0.4048579 1.914603,-2.7336789 4.34375,-2.53125 2.429147,0.202429 3.64221,-0.8116117 6.375,1.71875 2.732791,2.5303616 2.949141,3.9444605 4.0625,5.96875 0.550715,1.0013 2.033421,2.708535 3.09375,3.125 C 37.240841,4.819865 27.869962,1.6995629 24.125,1.75 z"
         id="path3838"
         style="fill:#4f4f5b;fill-opacity:0.12454212;stroke:none;display:inline" />
      <path
         d="m 15.821229,20.916201 c -0.804469,-2.748603 0.73743,-4.558659 2.480447,-5.027933 1.743017,-0.469274 6.636871,-2.547486 9.251397,-0.536313 2.614525,2.011173 4.692737,4.826816 4.424581,5.564246 -0.268157,0.73743 -1.675978,4.960894 -2.145252,5.631285 -0.469274,0.670391 -3.083799,1.005587 -2.815642,1.47486 0.268156,0.469274 2.480447,0 2.547486,0.938548 0.06704,0.938547 0.134078,4.022346 0.134078,4.290503 0,0.268156 -1.005587,1.206704 -1.005587,1.206704 0,0 1.005587,-1.5419 -0.201117,-2.011174 -1.206704,-0.469273 -6.301676,0.06704 -7.240223,0.06704 -0.938548,0 -2.547486,1.206704 -2.27933,0.469274 0.268156,-0.73743 0.335196,-3.083799 0.06704,-3.687151 -0.268156,-0.603352 -0.134078,-2.346368 -0.670391,-2.94972 -0.536313,-0.603352 -2.078212,-4.424581 -2.547486,-5.430168 z"
         id="path3877"
         style="fill:#89898f;fill-opacity:0.27838829;stroke:none;display:inline" />
      <path
         d="m 16.53125,9.1875 c -1.704499,-0.00281 -3.346827,0.5919532 -5.15625,1.65625 -0.460955,1.332109 -0.733245,2.819445 -0.71875,4.5 0.05746,6.662155 4.11722,9.180244 5.8125,14.34375 1.247347,-0.555125 2.46875,-0.21875 2.46875,-0.21875 0,0 -0.123104,-1.911315 -1.84375,-5.65625 -1.720646,-3.744935 -2.913714,-5.664602 -2.8125,-8.09375 0.101215,-2.429147 2.415994,-3.337174 5.25,-5.96875 -1.062752,-0.3795542 -2.040044,-0.5609185 -3,-0.5625 z"
         id="path3841"
         style="fill:#d1d1d4;fill-opacity:0.7985348;stroke:none;display:inline" />
      <path
         d="m 15.59375,9.84375 c -1.155233,0.079603 -2.565745,0.39728 -4.28125,1.09375 -0.439333,1.306706 -0.670379,2.768169 -0.65625,4.40625 6.47e-4,0.075 -0.0017,0.144788 0,0.21875 0.854095,0.884328 2.060567,1.975012 3.90625,3.15625 -1.005587,-2.480447 -1.612954,-3.780726 -0.40625,-4.25 1.206704,-0.469274 2.8125,-1.53125 2.8125,-1.53125 0,0 2.267108,2.093226 2.9375,2.5625 0.670391,0.469273 2.023569,-2.224337 4.90625,-1.21875 2.882682,1.005586 4.815992,1.75192 5.6875,4.03125 0.871509,2.27933 1.876047,2.060929 0.9375,3.46875 -0.938548,1.407822 -1.553422,3.883031 -1.6875,4.6875 -0.113201,0.679205 -1.719061,2.469061 2.4375,1.125 C 33.72597,24.800608 37.058478,21.127184 37.375,16 c -1.373616,-1.498603 -3.031553,-3.248938 -6.1875,-3.8125 -3.75419,-0.670391 -7.992842,-1.80447 -10.40625,-1 -1.131285,-0.460894 -2.51772,-1.5277146 -5.1875,-1.34375 z"
         id="path3880"
         style="fill:#fbfbfc;fill-opacity:0.14652016;stroke:none;display:inline" />
      <path
         d="m 16.8125,9.125 c -1.29376,0.04043 -3.424366,0.7231134 -5.46875,1.8125 -0.441476,1.309265 -0.701666,2.763922 -0.6875,4.40625 0.01385,1.606339 0.235046,2.968087 0.625,4.1875 1.507734,-4.35461 2.191784,-4.804582 3.0625,-5.3125 0.984239,-0.574139 2.5625,-1.40625 2.5625,-1.40625 0,0 1.957111,2.21096 2.53125,2.375 0.57414,0.16404 3.687591,-1.63279 4.34375,-1.46875 0.65616,0.16404 1.0625,-0.406341 1.0625,-1.0625 0,-0.656159 -5.406613,-3.61327 -8.03125,-3.53125 z"
         id="path3944"
         style="fill:#dfdfe3;fill-opacity:0.13919414;stroke:none;display:inline" />
      <path
         d="m 24.125,1.75 c -4.089566,0.055078 -13.55433,3.6718218 -13.46875,13.59375 0.05782,6.703601 4.167772,9.20845 5.84375,14.4375 0.407694,1.272006 -0.07996,2.976467 0.3125,3.78125 0.06717,0.137737 0.381603,0.701417 1,1.28125 0.903448,0.268184 1.3125,0.1875 1.3125,0.1875 0,0 -0.992536,-0.693069 -1.09375,-2.3125 -0.101215,-1.619432 1.488359,-1.708886 0.375,-5.65625 C 17.292891,23.115135 13.069964,17.732791 12.96875,15 12.87052,12.347802 11.279978,4.6701886 25.0625,1.8125 24.729773,1.7799502 24.402133,1.7462676 24.125,1.75 z"
         id="path3765"
         style="fill:#f1f3f5;fill-opacity:0.43589747;stroke:none;display:inline" />
      <path
         d="m 25.21875,1.8125 c 5.205848,1.3725446 10.56979,4.9716085 11.21875,11.875 0.51469,5.475077 -5.583303,10.414856 -6.875,13.5625 -0.745564,1.816811 0.608679,1.72571 0.40625,3.75 -0.202429,2.024289 -0.112856,2.822749 -1.125,3.53125 -0.494933,0.346453 -0.254519,0.499407 0.75,0.1875 0.01276,-0.0098 0.05026,0.0098 0.0625,0 0.376246,-0.300443 0.514833,-0.60065 0.6875,-0.90625 0.980758,-1.735829 0.423092,-2.612331 1.3125,-5.0625 1.114068,-3.069071 5.81704,-7.287296 5.75,-13.65625 C 37.307447,5.7071256 29.436896,2.2870026 25.21875,1.8125 z"
         id="path3768"
         style="fill:#f1f3f5;fill-opacity:0.43589747;stroke:none;display:inline" />
      <path
         d="M 24.40625,3.96875 C 21.369816,3.8675355 19.639929,5.6814276 19.4375,6.1875 c -0.152948,0.3823702 -2.380235,0.7070395 -3.59375,3.375 2.063023,-0.4011033 3.887617,-0.2929715 4.8125,0.375 1.315788,-1.2145736 9.394105,-0.4081457 10.40625,1.3125 0.55175,-0.306527 1.569392,-0.08569 2.5625,0.625 C 32.616732,4.6850662 27.178486,4.0611579 24.40625,3.96875 z M 18.3125,19.0625 c -0.992026,0.330675 -1.431981,0.482298 -2.65625,0.21875 1.020354,4.468762 2.96875,7.5625 2.96875,7.5625 L 18.71875,28.375 19.625,30.5 c 0,0 8.610071,-1.325533 8.8125,-2.84375 0.178864,-1.341477 1.817286,-5.369229 2.625,-7.09375 -1.99345,0.05199 -4.004009,-0.192082 -4.4375,-0.6875 -1.315788,0.506072 -6.389425,1.110575 -8.3125,-0.8125 z"
         id="path3771"
         style="fill:#fbfbfc;fill-opacity:0.60439561;stroke:none;display:inline" />
      <path
         d="m 18.502793,26.748603 c -1.608938,-4.089385 -3.888268,-8.24581 -3.553072,-10.659218 0.335195,-2.413407 1.743016,-4.558659 3.150838,-5.363128"
         id="path3889"
         style="fill:none;stroke:#a2a8ae;stroke-width:0.40000001;stroke-linecap:round;stroke-linejoin:miter;stroke-miterlimit:4;stroke-opacity:0.46153846;stroke-dasharray:none;display:inline" />
      <path
         d="m 26.0625,5.28125 c -1.138663,0.050607 -2.284035,0.2618927 -3.09375,0.3125 -1.619432,0.1012144 -0.200533,1.0088566 -1.71875,1.3125 -0.955914,0.1911829 -1.86297,1.1898227 -2.03125,2.53125 0.578014,0.09667 1.083591,0.2443993 1.4375,0.5 1.315788,-1.2145736 9.394105,-0.4081459 10.40625,1.3125 0.296722,-0.164846 0.73425,-0.163604 1.21875,-0.03125 -0.206364,-0.935776 -1,-1.46875 -1,-1.46875 0,0 0.788715,-0.019105 0.6875,-1.03125 C 31.867536,7.7066053 30.775682,7.0196091 29.15625,5.90625 28.346535,5.3495704 27.201163,5.2306428 26.0625,5.28125 z"
         id="path3774"
         style="fill:#fbfbfc;fill-opacity:0.90109893;stroke:none;display:inline" />
      <path
         d="m 28.424581,15.083799 c 3.150838,2.011173 4.290503,4.893855 4.290503,4.893855 0,0 1.407821,-1.675978 1.810056,-3.01676 0.402234,-1.340782 0.335195,-3.083799 0.335195,-3.083799 0,0 -1.47486,-1.340782 -3.821229,-1.743017"
         id="path3883"
         style="fill:none;stroke:#e1e4e7;stroke-width:0.40000001;stroke-linecap:round;stroke-linejoin:miter;stroke-miterlimit:4;stroke-opacity:0.48717951;stroke-dasharray:none;display:inline" />
      <path
         d="m 35.463687,12.73743 c 0.469274,-1.139665 -0.06704,-2.21229 -0.06704,-2.21229"
         id="path3886"
         style="fill:none;stroke:#eff1f3;stroke-width:0.60000002;stroke-linecap:round;stroke-linejoin:miter;stroke-miterlimit:4;stroke-opacity:0.45787545;stroke-dasharray:none;display:inline" />
      <path
         d="m 18.6875,19.40625 c -0.261045,0.642298 -0.183439,1.21104 0.34375,1.5625 0.804469,0.536313 1.49546,4.91882 1.5625,5.65625 0.06704,0.73743 -0.830657,1.651187 -0.5625,2.1875 0.257722,0.515444 5.984128,0.126702 6.4375,0.09375 0.04902,-0.01742 0.108482,-0.01364 0.15625,-0.03125 -0.02517,-0.07202 -0.522905,-1.521683 0,-4.59375 0.251373,-1.476819 0.662957,-2.894566 1.03125,-4 -0.480849,-0.110567 -0.877197,-0.23019 -1.03125,-0.40625 -1.237238,0.47586 -5.79867,1.064553 -7.9375,-0.46875 z"
         id="path3892"
         style="fill:#fbfbfc;fill-opacity:0.65934065;stroke:none;display:inline" />
      <path
         d="m 16.223464,17.832402 c 0.73743,2.212291 2.748603,7.709497 2.882681,8.782123 0.134078,1.072626 0.268157,3.083799 0.268157,3.083799"
         id="path3895"
         style="fill:none;stroke:#afb4ba;stroke-width:0.80000001;stroke-linecap:round;stroke-linejoin:miter;stroke-miterlimit:4;stroke-opacity:0.30036633;stroke-dasharray:none;display:inline" />
      <path
         d="m 22.67451,20.777272 c 0.402317,-0.0053 1.637629,-5.26e-4 2.112239,0.0092 0.448935,0.0092 0.397242,0.680849 0.07616,0.683348 -0.08495,6.25e-4 -0.13062,0.01755 -0.256,0.01952 -0.01045,0.260911 -0.189072,4.976118 -0.178016,5.285285 0.01991,0.556869 1.053842,0.135252 1.068096,0.707921 0.0075,0.302475 -0.101465,2.750254 -0.154562,3.04467 -0.04261,0.236255 -3.38568,0.132538 -3.451754,-0.11039 -0.05843,-0.214812 -0.05614,-2.014811 -0.05519,-2.55985 0.0014,-0.775678 0.515732,-0.296598 0.75806,-0.589243 0.108567,-0.131109 0.29255,-0.290727 0.283351,-0.499572 -0.01567,-0.355687 0.04245,-5.058618 0.03174,-5.420951 -0.06105,0.003 -0.125797,0.01 -0.232859,0.0064 -0.39158,-0.013 -0.403599,-0.570959 -0.0013,-0.576294 l 3.9e-5,-4e-5 z"
         id="path3970"
         style="fill:#bebcb7;fill-opacity:1;stroke:none;display:inline" />
      <path
         d="m 27.848908,16.816949 c 0,0 -2.442143,8.099775 -2.56425,8.506799 -0.122108,0.407024 -0.255648,1.055907 -0.325619,1.424583 -0.03206,0.168914 -0.01359,0.355023 -0.01359,0.355023"
         id="path3975"
         style="fill:none;stroke:#000000;stroke-width:0.30000001;stroke-linecap:round;stroke-linejoin:miter;stroke-miterlimit:4;stroke-opacity:0.84981683;stroke-dasharray:none;display:inline" />
      <path
         d="m 19.1793,16.206413 1.017559,0.122107 c 0,0 3.459703,0.569834 3.785322,0.732643 0.325619,0.16281 1.261774,0.407024 1.261774,0.407024 0,0 2.197929,-0.122107 2.442143,-0.08141 0.244215,0.0407 0.366322,0.122108 0.366322,0.122108"
         id="path3985"
         style="fill:none;stroke:#404040;stroke-width:0.40000001;stroke-linecap:butt;stroke-linejoin:miter;stroke-miterlimit:4;stroke-opacity:0.62271064;stroke-dasharray:none;display:inline" />
      <path
         d="m 19.301407,16.206413 2.645655,10.175597 c 0,0 0.236908,0.285714 0.284917,0.691941 0.01602,0.135587 0.01852,0.282267 0.01852,0.282267"
         id="path3973"
         style="fill:none;stroke:#000000;stroke-width:0.30000001;stroke-linecap:round;stroke-linejoin:miter;stroke-miterlimit:4;stroke-opacity:0.84981683;stroke-dasharray:none;display:inline" />
      <path
         d="m 28.093122,16.816949 -0.0814,0.773345"
         id="path3988"
         style="fill:none;stroke:#272727;stroke-width:0.30000001;stroke-linecap:round;stroke-linejoin:miter;stroke-miterlimit:4;stroke-opacity:1;stroke-dasharray:none;display:inline" />
      <path
         d="m 31.601163,18.491629 c -2.511351,2.511351 -2.825269,3.243828 -3.976305,8.789728 -1.151036,5.545899 -1.255676,7.220133 -1.255676,7.220133 0,0 2.302072,0.418558 2.72063,-1.046396 0.418559,-1.464955 -0.104639,-4.394864 -0.209279,-5.33662 -0.104639,-0.941757 0.941757,-1.569595 2.197432,-4.185585 1.255675,-2.61599 3.243828,-3.034549 4.080945,-4.708783 0.837117,-1.674233 1.569594,-5.964457 0.941756,-7.95261 -0.627837,-1.9881528 0.10464,0.732477 -0.523198,2.302071 -0.627837,1.569595 -1.255675,4.708783 -2.092792,5.755179 -0.837117,1.046396 -1.255675,0.209279 -1.883513,-0.837117 z"
         id="path4016"
         style="fill:#b9b9bd;fill-opacity:0.53113559;stroke:none;display:inline" />
      <path
         d="m 22.655416,21.072098 2.19246,0.02811"
         id="path4019"
         style="fill:none;stroke:#000000;stroke-width:0.5;stroke-linecap:round;stroke-linejoin:miter;stroke-miterlimit:4;stroke-opacity:0.63369966;stroke-dasharray:none" />
      <path
         d="m 23.470562,21.156423 0.702711,0.02811"
         id="path4021"
         style="fill:none;stroke:#f6f6f6;stroke-width:0.60000002;stroke-linecap:round;stroke-linejoin:miter;stroke-miterlimit:4;stroke-opacity:0.83882787;stroke-dasharray:none" />
      <path
         d="m 22.90625,21.5625 c 0.0052,0.669446 -0.04629,4.877372 -0.03125,5.21875 0.0033,0.07382 -0.02934,0.125069 -0.0625,0.1875 0.121883,0.0056 0.253472,-0.05208 0.375,-0.15625 0.393519,-0.337301 0.81564,-0.222057 0.84375,-0.53125 0.02811,-0.309193 0.1875,-4.4375 0.1875,-4.4375 l 0.375,-0.0625 c 9.7e-4,-0.02518 -5.78e-4,-0.172739 0,-0.1875 l -1.6875,-0.03125 z"
         id="path4023"
         style="fill:#eff0f2;fill-opacity:0.68131869;stroke:none" />
      <path
         d="m 23.048935,27.031091 c 0.421627,-0.281085 1.040013,0 1.124338,-0.08432 0.08433,-0.08433 0.02811,-0.73082 0.02811,-0.73082 0,0 0.05622,0.252976 -0.252977,0.309193 -0.309193,0.05622 -1.040012,0.252976 -0.89947,0.505952 z"
         id="path4048"
         style="fill:#644f32;fill-opacity:0.68131869;stroke:none;display:inline" />
      <path
         d="m 22.625,27.25 c -0.0091,0.01037 -0.02295,0.02122 -0.03125,0.03125 -0.242328,0.292645 -0.7486,-0.213178 -0.75,0.5625 -6.42e-4,0.368388 0.01395,1.174452 0.03125,1.8125 0.598437,0.231427 1.134297,0.03933 1.3125,-0.0625 0.196759,-0.112434 0.815807,0.668651 1.125,0.5 0.309193,-0.168651 0.324901,-0.49372 0.15625,-0.4375 C 24.300099,29.71247 23.906085,29.58102 23.625,29.1875 23.343915,28.793982 23.331183,28.896991 23.21875,29.09375 23.106316,29.29051 22.66865,29.77166 22.5,29.40625 22.355617,29.09342 22.398561,28.380951 22.625,27.25 z"
         id="path4051"
         style="fill:#444e52;fill-opacity:0.66300366;stroke:none;display:inline" />
      <path
         d="m 22.065139,29.926263 c 0.281084,0.08432 0.393518,0.112428 0.674603,-0.08433 0.281084,-0.196759 0.309193,-0.281084 0.618386,0.05622 0.309193,0.337302 0.983796,0.562169 1.180555,0.477844 0.196759,-0.08433 0.73082,-0.534061 0.73082,-0.534061"
         id="path4057"
         style="fill:none;stroke:#e9e9e9;stroke-width:0.5;stroke-linecap:round;stroke-linejoin:miter;stroke-miterlimit:4;stroke-opacity:0.78021982;stroke-dasharray:none;display:inline" />
      <path
         d="m 23.5,27.6875 c -0.10892,0.01757 -0.217262,0.06878 -0.34375,0.125 -0.252978,0.112434 0.03423,0.84375 -0.21875,0.84375 C 22.684521,28.65625 22.75,28 22.75,28 c 0,0 -0.01885,0.640708 -0.1875,0.78125 -0.126488,0.105407 -0.378813,0.0047 -0.71875,-0.28125 2.61e-4,0.140986 -9.96e-4,0.249109 0,0.40625 0.623827,0.226813 1.069169,-0.05719 1.25,-0.125 0.224867,-0.08432 0.925099,0.28753 1.09375,0.34375 0.168646,0.05622 0.22503,-0.678241 0.28125,-0.875 0.05622,-0.19676 -0.225199,-0.44692 -0.5625,-0.53125 C 23.737599,27.676589 23.60892,27.669932 23.5,27.6875 z"
         id="path3970-3"
         style="fill:#ededeb;fill-opacity:0.81318683;stroke:none;display:inline" />
      <path
         d="m 21.86838,29.926262 c 0.224867,0.08432 0.674603,0.168651 0.871362,0 0.196759,-0.168651 0.337301,-0.196759 0.646494,0.112434 0.309193,0.309193 0.674603,0.36541 0.674603,0.36541"
         id="path4094"
         style="fill:none;stroke:#f8f8f8;stroke-width:0.30000001;stroke-linecap:round;stroke-linejoin:miter;stroke-miterlimit:4;stroke-opacity:0.62271064;stroke-dasharray:none;display:inline" />
      <path
         d="m 23.611104,27.059199 c 0.02811,0.393519 -0.140542,1.433532 0,1.686508 0.140542,0.252976 1.433531,0.618386 1.46164,0.281084 0.02811,-0.337301 0.02811,-1.770832 0.02811,-1.770832 0,0 -1.236772,-0.393519 -1.489748,-0.19676 z"
         id="path4097"
         style="fill:#ededeb;fill-opacity:0.3150183;stroke:none" />
      <path
         d="m 25.100852,27.255959 -0.05622,1.939483"
         id="path4099"
         style="fill:none;stroke:#403e29;stroke-width:0.2;stroke-linecap:butt;stroke-linejoin:miter;stroke-miterlimit:4;stroke-opacity:0.54212455;stroke-dasharray:none" />
      <path
         d="m 19.151717,34.525399 c -1.504778,-0.957586 -1.846772,-1.162783 -0.752389,-1.436379 1.094384,-0.273596 2.257167,-0.68399 2.804359,-0.615591 0.547192,0.0684 0.68399,0.273596 1.299581,0.205197 0.615591,-0.0684 4.309136,-0.615591 5.061525,-0.547192 0.752389,0.0684 1.709975,0.478793 0.615591,2.257167 -1.094384,1.778374 -8.960268,0.273596 -9.028667,0.136798 z"
         id="path4134"
         style="fill:#ededeb;fill-opacity:0.37728936;stroke:none;display:inline" />
      <path
         d="m 21.21875,32.46875 c -0.412888,-0.05161 -1.21123,0.177118 -2.03125,0.40625 1.134208,0.327356 1.34375,0.425917 1.34375,1.65625 0,0.134628 0.01231,0.21883 0.03125,0.3125 0.308914,0.05232 0.65971,0.07418 1.03125,0.125 0.01107,0.0015 0.02014,-0.0015 0.03125,0 0.121836,-0.09191 0.1875,-0.15625 0.1875,-0.15625 l 0.375,-2.125 c -0.359961,-0.022 -0.535556,-0.1646 -0.96875,-0.21875 z"
         id="path4137"
         style="fill:#ededeb;fill-opacity:0.64468868;stroke:none;display:inline" />
      <path
         d="m 23.46875,33.90625 c -1.299581,0 -3.640308,0.0566 -4.1875,0.125 -0.547192,0.0684 -0.816644,0.482303 -0.40625,0.6875 C 19.285394,34.923946 19.410394,35.0684 19,35 c -0.276358,-0.04606 -0.61748,-0.08946 -1.1875,-0.09375 -0.03117,0.155396 0.01566,0.281237 0.09375,0.40625 -0.252866,0.350727 0.006,0.965754 0.21875,1.1875 -0.103507,0.228072 0.09301,0.520697 0.34375,0.75 -0.786705,0.842916 -0.336937,1.165618 -0.09375,1.5 -0.411461,0.490788 -0.389728,0.882147 -0.21875,1.1875 l 7.90625,-0.5 c 0,0 1.815628,-1.539349 3.03125,-2.71875 C 29.046894,36.404206 29,36.125 29,36.125 c 0,0 0.23233,-0.323819 0.15625,-0.625 0.08508,-0.108562 0.265651,-0.237949 0.25,-0.46875 -0.52164,-0.148479 -1.071514,-0.21875 -0.875,-0.21875 0.341996,0 0.591995,-0.482303 0.25,-0.6875 -0.341995,-0.205197 -4.01292,-0.21875 -5.3125,-0.21875 z"
         id="path4143"
         style="fill:#a88d5b;fill-opacity:1;stroke:none;display:inline" />
      <path
         d="m 23.42801,36.905868 c 0.413249,-1.080804 0.826497,-1.366899 1.271534,-1.335111 0.445037,0.03179 0.731132,0.413249 0.985439,0.413249 0.254307,0 -0.38146,-0.699344 0.19073,-0.699344 0.57219,0 1.049015,0 1.462264,-0.127153 0.413248,-0.127154 -0.826497,0.19073 -0.890074,0.286095 -0.06358,0.09537 0.445037,0.222518 0.635767,0.95365 0.19073,0.731132 -3.464929,1.494052 -3.464929,1.303322 0,-0.19073 -0.127154,-0.76292 -0.190731,-0.794708 z"
         id="path4541"
         style="fill:#62442f;fill-opacity:0.30402934;stroke:none;display:inline" />
      <path
         d="m 21.887677,29.73747 c -0.752389,1.025984 -0.68399,2.051969 -0.615591,2.804358 0.0684,0.752389 0,3.625147 0,3.625147"
         id="path4140"
         style="fill:none;stroke:#939a9f;stroke-width:0.40000001;stroke-linecap:butt;stroke-linejoin:miter;stroke-miterlimit:4;stroke-opacity:0.61172162;stroke-dasharray:none;display:inline" />
      <path
         d="m 18.057333,34.593798 c 1.709975,0.615591 5.266723,0.68399 6.497905,0.68399 1.231181,0 4.309136,-0.341995 4.856328,-0.752389"
         id="path4146"
         style="fill:none;stroke:#d2d5d7;stroke-width:0.5;stroke-linecap:round;stroke-linejoin:miter;stroke-miterlimit:4;stroke-opacity:0.22710625;stroke-dasharray:none;display:inline" />
      <path
         d="m 22.23555,29.888544 c 0.210336,0.02254 0.41316,-0.06761 0.60096,-0.157752 0.187801,-0.09014 0.315505,0.02254 0.315505,0.02254"
         id="path4203"
         style="fill:none;stroke:#3b4044;stroke-width:0.30000001;stroke-linecap:round;stroke-linejoin:miter;stroke-miterlimit:4;stroke-opacity:0.49450552;stroke-dasharray:none" />
      <path
         d="m 17.8125,35.125 c 0.02244,0.06526 0.05451,0.124686 0.09375,0.1875 -0.252866,0.350727 0.006,0.965754 0.21875,1.1875 -0.103507,0.228072 0.09301,0.520697 0.34375,0.75 -0.786705,0.842916 -0.336937,1.165618 -0.09375,1.5 -0.534899,0.638024 -0.335228,1.103119 -0.03125,1.4375 -0.442473,0.777195 -0.240632,1.259368 0.09375,1.59375 -0.108432,0.347033 -0.474317,0.784169 0.5,1.6875 1.231091,1.141397 2.916471,2.06761 3.28125,2.25 0.36478,0.18239 0.717429,0.424375 0.875,0.46875 0.170969,0.04815 0.660509,0.06164 0.8125,0.03125 0.151992,-0.0304 0.981035,-0.49303 1.21875,-0.625 2.178913,-1.209649 3.328257,-2.08781 3.375,-2.65625 0.730029,-0.610734 0.586085,-1.478118 0.3125,-1.8125 0.472873,-0.625373 0.315786,-1.222551 -0.03125,-1.5 0.47199,-0.459766 0.427277,-1.28636 0.0625,-1.46875 0.293115,-0.264626 0.342898,-0.544025 0.3125,-1 C 29.12585,36.700276 29,36.125 29,36.125 c 0,0 0.23233,-0.323819 0.15625,-0.625 0.06863,-0.08757 0.180331,-0.187227 0.21875,-0.34375 -1.352915,0.722022 -2.756174,1.171448 -5.8125,1.03125 -3.696597,-0.169568 -3.938486,-0.223847 -5.75,-1.0625 z"
         id="path4205"
         style="fill:#757979;fill-opacity:1;stroke:none;display:inline" />
      <path
         d="m 27.9375,35.78125 c -1.043039,0.336711 -2.337449,0.499715 -4.375,0.40625 -1.936636,-0.08884 -2.924814,-0.157585 -3.6875,-0.3125 -0.175294,0.523341 -0.0087,0.866287 0.25,1.125 0.29909,0.29909 -0.412386,1.094888 -0.375,1.46875 0.03739,0.373863 0.6875,0.750569 0.6875,0.9375 0,0.186932 -0.999431,0.363865 -0.8125,0.8125 0.186932,0.448635 1.199772,0.750569 1.125,0.9375 -0.07477,0.186931 -1.099886,-0.111022 -1.0625,0.375 0.03739,0.486021 1.21875,1.169091 1.21875,1.28125 0,0.112159 -1.162386,-0.129999 -1.125,0.28125 0.03739,0.411249 0.664213,1.256136 3.28125,1.21875 2.617038,-0.03739 4.643977,-0.876707 4.71875,-1.4375 0.07477,-0.560794 -0.980454,-0.444205 -0.71875,-0.59375 0.261704,-0.149545 1.061931,-0.513979 0.875,-1 -0.186931,-0.486021 -1.386703,-0.387842 -1.125,-0.5 0.261704,-0.112159 1.299659,-0.588751 1.1875,-1 -0.112158,-0.411249 -1.311362,-0.506705 -0.9375,-0.65625 0.373863,-0.149545 1.1875,-0.550796 1.1875,-0.8125 0,-0.261704 -0.814775,-0.543523 -1.5625,-0.46875 -0.747725,0.07477 -1.122156,0.03682 -0.1875,-0.1875 0.934657,-0.224318 1.4375,-0.625 1.4375,-0.625 0,0 -1.722612,0.461477 -0.9375,0.125 0.785111,-0.336476 1.03125,-0.569773 1.03125,-0.90625 0,-0.08457 -0.06192,-0.297569 -0.09375,-0.46875 z"
         id="path4208"
         style="fill:#151513;fill-opacity:0.61538463;stroke:none;display:inline" />
      <path
         d="m 21.28125,45.1875 c 0.385162,0.230045 0.807489,0.466244 0.9375,0.53125 0.36478,0.18239 0.717429,0.424375 0.875,0.46875 0.170969,0.04815 0.660509,0.06164 0.8125,0.03125 0.151992,-0.0304 0.981035,-0.49303 1.21875,-0.625 0.22421,-0.124473 0.391423,-0.226273 0.59375,-0.34375 -1.855835,0.287459 -3.325224,0.185433 -4.4375,-0.0625 z"
         id="path4211"
         style="fill:#353334;fill-opacity:1;stroke:none;display:inline" />
      <path
         d="m 18.169718,36.597194 c 1.420677,0.448635 2.579651,0.822497 5.607937,0.897269 3.028286,0.07477 5.009758,-0.672952 5.38362,-1.009429"
         id="path4214"
         style="fill:none;stroke:#8a8a8a;stroke-width:0.2;stroke-linecap:butt;stroke-linejoin:miter;stroke-miterlimit:4;stroke-opacity:1;stroke-dasharray:none;display:inline" />
      <path
         d="m 25.71875,45.25 c -1.855835,0.287459 -3.325224,0.185433 -4.4375,-0.0625"
         id="path4211-0"
         style="fill:none;stroke:#000000;stroke-width:0.30000001;stroke-miterlimit:4;stroke-opacity:1;stroke-dasharray:none;display:inline" />
      <path
         d="m 17.8125,35.125 c 0.02244,0.06526 0.05451,0.124686 0.09375,0.1875 -0.252866,0.350727 0.006,0.965754 0.21875,1.1875 -0.09884,0.21779 0.07821,0.494581 0.3125,0.71875 0.01106,0.01058 0.01995,0.02091 0.03125,0.03125 0.717616,0.368477 1.356014,0.599104 1.6875,0.6875 0.488538,0.130277 0.448053,-0.05764 0.1875,0.59375 -0.260554,0.651384 0.304584,0.743404 0.5,0.90625 C 21.039165,39.600347 20.5,39.7016 20.5,40.125 c 0,0.4234 1.001319,0.581878 0.96875,0.875 -0.03257,0.293123 -0.811181,0.101256 -0.84375,0.6875 -0.03257,0.586246 0.842431,0.867084 0.875,1.0625 0.03257,0.195415 -0.90625,-0.213884 -0.90625,0.4375 0,0.651384 0.456466,0.93618 1.53125,0.96875 1.074784,0.03257 4.585835,-0.462154 4.78125,-0.625 0.195415,-0.162846 0.14083,-0.934861 -0.25,-1 -0.390831,-0.06514 0.692777,-0.262781 0.5625,-0.71875 C 27.088473,41.356531 26.991177,41.03257 26.4375,41 c -0.553676,-0.03257 0.972708,-0.42035 0.875,-0.84375 -0.09771,-0.4234 -1.39215,-0.274654 -0.96875,-0.4375 0.423399,-0.162846 0.170351,-0.654931 0.59375,-0.6875 0.4234,-0.03257 1.536938,-1.21875 0.625,-1.21875 -0.911937,0 -2.191868,-0.152293 -1.3125,-0.25 0.879369,-0.09771 1.589792,-0.307223 1.6875,-0.4375 0.07328,-0.09771 -0.335928,-0.04723 -0.46875,-0.0625 0.005,-0.006 -0.01221,-0.02311 0,-0.03125 0.195415,-0.130277 0.626319,-0.648335 0.59375,-0.84375 -0.0054,-0.03218 -0.311036,-0.147879 -0.75,-0.25 -0.940592,0.220054 -2.093124,0.326003 -3.75,0.25 -3.696597,-0.169568 -3.938486,-0.223847 -5.75,-1.0625 z"
         id="path4381"
         style="fill:#151513;fill-opacity:0.45054944;stroke:none;display:inline" />
      <path
         d="m 18.49931,38.13153 c 1.074784,0.553677 2.344983,0.683954 4.201428,0.683954 1.856444,0 4.657396,-0.488539 5.34135,-0.814231"
         id="path4407"
         style="fill:none;stroke:#a3a3a3;stroke-width:0.80000001;stroke-linecap:round;stroke-linejoin:miter;stroke-miterlimit:4;stroke-opacity:0.61904764;stroke-dasharray:none;display:inline" />
      <path
         d="m 18.222471,39.743706 c 1.074784,0.553677 2.344983,0.683954 4.201428,0.683954 1.856444,0 4.657396,-0.488539 5.34135,-0.814231"
         id="path4407-6"
         style="fill:none;stroke:#a3a3a3;stroke-width:0.80000001;stroke-linecap:round;stroke-linejoin:miter;stroke-miterlimit:4;stroke-opacity:0.61904764;stroke-dasharray:none;display:inline" />
      <path
         d="m 18.385317,41.307028 c 1.074784,0.553677 2.344983,0.683954 4.201428,0.683954 1.856444,0 4.657396,-0.488539 5.34135,-0.814231"
         id="path4407-63"
         style="fill:none;stroke:#a3a3a3;stroke-width:0.80000001;stroke-linecap:round;stroke-linejoin:miter;stroke-miterlimit:4;stroke-opacity:0.61904764;stroke-dasharray:none;display:inline" />
      <path
         d="m 19.004132,43.26118 c 0.81423,0.260555 1.62846,0.45597 3.484905,0.45597 1.856444,0 4.657396,-0.488539 5.34135,-0.814231"
         id="path4407-9"
         style="fill:none;stroke:#a3a3a3;stroke-width:0.80000001;stroke-linecap:round;stroke-linejoin:miter;stroke-miterlimit:4;stroke-opacity:0.61904764;stroke-dasharray:none;display:inline" />
      <path
         d="m 21.783462,38.78392 c 1.38128,0.09058 4.143839,-0.249083 5.18546,-0.475523"
         id="path4453"
         style="fill:none;stroke:#f4f4f4;stroke-width:0.69999999;stroke-linecap:round;stroke-linejoin:miter;stroke-miterlimit:4;stroke-opacity:0.82417585;stroke-dasharray:none" />
      <path
         d="m 21.817428,40.4181 c 1.38128,0.09058 4.143839,-0.249083 5.18546,-0.475523"
         id="path4453-8"
         style="fill:none;stroke:#f4f4f4;stroke-width:0.69999999;stroke-linecap:round;stroke-linejoin:miter;stroke-miterlimit:4;stroke-opacity:0.82417585;stroke-dasharray:none;display:inline" />
      <path
         d="m 21.817428,41.957887 c 1.38128,0.09058 4.143839,-0.249083 5.18546,-0.475523"
         id="path4453-5"
         style="fill:none;stroke:#f4f4f4;stroke-width:0.69999999;stroke-linecap:round;stroke-linejoin:miter;stroke-miterlimit:4;stroke-opacity:0.82417585;stroke-dasharray:none;display:inline" />
      <path
         d="m 21.840072,43.701471 c 1.38128,0.09058 4.143839,-0.249083 5.18546,-0.475523"
         id="path4453-86"
         style="fill:none;stroke:#f4f4f4;stroke-width:0.69999999;stroke-linecap:round;stroke-linejoin:miter;stroke-miterlimit:4;stroke-opacity:0.82417585;stroke-dasharray:none;display:inline" />
      <path
         d="m 19.493085,38.64243 c 0.955762,0.222272 3.134008,0.311178 3.578548,0.244497"
         id="path4495"
         style="fill:none;stroke:#383838;stroke-width:0.30000001;stroke-linecap:round;stroke-linejoin:miter;stroke-miterlimit:4;stroke-opacity:0.71794876;stroke-dasharray:none;display:inline" />
      <path
         d="m 19.504199,40.287513 c 0.955762,0.222272 3.134008,0.311178 3.578548,0.244497"
         id="path4495-1"
         style="fill:none;stroke:#383838;stroke-width:0.30000001;stroke-linecap:round;stroke-linejoin:miter;stroke-miterlimit:4;stroke-opacity:0.71794876;stroke-dasharray:none;display:inline" />
      <path
         d="m 19.481972,41.798949 c 0.955762,0.222272 3.134008,0.311178 3.578548,0.244497"
         id="path4495-6"
         style="fill:none;stroke:#383838;stroke-width:0.30000001;stroke-linecap:round;stroke-linejoin:miter;stroke-miterlimit:4;stroke-opacity:0.6520147;stroke-dasharray:none;display:inline" />
      <path
         d="m 19.748696,43.554883 c 0.955762,0.222272 3.134008,0.311178 3.578548,0.244497"
         id="path4495-68"
         style="fill:none;stroke:#383838;stroke-width:0.30000001;stroke-linecap:round;stroke-linejoin:miter;stroke-miterlimit:4;stroke-opacity:0.51648356;stroke-dasharray:none;display:inline" />
      <path
         d="m 24.03125,33.90625 c 0.669178,0.343465 1.386509,0.711751 0.34375,0.6875 -1.366899,-0.03179 -3.141688,0.123385 -2.15625,0.21875 1.080804,0.254306 3.832983,0.06304 4.46875,0.03125 0.635767,-0.03179 -1.29094,-0.280173 -0.71875,-0.34375 0.388657,-0.04319 1.675681,-0.179283 2.21875,-0.46875 -1.025618,-0.09479 -2.964683,-0.122112 -4.15625,-0.125 z"
         id="path4538"
         style="fill:#62442f;fill-opacity:0.45054944;stroke:none;display:inline" />
    </g>
    <g
       id="layer3"
       style="display:inline">
      <path
         d="m 22.67451,20.777272 c 0.402317,-0.0053 1.637629,-5.26e-4 2.112239,0.0092 0.448935,0.0092 0.397242,0.680849 0.07616,0.683348 -0.08495,6.25e-4 -0.13062,0.01755 -0.256,0.01952 -0.01045,0.260911 -0.189072,4.976118 -0.178016,5.285285 0.01991,0.556869 1.053842,0.135252 1.068096,0.707921 0.0075,0.302475 -0.101465,2.750254 -0.154562,3.04467 -0.04261,0.236255 -3.38568,0.132538 -3.451754,-0.11039 -0.05843,-0.214812 -0.05614,-2.014811 -0.05519,-2.55985 0.0014,-0.775678 0.515732,-0.296598 0.75806,-0.589243 0.108567,-0.131109 0.29255,-0.290727 0.283351,-0.499572 -0.01567,-0.355687 0.04245,-5.058618 0.03174,-5.420951 -0.06105,0.003 -0.125797,0.01 -0.232859,0.0064 -0.39158,-0.013 -0.403599,-0.570959 -0.0013,-0.576294 l 3.9e-5,-4e-5 z"
         id="path3970-2"
         style="fill:none;stroke:#7b7b7b;stroke-width:0.30000001;stroke-miterlimit:4;stroke-opacity:0.99633699;stroke-dasharray:none;display:inline" />
      <path
         d="m 23.493753,21.009295 c 0.122107,0 0.407023,-0.284917 0.610535,-0.651238 0.203512,-0.366322 1.261774,-2.88987 1.261774,-2.88987"
         id="path3979"
         style="fill:none;stroke:#252525;stroke-width:0.2;stroke-linecap:round;stroke-linejoin:miter;stroke-miterlimit:4;stroke-opacity:0.61904764;stroke-dasharray:none;display:inline" />
      <path
         d="m 24.674122,21.0907 c 0.325619,-0.08141 0.732643,-0.244215 1.302476,-0.732643 0.569834,-0.488429 2.564251,-2.360739 2.72706,-2.523548 0.16281,-0.16281 0.0407,-0.773346 -0.407024,-0.610536 -0.447726,0.162809 -0.447726,0.569833 -0.203512,0.691941 0.244215,0.122107 0.569834,0 0.773346,-0.122108 0.203512,-0.122107 0.407024,-0.447726 0.407024,-0.447726"
         id="path3982"
         style="fill:none;stroke:#252525;stroke-width:0.2;stroke-linecap:round;stroke-linejoin:miter;stroke-miterlimit:4;stroke-opacity:0.61904764;stroke-dasharray:none;display:inline" />
      <path
         d="m 22.199714,27.879998 -0.09673,4.30452 -0.217644,2.853558 0,0.266009 -0.09882,0.792648"
         id="path4122"
         style="fill:none;stroke:#000000;stroke-width:0.2;stroke-linecap:butt;stroke-linejoin:miter;stroke-miterlimit:4;stroke-opacity:0.86446886;stroke-dasharray:none;display:inline" />
      <path
         d="m 24.85981,30.540094 -0.145096,1.330048 c 0,0 -0.04837,2.128078 -0.04837,2.224808 0,0.09673 -0.120914,0.483654 -0.120914,0.62875 0,0.145097 0.145097,0.120914 0.145097,0.411106 0,0.290193 -0.100909,1.092885 -0.100909,1.092885"
         id="path4124"
         style="fill:none;stroke:#000000;stroke-width:0.2;stroke-linecap:butt;stroke-linejoin:miter;stroke-miterlimit:4;stroke-opacity:0.86446886;stroke-dasharray:none;display:inline" />
      <path
         d="m 29.375,35.15625 c -1.352915,0.722022 -2.756174,1.171448 -5.8125,1.03125 -3.696597,-0.169568 -3.938486,-0.223847 -5.75,-1.0625 0.02244,0.06526 0.05451,0.124686 0.09375,0.1875"
         id="path4205-5"
         style="fill:none;stroke:#686868;stroke-width:0.30000001;stroke-miterlimit:4;stroke-opacity:1;stroke-dasharray:none;display:inline" />
      <path
         d="m 22.199714,27.879998 -0.09673,4.40125"
         id="path4130"
         style="fill:none;stroke:#521515;stroke-width:0.30000001;stroke-linecap:butt;stroke-linejoin:miter;stroke-miterlimit:4;stroke-opacity:1;stroke-dasharray:none;display:inline" />
      <path
         d="m 23.2664,30.572429 c 0.434701,0.0494 1.195429,0.0494 1.195429,0.0494"
         id="path4195"
         style="fill:none;stroke:#eeeeee;stroke-width:0.40000001;stroke-linecap:round;stroke-linejoin:miter;stroke-miterlimit:4;stroke-opacity:0.77655699;stroke-dasharray:none" />
      <path
         d="m 23.751051,28.84676 c 0.07749,0.09041 0.32288,0.284134 0.32288,0.284134"
         id="path4197"
         style="fill:none;stroke:#a5a5a5;stroke-width:0.40000001;stroke-linecap:round;stroke-linejoin:miter;stroke-miterlimit:4;stroke-opacity:0.77655699;stroke-dasharray:none" />
      <path
         d="m 25.043726,30.516644 c 0.240266,-0.03204 0.232257,-0.152168 0.240266,-0.328363 0.008,-0.176195 0.05606,-0.977082 0.05606,-0.977082"
         id="path4199"
         style="fill:none;stroke:#e6e6e6;stroke-width:0.40000001;stroke-linecap:round;stroke-linejoin:miter;stroke-miterlimit:4;stroke-opacity:0.67765569;stroke-dasharray:none" />
      <path
         d="m 24.058635,30.596733 0.520576,0.02403"
         id="path4201"
         style="fill:none;stroke:#f6f6f6;stroke-width:0.40000001;stroke-linecap:round;stroke-linejoin:miter;stroke-miterlimit:4;stroke-opacity:0.67765569;stroke-dasharray:none" />
      <path
         d="M 24.125,1.7500002 C 20.035434,1.8050782 10.57067,5.4218218 10.65625,15.34375 c 0.05782,6.703601 4.167771,9.20845 5.843749,14.4375 0.407694,1.272006 -0.07996,2.976467 0.3125,3.78125 0.06717,0.137737 0.381603,0.701417 1,1.28125 -0.06949,0.190312 0.0045,0.325878 0.09375,0.46875 -0.252866,0.350727 0.006,0.965754 0.21875,1.1875 -0.103507,0.228072 0.09301,0.520697 0.34375,0.75 -0.786705,0.842916 -0.336937,1.165618 -0.09375,1.5 -0.534899,0.638024 -0.335228,1.103119 -0.03125,1.4375 -0.442473,0.777195 -0.240632,1.259368 0.09375,1.59375 -0.108432,0.347033 -0.474317,0.784169 0.5,1.6875 1.231091,1.141397 2.916472,2.06761 3.281251,2.25 0.36478,0.18239 0.717429,0.424375 0.875,0.46875 0.170969,0.04815 0.660509,0.06164 0.8125,0.03125 0.151992,-0.0304 0.981035,-0.49303 1.21875,-0.625 2.178913,-1.209649 3.328257,-2.08781 3.375,-2.65625 0.730029,-0.610734 0.586085,-1.478118 0.3125,-1.8125 0.472873,-0.625373 0.315786,-1.222551 -0.03125,-1.5 0.47199,-0.459766 0.427277,-1.28636 0.0625,-1.46875 0.293115,-0.264626 0.342898,-0.544025 0.3125,-1 C 29.12585,36.700276 29,36.125 29,36.125 c 0,0 0.23233,-0.323819 0.15625,-0.625 0.09951,-0.126973 0.322178,-0.28006 0.21875,-0.59375 0.604984,-0.375027 0.75818,-0.721067 0.96875,-1.09375 0.980758,-1.735829 0.423092,-2.612331 1.3125,-5.0625 1.114068,-3.069071 5.81704,-7.287296 5.75,-13.65625 C 37.298292,4.837335 27.881689,1.6994052 24.125,1.7500002 z"
         id="path2965-4"
         style="fill:none;stroke:#000000;stroke-width:0.5;stroke-linejoin:round;stroke-miterlimit:4;stroke-opacity:1;stroke-dasharray:none;display:inline" />
      <path
         d="m 22.569725,36.142947 c 1.207957,0.06358 2.89274,0.06358 3.305988,0"
         id="path4616"
         style="fill:none;stroke:#f8f8f8;stroke-width:0.2;stroke-linecap:round;stroke-linejoin:miter;stroke-miterlimit:4;stroke-opacity:0.84981683;stroke-dasharray:none;display:inline" />
    </g>
  </g>
</svg>
