<?xml version="1.0" encoding="UTF-8" standalone="no"?>
<!-- Created with Inkscape (http://www.inkscape.org/) -->

<svg
   xmlns:svg="http://www.w3.org/2000/svg"
   xmlns="http://www.w3.org/2000/svg"
   xmlns:xlink="http://www.w3.org/1999/xlink"
   version="1.1"
   width="100%"
   height="100%"
   viewBox="0 0 48 48"
   id="_stabilo01"
   style="display:inline">
  <defs
     id="defs2385">
    <filter
       color-interpolation-filters="sRGB"
       id="filter4022">
      <feBlend
         in2="BackgroundImage"
         mode="screen"
         id="feBlend4024" />
    </filter>
    <clipPath
       id="clipPath3129">
      <rect
         width="48"
         height="48"
         ry="0"
         x="0"
         y="0"
         id="r3131"
         style="fill:#000000;fill-opacity:1;fill-rule:evenodd;stroke:#d7d7d7;stroke-width:0.91000003;stroke-linecap:round;stroke-linejoin:miter;stroke-miterlimit:4;stroke-opacity:0.86000001;stroke-dasharray:none;stroke-dashoffset:0;marker:none;visibility:visible;display:inline;overflow:visible;enable-background:accumulate" />
    </clipPath>
    <linearGradient
       x1="45.91"
       y1="45.650002"
       x2="6.23"
       y2="2.4300001"
       id="lg2418"
       xlink:href="#lg3892"
       gradientUnits="userSpaceOnUse" />
    <linearGradient
       id="lg3920-2">
      <stop
         id="s3922-8"
         style="stop-color:#000000;stop-opacity:1"
         offset="0" />
      <stop
         id="s3924-9"
         style="stop-color:#363838;stop-opacity:1"
         offset="1" />
    </linearGradient>
    <linearGradient
       x1="24.280001"
       y1="6.8600001"
       x2="24.280001"
       y2="37.880001"
       id="lg3926-9"
       xlink:href="#lg3920-2"
       gradientUnits="userSpaceOnUse" />
    <linearGradient
       x1="24.280001"
       y1="6.8600001"
       x2="24.280001"
       y2="37.880001"
       id="lg3926"
       xlink:href="#lg3920"
       gradientUnits="userSpaceOnUse" />
    <linearGradient
       x1="45.91"
       y1="45.650002"
       x2="6.23"
       y2="2.4300001"
       id="lg3898"
       xlink:href="#lg3892"
       gradientUnits="userSpaceOnUse" />
    <linearGradient
       id="lg3892">
      <stop
         id="s3894"
         style="stop-color:#050707;stop-opacity:1"
         offset="0" />
      <stop
         id="s3896"
         style="stop-color:#d6d6d6;stop-opacity:1"
         offset="1" />
    </linearGradient>
    <linearGradient
       id="lg3920">
      <stop
         id="s3922"
         style="stop-color:#000000;stop-opacity:1"
         offset="0" />
      <stop
         id="s3924"
         style="stop-color:#363838;stop-opacity:1"
         offset="1" />
    </linearGradient>
    <linearGradient
       x1="23.870001"
       y1="21.450001"
       x2="23.870001"
       y2="41.560001"
       id="lg2479"
       xlink:href="#lg3934"
       gradientUnits="userSpaceOnUse" />
    <linearGradient
       x1="9.8900003"
       y1="9.3900003"
       x2="40.07"
       y2="9.3900003"
       id="lg2475"
       xlink:href="#lg4189"
       gradientUnits="userSpaceOnUse" />
    <linearGradient
       x1="9.8900003"
       y1="9.3900003"
       x2="40.07"
       y2="9.3900003"
       id="lg4195"
       xlink:href="#lg4189"
       gradientUnits="userSpaceOnUse" />
    <linearGradient
       x1="23.870001"
       y1="21.450001"
       x2="23.870001"
       y2="41.560001"
       id="lg3940"
       xlink:href="#lg3934"
       gradientUnits="userSpaceOnUse" />
    <linearGradient
       id="lg3934">
      <stop
         id="s3936"
         style="stop-color:#772527;stop-opacity:1"
         offset="0" />
      <stop
         id="s3938"
         style="stop-color:#ff9f46;stop-opacity:1"
         offset="1" />
    </linearGradient>
    <linearGradient
       id="lg4189">
      <stop
         id="s4191"
         style="stop-color:#db2525;stop-opacity:1"
         offset="0" />
      <stop
         id="s4201"
         style="stop-color:#decd0e;stop-opacity:1"
         offset="0.25" />
      <stop
         id="s4203"
         style="stop-color:#36e41f;stop-opacity:1"
         offset="0.37" />
      <stop
         id="s4197"
         style="stop-color:#28ddbe;stop-opacity:1"
         offset="0.5" />
      <stop
         id="s4199"
         style="stop-color:#232bd8;stop-opacity:1"
         offset="0.75" />
      <stop
         id="s4193"
         style="stop-color:#dc2eb6;stop-opacity:1"
         offset="1" />
    </linearGradient>
    <linearGradient
       id="lg4189-954">
      <stop
         id="s2453"
         style="stop-color:#5b5b5b;stop-opacity:1"
         offset="0" />
      <stop
         id="s2455"
         style="stop-color:#bcbcbc;stop-opacity:1"
         offset="0.25" />
      <stop
         id="s2457"
         style="stop-color:#9a9a9a;stop-opacity:1"
         offset="0.37" />
      <stop
         id="s2459"
         style="stop-color:#a3a3a3;stop-opacity:1"
         offset="0.5" />
      <stop
         id="s2461"
         style="stop-color:#3c3c3c;stop-opacity:1"
         offset="0.75" />
      <stop
         id="s2463"
         style="stop-color:#727272;stop-opacity:1"
         offset="1" />
    </linearGradient>
    <linearGradient
       x1="9.8900003"
       y1="9.3900003"
       x2="40.07"
       y2="9.3900003"
       id="lg2475-51"
       xlink:href="#lg4189-954"
       gradientUnits="userSpaceOnUse" />
    <linearGradient
       id="lg3934-130">
      <stop
         id="s2447"
         style="stop-color:#3e3e3e;stop-opacity:1"
         offset="0" />
      <stop
         id="s2449"
         style="stop-color:#b2b2b2;stop-opacity:1"
         offset="1" />
    </linearGradient>
    <linearGradient
       x1="23.870001"
       y1="21.450001"
       x2="23.870001"
       y2="41.560001"
       id="lg2479-392"
       xlink:href="#lg3934-130"
       gradientUnits="userSpaceOnUse" />
    <linearGradient
       x1="23.870001"
       y1="21.450001"
       x2="23.870001"
       y2="41.560001"
       id="lg3444"
       xlink:href="#lg3934"
       gradientUnits="userSpaceOnUse" />
    <linearGradient
       x1="9.8900003"
       y1="9.3900003"
       x2="40.07"
       y2="9.3900003"
       id="lg3442"
       xlink:href="#lg4189"
       gradientUnits="userSpaceOnUse" />
    <linearGradient
       x1="9.8900003"
       y1="9.3900003"
       x2="40.07"
       y2="9.3900003"
       id="lg3440"
       xlink:href="#lg4189"
       gradientUnits="userSpaceOnUse" />
    <linearGradient
       x1="23.870001"
       y1="21.450001"
       x2="23.870001"
       y2="41.560001"
       id="lg3438"
       xlink:href="#lg3934"
       gradientUnits="userSpaceOnUse" />
    <linearGradient
       id="lg3432">
      <stop
         id="s3434"
         style="stop-color:#3e3e3e;stop-opacity:1"
         offset="0" />
      <stop
         id="s3436"
         style="stop-color:#b2b2b2;stop-opacity:1"
         offset="1" />
    </linearGradient>
    <linearGradient
       id="lg3418">
      <stop
         id="s3420"
         style="stop-color:#5b5b5b;stop-opacity:1"
         offset="0" />
      <stop
         id="s3422"
         style="stop-color:#bcbcbc;stop-opacity:1"
         offset="0.25" />
      <stop
         id="s3424"
         style="stop-color:#9a9a9a;stop-opacity:1"
         offset="0.37" />
      <stop
         id="s3426"
         style="stop-color:#a3a3a3;stop-opacity:1"
         offset="0.5" />
      <stop
         id="s3428"
         style="stop-color:#3c3c3c;stop-opacity:1"
         offset="0.75" />
      <stop
         id="s3430"
         style="stop-color:#727272;stop-opacity:1"
         offset="1" />
    </linearGradient>
  </defs>
  <rect
     width="47.5"
     height="47.5"
     ry="4"
     x="0.25"
     y="0.25"
     id="r2593"
     style="fill:#fffbfb;fill-opacity:1;fill-rule:evenodd;stroke:none;marker:none;visibility:visible;display:inline;overflow:visible;enable-background:accumulate" />
  <rect
     width="47.5"
     height="47.5"
     ry="4"
     x="0.25"
     y="0.25"
     id="r3365"
     style="fill:none;stroke:#000000;stroke-width:0.5;stroke-linecap:round;stroke-linejoin:miter;stroke-miterlimit:4;stroke-opacity:1;stroke-dasharray:none;stroke-dashoffset:0;marker:none;visibility:visible;display:inline;overflow:visible;enable-background:accumulate" />
  <g
     transform="matrix(0.93917313,0,0,0.93917313,1.5787239,0.70703806)"
     id="g3036"
     style="display:inline">
    <g
       id="layer10"
       style="display:inline">
      <path
         d="m 2.6305118,27.098096 21.5417582,-0.568759 4.976644,3.412555 16.20964,-1.706278 1.421898,-0.426569 -12.725989,-15.072121 -0.28438,0.07109 -0.426569,0.213285 L 14.147888,7.5469949 2.6305118,27.098096 z"
         id="path3674"
         style="fill:#76757b;fill-opacity:1;stroke:none" />
      <path
         d="M 13.78125,8.1875 2.625,27.09375 13.28125,26.8125 l 6,-10.21875 0,-0.34375 -5.5,-8.0625 z"
         id="path3872"
         style="fill:#3a2d1d;fill-opacity:1;stroke:none;display:inline" />
      <path
         d="M 12.03125,25.875 3.25,26.03125 l -0.625,1.0625 9.40625,-0.25 0,-0.96875 z"
         id="path4207"
         style="fill:#201d1a;fill-opacity:0.86813187;stroke:none" />
      <path
         d="M 8.7892131,26.03766 16.658873,15.088567"
         id="path4232-8"
         style="fill:none;stroke:#1d1a10;stroke-width:0.60000002;stroke-linecap:round;stroke-linejoin:miter;stroke-miterlimit:4;stroke-opacity:1;stroke-dasharray:none;display:inline" />
      <path
         d="M 5.1751571,26.187355 14.712843,12.458219"
         id="path4232"
         style="fill:none;stroke:#1d1a10;stroke-width:0.60000002;stroke-linecap:round;stroke-linejoin:miter;stroke-miterlimit:4;stroke-opacity:1;stroke-dasharray:none" />
      <path
         d="M 5.4032133,36.056055 5.687593,35.70058 12.228325,34.563062 25.594168,37.406858 25.523073,39.681895 24.741029,40.17956 5.4032133,36.056055 z"
         id="path3682"
         style="fill:#87827e;fill-opacity:1;stroke:none;display:inline" />
      <path
         d="m 17.21875,14.59375 -5.5625,7.65625 -3.75,0 -0.09375,1.15625 0.28125,0 0.09375,0.34375 2.40625,0 0,0.78125 0.4375,0.15625 -0.15625,6.6875 -5.75,0.5625 0.0625,0.5625 0.65625,0.15625 -0.09375,1.6875 -0.34375,0.375 0,1.1875 2,-0.28125 -0.09375,-0.5625 3.28125,-0.5 0.15625,0.34375 1.0625,-0.125 0,-0.21875 5.1875,1.0625 0.0625,-1.5 5.53125,0.9375 0.147897,1.752163 2.21875,0.477401 0.0084,0.676686 -0.4375,0.4375 0,1.5625 0.78125,-0.0625 1.40625,-0.4375 -0.0625,-1.125 2.5625,-0.375 0.0625,0.875 0.28125,0.0625 1.15625,-0.375 1.5,0.375 L 32.5,38.75 l -0.15625,-0.5625 7.46875,-1.84375 0.78125,0.0625 0.34375,-0.0625 0.34375,-7.6875 -12.125,1.28125 -3.0625,-2.09375 0,-2.59375 c 0,-0.02103 -3.2e-4,-0.04155 0,-0.0625 l -8.875,-10.59375 z M 10.75,32.0625 l 0.0625,0.5 -0.375,0.15625 0,0.28125 L 7.75,33.21875 7.75,33 7.40625,33 7.3125,32.28125 10.75,32.0625 z"
         id="path3676"
         style="fill:#8f3f34;fill-opacity:1;stroke:none;display:inline" />
      <path
         d="m 25.973946,26.262939 c -0.644744,1.381593 -2.67108,5.250053 -2.67108,5.250053 l -0.09211,3.13161 6.355327,1.105275 0.184213,-6.079009 -3.776354,-3.407929 z"
         id="path4393"
         style="fill:#591010;fill-opacity:0.19413919;stroke:none;display:inline" />
      <path
         d="m 12.031226,32.284211 15.114228,2.218257"
         id="path4311"
         style="fill:none;stroke:#330e04;stroke-width:0.2;stroke-linecap:butt;stroke-linejoin:miter;stroke-miterlimit:4;stroke-opacity:0.43223446;stroke-dasharray:none;display:inline" />
      <path
         d="m 12.106421,25.667036 15.640595,1.09033"
         id="path4315"
         style="fill:none;stroke:#330e04;stroke-width:0.2;stroke-linecap:butt;stroke-linejoin:miter;stroke-miterlimit:4;stroke-opacity:0.77655699;stroke-dasharray:none;display:inline" />
      <path
         d="m 12.181617,22.997608 12.219214,0.413573"
         id="path4317"
         style="fill:none;stroke:#330e04;stroke-width:0.2;stroke-linecap:butt;stroke-linejoin:miter;stroke-miterlimit:4;stroke-opacity:0.73260073;stroke-dasharray:none;display:inline" />
      <path
         d="m 12.219214,21.907278 11.392068,0.07519"
         id="path4319"
         style="fill:none;stroke:#330e04;stroke-width:0.2;stroke-linecap:butt;stroke-linejoin:miter;stroke-miterlimit:4;stroke-opacity:0.75824178;stroke-dasharray:none;display:inline" />
      <path
         d="m 17.21875,14.59375 -5.40625,7.4375 14.09375,2.9375 -8.6875,-10.375 z"
         id="path3676-9"
         style="fill:#3f1c17;fill-opacity:0.24175822;stroke:none;display:inline" />
      <path
         d="M 12.144019,28.374062 28.46137,29.915563"
         id="path4313"
         style="fill:none;stroke:#330e04;stroke-width:0.2;stroke-linecap:butt;stroke-linejoin:miter;stroke-miterlimit:4;stroke-opacity:0.68864471;stroke-dasharray:none;display:inline" />
      <path
         d="m 7.90625,22.25 -0.09375,1.15625 0.28125,0 0.09375,0.34375 2.40625,0 0,0.78125 0.4375,0.15625 -0.15625,6.6875 -5.75,0.5625 0.0625,0.5625 0.65625,0.15625 -0.09375,1.6875 -0.34375,0.375 0,1.1875 2,-0.28125 -0.09375,-0.5625 3.28125,-0.5 0.15625,0.34375 1.0625,-0.125 0,-0.21875 0.0625,0.03125 0.21875,-12.25 -0.4375,-0.09375 -3.75,0 z m 2.84375,9.8125 0.0625,0.5 -0.375,0.15625 0,0.28125 L 7.75,33.21875 7.75,33 7.40625,33 7.3125,32.28125 10.75,32.0625 z"
         id="path4256"
         style="fill:#ab5b50;fill-opacity:0.6520147;stroke:none;display:inline" />
      <path
         d="M 11.84375,34.65625 12.125,21.4375"
         id="path4326"
         style="fill:none;stroke:#502722;stroke-width:0.30000001;stroke-linecap:round;stroke-linejoin:miter;stroke-miterlimit:4;stroke-opacity:1;stroke-dasharray:none" />
      <path
         d="M 12.375,9.28125 1,26.65625 1.4375,27.09375 13.03125,9.6875 12.375,9.28125 z"
         id="path3830"
         style="fill:#382d24;fill-opacity:0.31868131;stroke:none" />
      <path
         d="M 7.8125,16.25 1,26.65625 1.4375,27.09375 8,17.25 l -0.1875,-1 z"
         id="path3832"
         style="fill:#382d24;fill-opacity:0.31868131;stroke:none" />
      <path
         d="m 16.330845,9.1613593 1.819239,1.4384677 0.338463,0 1.734623,1.311545 0.550003,0.04231 1.39616,1.100005 0.550003,0.126924 1.480776,1.226928 0.423079,0 1.523083,1.269237 0.380771,0 1.438469,1.100005 0.423079,0 1.565391,1.226929 0.169232,-0.04231 1.692315,1.226929 0.296156,0 1.438468,1.269236 0.338463,-0.04231 1.438468,1.184621 0.253847,-0.04231 1.438469,1.142313 0.211539,-0.08462 1.269237,1.057698 0.211539,0 1.184621,0.973081 0.211539,-0.04231 1.353853,1.184621 0.296155,-0.08462 1.057697,0.973082 0.279336,-0.0082 1.370672,1.277384"
         id="path3911"
         style="fill:none;stroke:#2e2e2e;stroke-width:0.1;stroke-linecap:butt;stroke-linejoin:miter;stroke-miterlimit:4;stroke-opacity:0.70588235;stroke-dasharray:none;display:inline" />
      <path
         d="m 12.077341,24.370421 c 0,0 2.302369,-0.16157 2.585116,0.605886 0.282747,0.767457 0.565494,2.544724 1.292558,3.191003 0.727064,0.646279 2.423547,0.48471 2.423547,0.48471 0,0 0.969418,-5.089448 -0.929026,-6.260829 -1.898445,-1.171381 -3.433358,-3.756497 -3.433358,-3.756497 l -1.898445,2.665901 -0.04039,3.069826 z"
         id="path4359"
         style="fill:#ae4d3f;fill-opacity:0.28937731;stroke:none" />
      <path
         d="m 17.43085,11.192138 0.550002,0.126924 1.819239,1.353852 0.465387,0 1.565392,1.226929 0.550002,0.08461 1.523084,1.184621 0.423079,0.04231 1.6077,1.226929 0.465387,0 1.565392,1.311544 0.253847,-0.08462 1.734623,1.311544 0.296156,-0.04231 1.607699,1.226929 0.253848,0 1.39616,1.184621 0.253847,-0.04231 1.650008,1.269237 0.169231,0 1.523084,1.100005 0.169232,-0.04231 1.523084,1.142313 0.211539,0 1.184621,1.015389 0.296155,-0.04231 1.226929,1.015389 0.220385,0.009 1.387315,1.217909"
         id="path3913"
         style="fill:none;stroke:#2e2e2e;stroke-width:0.1;stroke-linecap:butt;stroke-linejoin:miter;stroke-miterlimit:4;stroke-opacity:0.74509804;stroke-dasharray:none;display:inline" />
      <path
         d="m 44.9748,26.645018 0.43145,1.073732 -0.09375,0 -1.020018,-0.957229 -0.223932,-0.04248 0.43145,1.093461 -0.15625,0 -1.24395,-1.110165 -0.246687,0.0085 0.553137,1.164168 -0.28125,0 -1.201757,-1.082229 -0.207229,0 L 42.28125,27.9375 42,27.96875 l -1.306739,-1.065236 -0.27549,-0.04248 0.644729,1.232718 -0.375,0.0625 -1.3125,-1.1875 -0.21875,0 0.46875,1.1875 -0.34375,0.09375 -1.25,-1.0625 -0.3125,0 0.4375,1.21875 -0.4375,0 -1.375,-1.21875 -0.40625,0.03125 0.4375,1.3125 L 36,28.625 l -1.5625,-1.3125 -0.4375,0 0.4375,1.46875 c 0.0055,0.01099 -0.0019,0.452728 0,0.59375 L 45.34375,28.25 46.6875,27.84375 46.40625,27.4375 45.142282,26.616793 44.9748,26.645018 z"
         id="path3821"
         style="fill:#3c3c3c;fill-opacity:0.42857145;stroke:none;display:inline" />
      <path
         d="m 19.123165,13.392148 0.676926,0.04231 1.81924,1.438468 0.253847,-0.08462 1.861547,1.269237 0.296155,0 1.861547,1.353852 0.338463,-0.04231 1.650008,1.311545 0.211539,-0.08462 1.734624,1.353853 0.253847,-0.04231 1.692316,1.311544 0.253847,-0.08462 1.523084,1.226929 0.338463,-0.04231 1.692315,1.353853 0.253848,-0.126924 1.39616,1.184621 0.169232,-0.08462 1.523084,1.226929 0.253847,-0.04231 1.226929,1.015389 0.253847,0 1.480776,1.311545"
         id="path3915"
         style="fill:none;stroke:#2e2e2e;stroke-width:0.1;stroke-linecap:butt;stroke-linejoin:miter;stroke-miterlimit:4;stroke-opacity:0.76470588;stroke-dasharray:none;display:inline" />
      <path
         d="m 20.984712,15.76139 0.592311,-0.04231 1.819239,1.311544 0.465387,0.04231 1.819239,1.311545 0.380771,-0.04231 1.734623,1.438468 0.380771,-0.08462 1.692316,1.353853 0.338463,-0.04231 1.607699,1.226929 0.296156,-0.04231 1.692315,1.311544 0.296155,-0.08462 1.438469,1.269237 0.338463,-0.08462 1.523084,1.353853 0.296155,-0.08462 1.353678,1.133468 0.296329,-0.03346 1.776932,1.565392"
         id="path3917"
         style="fill:none;stroke:#2e2e2e;stroke-width:0.1;stroke-linecap:butt;stroke-linejoin:miter;stroke-miterlimit:4;stroke-opacity:0.78431373;stroke-dasharray:none;display:inline" />
      <path
         d="m 22.930875,18.088324 0.507695,-0.04231 1.946163,1.480776 0.465386,-0.04231 1.650008,1.311544 0.507695,-0.08461 1.650007,1.39616 0.465387,-0.08462 1.650008,1.311545 0.253847,-0.126924 1.776931,1.523084 0.380771,-0.04231 1.6077,1.311544 0.253847,-0.08462 1.523084,1.226928 0.465387,-0.04231 1.6077,1.39616"
         id="path3919"
         style="fill:none;stroke:#2e2e2e;stroke-width:0.1;stroke-linecap:butt;stroke-linejoin:miter;stroke-miterlimit:4;stroke-opacity:0.79607843;stroke-dasharray:none;display:inline" />
      <path
         d="m 24.961654,20.584489 0.676926,-0.08462 1.650007,1.438468 0.507695,-0.04231 1.861547,1.396161 0.380771,-0.169232 1.776931,1.523084 0.423079,-0.08462 1.565392,1.269237 0.380771,0.04231 1.692316,1.39616 0.507694,-0.04231 1.480776,1.184621"
         id="path3921"
         style="fill:none;stroke:#2e2e2e;stroke-width:0.1;stroke-linecap:butt;stroke-linejoin:miter;stroke-miterlimit:4;stroke-opacity:0.80392157;stroke-dasharray:none;display:inline" />
      <path
         d="m 27.03474,23.16527 0.719234,-0.08462 1.819239,1.480776 0.423079,-0.04231 1.734624,1.396161 0.550002,0.04231 1.692316,1.311544 0.380771,-0.04231 1.946162,1.6077"
         id="path3923"
         style="fill:none;stroke:#2e2e2e;stroke-width:0.1;stroke-linecap:butt;stroke-linejoin:miter;stroke-miterlimit:4;stroke-opacity:0.82051284;stroke-dasharray:none;display:inline" />
      <path
         d="m 32.402341,27.36675 -0.540364,0.02214 0.106773,1.298614 -0.5625,0.09375 -0.375,0.96875 3.6875,-0.40625 -0.28125,-0.75 -0.46875,0.03125 -1.566409,-1.25825 z"
         id="path3824"
         style="fill:#d7d7d7;fill-opacity:0.26373626;stroke:none;display:inline" />
      <path
         d="m 29.277058,25.999898 0.550003,-0.08462 2.030778,1.438468 0.550003,-0.04231 2.284626,1.861547"
         id="path3925"
         style="fill:none;stroke:#2e2e2e;stroke-width:0.1;stroke-linecap:butt;stroke-linejoin:miter;stroke-miterlimit:4;stroke-opacity:0.82051284;stroke-dasharray:none;display:inline" />
      <path
         d="m 14.65625,7.6875 1,1.3125 19.75,5.34375 L 34.0625,12.75 33.78125,12.8125 33.34375,13.03125 14.65625,7.6875 z"
         id="path3869"
         style="fill:#7f838e;fill-opacity:1;stroke:none;display:inline" />
      <path
         d="m 19.005793,9.9884135 1.550589,1.1518665 0.398723,0.0443 1.639195,1.284774 0.35442,-0.0886 1.594892,1.284774 0.35442,0.0443 1.461984,1.151866 0.310118,0 1.461984,1.151866 0.354421,0 1.461984,1.107564 0.310118,-0.0443 1.461984,1.240472 0.310117,-0.0443 1.373379,1.151866 0.177211,0 1.550589,1.196169 0.17721,-0.0443 1.417682,1.151866 0.132907,-0.0443 1.461984,1.107564 0.177211,-0.0443 1.284773,1.018959 0.221513,-0.0443 1.240472,0.974657 0.265815,0.0886 1.063261,0.930353 0.265815,0 1.196169,0.974656 0.265815,0.0443 1.196169,1.196169"
         id="path3748"
         style="color:#000000;fill:none;stroke:#2e2e2e;stroke-width:0.1;stroke-linecap:butt;stroke-linejoin:miter;stroke-miterlimit:4;stroke-opacity:0.66666667;stroke-dasharray:none;stroke-dashoffset:0;marker:none;visibility:visible;display:inline;overflow:visible;enable-background:accumulate" />
      <path
         d="m 21.176618,10.475742 1.683497,1.284773 0.265815,0 1.550589,1.196169 0.310118,0 1.417682,1.151866 0.310118,0 1.639194,1.196169 0.17721,0 1.461984,1.063261 0.17721,0 1.506287,1.151867 0.17721,-0.0443 1.461984,1.151866 0.177211,-0.0443 1.461984,1.151866 0.17721,0 1.417681,1.107564 0.221513,-0.08861 1.417682,1.151866 0.132907,-0.0443 1.196169,0.974657 0.08861,-0.0443 1.373379,1.063261 0.17721,0 1.196169,0.974656 0.17721,0 1.240472,0.974656 0.132907,-0.0443 0.930354,0.841748 0.310118,0 1.284774,1.151866"
         id="path3772"
         style="color:#000000;fill:none;stroke:#2e2e2e;stroke-width:0.1;stroke-linecap:butt;stroke-linejoin:miter;stroke-miterlimit:4;stroke-opacity:0.62745098;stroke-dasharray:none;stroke-dashoffset:0;marker:none;visibility:visible;display:inline;overflow:visible;enable-background:accumulate" />
      <path
         d="m 16.589187,35.55811 0.493726,-14.021813 -0.543098,-0.09875 0.04937,-1.135569 6.023455,0.09875 0.888706,2.567375 -0.345608,13.923067 -6.566553,-1.333059 z"
         id="path4097"
         style="fill:#f4f4f4;fill-opacity:1;stroke:none;display:inline" />
      <path
         d="M 17.935857,21.497764 17.459947,35.68583"
         id="path4197"
         style="color:#000000;fill:none;stroke:#68554f;stroke-width:0.2;stroke-linecap:butt;stroke-linejoin:miter;stroke-miterlimit:4;stroke-opacity:1;stroke-dasharray:none;stroke-dashoffset:0;marker:none;visibility:visible;display:inline;overflow:visible;enable-background:accumulate" />
      <path
         d="m 16.589185,35.558111 0.493728,-14.021814 -0.543098,-0.09875 0.04937,-1.135569 6.023455,0.09875 0.888706,2.567375 -0.345608,13.923067"
         id="path4097-3"
         style="fill:none;stroke:#68554f;stroke-width:0.2;stroke-miterlimit:4;stroke-opacity:1;stroke-dasharray:none;display:inline" />
      <path
         d="m 23.613258,11.095977 1.373379,1.151866 0.354421,0 1.417681,1.196169 0.310118,0 1.506287,1.151867 0.17721,0 1.417681,1.018958 0.221513,0 1.373379,1.151866 0.17721,-0.0443 1.417682,1.107564 0.17721,-0.0443 1.550589,1.240471 0.177211,0 1.284773,1.018959 0.177211,-0.0443 1.151866,0.974656 0.221513,-0.0443 1.196168,0.974656 0.177211,0.0443 1.329076,1.018958 0.17721,0 1.196169,0.930354 0.132908,0 1.329076,1.018958 0.310118,0.0886 1.063261,0.797446"
         id="path3774"
         style="color:#000000;fill:none;stroke:#2e2e2e;stroke-width:0.1;stroke-linecap:butt;stroke-linejoin:miter;stroke-miterlimit:4;stroke-opacity:0.58823529;stroke-dasharray:none;stroke-dashoffset:0;marker:none;visibility:visible;display:inline;overflow:visible;enable-background:accumulate" />
      <path
         d="m 25.695478,11.67191 1.284774,1.107564 0.265815,-0.0443 1.373379,1.107564 0.265816,0 1.373379,1.107564 0.221512,-0.0443 1.240472,1.107564 0.265815,-0.0443 1.329076,1.107563 0.177211,-0.0443 1.417681,1.151866 0.17721,-0.0443 1.329077,1.018959 0.17721,-0.0443 1.329076,1.107564 0.177211,-0.0443 1.196168,0.974656 0.177211,-0.0443 1.107563,0.974656 0.221513,0 1.018959,0.841749 0.265815,0.132907 1.373379,0.974656"
         id="path3776"
         style="color:#000000;fill:none;stroke:#2e2e2e;stroke-width:0.1;stroke-linecap:butt;stroke-linejoin:miter;stroke-miterlimit:4;stroke-opacity:0.54901961;stroke-dasharray:none;stroke-dashoffset:0;marker:none;visibility:visible;display:inline;overflow:visible;enable-background:accumulate" />
      <path
         d="m 27.511883,12.203541 1.151866,0.974656 0.265815,0 1.373379,1.107564 0.221513,0 1.284774,1.107563 0.221512,-0.0443 1.284774,1.107564 0.221513,-0.0443 1.284774,1.018959 0.221513,0 1.151866,0.974656 0.221513,0 1.151866,0.974656 0.221513,0 1.240471,1.018958 0.132908,-0.0443 1.196169,0.974656 0.265815,0.08861 1.329076,0.974656"
         id="path3778"
         style="color:#000000;fill:none;stroke:#2e2e2e;stroke-width:0.1;stroke-linecap:butt;stroke-linejoin:miter;stroke-miterlimit:4;stroke-opacity:0.5098038;stroke-dasharray:none;stroke-dashoffset:0;marker:none;visibility:visible;display:inline;overflow:visible;enable-background:accumulate" />
      <path
         d="m 29.106774,12.646566 1.151867,0.930354 0.265815,0 1.284774,1.063261 0.08861,0 1.329076,1.107564 0.17721,0 1.329077,0.974656 0.132908,0 1.284773,1.018958 0.08861,-0.0443 1.284773,1.018959 0.177211,0 1.107563,0.930353 0.132908,-0.0443 1.196169,0.974657 0.221513,0 0.797445,0.70884"
         id="path3780"
         style="color:#000000;fill:none;stroke:#2e2e2e;stroke-width:0.1;stroke-linecap:butt;stroke-linejoin:miter;stroke-miterlimit:4;stroke-opacity:0.47058824;stroke-dasharray:none;stroke-dashoffset:0;marker:none;visibility:visible;display:inline;overflow:visible;enable-background:accumulate" />
      <path
         d="m 30.834574,13.133894 1.018958,0.930354 0.265816,0.0443 1.107563,0.974657 0.310118,-0.0443 1.284774,1.063261 0.132908,-0.0443 1.151866,0.974656 0.132908,0 1.107563,0.886051 0.132908,-0.0443 1.329076,1.107564 0.221513,0 0.974656,0.886051"
         id="path3782"
         style="color:#000000;fill:none;stroke:#2e2e2e;stroke-width:0.1;stroke-linecap:butt;stroke-linejoin:miter;stroke-miterlimit:4;stroke-opacity:0.43137255;stroke-dasharray:none;stroke-dashoffset:0;marker:none;visibility:visible;display:inline;overflow:visible;enable-background:accumulate" />
      <path
         d="m 32.207953,13.532617 1.018958,0.797446 0.17721,0 1.373379,1.151866 0.177211,0 1.107563,0.974657 0.177211,0 1.018958,0.797445 0.17721,0.0443 0.930354,0.753143"
         id="path3784"
         style="color:#000000;fill:none;stroke:#2e2e2e;stroke-width:0.1;stroke-linecap:butt;stroke-linejoin:miter;stroke-miterlimit:4;stroke-opacity:0.39194138;stroke-dasharray:none;stroke-dashoffset:0;marker:none;visibility:visible;display:inline;overflow:visible;enable-background:accumulate" />
      <path
         d="m 33.758542,14.019945 0.930353,0.708841 0.177211,0 1.151866,1.018959 0.17721,-0.0886 0.886051,0.753143"
         id="path3786"
         style="color:#000000;fill:none;stroke:#2e2e2e;stroke-width:0.1;stroke-linecap:butt;stroke-linejoin:miter;stroke-miterlimit:4;stroke-opacity:0.35294118;stroke-dasharray:none;stroke-dashoffset:0;marker:none;visibility:visible;display:inline;overflow:visible;enable-background:accumulate" />
      <path
         d="m 40.0625,30.09375 -7.8125,0.875 -0.1875,6.28125 0.375,0.90625 7.375,-1.8125 0.15625,0 0.09375,-6.25 z"
         id="path3863"
         style="fill:#d08b7f;fill-opacity:1;stroke:none;display:inline" />
      <path
         d="m 37.603617,32.029146 -0.320485,2.617297 2.029741,0.373899 0.106828,-2.083155 -0.854628,-1.068284 -0.961456,0.160243 z"
         id="path3868"
         style="fill:#f4f4f4;fill-opacity:0.20879122;stroke:none;display:inline" />
      <path
         d="m 35.9375,32.1875 -3.78125,0.75 -0.09375,4.15625 0.46875,1.0625 1.78125,-0.46875 -0.4375,-1.0625 1.59375,-1.5625 0.46875,-2.875 z"
         id="path3866"
         style="fill:#f4f4f4;fill-opacity:0.20879122;stroke:none;display:inline" />
      <path
         d="M 38.90625,28.90625 33.5,29.46875 33.4375,32.09375 32.75,32.25 l 0.03125,1.21875 1.5625,-0.09375 -0.0625,-0.34375 c 0,0 1.239122,-0.08067 2.09375,-0.1875 0.854628,-0.106829 1.8125,-0.5625 1.8125,-0.5625 l 0,0.1875 1.125,-0.28125 0,-1.1875 -0.4375,0.125 0.03125,-2.21875 z"
         id="path3860"
         style="fill:#f4f4f4;fill-opacity:1;stroke:none;display:inline" />
      <path
         d="m 17.07327,21.497764 4.729355,0.118978"
         id="path4174"
         style="color:#000000;fill:none;stroke:#68554f;stroke-width:0.2;stroke-linecap:butt;stroke-linejoin:miter;stroke-miterlimit:4;stroke-opacity:1;stroke-dasharray:none;stroke-dashoffset:0;marker:none;visibility:visible;display:inline;overflow:visible;enable-background:accumulate" />
      <path
         d="m 17.21875,14.59375 -5.5625,7.65625 -3.75,0 -0.09375,1.15625 0.28125,0 0.09375,0.34375 2.40625,0 0,0.78125 0.4375,0.15625 L 11,25.53125 c 1.033683,0.111888 2.0625,0.09375 2.0625,0.09375 0,0 2.01974,-2.610976 3.4375,-2.3125 1.417759,0.298475 4.913871,5.871798 6.40625,6.46875 1.492379,0.596951 6.71875,1.9375 6.71875,1.9375 l 0.0625,-0.65625 0.53125,0 0.53125,0 0,0.8125 1.125,-0.21875 0,-0.96875 0.4375,-0.0625 0,0.5 7.90625,-1.25 0,1.40625 0.9375,-0.125 0.125,-2.5 -12.125,1.28125 -3.0625,-2.09375 0,-2.59375 c 0,-0.02103 -3.2e-4,-0.04155 0,-0.0625 l -8.875,-10.59375 z"
         id="path4071"
         style="fill:#311712;fill-opacity:0.26373626;stroke:none;display:inline" />
      <path
         d="m 22.212192,27.201502 c 0,0 -0.140317,3.665784 -0.140317,3.974481 0,0.308698 1.087458,1.813598 1.087458,0.578808 0,-1.23479 0.07016,-4.090242 0.07016,-4.244591 0,-0.154349 -1.087457,-0.848919 -1.017299,-0.308698 z"
         id="path4361"
         style="fill:#d7d7d7;fill-opacity:0.70329674;stroke:none" />
      <path
         d="m 37.6875,29.03125 -0.5625,0.0625 -0.0625,2.09375 0.59375,-0.0625 0.03125,-2.09375 z m -0.84375,0.09375 -0.875,0.09375 -0.03125,2.125 0.84375,-0.09375 0.0625,-2.125 z M 35.6875,29.25 34.65625,29.34375 34.6875,31.5 35.65625,31.375 35.6875,29.25 z"
         id="path3928"
         style="fill:#1c1c1c;fill-opacity:0.93772894;stroke:none;display:inline" />
      <path
         d="m 17.21875,14.59375 -2.15625,2.9375 c 1.465194,0.198686 2.594881,0.244687 3.03125,0.875 C 18.635199,19.188342 27.375,30.5 27.375,30.5 c 0,0 0.614801,0.663267 1.15625,0.84375 0.541448,0.180483 1.125,0.0625 1.125,0.0625 l 0.0625,-1.09375 11.53125,-0.875 0.03125,-0.78125 -12.125,1.28125 -3.0625,-2.09375 0,-2.59375 c 0,-0.02103 -3.2e-4,-0.04155 0,-0.0625 l -8.875,-10.59375 z"
         id="path4126"
         style="fill:#191715;fill-opacity:0.34432235;stroke:none;display:inline" />
      <path
         d="M 29.496907,29.565854 45.740383,28.059461"
         id="path3818"
         style="fill:none;stroke:#212121;stroke-width:0.60000002;stroke-linecap:round;stroke-linejoin:miter;stroke-miterlimit:4;stroke-opacity:1;stroke-dasharray:none;display:inline" />
      <path
         d="M 0.99532857,26.671526 13.721318,7.2626153 l 0.42657,0 17.631538,21.8261377 -0.639854,0.07109 -0.42657,0.639854 -0.568759,-0.497664 -1.460326,1.233933 -0.309699,-0.604704 -0.647202,-0.344849 c 0,0 0.08119,-0.545567 -0.639854,-1.066424 -0.943332,-0.681431 -1.564089,-1.848468 -1.777373,-2.417227 -0.213285,-0.568759 -0.853139,-0.782044 -0.853139,-0.782044 0,0 0.145462,-0.356269 -0.09642,-0.665174 -0.219153,-0.279884 -0.614534,-0.25906 -0.614534,-0.25906 0,0 0.01161,-0.672379 -0.497665,-1.066424 -0.58028,-0.448987 -1.49627,-1.677681 -1.691582,-2.263618 -0.14219,-0.426569 -0.725645,-0.722368 -0.725645,-0.722368 0,0 -0.05025,-0.467511 -0.17734,-0.617805 -0.127086,-0.150294 -0.533609,-0.235329 -0.533609,-0.235329 0,0 0.228435,-0.294701 -0.394695,-0.881736 -0.8259,-0.778059 -1.326553,-1.410142 -1.524867,-1.890965 -0.206446,-0.500541 -0.71095,-0.853139 -0.71095,-0.853139 0,0 -0.0266,-0.405104 -0.148743,-0.518914 -0.122147,-0.11381 -0.45189,-0.09562 -0.45189,-0.09562 0,0 -0.03922,-0.594079 -0.394695,-0.949553 -0.355475,-0.355475 -1.020649,-0.78691 -1.350804,-1.706278 -0.2053,-0.57169 -0.710949,-0.639855 -0.710949,-0.639855 0,0 0.05363,-0.727387 -0.455166,-0.721574 -0.497593,0.0057 -0.397973,0.863764 -0.397973,0.863764 0,0 -0.318869,-0.256898 -0.568759,0.497665 -0.248435,0.75017 -1.328366,1.956473 -1.649084,2.210495 -0.246768,0.195451 -0.402044,0.90378 -0.402044,0.90378 0,0 -0.231257,-0.10704 -0.444542,0.177335 -0.213285,0.284379 -0.06375,0.618605 -0.06375,0.618605 0,0 -0.426569,0.07109 -0.6398541,0.639854 C 9.5978132,17.713562 9.1001488,18.566701 8.6024844,18.922176 8.10482,19.27765 8.1759149,19.84641 8.1759149,19.84641 c 0,0 -0.2132847,-0.14219 -0.4265695,0.14219 -0.2132847,0.284379 -0.1282885,0.515636 -0.1282885,0.515636 0,0 -0.3693759,0.124213 -0.5115657,0.550787 -0.1421898,0.42657 -0.7333946,1.530473 -1.2797084,1.919563 -0.3350199,0.238604 -0.2345337,0.768143 -0.2345337,0.768143 0,0 -0.2620414,-0.02651 -0.4020438,0.0989 -0.1278146,0.114496 -0.049846,0.540957 -0.049846,0.540957 0,0 -0.3430441,0.09157 -0.4510953,0.369376 -0.3424561,0.880466 -0.9972125,1.718522 -1.2086135,1.848467 -0.2183791,0.134235 -0.1421898,0.56876 -0.1421898,0.56876 0,0 -0.3064231,-0.01391 -0.4020437,0.138912 -0.075422,0.120539 -0.3015576,0.476416 -0.3015576,0.476416 L 2.2823849,27.414349 2.1328473,27.524665 1.6597087,26.959183 1.492993,27.169191 0.99532857,26.671526 z"
         id="path3685"
         style="fill:#f0f2ef;fill-opacity:1;stroke:none;display:inline" />
      <path
         d="M 13.71875,7.25 1,26.65625 1.4375,27.09375 13.84375,8.4375 30.75,29.78125 l 0.375,-0.625 0.65625,-0.0625 -17.625,-21.84375 -0.4375,0 z"
         id="path3801"
         style="fill:#a9adb7;fill-opacity:1;stroke:none;display:inline" />
      <path
         d="M 13.96683,7.3634778 31.39464,29.069243"
         id="path3867"
         style="fill:none;stroke:#dee0e3;stroke-width:0.60000002;stroke-linecap:butt;stroke-linejoin:miter;stroke-miterlimit:4;stroke-opacity:1;stroke-dasharray:none" />
      <path
         d="M 2.0855447,27.27095 13.903631,9.8914107 29.387221,29.862081"
         id="path3804"
         style="fill:none;stroke:#4e4444;stroke-width:0.2;stroke-linecap:butt;stroke-linejoin:miter;stroke-miterlimit:4;stroke-opacity:1;stroke-dasharray:none;display:inline" />
      <path
         d="m 30.65625,34.21875 -1.125,0.125 0.0625,0.96875 -0.375,0.0625 0,0.53125 L 26.9375,36.4375 26.903621,35.966121 26.625,36 l 0,-1.03125 -1.65625,0.21875 0,2.09375 0,0.6875 c 0,0 -0.0908,0.09903 -0.1875,0.21875 -0.0967,0.11972 -0.205918,0.284565 -0.1875,0.46875 0.0142,0.141952 0.03696,0.700743 0.0625,1.3125 l 0.65625,-0.0625 1.40625,-0.4375 -0.0625,-1.125 2.5625,-0.375 0.0625,0.875 0.28125,0.0625 1.15625,-0.375 0.0625,0 -0.125,-4.3125 z"
         id="path3970"
         style="fill:#d08b7f;fill-opacity:1;stroke:none;display:inline" />
      <path
         d="m 40.815441,30.465569 -0.03684,5.783415"
         id="path3996"
         style="fill:none;stroke:#cd9078;stroke-width:0.30000001;stroke-linecap:butt;stroke-linejoin:miter;stroke-miterlimit:4;stroke-opacity:1;stroke-dasharray:none;display:inline" />
      <path
         d="m 30.78125,30.84375 -0.5625,0.09375 -0.0625,4.4375 -0.40625,0.125 0.09375,0.5625 -1,0.21875 0.0625,1.75 0.3125,-0.0625 0.0625,0.875 0.28125,0.0625 1.15625,-0.375 0.03125,0 c 0.0064,-1.56753 0.03125,-7.6875 0.03125,-7.6875 z"
         id="path3999"
         style="fill:#d8a198;fill-opacity:0.7985348;stroke:none;display:inline" />
      <path
         d="m 32.011388,31.828539 -0.07367,5.525556 0.331534,0.847252"
         id="path4047"
         style="color:#000000;fill:none;stroke:#cd9078;stroke-width:0.30000001;stroke-linecap:butt;stroke-linejoin:miter;stroke-miterlimit:4;stroke-opacity:1;stroke-dasharray:none;stroke-dashoffset:0;marker:none;visibility:visible;display:inline;overflow:visible;enable-background:accumulate" />
      <path
         d="m 32.302021,29.507806 -0.184185,7.735778 0.294696,0.810415"
         id="path4066"
         style="fill:none;stroke:#80452e;stroke-width:0.2;stroke-linecap:butt;stroke-linejoin:miter;stroke-miterlimit:4;stroke-opacity:1;stroke-dasharray:none;display:inline" />
      <path
         d="M 18.625,22.28125 18.53125,25.1875 19.9375,25.25 20,22.28125 l -1.375,0 z m 1.65625,0 L 20.25,25.25 l 1.78125,0.0625 0.125,-3 -1.875,-0.03125 z m -1.75,3.21875 -0.0625,2.875 1.4375,0.09375 L 19.9375,25.5625 18.53125,25.5 z M 20.25,25.5625 20.21875,28.5 l 1.71875,0.125 0.09375,-3 L 20.25,25.5625 z m -1.8125,3.125 -0.0625,2.625 1.5,0.1875 0.03125,-2.71875 -1.46875,-0.09375 z m 1.78125,0.125 -0.0625,2.71875 1.65625,0.21875 0.09375,-2.84375 -1.6875,-0.09375 z"
         id="path4100"
         style="fill:#141211;fill-opacity:1;stroke:none;display:inline" />
      <path
         d="M 14.327763,18.335476 19.5241,18.486825"
         id="path4328"
         style="fill:none;stroke:#2f1610;stroke-width:0.2;stroke-linecap:butt;stroke-linejoin:miter;stroke-miterlimit:4;stroke-opacity:0.52014657;stroke-dasharray:none" />
      <path
         d="m 11.866744,34.576962 5.680473,1.206128 -0.07781,-0.116722 4.746697,0.972684 0.03891,0.03891 2.684608,0.622518"
         id="path4330"
         style="fill:none;stroke:#3c2626;stroke-width:0.2;stroke-linecap:butt;stroke-linejoin:round;stroke-miterlimit:4;stroke-opacity:1;stroke-dasharray:none" />
      <path
         d="m 6.1136964,32.77596 -0.1070231,1.685614 -0.3210694,0.361203 0,0.989964"
         id="path4421"
         style="fill:none;stroke:#dabcb6;stroke-width:0.40000001;stroke-linecap:butt;stroke-linejoin:miter;stroke-miterlimit:4;stroke-opacity:0.31868131;stroke-dasharray:none;display:inline" />
      <path
         d="M 10.78125,31.375 5.125,31.9375 5.1875,32.5 5.59375,32.59375 c 0.2442571,0.02975 0.5625,0.0625 0.5625,0.0625 l 1.1875,-0.0625 -0.03125,-0.3125 3.4375,-0.21875 0.03125,0.125 1.09375,-0.15625 0.0625,-0.40625 0,-0.0625 c 0,0 -0.790761,-0.128152 -1.15625,-0.1875 z"
         id="path4332"
         style="fill:#f9fffe;fill-opacity:1;stroke:none" />
      <path
         d="m 21.942964,32.250389 -0.112097,4.007463 -4.035488,-0.840727 0.08407,-3.783269 4.063512,0.616533 z"
         id="path4363"
         style="fill:#d7d7d7;fill-opacity:0.34065935;stroke:none" />
      <path
         d="m 25.270018,35.43012 -0.01628,2.572592 -0.43962,0.455902 0.01628,1.611941"
         id="path4365"
         style="fill:none;stroke:#5c1d1d;stroke-width:0.5;stroke-linecap:butt;stroke-linejoin:miter;stroke-miterlimit:4;stroke-opacity:0.76556779;stroke-dasharray:none;display:inline" />
      <path
         d="m 29.81276,34.762549 0.01628,0.521031"
         id="path4368"
         style="color:#000000;fill:none;stroke:#5c1d1d;stroke-width:0.5;stroke-linecap:butt;stroke-linejoin:miter;stroke-miterlimit:4;stroke-opacity:0.76556779;stroke-dasharray:none;stroke-dashoffset:0;marker:none;visibility:visible;display:inline;overflow:visible;enable-background:accumulate" />
      <path
         d="m 29.438268,35.446402 0.01628,0.488467"
         id="path4370"
         style="color:#000000;fill:none;stroke:#5c1d1d;stroke-width:0.5;stroke-linecap:butt;stroke-linejoin:miter;stroke-miterlimit:4;stroke-opacity:0.76556779;stroke-dasharray:none;stroke-dashoffset:0;marker:none;visibility:visible;display:inline;overflow:visible;enable-background:accumulate" />
      <path
         d="M 5.9264059,32.695692 7.2508172,32.588669"
         id="path4396"
         style="fill:none;stroke:#34140d;stroke-width:0.30000001;stroke-linecap:butt;stroke-linejoin:miter;stroke-miterlimit:4;stroke-opacity:1;stroke-dasharray:none" />
      <path
         d="m 10.84947,32.214088 1.056853,-0.05351"
         id="path4398"
         style="color:#000000;fill:none;stroke:#34140d;stroke-width:0.30000001;stroke-linecap:butt;stroke-linejoin:miter;stroke-miterlimit:4;stroke-opacity:1;stroke-dasharray:none;stroke-dashoffset:0;marker:none;visibility:visible;display:inline;overflow:visible;enable-background:accumulate" />
      <path
         d="M 5.7136943,35.845414 24.384131,39.788623"
         id="path4424"
         style="fill:none;stroke:#4c4c4c;stroke-width:0.5;stroke-linecap:round;stroke-linejoin:miter;stroke-miterlimit:4;stroke-opacity:1;stroke-dasharray:none" />
    </g>
    <g
       id="layer8"
       style="display:inline">
      <path
         d="m 24.323264,35.309601 1.327542,0.112504 4.590144,-0.787525"
         id="path4284"
         style="fill:none;stroke:#764d2b;stroke-width:0.2;stroke-linecap:butt;stroke-linejoin:miter;stroke-miterlimit:4;stroke-opacity:0.86080586;stroke-dasharray:none" />
      <path
         d="m 25.669469,35.336747 -1.398234,-0.07915 0.02638,-0.44849 5.170828,-0.712308 0.817836,0.05276 0,0.395727 -4.616812,0.791453 z"
         id="path4069"
         style="fill:#f9fffe;fill-opacity:1;stroke:none" />
      <path
         d="m 24.530804,40.197362 0,-1.813898 0.43188,-0.403088 2e-6,-2.533698 -0.719801,-0.08637 0,-0.547048 5.26894,-0.748593 0.201545,-4.347596"
         id="path4282"
         style="fill:none;stroke:#2f1c0b;stroke-width:0.2;stroke-linecap:butt;stroke-linejoin:miter;stroke-miterlimit:4;stroke-opacity:1;stroke-dasharray:none" />
      <path
         d="m 15.65625,9 19.75,5.34375"
         id="path3869-6"
         style="fill:none;stroke:#4b4b4b;stroke-width:0.2;stroke-miterlimit:4;stroke-opacity:1;stroke-dasharray:none;display:inline" />
      <path
         d="M 0.99532857,26.671526 13.721318,7.262615 l 0.42657,0 17.631538,21.826138 -0.639854,0.07109 -0.42657,0.639854 -0.568759,-0.497664 -1.460326,1.233933 -0.309699,-0.604704 -0.647202,-0.344849 c 0,0 0.08119,-0.545567 -0.639854,-1.066424 -0.943332,-0.681431 -1.564089,-1.848468 -1.777373,-2.417227 -0.213285,-0.568759 -0.853139,-0.782044 -0.853139,-0.782044 0,0 0.145462,-0.356269 -0.09642,-0.665174 -0.219153,-0.279884 -0.614534,-0.25906 -0.614534,-0.25906 0,0 0.01161,-0.672379 -0.497665,-1.066424 -0.58028,-0.448987 -1.49627,-1.677681 -1.691582,-2.263618 -0.14219,-0.426569 -0.725645,-0.722368 -0.725645,-0.722368 0,0 -0.05025,-0.467511 -0.17734,-0.617805 -0.127086,-0.150294 -0.533609,-0.235329 -0.533609,-0.235329 0,0 0.228435,-0.294701 -0.394695,-0.881736 -0.8259,-0.778059 -1.326553,-1.410142 -1.524867,-1.890965 -0.206446,-0.500541 -0.71095,-0.853139 -0.71095,-0.853139 0,0 -0.0266,-0.405104 -0.148743,-0.518914 -0.122147,-0.11381 -0.45189,-0.09562 -0.45189,-0.09562 0,0 -0.03922,-0.594079 -0.394695,-0.949553 -0.355475,-0.355475 -1.020649,-0.78691 -1.350804,-1.706278 -0.2053,-0.57169 -0.710949,-0.639855 -0.710949,-0.639855 0,0 0.05363,-0.727387 -0.455166,-0.721574 -0.497593,0.0057 -0.397973,0.863764 -0.397973,0.863764 0,0 -0.318869,-0.256898 -0.568759,0.497665 -0.248435,0.75017 -1.328366,1.956473 -1.649084,2.210495 -0.246768,0.195451 -0.402044,0.90378 -0.402044,0.90378 0,0 -0.231257,-0.10704 -0.444542,0.177335 -0.213285,0.284379 -0.06375,0.618605 -0.06375,0.618605 0,0 -0.426569,0.07109 -0.6398541,0.639854 C 9.5978132,17.713562 9.1001488,18.566701 8.6024844,18.922176 8.10482,19.27765 8.1759149,19.84641 8.1759149,19.84641 c 0,0 -0.2132847,-0.14219 -0.4265695,0.14219 -0.2132847,0.284379 -0.1282885,0.515636 -0.1282885,0.515636 0,0 -0.3693759,0.124213 -0.5115657,0.550787 -0.1421898,0.42657 -0.7333946,1.530473 -1.2797084,1.919563 -0.3350199,0.238604 -0.2345337,0.768143 -0.2345337,0.768143 0,0 -0.2620414,-0.02651 -0.4020438,0.0989 -0.1278146,0.114496 -0.049846,0.540957 -0.049846,0.540957 0,0 -0.3430441,0.09157 -0.4510953,0.369376 -0.3424561,0.880466 -0.9972125,1.718522 -1.2086135,1.848467 -0.2183791,0.134235 -0.1421898,0.56876 -0.1421898,0.56876 0,0 -0.3064231,-0.01391 -0.4020437,0.138912 -0.075422,0.120539 -0.3015576,0.476416 -0.3015576,0.476416 L 2.2823849,27.414349 2.1328473,27.524665 1.6597087,26.959183 1.492993,27.169191 0.99532857,26.671526 z"
         id="path3685-5"
         style="fill:none;stroke:#555555;stroke-width:0.30000001;stroke-miterlimit:4;stroke-opacity:1;stroke-dasharray:none;display:inline" />
      <path
         d="M 13.71875,7.25 1,26.65625 l 0.5,0.5 0.15625,-0.1875 0.46875,0.5625 0.15625,-0.125 0.34375,0.375 c 0,0 0.237078,-0.348211 0.3125,-0.46875 0.095621,-0.152822 0.40625,-0.15625 0.40625,-0.15625 0,0 0.00335,-0.06107 0,-0.09375 l 7.625,-0.1875 -0.09375,4.5 -5.75,0.5625 0.0625,0.5625 0.65625,0.15625 -0.09375,1.6875 -0.34375,0.375 0,1.1875 0,0.15625 19.34375,4.125 0.4375,-0.28125 0.125,0 1.40625,-0.4375 -0.0625,-1.125 2.5625,-0.375 0.0625,0.875 0.28125,0.0625 1.15625,-0.375 1.5,0.375 L 32.5,38.75 32.34375,38.1875 39.8125,36.34375 40.59375,36.40625 41.158522,36.233239 41.28125,28.6875 45.34375,28.25 46.78125,27.8125 34.0625,12.75 l -0.28125,0.0625 -0.4375,0.21875 -18.875,-5.375 -0.3125,-0.40625 -0.4375,0 z M 10.75,32.0625 l 0.0625,0.5 -0.375,0.15625 0,0.28125 L 7.75,33.21875 7.75,33 7.40625,33 7.3125,32.28125 10.75,32.0625 z"
         id="path3674-2"
         style="fill:none;stroke:#000000;stroke-width:0.5;stroke-linecap:butt;stroke-linejoin:miter;stroke-miterlimit:4;stroke-opacity:1;stroke-dasharray:none;display:inline" />
    </g>
  </g>
</svg>
