<?xml version="1.0" encoding="UTF-8" standalone="no"?>
<!DOCTYPE svg PUBLIC "-//W3C//DTD SVG 1.0//EN" "http://www.w3.org/TR/2001/REC-SVG-20010904/DTD/svg10.dtd">
<svg xmlns:svg="http://www.w3.org/2000/svg" xmlns="http://www.w3.org/2000/svg" xmlns:xlink="http://www.w3.org/1999/xlink" version="1.0" width="100%" height="100%" viewBox="0 0 48 48" id="_quit">
<defs id="defs2818">
<linearGradient id="lg3920">
<stop id="s3922" style="stop-color:#000000;stop-opacity:1" offset="0"/>
<stop id="s3924" style="stop-color:#363838;stop-opacity:1" offset="1"/>
</linearGradient>
<linearGradient id="lg3892">
<stop id="s3894" style="stop-color:#050707;stop-opacity:1" offset="0"/>
<stop id="s3896" style="stop-color:#d6d6d6;stop-opacity:1" offset="1"/>
</linearGradient>
<linearGradient x1="45.91" y1="45.65" x2="6.23" y2="2.43" id="lg3898" xlink:href="#lg3892" gradientUnits="userSpaceOnUse"/>
<linearGradient x1="24.28" y1="6.86" x2="24.28" y2="37.88" id="lg3926" xlink:href="#lg3920" gradientUnits="userSpaceOnUse"/>
<linearGradient x1="24.28" y1="6.86" x2="24.28" y2="37.88" id="lg3926-9" xlink:href="#lg3920-2" gradientUnits="userSpaceOnUse"/>
<linearGradient id="lg3920-2">
<stop id="s3922-8" style="stop-color:#000000;stop-opacity:1" offset="0"/>
<stop id="s3924-9" style="stop-color:#363838;stop-opacity:1" offset="1"/>
</linearGradient>
<linearGradient x1="24.28" y1="6.86" x2="24.28" y2="37.88" id="lg2415" xlink:href="#lg3920" gradientUnits="userSpaceOnUse" gradientTransform="matrix(0.89,0,0,0.89,2.49,2.46)"/>
<linearGradient x1="45.91" y1="45.65" x2="6.23" y2="2.43" id="lg2418" xlink:href="#lg3892" gradientUnits="userSpaceOnUse" gradientTransform="matrix(0.89,0,0,0.89,2.49,2.46)"/>
</defs>
<path d="M 43.87,24.04 C 43.87,34.85 35.11,43.61 24.31,43.61 C 13.49,43.61 4.74,34.85 4.74,24.04 C 4.74,13.23 13.49,4.47 24.31,4.47 C 35.11,4.47 43.87,13.23 43.87,24.04 L 43.87,24.04 z" id="p2900" style="fill:#858585;fill-opacity:1;fill-rule:evenodd;stroke:none;marker:none;visibility:visible;display:inline;overflow:visible;enable-background:accumulate"/>
<path d="M 23.29,4.48 C 20.46,4.63 17.77,5.39 15.39,6.61 L 24.48,24.61 L 39.98,12.33 C 36.41,7.56 30.72,4.48 24.31,4.48 C 23.96,4.48 23.62,4.47 23.29,4.48 z M 24.48,24.61 L 9.30,36.61 C 12.89,40.89 18.28,43.60 24.31,43.60 C 27.43,43.60 30.40,42.88 33.03,41.58 L 24.48,24.61 z" id="p3704" style="fill:#464646;fill-opacity:0.47;stroke:none;display:inline"/>
<path d="M 9.83,10.90 C 6.79,14.25 4.89,18.64 4.76,23.49 L 24.44,24.75 L 9.83,10.90 z M 24.44,24.75 L 38.24,37.79 C 41.30,34.69 43.31,30.57 43.77,25.98 L 24.44,24.75 z" id="p3710" style="fill:#f0f0f0;fill-opacity:0.41;stroke:none;display:inline"/>
<path d="M 7.23,14.49 C 5.96,16.73 5.13,19.23 4.84,21.92 L 24.39,24.67 L 7.23,14.49 z M 24.39,24.67 L 40.88,34.45 C 42.21,32.33 43.15,29.95 43.60,27.39 L 24.39,24.67 z" id="p3702" style="fill:#f9f9f9;fill-opacity:0.65;stroke:none;display:inline"/>
<path d="M 24.48,24.36 L 22.14,43.48 C 22.86,43.56 23.57,43.60 24.31,43.60 C 25.49,43.60 26.65,43.49 27.78,43.29 L 24.48,24.36 z" id="p3706" style="fill:#101010;fill-opacity:0.41;stroke:none;display:inline"/>
<path d="M 24.61,24.53 L 11.02,38.36 C 11.99,39.25 13.02,40.07 14.16,40.76 L 24.61,24.53 z" id="p3708" style="fill:#131313;fill-opacity:0.52;stroke:none;display:inline"/>
<path d="M 23.99,24.19 L 32.86,41.66 C 38.41,38.96 42.50,33.70 43.60,27.42 L 23.99,24.19 z" id="p3786" style="fill:#a2a2a2;fill-opacity:0.31;stroke:none;display:inline"/>
<path d="M 24.13,24.36 L 6.02,31.03 C 8.84,38.38 15.96,43.60 24.31,43.60 C 28.49,43.60 32.36,42.29 35.55,40.06 L 24.13,24.36 z" id="p3782" style="fill:#545454;fill-opacity:0.31;stroke:none;display:inline"/>
<path d="M 24.31,24.19 L 15.47,41.52 C 16.36,41.97 17.31,42.36 18.28,42.67 L 24.31,24.19 z" id="p3780" style="fill:#a6a6a6;fill-opacity:0.31;stroke:none;display:inline"/>
<path d="M 23.29,4.48 C 22.38,4.53 21.48,4.64 20.60,4.82 L 24.13,24.53 L 41.75,15.19 C 38.51,8.84 31.92,4.48 24.31,4.48 C 23.96,4.48 23.62,4.47 23.29,4.48 z" id="p3784" style="fill:#505050;fill-opacity:0.31;stroke:none;display:inline"/>
<path d="M 5.04,20.57 C 4.83,21.70 4.74,22.84 4.74,24.03 C 4.74,27.53 5.67,30.82 7.28,33.67 L 24.48,24.19 L 5.04,20.57 z" id="p3790" style="fill:#bfbfbf;fill-opacity:0.31;stroke:none;display:inline"/>
<path d="M 12.10,8.71 C 7.61,12.30 4.74,17.83 4.74,24.03 C 4.74,25.16 4.83,26.28 5.01,27.36 L 24.31,24.67 L 12.10,8.71 z" id="p3858" style="fill:#e5e5e5;fill-opacity:0.31;stroke:none"/>
<path d="M 6.36,16.26 C 6.05,16.96 5.77,17.67 5.54,18.42 L 23.74,24.58 L 6.36,16.26 z M 23.74,24.58 L 41.63,33.16 C 42.00,32.46 42.33,31.72 42.61,30.98 L 23.74,24.58 z" id="p3970" style="fill:#f6f6f6;fill-opacity:0.6;stroke:none"/>
<path d="M 30.08,5.32 L 24.39,24.56 L 38.27,10.32 C 36.02,8.03 33.21,6.29 30.08,5.32 z" id="p2860" style="fill:#000000;fill-opacity:0.07;stroke:none"/>
<path d="M 43.87,24.04 C 43.87,34.85 35.11,43.60 24.31,43.60 C 13.49,43.60 4.74,34.85 4.74,24.04 C 4.74,13.22 13.49,4.47 24.31,4.47 C 35.11,4.47 43.87,13.22 43.87,24.04 L 43.87,24.04 z" id="p2900-2" style="fill:none;stroke:#050707;stroke-width:0.44;stroke-linecap:round;stroke-linejoin:round;marker:none;stroke-miterlimit:4;stroke-dasharray:none;stroke-dashoffset:0;stroke-opacity:1;visibility:visible;display:inline;overflow:visible;enable-background:accumulate"/>
<path d="M 43.43,24.04 C 43.43,34.60 34.87,43.16 24.31,43.16 C 13.74,43.16 5.18,34.60 5.18,24.04 C 5.18,13.47 13.74,4.91 24.31,4.91 C 34.87,4.91 43.43,13.47 43.43,24.04 L 43.43,24.04 z" id="p2900-2-7" style="fill:none;stroke:url(#lg2418);stroke-width:0.53;stroke-linecap:round;stroke-linejoin:round;marker:none;stroke-miterlimit:4;stroke-dasharray:none;stroke-dashoffset:0;stroke-opacity:1;visibility:visible;display:inline;overflow:visible;enable-background:accumulate"/>
<path d="M 24.16,8.63 C 23.23,8.74 22.53,9.54 22.54,10.48 L 22.54,23.96 C 22.50,24.65 22.84,25.29 23.43,25.65 C 24.01,26.00 24.74,26.00 25.32,25.65 C 25.91,25.29 26.25,24.65 26.21,23.96 L 26.21,10.48 C 26.22,9.95 25.99,9.45 25.61,9.10 C 25.21,8.74 24.69,8.57 24.16,8.63 L 24.16,8.63 z M 29.82,12.94 C 29.03,13.04 28.39,13.64 28.24,14.43 C 28.09,15.22 28.48,16.01 29.19,16.40 C 29.68,16.72 30.15,17.11 30.59,17.55 C 34.09,21.05 34.09,26.68 30.59,30.19 C 27.08,33.70 21.44,33.70 17.93,30.19 C 14.43,26.68 14.43,21.05 17.93,17.55 C 18.37,17.11 18.84,16.72 19.34,16.40 C 20.04,15.95 20.36,15.10 20.11,14.30 C 19.87,13.51 19.13,12.98 18.30,13.01 C 17.95,13.02 17.61,13.13 17.32,13.34 C 16.62,13.81 15.97,14.33 15.36,14.94 C 10.45,19.84 10.45,27.86 15.36,32.77 C 20.27,37.68 28.28,37.68 33.19,32.77 C 38.11,27.86 38.11,19.84 33.19,14.94 C 32.58,14.33 31.90,13.81 31.21,13.34 C 30.81,13.03 30.32,12.89 29.82,12.94 L 29.82,12.94 z" id="p3900" style="font-size:medium;font-style:normal;font-variant:normal;font-weight:normal;font-stretch:normal;text-indent:0;text-align:start;text-decoration:none;line-height:normal;letter-spacing:normal;word-spacing:normal;text-transform:none;direction:ltr;block-progression:tb;writing-mode:lr-tb;text-anchor:start;fill:url(#lg2415);fill-opacity:1;stroke:none;marker:none;visibility:visible;display:inline;overflow:visible;enable-background:accumulate;font-family:AlArabiya;-inkscape-font-specification:AlArabiya"/>
<path d="M 24.16,8.63 C 23.23,8.74 22.53,9.54 22.54,10.48 L 22.54,23.96 C 22.50,24.65 22.84,25.29 23.43,25.65 C 24.01,26.00 24.74,26.00 25.32,25.65 C 25.91,25.29 26.25,24.65 26.21,23.96 L 26.21,10.48 C 26.22,9.95 25.99,9.45 25.61,9.10 C 25.21,8.74 24.69,8.57 24.16,8.63 L 24.16,8.63 z" id="p3968" style="font-size:medium;font-style:normal;font-variant:normal;font-weight:normal;font-stretch:normal;text-indent:0;text-align:start;text-decoration:none;line-height:normal;letter-spacing:normal;word-spacing:normal;text-transform:none;direction:ltr;block-progression:tb;writing-mode:lr-tb;text-anchor:start;fill:none;stroke:#878787;stroke-width:0.60;marker:none;stroke-miterlimit:4;stroke-dasharray:none;stroke-opacity:1;visibility:visible;display:inline;overflow:visible;enable-background:accumulate;font-family:AlArabiya;-inkscape-font-specification:AlArabiya"/>
<path d="M 29.82,12.94 C 29.03,13.04 28.39,13.64 28.24,14.43 C 28.09,15.22 28.48,16.01 29.19,16.40 C 29.68,16.72 30.15,17.11 30.59,17.55 C 34.09,21.05 34.09,26.68 30.59,30.19 C 27.08,33.70 21.44,33.70 17.93,30.19 C 14.43,26.68 14.43,21.05 17.93,17.55 C 18.37,17.11 18.84,16.72 19.34,16.40 C 20.04,15.95 20.36,15.10 20.11,14.30 C 19.87,13.51 19.13,12.98 18.30,13.01 C 17.95,13.02 17.61,13.13 17.32,13.34 C 16.62,13.81 15.97,14.33 15.36,14.94 C 10.45,19.84 10.45,27.86 15.36,32.77 C 20.27,37.68 28.28,37.68 33.19,32.77 C 38.11,27.86 38.11,19.84 33.19,14.94 C 32.58,14.33 31.90,13.81 31.21,13.34 C 30.81,13.03 30.32,12.89 29.82,12.94 L 29.82,12.94 z" id="p3900-0" style="font-size:medium;font-style:normal;font-variant:normal;font-weight:normal;font-stretch:normal;text-indent:0;text-align:start;text-decoration:none;line-height:normal;letter-spacing:normal;word-spacing:normal;text-transform:none;direction:ltr;block-progression:tb;writing-mode:lr-tb;text-anchor:start;fill:none;stroke:#a4a4a4;stroke-width:0.60;marker:none;stroke-miterlimit:4;stroke-dasharray:none;stroke-opacity:1;visibility:visible;display:inline;overflow:visible;enable-background:accumulate;font-family:AlArabiya;-inkscape-font-specification:AlArabiya"/>
</svg>
