<?xml version="1.0" encoding="UTF-8" standalone="no"?>
<!DOCTYPE svg PUBLIC "-//W3C//DTD SVG 1.0//EN" "http://www.w3.org/TR/2001/REC-SVG-20010904/DTD/svg10.dtd">
<svg xmlns:svg="http://www.w3.org/2000/svg" xmlns="http://www.w3.org/2000/svg" version="1.0" width="100%" height="100%" viewBox="0 0 48 48" id="svg3313">
<defs id="defs3315"/>
<g id="layer1">
<path d="M 7.04,3.85 L 5.42,44 L 41.71,44 L 42,3.85 L 7.04,3.85 z" id="p3323" style="fill:#e0e0e0;fill-opacity:1;fill-rule:evenodd;stroke:#000000;stroke-width:0.5;stroke-linecap:butt;stroke-linejoin:miter;stroke-miterlimit:4;stroke-dasharray:none;stroke-opacity:1"/>
<g transform="matrix(0.80,0,-4.32e-2,0.80,5.29,4.48)" id="android01" style="opacity:0.61;display:inline">
<path d="M 10.41,15.95 L 10.56,15.95 C 12.18,15.95 13.49,17.25 13.49,18.88 L 13.49,28.19 C 13.49,29.82 12.18,31.13 10.56,31.13 L 10.41,31.13 C 8.78,31.13 7.48,29.82 7.48,28.19 L 7.48,18.88 C 7.48,17.25 8.78,15.95 10.41,15.95 z" id="r2481" style="fill:#a4a4a4;fill-opacity:1;fill-rule:evenodd;stroke:#ffffff;stroke-width:1.28;stroke-linecap:butt;stroke-linejoin:miter;marker:none;stroke-miterlimit:4;stroke-dashoffset:0;stroke-opacity:1;visibility:visible;display:inline;overflow:visible;enable-background:accumulate"/>
<path d="M 38.13,15.95 L 38.28,15.95 C 39.9,15.95 41.21,17.25 41.21,18.88 L 41.21,28.19 C 41.21,29.82 39.9,31.13 38.28,31.13 L 38.13,31.13 C 36.51,31.13 35.2,29.82 35.2,28.19 L 35.2,18.88 C 35.2,17.25 36.51,15.95 38.13,15.95 z" id="r3255" style="fill:#a4a4a4;fill-opacity:1;fill-rule:evenodd;stroke:#ffffff;stroke-width:1.28;stroke-linecap:butt;stroke-linejoin:miter;marker:none;stroke-miterlimit:4;stroke-dashoffset:0;stroke-opacity:1;visibility:visible;display:inline;overflow:visible;enable-background:accumulate"/>
<path d="M 13.5,15.93 C 13.49,15.95 13.5,15.97 13.5,16 L 13.5,32.59 C 13.5,34.21 14.81,35.53 16.43,35.53 L 17.37,35.53 L 17.37,40.18 C 17.37,41.81 18.68,43.12 20.31,43.12 L 20.46,43.12 C 22.09,43.12 23.4,41.81 23.4,40.18 L 23.4,35.53 L 25.59,35.53 L 25.59,40.18 C 25.59,41.81 26.9,43.12 28.53,43.12 L 28.68,43.12 C 30.31,43.12 31.59,41.81 31.59,40.18 L 31.59,35.53 L 32.4,35.53 C 34.03,35.53 35.34,34.21 35.34,32.59 L 35.34,16 C 35.34,15.97 35.34,15.95 35.34,15.93 L 13.5,15.93 z" id="r3257" style="fill:#a4a4a4;fill-opacity:1;fill-rule:evenodd;stroke:#ffffff;stroke-width:1.28;stroke-linecap:butt;stroke-linejoin:miter;marker:none;stroke-miterlimit:4;stroke-dashoffset:0;stroke-opacity:1;visibility:visible;display:inline;overflow:visible;enable-background:accumulate"/>
<path d="M 17.75,4.09 C 17.62,4.11 17.51,4.17 17.4,4.25 C 16.95,4.55 16.82,5.14 17.12,5.59 L 18.59,7.75 C 15.54,9.47 13.5,12.47 13.5,15.93 L 35.31,15.93 C 35.31,12.46 33.25,9.43 30.18,7.71 L 31.62,5.59 C 31.92,5.14 31.79,4.55 31.34,4.25 C 30.89,3.94 30.3,4.05 30,4.5 L 28.37,6.87 C 27.14,6.44 25.8,6.21 24.4,6.21 C 22.98,6.21 21.62,6.46 20.37,6.9 L 18.75,4.5 C 18.52,4.16 18.12,4.01 17.75,4.09 z" id="p3274" style="opacity:1;fill:#a4a4a4;fill-opacity:1;fill-rule:evenodd;stroke:#ffffff;stroke-width:1.29;stroke-linecap:butt;stroke-linejoin:miter;marker:none;stroke-miterlimit:4;stroke-dasharray:none;stroke-dashoffset:0;stroke-opacity:1;visibility:visible;display:inline;overflow:visible;enable-background:accumulate"/>
<path d="M 21.28,11.55 C 21.28,12.28 20.70,12.88 19.99,12.88 C 19.27,12.88 18.7,12.28 18.7,11.55 C 18.7,10.81 19.27,10.21 19.99,10.21 C 20.70,10.21 21.28,10.81 21.28,11.55 L 21.28,11.55 z" transform="matrix(0.86,0,0,0.86,2.6,1.2)" id="p3287" style="opacity:1;fill:#fdfdfd;fill-opacity:1;fill-rule:evenodd;stroke:none;marker:none;visibility:visible;display:inline;overflow:visible;enable-background:accumulate"/>
<path d="M 21.28,11.55 C 21.28,12.28 20.70,12.88 19.99,12.88 C 19.27,12.88 18.7,12.28 18.7,11.55 C 18.7,10.81 19.27,10.21 19.99,10.21 C 20.70,10.21 21.28,10.81 21.28,11.55 L 21.28,11.55 z" transform="matrix(0.86,0,0,0.86,11.36,1.2)" id="p3289" style="opacity:1;fill:#fdfdfd;fill-opacity:1;fill-rule:evenodd;stroke:none;marker:none;visibility:visible;display:inline;overflow:visible;enable-background:accumulate"/>
</g>
<g transform="matrix(0.91,0,0,0.91,0.82,10.63)" id="blue01" style="display:inline">
<path d="M 2.84,21.27 C 2.46,21.87 3.03,22.59 3.44,23.16 C 3.86,23.73 5.87,26.23 5.87,26.23 C 5.87,26.23 5.71,26.79 6.29,26.99 C 6.42,27.04 6.55,27.03 6.55,27.03 C 6.55,27.03 7.8,28.21 9.02,29.19 C 10.23,30.18 13.11,31.69 13.61,32.03 C 14.1,32.38 15.35,33.32 15.99,33.21 C 16.64,33.1 17.13,32.45 17.05,31.84 C 16.98,31.24 15.46,29 14.63,27.9 C 13.79,26.8 11.75,24.49 11.22,23.96 C 10.69,23.43 10.5,23.31 10.5,23.31 C 10.5,23.31 10,21.95 8.68,22.22 C 7.35,22.48 6.82,23.31 6.67,23.73 C 6.52,24.15 6.4,24.3 6.4,24.3 C 6.4,24.3 4.43,22.14 2.84,21.27 z" id="p2533" style="opacity:1;fill:#3c3c3c;fill-opacity:1;fill-rule:evenodd;stroke:none"/>
<path d="M 9.15,22.18 C 9.01,22.17 8.85,22.18 8.68,22.21 C 8.43,22.26 8.22,22.35 8.03,22.43 C 10.85,24.5 13.97,27.89 16.78,32.75 C 16.99,32.49 17.1,32.16 17.06,31.84 C 16.98,31.23 15.45,29 14.62,27.9 C 13.79,26.8 11.74,24.49 11.21,23.96 C 10.68,23.43 10.5,23.31 10.5,23.31 C 10.5,23.31 10.13,22.27 9.15,22.18 z" id="p3333" style="fill:#2b2b2b;fill-opacity:0.43;fill-rule:evenodd;stroke:none"/>
<path d="M 2.84,21.28 C 2.46,21.88 3.02,22.58 3.43,23.15 C 3.85,23.72 5.87,26.25 5.87,26.25 C 5.87,26.25 5.7,26.79 6.28,27 C 6.41,27.04 6.56,27.03 6.56,27.03 C 6.56,27.03 7.81,28.2 9.03,29.18 C 9.51,29.58 10.27,30.07 11.03,30.53 C 8.54,25.93 8.48,24.46 10.43,23.21 C 10.31,22.94 9.83,21.98 8.68,22.21 C 7.36,22.48 6.83,23.33 6.68,23.75 C 6.53,24.16 6.4,24.31 6.4,24.31 C 6.4,24.31 4.43,22.15 2.84,21.28 z" id="p3308" style="fill:#252525;fill-opacity:0.43;fill-rule:evenodd;stroke:none;display:inline"/>
<path d="M 2.84,21.28 C 2.46,21.88 3.02,22.58 3.43,23.15 C 3.85,23.72 5.87,26.25 5.87,26.25 C 5.87,26.25 5.7,26.79 6.28,27 C 6.41,27.04 6.56,27.03 6.56,27.03 C 6.56,27.03 7.81,28.2 9.03,29.18 C 10.24,30.17 13.13,31.69 13.62,32.03 C 14.11,32.37 15.35,33.33 16,33.21 C 16.17,33.18 16.32,33.09 16.46,33 C 15.34,32.1 12.52,29.83 10.56,27.87 C 9.05,26.37 7.82,24.8 6.87,23.37 C 6.78,23.51 6.72,23.64 6.68,23.75 C 6.53,24.16 6.4,24.31 6.4,24.31 C 6.4,24.31 4.43,22.15 2.84,21.28 z" id="p3311" style="fill:#1b1b1b;fill-opacity:0.27;fill-rule:evenodd;stroke:none;display:inline"/>
<path d="M 14.93,28.37 C 14.89,30.78 13.97,31.42 12.37,31.31 C 12.86,31.59 13.47,31.92 13.62,32.03 C 14.11,32.37 15.35,33.33 16,33.21 C 16.64,33.1 17.13,32.45 17.06,31.84 C 16.99,31.3 15.78,29.54 14.93,28.37 z" id="p3314" style="fill:#252525;fill-opacity:0.26;fill-rule:evenodd;stroke:none;display:inline"/>
<path d="M 2.81,21.34 C 2.51,21.93 3.03,22.6 3.43,23.15 C 3.85,23.72 5.87,26.25 5.87,26.25 C 5.87,26.25 5.7,26.79 6.28,27 C 6.41,27.04 6.56,27.03 6.56,27.03 C 6.56,27.03 7.81,28.2 9.03,29.18 C 10.24,30.17 13.13,31.69 13.62,32.03 C 13.69,32.07 13.84,32.18 13.93,32.25 C 12.03,29.66 8.53,26.39 7.37,25.21 C 6.89,24.73 6.66,24.35 6.53,24.06 C 6.45,24.21 6.4,24.31 6.4,24.31 C 6.46,24.52 6.52,24.73 6.68,24.9 C 7.62,25.86 7.14,25.66 7.4,25.9 C 7.67,26.14 11.71,30.34 11.71,30.34 C 11.71,30.34 10.43,29.49 9.5,28.84 C 8.56,28.19 6.98,26.57 6.09,25.59 C 5.31,24.73 3.88,22.88 2.81,21.34 z" id="p3317" style="fill:#a6a6a6;fill-opacity:0.15;fill-rule:evenodd;stroke:none;display:inline"/>
<path d="M 11.69,33.82 C 11.69,34.21 11.30,34.53 10.83,34.53 C 10.36,34.53 9.98,34.21 9.98,33.82 C 9.98,33.42 10.36,33.10 10.83,33.10 C 11.30,33.10 11.69,33.42 11.69,33.82 z" transform="matrix(0.66,-0.67,0.45,0.54,-6.48,21.17)" id="p3348" style="opacity:1;fill:#2e2e2e;fill-opacity:1;fill-rule:nonzero;stroke:none;marker:none;visibility:visible;display:inline;overflow:visible;enable-background:accumulate"/>
<path d="M 16.41,32.42 C 16.41,32.55 16.34,32.65 16.26,32.65 C 16.17,32.65 16.11,32.55 16.11,32.42 C 16.11,32.28 16.17,32.18 16.26,32.18 C 16.34,32.18 16.41,32.28 16.41,32.42 z" transform="matrix(1.44,-0.34,-0.5,1.65,9.41,-15.65)" id="p3355" style="opacity:1;fill:#818181;fill-opacity:0.27;fill-rule:nonzero;stroke:none;marker:none;visibility:visible;display:inline;overflow:visible;enable-background:accumulate"/>
<path d="M 16.41,32.42 C 16.41,32.55 16.34,32.65 16.26,32.65 C 16.17,32.65 16.11,32.55 16.11,32.42 C 16.11,32.28 16.17,32.18 16.26,32.18 C 16.34,32.18 16.41,32.28 16.41,32.42 z" transform="matrix(1.48,-0.1,-0.77,1.54,16.48,-16.48)" id="p3357" style="opacity:1;fill:#818181;fill-opacity:0.47;fill-rule:nonzero;stroke:none;marker:none;visibility:visible;display:inline;overflow:visible;enable-background:accumulate"/>
<path d="M 6.6,27.1 C 5.66,26.58 6.35,25.62 6.71,25.46 C 6.76,24.8 6.41,23.96 7.69,23.07 C 8.96,22.18 10.01,22.73 10.4,23.3" id="p3359" style="fill:none;fill-rule:evenodd;stroke:#3f3f3f;stroke-width:0.30;stroke-linecap:round;stroke-linejoin:miter;stroke-miterlimit:4;stroke-dasharray:none;stroke-opacity:0.76;display:inline"/>
<path d="M 9.3,23.16 C 10.36,24.1 11.13,24.9 11.61,25.44" id="p3362" style="fill:none;fill-rule:evenodd;stroke:#dcdcdc;stroke-width:0.30;stroke-linecap:round;stroke-linejoin:miter;stroke-miterlimit:4;stroke-dasharray:none;stroke-opacity:0.06;display:inline"/>
<path d="M 2.99,15.29 C 1.86,14.9 2.6,12.74 3.78,13.01 C 4.82,13.26 36.07,23.12 37.56,23.51 C 39.06,23.91 42.69,25.65 42.69,25.65 L 42.74,25.8 C 42.74,25.8 45.4,27.37 46.05,27.76 C 46.5,28.03 46.33,28.68 45.82,28.69 C 45.32,28.7 42.54,28.24 41.64,28.14 C 40.75,28.04 38.51,27.44 37.36,27.1 C 36.22,26.75 4.13,15.68 2.99,15.29 z" id="p3365" style="fill:#b1b1b1;fill-opacity:1;fill-rule:evenodd;stroke:none"/>
<path d="M 14.5,17.07 C 14.28,17.12 14.17,17.4 14.17,17.63 C 14.17,17.86 14.24,18 14.46,18.06 L 37.62,26.06 C 38.76,26.45 38.25,24.79 38.03,24.71 L 14.78,17.12 C 14.68,17.08 14.6,17.04 14.5,17.07 z" id="p3372" style="fill:#131313;fill-opacity:0.83;fill-rule:evenodd;stroke:none;display:inline"/>
<path d="M 37.71,23.59 C 36.98,24.52 36.7,25.3 36.65,26.84 C 36.7,26.86 37.35,27.08 37.37,27.09 C 38.51,27.44 40.76,28.05 41.65,28.15 C 42.55,28.25 45.31,28.69 45.81,28.68 C 46.32,28.67 46.5,28.04 46.06,27.78 C 45.41,27.39 42.75,25.81 42.75,25.81 L 42.68,25.65 C 42.68,25.65 39.28,24.05 37.71,23.59 z" id="p3370" style="fill:#737373;fill-opacity:1;fill-rule:evenodd;stroke:none;display:inline"/>
<path d="M 39.05,24.97 L 44.09,26.73" id="p3424" style="fill:none;fill-rule:evenodd;stroke:#323232;stroke-width:0.69;stroke-linecap:round;stroke-linejoin:miter;stroke-miterlimit:4;stroke-dasharray:none;stroke-opacity:0.61"/>
<path d="M 36.6,24.04 L 38.71,24.73" id="p3422" style="fill:none;fill-rule:evenodd;stroke:#aaaaaa;stroke-width:0.5;stroke-linecap:round;stroke-linejoin:miter;stroke-miterlimit:4;stroke-dasharray:none;stroke-opacity:0.68"/>
<path d="M 37.71,23.59 C 36.98,24.52 36.7,25.3 36.65,26.84 C 36.7,26.86 37.35,27.08 37.37,27.09 C 38.51,27.44 40.76,28.05 41.65,28.15 C 41.7,28.16 41.84,28.17 41.9,28.18 C 41.96,27.09 42.09,26.41 42.68,25.65 C 42.68,25.65 39.28,24.05 37.71,23.59 z" id="p3398" style="fill:#b1b1b1;fill-opacity:0.26;fill-rule:evenodd;stroke:none"/>
<path d="M 3.56,13 C 2.51,13.01 1.94,14.91 3,15.28 C 3.01,15.28 3.38,15.39 3.4,15.4 C 3.26,14.96 3.25,14.65 3.25,14.65 C 3.24,14.65 4.72,15.04 5.18,15.18 C 5.28,15 4.68,14.97 4.91,14.48 C 5.1,14.05 5.52,14.32 5.59,14.15 C 4.74,13.83 4.33,13.79 4.68,13.31 C 4.54,13.27 3.82,13.04 3.78,13.03 C 3.7,13.01 3.63,12.99 3.56,13 z" id="p3374" style="fill:#3c3c3c;fill-opacity:1;fill-rule:evenodd;stroke:none;display:inline"/>
<path d="M 4.09,13.12 C 3.96,13.33 3.84,13.54 3.84,13.56 C 3.84,13.59 3.38,13.41 2.96,13.25 C 2.67,13.49 2.5,13.88 2.46,14.28 L 3.37,14.56 L 3.37,14.68 C 3.41,14.69 3.64,14.77 3.78,14.81 C 3.77,14.56 3.82,13.98 4.12,13.4 C 4.17,13.31 4.24,13.24 4.31,13.18 C 4.21,13.15 4.18,13.15 4.09,13.12 z M 4.62,13.43 C 4.33,13.74 4.23,14.27 4.21,14.93 C 4.64,15.05 4.95,15.11 5.18,15.18 C 5.28,15 4.68,14.99 4.9,14.5 C 5.09,14.07 5.52,14.32 5.59,14.15 C 4.84,13.87 4.46,13.78 4.62,13.43 z" id="p3430" style="fill:#0c0c0c;fill-opacity:0.38;fill-rule:evenodd;stroke:none;display:inline"/>
<path d="M 11.03,17.35 L 41.69,28" id="p3389" style="fill:none;fill-rule:evenodd;stroke:#e8e8e8;stroke-width:0.69;stroke-linecap:round;stroke-linejoin:miter;stroke-miterlimit:4;stroke-dasharray:none;stroke-opacity:0.6"/>
<path d="M 36.4,25.97 L 38.49,26.7" id="p3391" style="fill:none;fill-rule:evenodd;stroke:#e4e4e4;stroke-width:1px;stroke-linecap:round;stroke-linejoin:miter;stroke-opacity:0.77"/>
<path d="M 40.68,26.3 L 45.92,28.18" id="p3408" style="fill:none;fill-rule:evenodd;stroke:#c4c4c4;stroke-width:0.40;stroke-linecap:round;stroke-linejoin:miter;stroke-miterlimit:4;stroke-dasharray:none;stroke-opacity:0.52;display:inline"/>
<path d="M 8.78,15.18 C 7.93,14.91 7.89,16 8.28,16.2 C 8.67,16.39 9.06,16.43 9.06,16.43 C 9.06,16.43 9.02,16.2 9.14,15.88 C 9.25,15.57 9.68,15.53 9.68,15.53 L 8.78,15.18 z" id="p3395" style="fill:#131313;fill-opacity:0.62;fill-rule:evenodd;stroke:none;display:inline"/>
<path d="M 7.74,15.22 L 23.51,20.46" id="p3393" style="fill:none;fill-rule:evenodd;stroke:#d2d2d2;stroke-width:0.30;stroke-linecap:round;stroke-linejoin:miter;stroke-miterlimit:4;stroke-dasharray:none;stroke-opacity:0.81"/>
<path d="M 41.9,28.18 C 41.96,27.09 42.09,26.41 42.68,25.65" id="p3403" style="fill:none;fill-opacity:0.26;fill-rule:evenodd;stroke:#3d3d3d;stroke-width:0.2;stroke-linecap:butt;stroke-linejoin:miter;stroke-miterlimit:4;stroke-dasharray:none;stroke-opacity:0.81;display:inline"/>
<path d="M 37.46,25.2 L 39.99,26.02" id="p3410" style="fill:none;fill-rule:evenodd;stroke:#c4c4c4;stroke-width:0.60;stroke-linecap:round;stroke-linejoin:miter;stroke-miterlimit:4;stroke-dasharray:none;stroke-opacity:0.52;display:inline"/>
<path d="M 42.3,26.14 C 42.3,26.14 38.87,24.49 37.56,24.06 C 36.24,23.64 4.55,13.73 4.55,13.73" id="p3405" style="fill:none;fill-rule:evenodd;stroke:#1c1c1c;stroke-width:0.2;stroke-linecap:butt;stroke-linejoin:miter;stroke-miterlimit:4;stroke-dasharray:none;stroke-opacity:0.83;display:inline"/>
<path d="M 36.91,25.29 L 38.15,25.7" id="p3412" style="fill:none;fill-rule:evenodd;stroke:#f1f1f1;stroke-width:0.30;stroke-linecap:round;stroke-linejoin:miter;stroke-miterlimit:4;stroke-dasharray:none;stroke-opacity:0.88;display:inline"/>
<path d="M 44.31,27.82 L 45.52,28.22" id="p3417" style="fill:none;fill-rule:evenodd;stroke:#676767;stroke-width:0.40;stroke-linecap:round;stroke-linejoin:miter;stroke-miterlimit:4;stroke-dasharray:none;stroke-opacity:0.88"/>
<path d="M 41.55,26.75 L 41.89,26.85" id="p3419" style="fill:none;fill-rule:evenodd;stroke:#ededed;stroke-width:0.40;stroke-linecap:round;stroke-linejoin:miter;stroke-miterlimit:4;stroke-dasharray:none;stroke-opacity:0.79;display:inline"/>
<path d="M 38.1,25.34 L 38.27,24.88" id="p3426" style="fill:none;fill-rule:evenodd;stroke:#e0e0e0;stroke-width:0.30;stroke-linecap:round;stroke-linejoin:miter;stroke-miterlimit:4;stroke-dasharray:none;stroke-opacity:0.82"/>
<path d="M 3.1,14.68 L 6,15.65" id="p3428" style="fill:none;fill-rule:evenodd;stroke:#d9d9d9;stroke-width:0.40;stroke-linecap:round;stroke-linejoin:miter;stroke-miterlimit:4;stroke-dasharray:none;stroke-opacity:0.62"/>
<path d="M 15.66,32.95 C 15.48,32.73 15.59,32.3 15.91,31.98 C 16.22,31.66 16.62,31.57 16.8,31.79" id="p3351" style="fill:none;fill-opacity:1;fill-rule:nonzero;stroke:#161616;stroke-width:0.19;stroke-linecap:round;stroke-linejoin:miter;marker:none;stroke-miterlimit:4;stroke-dashoffset:0;stroke-opacity:1;visibility:visible;display:inline;overflow:visible;enable-background:accumulate"/>
<path d="M 2.84,21.27 C 2.46,21.87 3.03,22.59 3.44,23.16 C 3.86,23.73 5.87,26.23 5.87,26.23 C 5.87,26.23 5.71,26.79 6.29,26.99 C 6.42,27.04 6.55,27.03 6.55,27.03 C 6.55,27.03 7.8,28.21 9.02,29.19 C 10.23,30.18 13.11,31.69 13.61,32.03 C 14.1,32.38 15.35,33.32 15.99,33.21 C 16.64,33.1 17.13,32.45 17.05,31.84 C 16.98,31.24 15.46,29 14.63,27.9 C 13.79,26.8 11.75,24.49 11.22,23.96 C 10.69,23.43 10.5,23.31 10.5,23.31 C 10.5,23.31 10,21.95 8.68,22.22 C 7.35,22.48 6.82,23.31 6.67,23.73 C 6.52,24.15 6.4,24.3 6.4,24.3 C 6.4,24.3 4.43,22.14 2.84,21.27 z" id="p3305" style="opacity:1;fill:none;fill-opacity:1;fill-rule:evenodd;stroke:#0b0b0b;stroke-width:0.5;stroke-linecap:butt;stroke-linejoin:miter;stroke-miterlimit:4;stroke-dasharray:none;stroke-opacity:1"/>
<path d="M 2.99,15.29 C 1.86,14.9 2.6,12.74 3.78,13.01 C 4.82,13.26 36.07,23.12 37.56,23.51 C 39.06,23.91 42.69,25.65 42.69,25.65 L 42.74,25.8 C 42.74,25.8 45.4,27.37 46.05,27.76 C 46.5,28.03 46.33,28.68 45.82,28.69 C 45.32,28.7 42.54,28.24 41.64,28.14 C 40.75,28.04 38.51,27.44 37.36,27.1 C 36.22,26.75 4.13,15.68 2.99,15.29 z" id="p3367" style="fill:none;fill-opacity:1;fill-rule:evenodd;stroke:#080808;stroke-width:0.5;stroke-linecap:butt;stroke-linejoin:miter;stroke-miterlimit:4;stroke-dasharray:none;stroke-opacity:1;display:inline"/>
</g>
<path d="M 36.90,1.87 C 36.60,1.87 36.37,2.11 36.37,2.40 L 36.37,8.93 C 36.37,9.23 36.60,9.46 36.90,9.46 L 37.68,9.46 C 37.98,9.46 38.21,9.23 38.21,8.93 L 38.21,2.40 C 38.21,2.11 37.98,1.87 37.68,1.87 L 36.90,1.87 z M 30.59,4.5 C 30.45,4.5 30.32,4.55 30.21,4.65 L 29.65,5.21 C 29.44,5.42 29.44,5.75 29.65,5.96 L 34.24,10.56 C 34.45,10.77 34.81,10.77 35.02,10.56 L 35.55,10 C 35.76,9.79 35.76,9.45 35.55,9.25 L 30.96,4.65 C 30.86,4.55 30.72,4.5 30.59,4.5 z M 43.99,4.5 C 43.86,4.5 43.69,4.55 43.59,4.65 L 38.99,9.25 C 38.78,9.45 38.78,9.79 38.99,10 L 39.55,10.56 C 39.76,10.77 40.10,10.77 40.30,10.56 L 44.93,5.96 C 45.14,5.75 45.14,5.42 44.93,5.21 L 44.37,4.65 C 44.26,4.55 44.13,4.5 43.99,4.5 z M 27.43,11.34 C 27.13,11.34 26.90,11.57 26.90,11.87 L 26.90,12.68 C 26.90,12.98 27.13,13.21 27.43,13.21 L 33.93,13.21 C 34.23,13.21 34.46,12.98 34.46,12.68 L 34.46,11.87 C 34.46,11.57 34.23,11.34 33.93,11.34 L 27.43,11.34 z M 40.65,11.34 C 40.35,11.34 40.12,11.57 40.12,11.87 L 40.12,12.68 C 40.12,12.98 40.35,13.21 40.65,13.21 L 47.15,13.21 C 47.44,13.21 47.68,12.98 47.68,12.68 L 47.68,11.87 C 47.68,11.57 47.44,11.34 47.15,11.34 L 40.65,11.34 z M 34.62,13.84 C 34.48,13.84 34.35,13.89 34.24,14 L 29.65,18.59 C 29.44,18.80 29.44,19.13 29.65,19.34 L 30.21,19.90 C 30.42,20.11 30.75,20.11 30.96,19.90 L 35.55,15.31 C 35.76,15.10 35.76,14.77 35.55,14.56 L 35.02,14 C 34.92,13.89 34.75,13.84 34.62,13.84 z M 39.93,13.84 C 39.79,13.84 39.66,13.89 39.55,14 L 38.99,14.56 C 38.78,14.77 38.78,15.10 38.99,15.31 L 43.59,19.90 C 43.79,20.11 44.16,20.11 44.37,19.90 L 44.93,19.34 C 45.14,19.13 45.14,18.80 44.93,18.59 L 40.30,14 C 40.20,13.89 40.07,13.84 39.93,13.84 z M 36.90,15.09 C 36.60,15.09 36.37,15.36 36.37,15.65 L 36.37,22.15 C 36.37,22.45 36.60,22.68 36.90,22.68 L 37.68,22.68 C 37.98,22.68 38.21,22.45 38.21,22.15 L 38.21,15.65 C 38.21,15.36 37.98,15.09 37.68,15.09 L 36.90,15.09 z" id="r4297" style="opacity:1;fill:#000000;fill-opacity:0.71;fill-rule:evenodd;stroke:#ffffff;stroke-width:0.40;stroke-linecap:butt;stroke-linejoin:miter;marker:none;stroke-miterlimit:4;stroke-dasharray:none;stroke-dashoffset:0;stroke-opacity:1;visibility:visible;display:inline;overflow:visible;enable-background:accumulate"/>
</g>
</svg>
