<?xml version="1.0" encoding="UTF-8" standalone="no"?>
<!-- Created with Inkscape (http://www.inkscape.org/) -->
<svg
   xmlns:svg="http://www.w3.org/2000/svg"
   xmlns="http://www.w3.org/2000/svg"
   xmlns:xlink="http://www.w3.org/1999/xlink"
   version="1.0"
   width="100%"
   height="100%"
   viewBox="0 0 48 48"
   id="_stabilo01"
   style="display:inline">
  <defs
     id="defs2385">
    <filter
       id="filter4022"
       color-interpolation-filters="sRGB">
      <feBlend
         id="feBlend4024"
         mode="screen"
         in2="BackgroundImage" />
    </filter>
    <clipPath
       id="clipPath3129">
      <rect
         width="48"
         height="48"
         ry="0"
         x="0"
         y="0"
         id="r3131"
         style="fill:#000000;fill-opacity:1;fill-rule:evenodd;stroke:#d7d7d7;stroke-width:0.91000003;stroke-linecap:round;stroke-linejoin:miter;marker:none;stroke-miterlimit:4;stroke-dasharray:none;stroke-dashoffset:0;stroke-opacity:0.86000001;visibility:visible;display:inline;overflow:visible;enable-background:accumulate" />
    </clipPath>
    <linearGradient
       x1="45.91"
       y1="45.650002"
       x2="6.23"
       y2="2.4300001"
       id="lg2418"
       xlink:href="#lg3892"
       gradientUnits="userSpaceOnUse" />
    <linearGradient
       id="lg3920-2">
      <stop
         id="s3922-8"
         style="stop-color:#000000;stop-opacity:1"
         offset="0" />
      <stop
         id="s3924-9"
         style="stop-color:#363838;stop-opacity:1"
         offset="1" />
    </linearGradient>
    <linearGradient
       x1="24.280001"
       y1="6.8600001"
       x2="24.280001"
       y2="37.880001"
       id="lg3926-9"
       xlink:href="#lg3920-2"
       gradientUnits="userSpaceOnUse" />
    <linearGradient
       x1="24.280001"
       y1="6.8600001"
       x2="24.280001"
       y2="37.880001"
       id="lg3926"
       xlink:href="#lg3920"
       gradientUnits="userSpaceOnUse" />
    <linearGradient
       x1="45.91"
       y1="45.650002"
       x2="6.23"
       y2="2.4300001"
       id="lg3898"
       xlink:href="#lg3892"
       gradientUnits="userSpaceOnUse" />
    <linearGradient
       id="lg3892">
      <stop
         id="s3894"
         style="stop-color:#050707;stop-opacity:1"
         offset="0" />
      <stop
         id="s3896"
         style="stop-color:#d6d6d6;stop-opacity:1"
         offset="1" />
    </linearGradient>
    <linearGradient
       id="lg3920">
      <stop
         id="s3922"
         style="stop-color:#000000;stop-opacity:1"
         offset="0" />
      <stop
         id="s3924"
         style="stop-color:#363838;stop-opacity:1"
         offset="1" />
    </linearGradient>
    <linearGradient
       x1="23.870001"
       y1="21.450001"
       x2="23.870001"
       y2="41.560001"
       id="lg2479"
       xlink:href="#lg3934"
       gradientUnits="userSpaceOnUse" />
    <linearGradient
       x1="9.8900003"
       y1="9.3900003"
       x2="40.07"
       y2="9.3900003"
       id="lg2475"
       xlink:href="#lg4189"
       gradientUnits="userSpaceOnUse" />
    <linearGradient
       x1="9.8900003"
       y1="9.3900003"
       x2="40.07"
       y2="9.3900003"
       id="lg4195"
       xlink:href="#lg4189"
       gradientUnits="userSpaceOnUse" />
    <linearGradient
       x1="23.870001"
       y1="21.450001"
       x2="23.870001"
       y2="41.560001"
       id="lg3940"
       xlink:href="#lg3934"
       gradientUnits="userSpaceOnUse" />
    <linearGradient
       id="lg3934">
      <stop
         id="s3936"
         style="stop-color:#772527;stop-opacity:1"
         offset="0" />
      <stop
         id="s3938"
         style="stop-color:#ff9f46;stop-opacity:1"
         offset="1" />
    </linearGradient>
    <linearGradient
       id="lg4189">
      <stop
         id="s4191"
         style="stop-color:#db2525;stop-opacity:1"
         offset="0" />
      <stop
         id="s4201"
         style="stop-color:#decd0e;stop-opacity:1"
         offset="0.25" />
      <stop
         id="s4203"
         style="stop-color:#36e41f;stop-opacity:1"
         offset="0.37" />
      <stop
         id="s4197"
         style="stop-color:#28ddbe;stop-opacity:1"
         offset="0.5" />
      <stop
         id="s4199"
         style="stop-color:#232bd8;stop-opacity:1"
         offset="0.75" />
      <stop
         id="s4193"
         style="stop-color:#dc2eb6;stop-opacity:1"
         offset="1" />
    </linearGradient>
    <linearGradient
       id="lg4189-954">
      <stop
         id="s2453"
         style="stop-color:#5b5b5b;stop-opacity:1"
         offset="0" />
      <stop
         id="s2455"
         style="stop-color:#bcbcbc;stop-opacity:1"
         offset="0.25" />
      <stop
         id="s2457"
         style="stop-color:#9a9a9a;stop-opacity:1"
         offset="0.37" />
      <stop
         id="s2459"
         style="stop-color:#a3a3a3;stop-opacity:1"
         offset="0.5" />
      <stop
         id="s2461"
         style="stop-color:#3c3c3c;stop-opacity:1"
         offset="0.75" />
      <stop
         id="s2463"
         style="stop-color:#727272;stop-opacity:1"
         offset="1" />
    </linearGradient>
    <linearGradient
       x1="9.8900003"
       y1="9.3900003"
       x2="40.07"
       y2="9.3900003"
       id="lg2475-51"
       xlink:href="#lg4189-954"
       gradientUnits="userSpaceOnUse" />
    <linearGradient
       id="lg3934-130">
      <stop
         id="s2447"
         style="stop-color:#3e3e3e;stop-opacity:1"
         offset="0" />
      <stop
         id="s2449"
         style="stop-color:#b2b2b2;stop-opacity:1"
         offset="1" />
    </linearGradient>
    <linearGradient
       x1="23.870001"
       y1="21.450001"
       x2="23.870001"
       y2="41.560001"
       id="lg2479-392"
       xlink:href="#lg3934-130"
       gradientUnits="userSpaceOnUse" />
    <linearGradient
       x1="23.870001"
       y1="21.450001"
       x2="23.870001"
       y2="41.560001"
       id="lg3444"
       xlink:href="#lg3934"
       gradientUnits="userSpaceOnUse" />
    <linearGradient
       x1="9.8900003"
       y1="9.3900003"
       x2="40.07"
       y2="9.3900003"
       id="lg3442"
       xlink:href="#lg4189"
       gradientUnits="userSpaceOnUse" />
    <linearGradient
       x1="9.8900003"
       y1="9.3900003"
       x2="40.07"
       y2="9.3900003"
       id="lg3440"
       xlink:href="#lg4189"
       gradientUnits="userSpaceOnUse" />
    <linearGradient
       x1="23.870001"
       y1="21.450001"
       x2="23.870001"
       y2="41.560001"
       id="lg3438"
       xlink:href="#lg3934"
       gradientUnits="userSpaceOnUse" />
    <linearGradient
       id="lg3432">
      <stop
         id="s3434"
         style="stop-color:#3e3e3e;stop-opacity:1"
         offset="0" />
      <stop
         id="s3436"
         style="stop-color:#b2b2b2;stop-opacity:1"
         offset="1" />
    </linearGradient>
    <linearGradient
       id="lg3418">
      <stop
         id="s3420"
         style="stop-color:#5b5b5b;stop-opacity:1"
         offset="0" />
      <stop
         id="s3422"
         style="stop-color:#bcbcbc;stop-opacity:1"
         offset="0.25" />
      <stop
         id="s3424"
         style="stop-color:#9a9a9a;stop-opacity:1"
         offset="0.37" />
      <stop
         id="s3426"
         style="stop-color:#a3a3a3;stop-opacity:1"
         offset="0.5" />
      <stop
         id="s3428"
         style="stop-color:#3c3c3c;stop-opacity:1"
         offset="0.75" />
      <stop
         id="s3430"
         style="stop-color:#727272;stop-opacity:1"
         offset="1" />
    </linearGradient>
    <linearGradient
       id="linearGradient2916">
      <stop
         id="stop2918"
         style="stop-color:#5b5b5b;stop-opacity:1"
         offset="0" />
      <stop
         id="stop2920"
         style="stop-color:#bcbcbc;stop-opacity:1"
         offset="0.25" />
      <stop
         id="stop2922"
         style="stop-color:#9a9a9a;stop-opacity:1"
         offset="0.37" />
      <stop
         id="stop2924"
         style="stop-color:#a3a3a3;stop-opacity:1"
         offset="0.5" />
      <stop
         id="stop2926"
         style="stop-color:#3c3c3c;stop-opacity:1"
         offset="0.75" />
      <stop
         id="stop2928"
         style="stop-color:#727272;stop-opacity:1"
         offset="1" />
    </linearGradient>
    <linearGradient
       id="linearGradient2910">
      <stop
         id="stop2912"
         style="stop-color:#3e3e3e;stop-opacity:1"
         offset="0" />
      <stop
         id="stop2914"
         style="stop-color:#b2b2b2;stop-opacity:1"
         offset="1" />
    </linearGradient>
    <linearGradient
       x1="23.870001"
       y1="21.450001"
       x2="23.870001"
       y2="41.560001"
       id="linearGradient2908"
       xlink:href="#lg3934"
       gradientUnits="userSpaceOnUse" />
    <linearGradient
       x1="9.8900003"
       y1="9.3900003"
       x2="40.07"
       y2="9.3900003"
       id="linearGradient2906"
       xlink:href="#lg4189"
       gradientUnits="userSpaceOnUse" />
    <linearGradient
       x1="9.8900003"
       y1="9.3900003"
       x2="40.07"
       y2="9.3900003"
       id="linearGradient2904"
       xlink:href="#lg4189"
       gradientUnits="userSpaceOnUse" />
    <linearGradient
       x1="23.870001"
       y1="21.450001"
       x2="23.870001"
       y2="41.560001"
       id="linearGradient2902"
       xlink:href="#lg3934"
       gradientUnits="userSpaceOnUse" />
    <linearGradient
       x1="23.870001"
       y1="21.450001"
       x2="23.870001"
       y2="41.560001"
       id="linearGradient2900"
       xlink:href="#lg3934-130"
       gradientUnits="userSpaceOnUse" />
    <linearGradient
       id="linearGradient2894">
      <stop
         id="stop2896"
         style="stop-color:#3e3e3e;stop-opacity:1"
         offset="0" />
      <stop
         id="stop2898"
         style="stop-color:#b2b2b2;stop-opacity:1"
         offset="1" />
    </linearGradient>
    <linearGradient
       x1="9.8900003"
       y1="9.3900003"
       x2="40.07"
       y2="9.3900003"
       id="linearGradient2892"
       xlink:href="#lg4189-954"
       gradientUnits="userSpaceOnUse" />
    <linearGradient
       id="linearGradient2878">
      <stop
         id="stop2880"
         style="stop-color:#5b5b5b;stop-opacity:1"
         offset="0" />
      <stop
         id="stop2882"
         style="stop-color:#bcbcbc;stop-opacity:1"
         offset="0.25" />
      <stop
         id="stop2884"
         style="stop-color:#9a9a9a;stop-opacity:1"
         offset="0.37" />
      <stop
         id="stop2886"
         style="stop-color:#a3a3a3;stop-opacity:1"
         offset="0.5" />
      <stop
         id="stop2888"
         style="stop-color:#3c3c3c;stop-opacity:1"
         offset="0.75" />
      <stop
         id="stop2890"
         style="stop-color:#727272;stop-opacity:1"
         offset="1" />
    </linearGradient>
    <linearGradient
       id="linearGradient2864">
      <stop
         id="stop2866"
         style="stop-color:#db2525;stop-opacity:1"
         offset="0" />
      <stop
         id="stop2868"
         style="stop-color:#decd0e;stop-opacity:1"
         offset="0.25" />
      <stop
         id="stop2870"
         style="stop-color:#36e41f;stop-opacity:1"
         offset="0.37" />
      <stop
         id="stop2872"
         style="stop-color:#28ddbe;stop-opacity:1"
         offset="0.5" />
      <stop
         id="stop2874"
         style="stop-color:#232bd8;stop-opacity:1"
         offset="0.75" />
      <stop
         id="stop2876"
         style="stop-color:#dc2eb6;stop-opacity:1"
         offset="1" />
    </linearGradient>
    <linearGradient
       id="linearGradient2858">
      <stop
         id="stop2860"
         style="stop-color:#772527;stop-opacity:1"
         offset="0" />
      <stop
         id="stop2862"
         style="stop-color:#ff9f46;stop-opacity:1"
         offset="1" />
    </linearGradient>
    <linearGradient
       x1="23.870001"
       y1="21.450001"
       x2="23.870001"
       y2="41.560001"
       id="linearGradient2856"
       xlink:href="#lg3934"
       gradientUnits="userSpaceOnUse" />
    <linearGradient
       x1="9.8900003"
       y1="9.3900003"
       x2="40.07"
       y2="9.3900003"
       id="linearGradient2854"
       xlink:href="#lg4189"
       gradientUnits="userSpaceOnUse" />
    <linearGradient
       x1="9.8900003"
       y1="9.3900003"
       x2="40.07"
       y2="9.3900003"
       id="linearGradient2852"
       xlink:href="#lg4189"
       gradientUnits="userSpaceOnUse" />
    <linearGradient
       x1="23.870001"
       y1="21.450001"
       x2="23.870001"
       y2="41.560001"
       id="linearGradient2850"
       xlink:href="#lg3934"
       gradientUnits="userSpaceOnUse" />
    <linearGradient
       id="linearGradient2844">
      <stop
         id="stop2846"
         style="stop-color:#000000;stop-opacity:1"
         offset="0" />
      <stop
         id="stop2848"
         style="stop-color:#363838;stop-opacity:1"
         offset="1" />
    </linearGradient>
    <linearGradient
       id="linearGradient2838">
      <stop
         id="stop2840"
         style="stop-color:#050707;stop-opacity:1"
         offset="0" />
      <stop
         id="stop2842"
         style="stop-color:#d6d6d6;stop-opacity:1"
         offset="1" />
    </linearGradient>
    <linearGradient
       x1="45.91"
       y1="45.650002"
       x2="6.23"
       y2="2.4300001"
       id="linearGradient2836"
       xlink:href="#lg3892"
       gradientUnits="userSpaceOnUse" />
    <linearGradient
       x1="24.280001"
       y1="6.8600001"
       x2="24.280001"
       y2="37.880001"
       id="linearGradient2834"
       xlink:href="#lg3920"
       gradientUnits="userSpaceOnUse" />
    <linearGradient
       x1="24.280001"
       y1="6.8600001"
       x2="24.280001"
       y2="37.880001"
       id="linearGradient2832"
       xlink:href="#lg3920-2"
       gradientUnits="userSpaceOnUse" />
    <linearGradient
       id="linearGradient2826">
      <stop
         id="stop2828"
         style="stop-color:#000000;stop-opacity:1"
         offset="0" />
      <stop
         id="stop2830"
         style="stop-color:#363838;stop-opacity:1"
         offset="1" />
    </linearGradient>
    <linearGradient
       x1="45.91"
       y1="45.650002"
       x2="6.23"
       y2="2.4300001"
       id="linearGradient2824"
       xlink:href="#lg3892"
       gradientUnits="userSpaceOnUse" />
    <clipPath
       id="clipPath2820">
      <rect
         width="48"
         height="48"
         ry="0"
         x="0"
         y="0"
         id="rect2822"
         style="fill:#000000;fill-opacity:1;fill-rule:evenodd;stroke:#d7d7d7;stroke-width:0.91000003;stroke-linecap:round;stroke-linejoin:miter;marker:none;stroke-miterlimit:4;stroke-dasharray:none;stroke-dashoffset:0;stroke-opacity:0.86000001;visibility:visible;display:inline;overflow:visible;enable-background:accumulate" />
    </clipPath>
    <filter
       id="filter2816"
       color-interpolation-filters="sRGB">
      <feBlend
         id="feBlend2818"
         mode="screen"
         in2="BackgroundImage" />
    </filter>
    <filter
       id="filter4007"
       color-interpolation-filters="sRGB">
      <feBlend
         id="feBlend4009"
         mode="screen"
         in2="BackgroundImage" />
    </filter>
    <clipPath
       id="clipPath4003">
      <rect
         width="48"
         height="48"
         ry="0"
         x="0"
         y="0"
         id="rect4005"
         style="fill:#000000;fill-opacity:1;fill-rule:evenodd;stroke:#d7d7d7;stroke-width:0.91000003;stroke-linecap:round;stroke-linejoin:miter;marker:none;stroke-miterlimit:4;stroke-dasharray:none;stroke-dashoffset:0;stroke-opacity:0.86000001;visibility:visible;display:inline;overflow:visible;enable-background:accumulate" />
    </clipPath>
    <linearGradient
       x1="45.91"
       y1="45.650002"
       x2="6.23"
       y2="2.4300001"
       id="linearGradient4001"
       xlink:href="#lg3892"
       gradientUnits="userSpaceOnUse" />
    <linearGradient
       id="linearGradient3995">
      <stop
         id="stop3997"
         style="stop-color:#000000;stop-opacity:1"
         offset="0" />
      <stop
         id="stop3999"
         style="stop-color:#363838;stop-opacity:1"
         offset="1" />
    </linearGradient>
    <linearGradient
       x1="24.280001"
       y1="6.8600001"
       x2="24.280001"
       y2="37.880001"
       id="linearGradient3993"
       xlink:href="#lg3920-2"
       gradientUnits="userSpaceOnUse" />
    <linearGradient
       x1="24.280001"
       y1="6.8600001"
       x2="24.280001"
       y2="37.880001"
       id="linearGradient3991"
       xlink:href="#lg3920"
       gradientUnits="userSpaceOnUse" />
    <linearGradient
       x1="45.91"
       y1="45.650002"
       x2="6.23"
       y2="2.4300001"
       id="linearGradient3989"
       xlink:href="#lg3892"
       gradientUnits="userSpaceOnUse" />
    <linearGradient
       id="linearGradient3983">
      <stop
         id="stop3985"
         style="stop-color:#050707;stop-opacity:1"
         offset="0" />
      <stop
         id="stop3987"
         style="stop-color:#d6d6d6;stop-opacity:1"
         offset="1" />
    </linearGradient>
    <linearGradient
       id="linearGradient3977">
      <stop
         id="stop3979"
         style="stop-color:#000000;stop-opacity:1"
         offset="0" />
      <stop
         id="stop3981"
         style="stop-color:#363838;stop-opacity:1"
         offset="1" />
    </linearGradient>
    <linearGradient
       x1="23.870001"
       y1="21.450001"
       x2="23.870001"
       y2="41.560001"
       id="linearGradient3975"
       xlink:href="#lg3934"
       gradientUnits="userSpaceOnUse" />
    <linearGradient
       x1="9.8900003"
       y1="9.3900003"
       x2="40.07"
       y2="9.3900003"
       id="linearGradient3973"
       xlink:href="#lg4189"
       gradientUnits="userSpaceOnUse" />
    <linearGradient
       x1="9.8900003"
       y1="9.3900003"
       x2="40.07"
       y2="9.3900003"
       id="linearGradient3971"
       xlink:href="#lg4189"
       gradientUnits="userSpaceOnUse" />
    <linearGradient
       x1="23.870001"
       y1="21.450001"
       x2="23.870001"
       y2="41.560001"
       id="linearGradient3969"
       xlink:href="#lg3934"
       gradientUnits="userSpaceOnUse" />
    <linearGradient
       id="linearGradient3963">
      <stop
         id="stop3965"
         style="stop-color:#772527;stop-opacity:1"
         offset="0" />
      <stop
         id="stop3967"
         style="stop-color:#ff9f46;stop-opacity:1"
         offset="1" />
    </linearGradient>
    <linearGradient
       id="linearGradient3949">
      <stop
         id="stop3951"
         style="stop-color:#db2525;stop-opacity:1"
         offset="0" />
      <stop
         id="stop3953"
         style="stop-color:#decd0e;stop-opacity:1"
         offset="0.25" />
      <stop
         id="stop3955"
         style="stop-color:#36e41f;stop-opacity:1"
         offset="0.37" />
      <stop
         id="stop3957"
         style="stop-color:#28ddbe;stop-opacity:1"
         offset="0.5" />
      <stop
         id="stop3959"
         style="stop-color:#232bd8;stop-opacity:1"
         offset="0.75" />
      <stop
         id="stop3961"
         style="stop-color:#dc2eb6;stop-opacity:1"
         offset="1" />
    </linearGradient>
    <linearGradient
       id="linearGradient3935">
      <stop
         id="stop3937"
         style="stop-color:#5b5b5b;stop-opacity:1"
         offset="0" />
      <stop
         id="stop3939"
         style="stop-color:#bcbcbc;stop-opacity:1"
         offset="0.25" />
      <stop
         id="stop3941"
         style="stop-color:#9a9a9a;stop-opacity:1"
         offset="0.37" />
      <stop
         id="stop3943"
         style="stop-color:#a3a3a3;stop-opacity:1"
         offset="0.5" />
      <stop
         id="stop3945"
         style="stop-color:#3c3c3c;stop-opacity:1"
         offset="0.75" />
      <stop
         id="stop3947"
         style="stop-color:#727272;stop-opacity:1"
         offset="1" />
    </linearGradient>
    <linearGradient
       x1="9.8900003"
       y1="9.3900003"
       x2="40.07"
       y2="9.3900003"
       id="linearGradient3933"
       xlink:href="#lg4189-954"
       gradientUnits="userSpaceOnUse" />
    <linearGradient
       id="linearGradient3927">
      <stop
         id="stop3929"
         style="stop-color:#3e3e3e;stop-opacity:1"
         offset="0" />
      <stop
         id="stop3931"
         style="stop-color:#b2b2b2;stop-opacity:1"
         offset="1" />
    </linearGradient>
    <linearGradient
       x1="23.870001"
       y1="21.450001"
       x2="23.870001"
       y2="41.560001"
       id="linearGradient3925"
       xlink:href="#lg3934-130"
       gradientUnits="userSpaceOnUse" />
    <linearGradient
       x1="23.870001"
       y1="21.450001"
       x2="23.870001"
       y2="41.560001"
       id="linearGradient3923"
       xlink:href="#lg3934"
       gradientUnits="userSpaceOnUse" />
    <linearGradient
       x1="9.8900003"
       y1="9.3900003"
       x2="40.07"
       y2="9.3900003"
       id="linearGradient3921"
       xlink:href="#lg4189"
       gradientUnits="userSpaceOnUse" />
    <linearGradient
       x1="9.8900003"
       y1="9.3900003"
       x2="40.07"
       y2="9.3900003"
       id="linearGradient3919"
       xlink:href="#lg4189"
       gradientUnits="userSpaceOnUse" />
    <linearGradient
       x1="23.870001"
       y1="21.450001"
       x2="23.870001"
       y2="41.560001"
       id="linearGradient3917"
       xlink:href="#lg3934"
       gradientUnits="userSpaceOnUse" />
    <linearGradient
       id="linearGradient3911">
      <stop
         id="stop3913"
         style="stop-color:#3e3e3e;stop-opacity:1"
         offset="0" />
      <stop
         id="stop3915"
         style="stop-color:#b2b2b2;stop-opacity:1"
         offset="1" />
    </linearGradient>
    <linearGradient
       id="linearGradient3897">
      <stop
         id="stop3899"
         style="stop-color:#5b5b5b;stop-opacity:1"
         offset="0" />
      <stop
         id="stop3901"
         style="stop-color:#bcbcbc;stop-opacity:1"
         offset="0.25" />
      <stop
         id="stop3903"
         style="stop-color:#9a9a9a;stop-opacity:1"
         offset="0.37" />
      <stop
         id="stop3905"
         style="stop-color:#a3a3a3;stop-opacity:1"
         offset="0.5" />
      <stop
         id="stop3907"
         style="stop-color:#3c3c3c;stop-opacity:1"
         offset="0.75" />
      <stop
         id="stop3909"
         style="stop-color:#727272;stop-opacity:1"
         offset="1" />
    </linearGradient>
    <linearGradient
       id="linearGradient3883">
      <stop
         id="stop3885"
         style="stop-color:#5b5b5b;stop-opacity:1"
         offset="0" />
      <stop
         id="stop3887"
         style="stop-color:#bcbcbc;stop-opacity:1"
         offset="0.25" />
      <stop
         id="stop3889"
         style="stop-color:#9a9a9a;stop-opacity:1"
         offset="0.37" />
      <stop
         id="stop3891"
         style="stop-color:#a3a3a3;stop-opacity:1"
         offset="0.5" />
      <stop
         id="stop3893"
         style="stop-color:#3c3c3c;stop-opacity:1"
         offset="0.75" />
      <stop
         id="stop3895"
         style="stop-color:#727272;stop-opacity:1"
         offset="1" />
    </linearGradient>
    <linearGradient
       id="linearGradient3877">
      <stop
         id="stop3879"
         style="stop-color:#3e3e3e;stop-opacity:1"
         offset="0" />
      <stop
         id="stop3881"
         style="stop-color:#b2b2b2;stop-opacity:1"
         offset="1" />
    </linearGradient>
    <linearGradient
       x1="23.870001"
       y1="21.450001"
       x2="23.870001"
       y2="41.560001"
       id="linearGradient3875"
       xlink:href="#lg3934"
       gradientUnits="userSpaceOnUse" />
    <linearGradient
       x1="9.8900003"
       y1="9.3900003"
       x2="40.07"
       y2="9.3900003"
       id="linearGradient3873"
       xlink:href="#lg4189"
       gradientUnits="userSpaceOnUse" />
    <linearGradient
       x1="9.8900003"
       y1="9.3900003"
       x2="40.07"
       y2="9.3900003"
       id="linearGradient3871"
       xlink:href="#lg4189"
       gradientUnits="userSpaceOnUse" />
    <linearGradient
       x1="23.870001"
       y1="21.450001"
       x2="23.870001"
       y2="41.560001"
       id="linearGradient3869"
       xlink:href="#lg3934"
       gradientUnits="userSpaceOnUse" />
    <linearGradient
       x1="23.870001"
       y1="21.450001"
       x2="23.870001"
       y2="41.560001"
       id="linearGradient3867"
       xlink:href="#lg3934-130"
       gradientUnits="userSpaceOnUse" />
    <linearGradient
       id="linearGradient3861">
      <stop
         id="stop3863"
         style="stop-color:#3e3e3e;stop-opacity:1"
         offset="0" />
      <stop
         id="stop3865"
         style="stop-color:#b2b2b2;stop-opacity:1"
         offset="1" />
    </linearGradient>
    <linearGradient
       x1="9.8900003"
       y1="9.3900003"
       x2="40.07"
       y2="9.3900003"
       id="linearGradient3859"
       xlink:href="#lg4189-954"
       gradientUnits="userSpaceOnUse" />
    <linearGradient
       id="linearGradient3845">
      <stop
         id="stop3847"
         style="stop-color:#5b5b5b;stop-opacity:1"
         offset="0" />
      <stop
         id="stop3849"
         style="stop-color:#bcbcbc;stop-opacity:1"
         offset="0.25" />
      <stop
         id="stop3851"
         style="stop-color:#9a9a9a;stop-opacity:1"
         offset="0.37" />
      <stop
         id="stop3853"
         style="stop-color:#a3a3a3;stop-opacity:1"
         offset="0.5" />
      <stop
         id="stop3855"
         style="stop-color:#3c3c3c;stop-opacity:1"
         offset="0.75" />
      <stop
         id="stop3857"
         style="stop-color:#727272;stop-opacity:1"
         offset="1" />
    </linearGradient>
    <linearGradient
       id="linearGradient3831">
      <stop
         id="stop3833"
         style="stop-color:#db2525;stop-opacity:1"
         offset="0" />
      <stop
         id="stop3835"
         style="stop-color:#decd0e;stop-opacity:1"
         offset="0.25" />
      <stop
         id="stop3837"
         style="stop-color:#36e41f;stop-opacity:1"
         offset="0.37" />
      <stop
         id="stop3839"
         style="stop-color:#28ddbe;stop-opacity:1"
         offset="0.5" />
      <stop
         id="stop3841"
         style="stop-color:#232bd8;stop-opacity:1"
         offset="0.75" />
      <stop
         id="stop3843"
         style="stop-color:#dc2eb6;stop-opacity:1"
         offset="1" />
    </linearGradient>
    <linearGradient
       id="linearGradient3825">
      <stop
         id="stop3827"
         style="stop-color:#772527;stop-opacity:1"
         offset="0" />
      <stop
         id="stop3829"
         style="stop-color:#ff9f46;stop-opacity:1"
         offset="1" />
    </linearGradient>
    <linearGradient
       x1="23.870001"
       y1="21.450001"
       x2="23.870001"
       y2="41.560001"
       id="linearGradient3823"
       xlink:href="#lg3934"
       gradientUnits="userSpaceOnUse" />
    <linearGradient
       x1="9.8900003"
       y1="9.3900003"
       x2="40.07"
       y2="9.3900003"
       id="linearGradient3821"
       xlink:href="#lg4189"
       gradientUnits="userSpaceOnUse" />
    <linearGradient
       x1="9.8900003"
       y1="9.3900003"
       x2="40.07"
       y2="9.3900003"
       id="linearGradient3819"
       xlink:href="#lg4189"
       gradientUnits="userSpaceOnUse" />
    <linearGradient
       x1="23.870001"
       y1="21.450001"
       x2="23.870001"
       y2="41.560001"
       id="linearGradient3817"
       xlink:href="#lg3934"
       gradientUnits="userSpaceOnUse" />
    <linearGradient
       id="linearGradient3811">
      <stop
         id="stop3813"
         style="stop-color:#000000;stop-opacity:1"
         offset="0" />
      <stop
         id="stop3815"
         style="stop-color:#363838;stop-opacity:1"
         offset="1" />
    </linearGradient>
    <linearGradient
       id="linearGradient3805">
      <stop
         id="stop3807"
         style="stop-color:#050707;stop-opacity:1"
         offset="0" />
      <stop
         id="stop3809"
         style="stop-color:#d6d6d6;stop-opacity:1"
         offset="1" />
    </linearGradient>
    <linearGradient
       x1="45.91"
       y1="45.650002"
       x2="6.23"
       y2="2.4300001"
       id="linearGradient3803"
       xlink:href="#lg3892"
       gradientUnits="userSpaceOnUse" />
    <linearGradient
       x1="24.280001"
       y1="6.8600001"
       x2="24.280001"
       y2="37.880001"
       id="linearGradient3801"
       xlink:href="#lg3920"
       gradientUnits="userSpaceOnUse" />
    <linearGradient
       x1="24.280001"
       y1="6.8600001"
       x2="24.280001"
       y2="37.880001"
       id="linearGradient3799"
       xlink:href="#lg3920-2"
       gradientUnits="userSpaceOnUse" />
    <linearGradient
       id="linearGradient3793">
      <stop
         id="stop3795"
         style="stop-color:#000000;stop-opacity:1"
         offset="0" />
      <stop
         id="stop3797"
         style="stop-color:#363838;stop-opacity:1"
         offset="1" />
    </linearGradient>
    <linearGradient
       x1="45.91"
       y1="45.650002"
       x2="6.23"
       y2="2.4300001"
       id="linearGradient3791"
       xlink:href="#lg3892"
       gradientUnits="userSpaceOnUse" />
    <clipPath
       id="clipPath3787">
      <rect
         width="48"
         height="48"
         ry="0"
         x="0"
         y="0"
         id="rect3789"
         style="fill:#000000;fill-opacity:1;fill-rule:evenodd;stroke:#d7d7d7;stroke-width:0.91000003;stroke-linecap:round;stroke-linejoin:miter;marker:none;stroke-miterlimit:4;stroke-dasharray:none;stroke-dashoffset:0;stroke-opacity:0.86000001;visibility:visible;display:inline;overflow:visible;enable-background:accumulate" />
    </clipPath>
    <filter
       id="filter3783"
       color-interpolation-filters="sRGB">
      <feBlend
         id="feBlend3785"
         mode="screen"
         in2="BackgroundImage" />
    </filter>
  </defs>
  <path
     d="M 48,0 L 48,48 L 0,48 L 0,0 L 48,0 z M 36.5625,27.71875 C 31.502105,27.718749 27.40625,31.814605 27.40625,36.875 C 27.406249,41.935395 31.502105,46.03125 36.5625,46.03125 C 41.622896,46.031251 45.71875,41.935395 45.71875,36.875 C 45.71875,31.814605 41.622895,27.71875 36.5625,27.71875 z"
     id="rect2533"
     style="fill:#ffffff;fill-opacity:1;fill-rule:evenodd;stroke:none;stroke-width:1;marker:none;visibility:visible;display:inline;overflow:visible;enable-background:accumulate" />
  <rect
     width="47.5"
     height="47.5"
     ry="4"
     x="0.25"
     y="0.25"
     id="r3365"
     style="fill:none;stroke:#000000;stroke-width:0.5;stroke-linecap:round;stroke-linejoin:miter;marker:none;stroke-miterlimit:4;stroke-dasharray:none;stroke-dashoffset:0;stroke-opacity:1;visibility:visible;display:inline;overflow:visible;enable-background:accumulate" />
  <path
     d="M 23.984375,2.734375 C 12.243122,2.734375 2.734375,12.274372 2.734375,24.015625 C 2.734375,35.756878 12.243122,45.265625 23.984375,45.265625 C 35.725628,45.265625 45.265625,35.756878 45.265625,24.015625 C 45.265625,12.274372 35.725628,2.734375 23.984375,2.734375 z M 23.984375,10.671875 C 31.33698,10.671875 37.328125,16.66302 37.328125,24.015625 C 37.328127,31.36823 31.33698,37.328125 23.984375,37.328125 C 16.63177,37.328127 10.671875,31.36823 10.671875,24.015625 C 10.671875,16.66302 16.63177,10.671875 23.984375,10.671875 z"
     id="path2439"
     style="fill:#95c03c;fill-opacity:1;fill-rule:evenodd;stroke:#ffffff;stroke-width:1;stroke-linecap:round;stroke-linejoin:round;marker:none;stroke-miterlimit:4;stroke-dashoffset:0;stroke-opacity:1;visibility:visible;display:inline;overflow:visible;enable-background:accumulate" />
  <g
     transform="translate(0.3423324,0.368291)"
     id="gray03"
     style="display:inline">
    <path
       d="M 15.09,41.37 C 14.62,41.58 16.54,45.14 16.88,44.97 C 17.22,44.81 17.26,44.79 17.37,44.72 C 17.47,44.65 17.56,44.71 17.9,44.54 C 18.25,44.38 25.35,40.54 26.3,39.99 C 27.25,39.43 31.54,36.71 31.64,36.62 C 31.75,36.53 31.54,36.01 31.48,35.93 C 31.43,35.86 31.59,35.68 31.25,35.06 C 30.91,34.43 30.76,34.45 30.62,34.28 C 30.48,34.12 30.3,33.89 30.1,33.94 C 29.9,34 26.01,35.79 25.19,36.17 C 24.36,36.54 16.09,40.74 15.93,40.81 C 15.77,40.89 15.66,41.08 15.5,41.15 C 15.34,41.23 15.09,41.39 15.09,41.37 z"
       id="path2791"
       style="fill:#7b7b7b;fill-opacity:1;fill-rule:evenodd;stroke:none;display:inline" />
    <path
       d="M 15.55,43.2 C 15.55,43.2 17.11,42.33 19,41.45 C 20.89,40.57 24.48,38.6 25.97,37.79 C 27.46,36.98 31.18,35.16 31.18,35.16"
       id="path2793"
       style="fill:none;fill-rule:evenodd;stroke:#e2e2e2;stroke-width:1px;stroke-linecap:butt;stroke-linejoin:miter;stroke-opacity:0.37000002" />
    <path
       d="M 15.62,41.11 C 15.96,41.99 17.04,43.81 17.38,44.56"
       id="path2795"
       style="fill:none;fill-rule:evenodd;stroke:#6a6a6a;stroke-width:0.30000001;stroke-linecap:butt;stroke-linejoin:miter;stroke-miterlimit:4;stroke-dasharray:none;stroke-opacity:1;display:inline" />
    <path
       d="M 16.71,42.79 C 17.66,42.38 21.14,40.52 21.96,40.17 C 22.84,39.79 25.33,38.36 26,38.03"
       id="path2797"
       style="fill:none;fill-rule:evenodd;stroke:#6c6c6c;stroke-width:0.30000001;stroke-linecap:round;stroke-linejoin:miter;stroke-miterlimit:4;stroke-dasharray:none;stroke-opacity:0.43000004;display:inline" />
    <path
       d="M 26.04,37.73 L 29.08,36.17"
       id="path2799"
       style="fill:none;fill-rule:evenodd;stroke:#ffffff;stroke-width:0.80000001;stroke-linecap:round;stroke-linejoin:miter;stroke-miterlimit:4;stroke-dasharray:none;stroke-opacity:0.12000002;display:inline" />
    <path
       d="M 27.73,35.9 L 30.7,34.48"
       id="path2801"
       style="fill:none;fill-rule:evenodd;stroke:#f0f0f0;stroke-width:0.40000001;stroke-linecap:round;stroke-linejoin:miter;stroke-miterlimit:4;stroke-dasharray:none;stroke-opacity:0.22000002;display:inline" />
    <path
       d="M 15.49,42.66 C 15.49,42.66 15.71,42.66 17.07,41.9 C 18.42,41.14 23.75,38.37 24.29,38.09 C 24.83,37.82 30.97,34.67 30.97,34.67"
       id="path2803"
       style="fill:none;fill-rule:evenodd;stroke:#666666;stroke-width:0.5;stroke-linecap:butt;stroke-linejoin:miter;stroke-miterlimit:4;stroke-dasharray:none;stroke-opacity:0.62000002" />
    <path
       d="M 16.62,42.47 L 17.56,42.01"
       id="path2805"
       style="fill:none;fill-rule:evenodd;stroke:#fefefe;stroke-width:0.40000001;stroke-linecap:round;stroke-linejoin:miter;stroke-miterlimit:4;stroke-dasharray:none;stroke-opacity:0.46000001" />
    <path
       d="M 2.91,44.03 C 3.05,43.36 3.75,42.77 3.75,42.77 L 3.64,42.63 C 3.64,42.63 4.42,41.5 4.63,41.22 C 4.84,40.94 6.63,38.7 6.63,38.7 C 6.63,38.7 7.08,37.61 7.19,37.47 C 7.29,37.33 12.2,32.42 12.2,32.42 L 12.28,32.17 C 12.28,32.17 39.71,4.66 39.89,4.49 C 40.06,4.31 40.27,4.38 40.48,4.17 C 40.69,3.96 42.13,2.56 42.41,2.31 C 42.69,2.07 44.8,3.82 44.34,4.31 C 43.89,4.8 42.66,6.03 42.52,6.21 C 42.38,6.38 42.48,6.56 42.2,6.84 C 41.92,7.12 14.77,34.59 14.77,34.59 L 14.49,34.77 C 14.49,34.77 9.78,39.5 9.57,39.71 C 9.36,39.93 8.28,40.35 8.28,40.35 L 5.85,42.31 L 4.35,43.33 L 4.21,43.26 C 4.21,43.26 3.75,43.89 2.91,44.03 z"
       id="path2807"
       style="fill:#777777;fill-opacity:1;fill-rule:evenodd;stroke:none" />
    <path
       d="M 8.14,38.71 L 41.48,5.37"
       id="path2809"
       style="fill:#777777;fill-opacity:1;fill-rule:evenodd;stroke:#ffffff;stroke-width:1.10000002;stroke-linecap:butt;stroke-linejoin:miter;stroke-miterlimit:4;stroke-dasharray:none;stroke-opacity:0.17000002;display:inline" />
    <path
       d="M 8.24,38.87 L 32.84,14.14"
       id="path2811"
       style="fill:none;fill-rule:evenodd;stroke:#7e7e7e;stroke-width:0.40000001;stroke-linecap:round;stroke-linejoin:miter;stroke-miterlimit:4;stroke-dasharray:none;stroke-opacity:0.67000002;display:inline" />
    <path
       d="M 16.39,30.3 C 17.11,30.23 15.45,32.04 15.39,30.72 C 15.14,30.09 16.7,29.62 16.09,29.99 C 15.17,30.04 15.69,31.66 16.3,30.71 C 16.38,30.59 16.43,30.44 16.39,30.3 L 16.39,30.3 z M 16.65,30.02 C 16.21,29.12 17.99,28.84 17.33,29.85 C 17.19,30.04 16.83,30.33 16.65,30.02 L 16.65,30.02 z M 16.79,29.88 C 17.45,30.37 17.39,28.72 16.8,29.51 C 16.73,29.62 16.71,29.77 16.79,29.88 z M 17.76,29.4 C 17.62,29.11 17.29,28.8 17.27,28.52 C 17.51,28.33 17.65,29.01 17.84,29.18 C 17.96,29.28 17.82,29.32 17.76,29.4 z M 17.87,28.79 C 17.43,27.89 19.21,27.61 18.55,28.62 C 18.41,28.81 18.05,29.1 17.87,28.79 z M 18.01,28.65 C 18.67,29.14 18.61,27.49 18.02,28.28 C 17.95,28.39 17.93,28.54 18.01,28.65 L 18.01,28.65 z M 18.98,28.17 C 18.86,28 18.43,27.35 18.78,27.52 C 18.92,27 19.22,27.17 18.87,27.57 C 18.86,27.8 19.3,28 18.98,28.17 z M 19.96,27.18 C 19.82,26.89 19.49,26.58 19.47,26.3 C 19.74,25.79 20.87,25.31 20.29,26.29 C 19.81,26.53 20.02,26.83 20.03,27.11 L 19.99,27.15 L 19.96,27.18 z M 19.83,26.59 C 20.3,26.35 20.47,25.41 19.81,26.12 C 19.53,26.3 19.71,26.37 19.83,26.59 z M 21.42,25.39 C 22.05,25.17 20.55,26.76 20.71,25.55 C 21.05,24.64 21.87,25.17 21.04,25.64 C 20.6,26.05 21.63,25.75 21.42,25.39 L 21.42,25.39 z M 20.86,25.68 C 21.2,25.47 21.48,24.87 20.9,25.37 C 20.85,25.46 20.81,25.58 20.86,25.68 L 20.86,25.68 z M 21.86,25.27 C 21.74,25.1 21.3,24.46 21.65,24.62 C 21.67,23.59 22.82,24.51 22.35,24.69 C 22.17,23.97 21.43,24.58 21.94,25.03 C 22.07,25.15 21.92,25.17 21.86,25.27 z M 23.19,23.93 C 23.05,23.63 22.72,23.32 22.7,23.04 C 22.94,22.8 23.18,22.56 23.42,22.32 C 23.52,22.59 23.01,22.79 22.87,23.03 C 23.03,23.56 23.31,22.94 23.55,22.78 C 23.75,22.98 23.08,23.21 23.13,23.44 C 23.21,23.63 23.48,23.78 23.19,23.93 z M 23.67,22.26 C 23.42,21.96 24.06,21.95 23.67,22.26 z M 24.12,22.99 C 23.99,22.81 23.56,22.16 23.94,22.33 C 24,22.54 24.43,22.82 24.12,22.99 z M 24.47,22.64 C 24.35,22.47 23.92,21.83 24.26,21.99 C 24.29,20.96 25.44,21.87 24.96,22.06 C 24.78,21.34 24.05,21.95 24.55,22.4 C 24.68,22.52 24.54,22.54 24.47,22.64 z M 25.79,21.3 C 25.65,21.01 25.33,20.7 25.3,20.42 C 25.58,19.91 26.71,19.43 26.12,20.4 C 25.65,20.64 25.86,20.94 25.86,21.23 L 25.82,21.27 L 25.79,21.3 z M 25.66,20.71 C 26.13,20.46 26.3,19.53 25.64,20.24 C 25.36,20.42 25.55,20.49 25.66,20.71 z M 26.58,20.01 C 26.14,19.11 27.92,18.83 27.26,19.83 C 27.12,20.03 26.77,20.32 26.58,20.01 z M 26.72,19.87 C 27.38,20.36 27.32,18.7 26.73,19.5 C 26.66,19.61 26.64,19.76 26.72,19.87 z M 27.24,18.66 C 27,18.36 27.63,18.35 27.24,18.66 z M 27.69,19.38 C 27.56,19.21 27.14,18.56 27.51,18.73 C 27.57,18.94 28,19.22 27.69,19.38 z M 28.04,19.03 C 27.92,18.87 27.49,18.23 27.84,18.38 C 27.86,17.36 29.01,18.27 28.54,18.46 C 28.35,17.74 27.62,18.35 28.12,18.8 C 28.26,18.91 28.11,18.94 28.04,19.03 z M 29.16,17.76 C 29.22,18.36 28.67,17.76 28.57,17.64 C 28.43,17.82 28.47,16.86 28.68,17.36 C 29.02,17.09 28.61,17.62 28.97,17.82 C 29.01,17.95 29.12,17.8 29.16,17.76 L 29.16,17.76 z M 29.77,17.32 C 29.64,16.87 29.49,17.26 29.6,16.73 C 29.48,16.69 29.15,16.92 29.54,16.52 C 29.38,15.96 29.61,16.28 29.74,16.33 C 30,16.2 29.76,15.41 30,16 C 30.38,15.67 29.84,16.59 30.24,16.3 C 30.48,16.11 30.07,16.74 30.16,16.92 C 30.15,16.56 29.65,16.76 29.87,17.16 C 29.92,17.23 29.79,17.26 29.77,17.32 z M 29.76,16.78 C 30.14,16.62 29.96,16.04 29.69,16.52 C 29.71,16.6 29.74,16.69 29.76,16.78 z M 31.11,15.94 C 30.97,15.65 30.64,15.34 30.62,15.06 C 30.89,14.55 32.02,14.07 31.43,15.05 C 30.96,15.29 31.17,15.59 31.18,15.87 L 31.14,15.91 L 31.11,15.94 z M 30.98,15.35 C 31.45,15.11 31.62,14.17 30.96,14.88 C 30.68,15.06 30.86,15.13 30.98,15.35 z M 31.65,14.2 C 31.55,13.93 32.07,13.72 32.22,13.47 C 32.46,13.33 32.23,14.52 32.33,14.72 C 31.91,14.59 32.46,13.14 31.8,14.05 C 31.75,14.1 31.7,14.15 31.65,14.2 z M 33.28,12.71 C 33.03,12.88 32.52,13.03 32.83,13.5 C 32.91,12.58 34.06,13.1 33.36,13.7 C 32.42,14.49 32.36,12.4 33.28,12.71 L 33.28,12.71 z M 32.95,13.64 C 33.7,13.96 33.33,12.53 32.93,13.44 L 32.92,13.55 L 32.95,13.64 L 32.95,13.64 z M 33.39,12.45 C 33.29,12.17 33.81,11.96 33.96,11.71 C 34.2,11.57 33.97,12.76 34.07,12.96 C 33.65,12.83 34.2,11.38 33.54,12.29 C 33.49,12.34 33.44,12.39 33.39,12.45 z M 34.57,12.09 C 34.85,12.02 35.55,11.42 34.88,11.4 C 34.59,11.97 34.41,11.92 34.32,11.35 C 34.51,11.24 34.78,10.68 34.94,10.88 C 34.67,10.98 34.33,11.72 34.66,11.47 C 35.64,10.4 35.4,12.46 34.57,12.09 z"
       id="text3387"
       style="opacity:1;fill:#fcf8a7;fill-opacity:0.79000005;fill-rule:nonzero;stroke:none;marker:none;visibility:visible;display:inline;overflow:visible;enable-background:accumulate" />
    <path
       d="M 3.9,42.83 L 4.11,43.01 L 5.34,41.82 L 7.53,39.7 L 7.06,39.15 L 5.05,41.46 L 3.9,42.83 z"
       id="path2814"
       style="fill:#d7d7d7;fill-opacity:0.41000001;fill-rule:evenodd;stroke:none;display:inline" />
    <path
       d="M 4.68,41.15 C 4.67,41.16 4.63,41.21 4.62,41.21 C 4.41,41.49 3.65,42.62 3.65,42.62 L 3.75,42.78 C 3.75,42.78 3.04,43.36 2.9,44.03 C 3.74,43.89 4.21,43.24 4.21,43.25 L 4.34,43.34 L 5.84,42.34 L 4.68,41.15 z"
       id="path2816"
       style="fill:#747474;fill-opacity:0.67000002;fill-rule:evenodd;stroke:none;display:inline" />
    <path
       d="M 3.68,42.56 C 3.68,42.56 3.65,42.62 3.65,42.62 L 3.75,42.78 C 3.75,42.78 3.04,43.36 2.9,44.03 C 3.74,43.89 4.21,43.24 4.21,43.25 L 4.34,43.34 L 4.4,43.31 L 3.68,42.56 z"
       id="path2818"
       style="fill:#4e4e4e;fill-opacity:1;fill-rule:evenodd;stroke:none;display:inline" />
    <path
       d="M 7.21,37.43 C 7.21,37.43 7.18,37.46 7.18,37.46 C 7.09,37.59 6.72,38.44 6.65,38.59 C 7.09,39.2 7.62,39.85 8.25,40.37 L 8.28,40.34 C 8.28,40.34 9.04,40.03 9.4,39.81 C 8.23,39.12 7.65,38.25 7.21,37.43 z"
       id="path2820"
       style="fill:#686868;fill-opacity:0.5;fill-rule:evenodd;stroke:none;display:inline" />
    <path
       d="M 41.3,5.23 L 43.5,3.03"
       id="path2822"
       style="fill:none;fill-opacity:1;fill-rule:evenodd;stroke:#ffffff;stroke-width:0.88;stroke-linecap:butt;stroke-linejoin:miter;marker:none;stroke-miterlimit:4;stroke-dasharray:none;stroke-dashoffset:0;stroke-opacity:0.31000001;visibility:visible;display:inline;overflow:visible;enable-background:accumulate" />
    <path
       d="M 43.66,3.19 L 41.5,5.35"
       id="path2824"
       style="fill:none;fill-rule:evenodd;stroke:#fdfdfd;stroke-width:0.30000001;stroke-linecap:butt;stroke-linejoin:miter;stroke-miterlimit:4;stroke-dasharray:none;stroke-opacity:0.47000002" />
    <path
       d="M 40.12,4.36 C 41.13,5.05 41.68,5.66 42.33,6.49"
       id="path2826"
       style="fill:none;fill-rule:evenodd;stroke:#5d5d5d;stroke-width:0.5;stroke-linecap:butt;stroke-linejoin:miter;stroke-miterlimit:4;stroke-dasharray:none;stroke-opacity:0.9300001;display:inline" />
    <path
       d="M 8.3,38.01 L 24.4,21.74"
       id="path2828"
       style="fill:none;fill-rule:evenodd;stroke:#ffffff;stroke-width:0.2;stroke-linecap:round;stroke-linejoin:miter;stroke-miterlimit:4;stroke-dasharray:none;stroke-opacity:0.3" />
    <path
       d="M 12.24,32.46 C 13.21,33.15 14.01,34.02 14.51,34.7"
       id="path2830"
       style="fill:none;fill-rule:evenodd;stroke:#606060;stroke-width:0.40000001;stroke-linecap:butt;stroke-linejoin:miter;stroke-miterlimit:4;stroke-dasharray:none;stroke-opacity:0.9;display:inline" />
    <path
       d="M 40.98,5.55 C 41.3,5.78 41.5,5.98 41.58,6.1"
       id="path2832"
       style="fill:none;fill-rule:evenodd;stroke:#ffffff;stroke-width:0.30000001;stroke-linecap:round;stroke-linejoin:miter;stroke-miterlimit:4;stroke-dasharray:none;stroke-opacity:0.61000001" />
    <path
       d="M 28.31,18.02 L 40.74,5.32"
       id="path2834"
       style="fill:none;fill-rule:evenodd;stroke:#ffffff;stroke-width:0.40000001;stroke-linecap:round;stroke-linejoin:miter;stroke-miterlimit:4;stroke-dasharray:none;stroke-opacity:0.35" />
    <path
       d="M 15.09,41.37 C 14.62,41.58 16.54,45.14 16.88,44.97 C 17.22,44.81 17.26,44.79 17.37,44.72 C 17.47,44.65 17.56,44.71 17.9,44.54 C 18.25,44.38 25.35,40.54 26.3,39.99 C 27.25,39.43 31.54,36.71 31.64,36.62 C 31.75,36.53 31.54,36.01 31.48,35.93 C 31.43,35.86 31.56,35.54 31.22,34.91 C 30.88,34.28 30.65,34.3 30.62,34.28 C 30.43,34.18 30.3,33.89 30.1,33.94 C 29.9,34 26.01,35.79 25.19,36.17 C 24.36,36.54 16.09,40.74 15.93,40.81 C 15.77,40.89 15.66,41.08 15.5,41.15 C 15.34,41.23 15.09,41.39 15.09,41.37 z"
       id="path2836"
       style="fill:none;fill-opacity:1;fill-rule:evenodd;stroke:#1e1e1e;stroke-width:0.5;stroke-linecap:butt;stroke-linejoin:miter;stroke-miterlimit:4;stroke-dasharray:none;stroke-opacity:1" />
    <path
       d="M 2.91,44.03 C 3.05,43.36 3.75,42.77 3.75,42.77 L 3.64,42.63 C 3.64,42.63 4.42,41.5 4.63,41.22 C 4.84,40.94 6.63,38.7 6.63,38.7 C 6.63,38.7 7.08,37.61 7.19,37.47 C 7.29,37.33 12.2,32.42 12.2,32.42 L 12.28,32.17 C 12.28,32.17 39.71,4.66 39.89,4.49 C 40.06,4.31 40.27,4.38 40.48,4.17 C 40.69,3.96 42.13,2.56 42.41,2.31 C 42.69,2.07 44.8,3.82 44.34,4.31 C 43.89,4.8 42.66,6.03 42.52,6.21 C 42.38,6.38 42.48,6.56 42.2,6.84 C 41.92,7.12 14.77,34.59 14.77,34.59 L 14.49,34.77 C 14.49,34.77 9.78,39.5 9.57,39.71 C 9.36,39.93 8.28,40.35 8.28,40.35 L 5.85,42.31 L 4.35,43.33 L 4.21,43.26 C 4.21,43.26 3.75,43.89 2.91,44.03 z"
       id="path2838"
       style="fill:none;fill-opacity:1;fill-rule:evenodd;stroke:#292929;stroke-width:0.5;stroke-linecap:butt;stroke-linejoin:miter;stroke-miterlimit:4;stroke-dasharray:none;stroke-opacity:1;display:inline" />
    <path
       d="M 7.69,38.42 C 7.81,38.6 7.94,38.71 8.11,38.87"
       id="path2840"
       style="fill:none;fill-rule:evenodd;stroke:#e8e8e8;stroke-width:0.30000001;stroke-linecap:round;stroke-linejoin:miter;stroke-miterlimit:4;stroke-dasharray:none;stroke-opacity:0.81000001;display:inline" />
  </g>
</svg>
