<?xml version="1.0" encoding="UTF-8" standalone="no"?>
<!-- Created with Inkscape (http://www.inkscape.org/) -->

<svg
   xmlns:svg="http://www.w3.org/2000/svg"
   xmlns="http://www.w3.org/2000/svg"
   xmlns:xlink="http://www.w3.org/1999/xlink"
   version="1.0"
   width="100%"
   height="100%"
   viewBox="0 0 48 48"
   id="_stabilo01"
   style="display:inline">
  <defs
     id="defs2385">
    <filter
       color-interpolation-filters="sRGB"
       id="filter4022">
      <feBlend
         in2="BackgroundImage"
         mode="screen"
         id="feBlend4024" />
    </filter>
    <clipPath
       id="clipPath3129">
      <rect
         width="48"
         height="48"
         ry="0"
         x="0"
         y="0"
         id="r3131"
         style="fill:#000000;fill-opacity:1;fill-rule:evenodd;stroke:#d7d7d7;stroke-width:0.91000003;stroke-linecap:round;stroke-linejoin:miter;stroke-miterlimit:4;stroke-opacity:0.86000001;stroke-dasharray:none;stroke-dashoffset:0;marker:none;visibility:visible;display:inline;overflow:visible;enable-background:accumulate" />
    </clipPath>
    <linearGradient
       x1="45.91"
       y1="45.650002"
       x2="6.23"
       y2="2.4300001"
       id="lg2418"
       xlink:href="#lg3892"
       gradientUnits="userSpaceOnUse" />
    <linearGradient
       id="lg3920-2">
      <stop
         id="s3922-8"
         style="stop-color:#000000;stop-opacity:1"
         offset="0" />
      <stop
         id="s3924-9"
         style="stop-color:#363838;stop-opacity:1"
         offset="1" />
    </linearGradient>
    <linearGradient
       x1="24.280001"
       y1="6.8600001"
       x2="24.280001"
       y2="37.880001"
       id="lg3926-9"
       xlink:href="#lg3920-2"
       gradientUnits="userSpaceOnUse" />
    <linearGradient
       x1="24.280001"
       y1="6.8600001"
       x2="24.280001"
       y2="37.880001"
       id="lg3926"
       xlink:href="#lg3920"
       gradientUnits="userSpaceOnUse" />
    <linearGradient
       x1="45.91"
       y1="45.650002"
       x2="6.23"
       y2="2.4300001"
       id="lg3898"
       xlink:href="#lg3892"
       gradientUnits="userSpaceOnUse" />
    <linearGradient
       id="lg3892">
      <stop
         id="s3894"
         style="stop-color:#050707;stop-opacity:1"
         offset="0" />
      <stop
         id="s3896"
         style="stop-color:#d6d6d6;stop-opacity:1"
         offset="1" />
    </linearGradient>
    <linearGradient
       id="lg3920">
      <stop
         id="s3922"
         style="stop-color:#000000;stop-opacity:1"
         offset="0" />
      <stop
         id="s3924"
         style="stop-color:#363838;stop-opacity:1"
         offset="1" />
    </linearGradient>
    <linearGradient
       x1="23.870001"
       y1="21.450001"
       x2="23.870001"
       y2="41.560001"
       id="lg2479"
       xlink:href="#lg3934"
       gradientUnits="userSpaceOnUse" />
    <linearGradient
       x1="9.8900003"
       y1="9.3900003"
       x2="40.07"
       y2="9.3900003"
       id="lg2475"
       xlink:href="#lg4189"
       gradientUnits="userSpaceOnUse" />
    <linearGradient
       x1="9.8900003"
       y1="9.3900003"
       x2="40.07"
       y2="9.3900003"
       id="lg4195"
       xlink:href="#lg4189"
       gradientUnits="userSpaceOnUse" />
    <linearGradient
       x1="23.870001"
       y1="21.450001"
       x2="23.870001"
       y2="41.560001"
       id="lg3940"
       xlink:href="#lg3934"
       gradientUnits="userSpaceOnUse" />
    <linearGradient
       id="lg3934">
      <stop
         id="s3936"
         style="stop-color:#772527;stop-opacity:1"
         offset="0" />
      <stop
         id="s3938"
         style="stop-color:#ff9f46;stop-opacity:1"
         offset="1" />
    </linearGradient>
    <linearGradient
       id="lg4189">
      <stop
         id="s4191"
         style="stop-color:#db2525;stop-opacity:1"
         offset="0" />
      <stop
         id="s4201"
         style="stop-color:#decd0e;stop-opacity:1"
         offset="0.25" />
      <stop
         id="s4203"
         style="stop-color:#36e41f;stop-opacity:1"
         offset="0.37" />
      <stop
         id="s4197"
         style="stop-color:#28ddbe;stop-opacity:1"
         offset="0.5" />
      <stop
         id="s4199"
         style="stop-color:#232bd8;stop-opacity:1"
         offset="0.75" />
      <stop
         id="s4193"
         style="stop-color:#dc2eb6;stop-opacity:1"
         offset="1" />
    </linearGradient>
    <linearGradient
       id="lg4189-954">
      <stop
         id="s2453"
         style="stop-color:#5b5b5b;stop-opacity:1"
         offset="0" />
      <stop
         id="s2455"
         style="stop-color:#bcbcbc;stop-opacity:1"
         offset="0.25" />
      <stop
         id="s2457"
         style="stop-color:#9a9a9a;stop-opacity:1"
         offset="0.37" />
      <stop
         id="s2459"
         style="stop-color:#a3a3a3;stop-opacity:1"
         offset="0.5" />
      <stop
         id="s2461"
         style="stop-color:#3c3c3c;stop-opacity:1"
         offset="0.75" />
      <stop
         id="s2463"
         style="stop-color:#727272;stop-opacity:1"
         offset="1" />
    </linearGradient>
    <linearGradient
       x1="9.8900003"
       y1="9.3900003"
       x2="40.07"
       y2="9.3900003"
       id="lg2475-51"
       xlink:href="#lg4189-954"
       gradientUnits="userSpaceOnUse" />
    <linearGradient
       id="lg3934-130">
      <stop
         id="s2447"
         style="stop-color:#3e3e3e;stop-opacity:1"
         offset="0" />
      <stop
         id="s2449"
         style="stop-color:#b2b2b2;stop-opacity:1"
         offset="1" />
    </linearGradient>
    <linearGradient
       x1="23.870001"
       y1="21.450001"
       x2="23.870001"
       y2="41.560001"
       id="lg2479-392"
       xlink:href="#lg3934-130"
       gradientUnits="userSpaceOnUse" />
    <linearGradient
       x1="23.870001"
       y1="21.450001"
       x2="23.870001"
       y2="41.560001"
       id="lg3444"
       xlink:href="#lg3934"
       gradientUnits="userSpaceOnUse" />
    <linearGradient
       x1="9.8900003"
       y1="9.3900003"
       x2="40.07"
       y2="9.3900003"
       id="lg3442"
       xlink:href="#lg4189"
       gradientUnits="userSpaceOnUse" />
    <linearGradient
       x1="9.8900003"
       y1="9.3900003"
       x2="40.07"
       y2="9.3900003"
       id="lg3440"
       xlink:href="#lg4189"
       gradientUnits="userSpaceOnUse" />
    <linearGradient
       x1="23.870001"
       y1="21.450001"
       x2="23.870001"
       y2="41.560001"
       id="lg3438"
       xlink:href="#lg3934"
       gradientUnits="userSpaceOnUse" />
    <linearGradient
       id="lg3432">
      <stop
         id="s3434"
         style="stop-color:#3e3e3e;stop-opacity:1"
         offset="0" />
      <stop
         id="s3436"
         style="stop-color:#b2b2b2;stop-opacity:1"
         offset="1" />
    </linearGradient>
    <linearGradient
       id="lg3418">
      <stop
         id="s3420"
         style="stop-color:#5b5b5b;stop-opacity:1"
         offset="0" />
      <stop
         id="s3422"
         style="stop-color:#bcbcbc;stop-opacity:1"
         offset="0.25" />
      <stop
         id="s3424"
         style="stop-color:#9a9a9a;stop-opacity:1"
         offset="0.37" />
      <stop
         id="s3426"
         style="stop-color:#a3a3a3;stop-opacity:1"
         offset="0.5" />
      <stop
         id="s3428"
         style="stop-color:#3c3c3c;stop-opacity:1"
         offset="0.75" />
      <stop
         id="s3430"
         style="stop-color:#727272;stop-opacity:1"
         offset="1" />
    </linearGradient>
    <linearGradient
       id="linearGradient2916">
      <stop
         id="stop2918"
         style="stop-color:#5b5b5b;stop-opacity:1"
         offset="0" />
      <stop
         id="stop2920"
         style="stop-color:#bcbcbc;stop-opacity:1"
         offset="0.25" />
      <stop
         id="stop2922"
         style="stop-color:#9a9a9a;stop-opacity:1"
         offset="0.37" />
      <stop
         id="stop2924"
         style="stop-color:#a3a3a3;stop-opacity:1"
         offset="0.5" />
      <stop
         id="stop2926"
         style="stop-color:#3c3c3c;stop-opacity:1"
         offset="0.75" />
      <stop
         id="stop2928"
         style="stop-color:#727272;stop-opacity:1"
         offset="1" />
    </linearGradient>
    <linearGradient
       id="linearGradient2910">
      <stop
         id="stop2912"
         style="stop-color:#3e3e3e;stop-opacity:1"
         offset="0" />
      <stop
         id="stop2914"
         style="stop-color:#b2b2b2;stop-opacity:1"
         offset="1" />
    </linearGradient>
    <linearGradient
       x1="23.870001"
       y1="21.450001"
       x2="23.870001"
       y2="41.560001"
       id="linearGradient2908"
       xlink:href="#lg3934"
       gradientUnits="userSpaceOnUse" />
    <linearGradient
       x1="9.8900003"
       y1="9.3900003"
       x2="40.07"
       y2="9.3900003"
       id="linearGradient2906"
       xlink:href="#lg4189"
       gradientUnits="userSpaceOnUse" />
    <linearGradient
       x1="9.8900003"
       y1="9.3900003"
       x2="40.07"
       y2="9.3900003"
       id="linearGradient2904"
       xlink:href="#lg4189"
       gradientUnits="userSpaceOnUse" />
    <linearGradient
       x1="23.870001"
       y1="21.450001"
       x2="23.870001"
       y2="41.560001"
       id="linearGradient2902"
       xlink:href="#lg3934"
       gradientUnits="userSpaceOnUse" />
    <linearGradient
       x1="23.870001"
       y1="21.450001"
       x2="23.870001"
       y2="41.560001"
       id="linearGradient2900"
       xlink:href="#lg3934-130"
       gradientUnits="userSpaceOnUse" />
    <linearGradient
       id="linearGradient2894">
      <stop
         id="stop2896"
         style="stop-color:#3e3e3e;stop-opacity:1"
         offset="0" />
      <stop
         id="stop2898"
         style="stop-color:#b2b2b2;stop-opacity:1"
         offset="1" />
    </linearGradient>
    <linearGradient
       x1="9.8900003"
       y1="9.3900003"
       x2="40.07"
       y2="9.3900003"
       id="linearGradient2892"
       xlink:href="#lg4189-954"
       gradientUnits="userSpaceOnUse" />
    <linearGradient
       id="linearGradient2878">
      <stop
         id="stop2880"
         style="stop-color:#5b5b5b;stop-opacity:1"
         offset="0" />
      <stop
         id="stop2882"
         style="stop-color:#bcbcbc;stop-opacity:1"
         offset="0.25" />
      <stop
         id="stop2884"
         style="stop-color:#9a9a9a;stop-opacity:1"
         offset="0.37" />
      <stop
         id="stop2886"
         style="stop-color:#a3a3a3;stop-opacity:1"
         offset="0.5" />
      <stop
         id="stop2888"
         style="stop-color:#3c3c3c;stop-opacity:1"
         offset="0.75" />
      <stop
         id="stop2890"
         style="stop-color:#727272;stop-opacity:1"
         offset="1" />
    </linearGradient>
    <linearGradient
       id="linearGradient2864">
      <stop
         id="stop2866"
         style="stop-color:#db2525;stop-opacity:1"
         offset="0" />
      <stop
         id="stop2868"
         style="stop-color:#decd0e;stop-opacity:1"
         offset="0.25" />
      <stop
         id="stop2870"
         style="stop-color:#36e41f;stop-opacity:1"
         offset="0.37" />
      <stop
         id="stop2872"
         style="stop-color:#28ddbe;stop-opacity:1"
         offset="0.5" />
      <stop
         id="stop2874"
         style="stop-color:#232bd8;stop-opacity:1"
         offset="0.75" />
      <stop
         id="stop2876"
         style="stop-color:#dc2eb6;stop-opacity:1"
         offset="1" />
    </linearGradient>
    <linearGradient
       id="linearGradient2858">
      <stop
         id="stop2860"
         style="stop-color:#772527;stop-opacity:1"
         offset="0" />
      <stop
         id="stop2862"
         style="stop-color:#ff9f46;stop-opacity:1"
         offset="1" />
    </linearGradient>
    <linearGradient
       x1="23.870001"
       y1="21.450001"
       x2="23.870001"
       y2="41.560001"
       id="linearGradient2856"
       xlink:href="#lg3934"
       gradientUnits="userSpaceOnUse" />
    <linearGradient
       x1="9.8900003"
       y1="9.3900003"
       x2="40.07"
       y2="9.3900003"
       id="linearGradient2854"
       xlink:href="#lg4189"
       gradientUnits="userSpaceOnUse" />
    <linearGradient
       x1="9.8900003"
       y1="9.3900003"
       x2="40.07"
       y2="9.3900003"
       id="linearGradient2852"
       xlink:href="#lg4189"
       gradientUnits="userSpaceOnUse" />
    <linearGradient
       x1="23.870001"
       y1="21.450001"
       x2="23.870001"
       y2="41.560001"
       id="linearGradient2850"
       xlink:href="#lg3934"
       gradientUnits="userSpaceOnUse" />
    <linearGradient
       id="linearGradient2844">
      <stop
         id="stop2846"
         style="stop-color:#000000;stop-opacity:1"
         offset="0" />
      <stop
         id="stop2848"
         style="stop-color:#363838;stop-opacity:1"
         offset="1" />
    </linearGradient>
    <linearGradient
       id="linearGradient2838">
      <stop
         id="stop2840"
         style="stop-color:#050707;stop-opacity:1"
         offset="0" />
      <stop
         id="stop2842"
         style="stop-color:#d6d6d6;stop-opacity:1"
         offset="1" />
    </linearGradient>
    <linearGradient
       x1="45.91"
       y1="45.650002"
       x2="6.23"
       y2="2.4300001"
       id="linearGradient2836"
       xlink:href="#lg3892"
       gradientUnits="userSpaceOnUse" />
    <linearGradient
       x1="24.280001"
       y1="6.8600001"
       x2="24.280001"
       y2="37.880001"
       id="linearGradient2834"
       xlink:href="#lg3920"
       gradientUnits="userSpaceOnUse" />
    <linearGradient
       x1="24.280001"
       y1="6.8600001"
       x2="24.280001"
       y2="37.880001"
       id="linearGradient2832"
       xlink:href="#lg3920-2"
       gradientUnits="userSpaceOnUse" />
    <linearGradient
       id="linearGradient2826">
      <stop
         id="stop2828"
         style="stop-color:#000000;stop-opacity:1"
         offset="0" />
      <stop
         id="stop2830"
         style="stop-color:#363838;stop-opacity:1"
         offset="1" />
    </linearGradient>
    <linearGradient
       x1="45.91"
       y1="45.650002"
       x2="6.23"
       y2="2.4300001"
       id="linearGradient2824"
       xlink:href="#lg3892"
       gradientUnits="userSpaceOnUse" />
    <clipPath
       id="clipPath2820">
      <rect
         width="48"
         height="48"
         ry="0"
         x="0"
         y="0"
         id="rect2822"
         style="fill:#000000;fill-opacity:1;fill-rule:evenodd;stroke:#d7d7d7;stroke-width:0.91000003;stroke-linecap:round;stroke-linejoin:miter;stroke-miterlimit:4;stroke-opacity:0.86000001;stroke-dasharray:none;stroke-dashoffset:0;marker:none;visibility:visible;display:inline;overflow:visible;enable-background:accumulate" />
    </clipPath>
    <filter
       color-interpolation-filters="sRGB"
       id="filter2816">
      <feBlend
         in2="BackgroundImage"
         mode="screen"
         id="feBlend2818" />
    </filter>
    <filter
       color-interpolation-filters="sRGB"
       id="filter4007">
      <feBlend
         in2="BackgroundImage"
         mode="screen"
         id="feBlend4009" />
    </filter>
    <clipPath
       id="clipPath4003">
      <rect
         width="48"
         height="48"
         ry="0"
         x="0"
         y="0"
         id="rect4005"
         style="fill:#000000;fill-opacity:1;fill-rule:evenodd;stroke:#d7d7d7;stroke-width:0.91000003;stroke-linecap:round;stroke-linejoin:miter;stroke-miterlimit:4;stroke-opacity:0.86000001;stroke-dasharray:none;stroke-dashoffset:0;marker:none;visibility:visible;display:inline;overflow:visible;enable-background:accumulate" />
    </clipPath>
    <linearGradient
       x1="45.91"
       y1="45.650002"
       x2="6.23"
       y2="2.4300001"
       id="linearGradient4001"
       xlink:href="#lg3892"
       gradientUnits="userSpaceOnUse" />
    <linearGradient
       id="linearGradient3995">
      <stop
         id="stop3997"
         style="stop-color:#000000;stop-opacity:1"
         offset="0" />
      <stop
         id="stop3999"
         style="stop-color:#363838;stop-opacity:1"
         offset="1" />
    </linearGradient>
    <linearGradient
       x1="24.280001"
       y1="6.8600001"
       x2="24.280001"
       y2="37.880001"
       id="linearGradient3993"
       xlink:href="#lg3920-2"
       gradientUnits="userSpaceOnUse" />
    <linearGradient
       x1="24.280001"
       y1="6.8600001"
       x2="24.280001"
       y2="37.880001"
       id="linearGradient3991"
       xlink:href="#lg3920"
       gradientUnits="userSpaceOnUse" />
    <linearGradient
       x1="45.91"
       y1="45.650002"
       x2="6.23"
       y2="2.4300001"
       id="linearGradient3989"
       xlink:href="#lg3892"
       gradientUnits="userSpaceOnUse" />
    <linearGradient
       id="linearGradient3983">
      <stop
         id="stop3985"
         style="stop-color:#050707;stop-opacity:1"
         offset="0" />
      <stop
         id="stop3987"
         style="stop-color:#d6d6d6;stop-opacity:1"
         offset="1" />
    </linearGradient>
    <linearGradient
       id="linearGradient3977">
      <stop
         id="stop3979"
         style="stop-color:#000000;stop-opacity:1"
         offset="0" />
      <stop
         id="stop3981"
         style="stop-color:#363838;stop-opacity:1"
         offset="1" />
    </linearGradient>
    <linearGradient
       x1="23.870001"
       y1="21.450001"
       x2="23.870001"
       y2="41.560001"
       id="linearGradient3975"
       xlink:href="#lg3934"
       gradientUnits="userSpaceOnUse" />
    <linearGradient
       x1="9.8900003"
       y1="9.3900003"
       x2="40.07"
       y2="9.3900003"
       id="linearGradient3973"
       xlink:href="#lg4189"
       gradientUnits="userSpaceOnUse" />
    <linearGradient
       x1="9.8900003"
       y1="9.3900003"
       x2="40.07"
       y2="9.3900003"
       id="linearGradient3971"
       xlink:href="#lg4189"
       gradientUnits="userSpaceOnUse" />
    <linearGradient
       x1="23.870001"
       y1="21.450001"
       x2="23.870001"
       y2="41.560001"
       id="linearGradient3969"
       xlink:href="#lg3934"
       gradientUnits="userSpaceOnUse" />
    <linearGradient
       id="linearGradient3963">
      <stop
         id="stop3965"
         style="stop-color:#772527;stop-opacity:1"
         offset="0" />
      <stop
         id="stop3967"
         style="stop-color:#ff9f46;stop-opacity:1"
         offset="1" />
    </linearGradient>
    <linearGradient
       id="linearGradient3949">
      <stop
         id="stop3951"
         style="stop-color:#db2525;stop-opacity:1"
         offset="0" />
      <stop
         id="stop3953"
         style="stop-color:#decd0e;stop-opacity:1"
         offset="0.25" />
      <stop
         id="stop3955"
         style="stop-color:#36e41f;stop-opacity:1"
         offset="0.37" />
      <stop
         id="stop3957"
         style="stop-color:#28ddbe;stop-opacity:1"
         offset="0.5" />
      <stop
         id="stop3959"
         style="stop-color:#232bd8;stop-opacity:1"
         offset="0.75" />
      <stop
         id="stop3961"
         style="stop-color:#dc2eb6;stop-opacity:1"
         offset="1" />
    </linearGradient>
    <linearGradient
       id="linearGradient3935">
      <stop
         id="stop3937"
         style="stop-color:#5b5b5b;stop-opacity:1"
         offset="0" />
      <stop
         id="stop3939"
         style="stop-color:#bcbcbc;stop-opacity:1"
         offset="0.25" />
      <stop
         id="stop3941"
         style="stop-color:#9a9a9a;stop-opacity:1"
         offset="0.37" />
      <stop
         id="stop3943"
         style="stop-color:#a3a3a3;stop-opacity:1"
         offset="0.5" />
      <stop
         id="stop3945"
         style="stop-color:#3c3c3c;stop-opacity:1"
         offset="0.75" />
      <stop
         id="stop3947"
         style="stop-color:#727272;stop-opacity:1"
         offset="1" />
    </linearGradient>
    <linearGradient
       x1="9.8900003"
       y1="9.3900003"
       x2="40.07"
       y2="9.3900003"
       id="linearGradient3933"
       xlink:href="#lg4189-954"
       gradientUnits="userSpaceOnUse" />
    <linearGradient
       id="linearGradient3927">
      <stop
         id="stop3929"
         style="stop-color:#3e3e3e;stop-opacity:1"
         offset="0" />
      <stop
         id="stop3931"
         style="stop-color:#b2b2b2;stop-opacity:1"
         offset="1" />
    </linearGradient>
    <linearGradient
       x1="23.870001"
       y1="21.450001"
       x2="23.870001"
       y2="41.560001"
       id="linearGradient3925"
       xlink:href="#lg3934-130"
       gradientUnits="userSpaceOnUse" />
    <linearGradient
       x1="23.870001"
       y1="21.450001"
       x2="23.870001"
       y2="41.560001"
       id="linearGradient3923"
       xlink:href="#lg3934"
       gradientUnits="userSpaceOnUse" />
    <linearGradient
       x1="9.8900003"
       y1="9.3900003"
       x2="40.07"
       y2="9.3900003"
       id="linearGradient3921"
       xlink:href="#lg4189"
       gradientUnits="userSpaceOnUse" />
    <linearGradient
       x1="9.8900003"
       y1="9.3900003"
       x2="40.07"
       y2="9.3900003"
       id="linearGradient3919"
       xlink:href="#lg4189"
       gradientUnits="userSpaceOnUse" />
    <linearGradient
       x1="23.870001"
       y1="21.450001"
       x2="23.870001"
       y2="41.560001"
       id="linearGradient3917"
       xlink:href="#lg3934"
       gradientUnits="userSpaceOnUse" />
    <linearGradient
       id="linearGradient3911">
      <stop
         id="stop3913"
         style="stop-color:#3e3e3e;stop-opacity:1"
         offset="0" />
      <stop
         id="stop3915"
         style="stop-color:#b2b2b2;stop-opacity:1"
         offset="1" />
    </linearGradient>
    <linearGradient
       id="linearGradient3897">
      <stop
         id="stop3899"
         style="stop-color:#5b5b5b;stop-opacity:1"
         offset="0" />
      <stop
         id="stop3901"
         style="stop-color:#bcbcbc;stop-opacity:1"
         offset="0.25" />
      <stop
         id="stop3903"
         style="stop-color:#9a9a9a;stop-opacity:1"
         offset="0.37" />
      <stop
         id="stop3905"
         style="stop-color:#a3a3a3;stop-opacity:1"
         offset="0.5" />
      <stop
         id="stop3907"
         style="stop-color:#3c3c3c;stop-opacity:1"
         offset="0.75" />
      <stop
         id="stop3909"
         style="stop-color:#727272;stop-opacity:1"
         offset="1" />
    </linearGradient>
    <linearGradient
       id="linearGradient3883">
      <stop
         id="stop3885"
         style="stop-color:#5b5b5b;stop-opacity:1"
         offset="0" />
      <stop
         id="stop3887"
         style="stop-color:#bcbcbc;stop-opacity:1"
         offset="0.25" />
      <stop
         id="stop3889"
         style="stop-color:#9a9a9a;stop-opacity:1"
         offset="0.37" />
      <stop
         id="stop3891"
         style="stop-color:#a3a3a3;stop-opacity:1"
         offset="0.5" />
      <stop
         id="stop3893"
         style="stop-color:#3c3c3c;stop-opacity:1"
         offset="0.75" />
      <stop
         id="stop3895"
         style="stop-color:#727272;stop-opacity:1"
         offset="1" />
    </linearGradient>
    <linearGradient
       id="linearGradient3877">
      <stop
         id="stop3879"
         style="stop-color:#3e3e3e;stop-opacity:1"
         offset="0" />
      <stop
         id="stop3881"
         style="stop-color:#b2b2b2;stop-opacity:1"
         offset="1" />
    </linearGradient>
    <linearGradient
       x1="23.870001"
       y1="21.450001"
       x2="23.870001"
       y2="41.560001"
       id="linearGradient3875"
       xlink:href="#lg3934"
       gradientUnits="userSpaceOnUse" />
    <linearGradient
       x1="9.8900003"
       y1="9.3900003"
       x2="40.07"
       y2="9.3900003"
       id="linearGradient3873"
       xlink:href="#lg4189"
       gradientUnits="userSpaceOnUse" />
    <linearGradient
       x1="9.8900003"
       y1="9.3900003"
       x2="40.07"
       y2="9.3900003"
       id="linearGradient3871"
       xlink:href="#lg4189"
       gradientUnits="userSpaceOnUse" />
    <linearGradient
       x1="23.870001"
       y1="21.450001"
       x2="23.870001"
       y2="41.560001"
       id="linearGradient3869"
       xlink:href="#lg3934"
       gradientUnits="userSpaceOnUse" />
    <linearGradient
       x1="23.870001"
       y1="21.450001"
       x2="23.870001"
       y2="41.560001"
       id="linearGradient3867"
       xlink:href="#lg3934-130"
       gradientUnits="userSpaceOnUse" />
    <linearGradient
       id="linearGradient3861">
      <stop
         id="stop3863"
         style="stop-color:#3e3e3e;stop-opacity:1"
         offset="0" />
      <stop
         id="stop3865"
         style="stop-color:#b2b2b2;stop-opacity:1"
         offset="1" />
    </linearGradient>
    <linearGradient
       x1="9.8900003"
       y1="9.3900003"
       x2="40.07"
       y2="9.3900003"
       id="linearGradient3859"
       xlink:href="#lg4189-954"
       gradientUnits="userSpaceOnUse" />
    <linearGradient
       id="linearGradient3845">
      <stop
         id="stop3847"
         style="stop-color:#5b5b5b;stop-opacity:1"
         offset="0" />
      <stop
         id="stop3849"
         style="stop-color:#bcbcbc;stop-opacity:1"
         offset="0.25" />
      <stop
         id="stop3851"
         style="stop-color:#9a9a9a;stop-opacity:1"
         offset="0.37" />
      <stop
         id="stop3853"
         style="stop-color:#a3a3a3;stop-opacity:1"
         offset="0.5" />
      <stop
         id="stop3855"
         style="stop-color:#3c3c3c;stop-opacity:1"
         offset="0.75" />
      <stop
         id="stop3857"
         style="stop-color:#727272;stop-opacity:1"
         offset="1" />
    </linearGradient>
    <linearGradient
       id="linearGradient3831">
      <stop
         id="stop3833"
         style="stop-color:#db2525;stop-opacity:1"
         offset="0" />
      <stop
         id="stop3835"
         style="stop-color:#decd0e;stop-opacity:1"
         offset="0.25" />
      <stop
         id="stop3837"
         style="stop-color:#36e41f;stop-opacity:1"
         offset="0.37" />
      <stop
         id="stop3839"
         style="stop-color:#28ddbe;stop-opacity:1"
         offset="0.5" />
      <stop
         id="stop3841"
         style="stop-color:#232bd8;stop-opacity:1"
         offset="0.75" />
      <stop
         id="stop3843"
         style="stop-color:#dc2eb6;stop-opacity:1"
         offset="1" />
    </linearGradient>
    <linearGradient
       id="linearGradient3825">
      <stop
         id="stop3827"
         style="stop-color:#772527;stop-opacity:1"
         offset="0" />
      <stop
         id="stop3829"
         style="stop-color:#ff9f46;stop-opacity:1"
         offset="1" />
    </linearGradient>
    <linearGradient
       x1="23.870001"
       y1="21.450001"
       x2="23.870001"
       y2="41.560001"
       id="linearGradient3823"
       xlink:href="#lg3934"
       gradientUnits="userSpaceOnUse" />
    <linearGradient
       x1="9.8900003"
       y1="9.3900003"
       x2="40.07"
       y2="9.3900003"
       id="linearGradient3821"
       xlink:href="#lg4189"
       gradientUnits="userSpaceOnUse" />
    <linearGradient
       x1="9.8900003"
       y1="9.3900003"
       x2="40.07"
       y2="9.3900003"
       id="linearGradient3819"
       xlink:href="#lg4189"
       gradientUnits="userSpaceOnUse" />
    <linearGradient
       x1="23.870001"
       y1="21.450001"
       x2="23.870001"
       y2="41.560001"
       id="linearGradient3817"
       xlink:href="#lg3934"
       gradientUnits="userSpaceOnUse" />
    <linearGradient
       id="linearGradient3811">
      <stop
         id="stop3813"
         style="stop-color:#000000;stop-opacity:1"
         offset="0" />
      <stop
         id="stop3815"
         style="stop-color:#363838;stop-opacity:1"
         offset="1" />
    </linearGradient>
    <linearGradient
       id="linearGradient3805">
      <stop
         id="stop3807"
         style="stop-color:#050707;stop-opacity:1"
         offset="0" />
      <stop
         id="stop3809"
         style="stop-color:#d6d6d6;stop-opacity:1"
         offset="1" />
    </linearGradient>
    <linearGradient
       x1="45.91"
       y1="45.650002"
       x2="6.23"
       y2="2.4300001"
       id="linearGradient3803"
       xlink:href="#lg3892"
       gradientUnits="userSpaceOnUse" />
    <linearGradient
       x1="24.280001"
       y1="6.8600001"
       x2="24.280001"
       y2="37.880001"
       id="linearGradient3801"
       xlink:href="#lg3920"
       gradientUnits="userSpaceOnUse" />
    <linearGradient
       x1="24.280001"
       y1="6.8600001"
       x2="24.280001"
       y2="37.880001"
       id="linearGradient3799"
       xlink:href="#lg3920-2"
       gradientUnits="userSpaceOnUse" />
    <linearGradient
       id="linearGradient3793">
      <stop
         id="stop3795"
         style="stop-color:#000000;stop-opacity:1"
         offset="0" />
      <stop
         id="stop3797"
         style="stop-color:#363838;stop-opacity:1"
         offset="1" />
    </linearGradient>
    <linearGradient
       x1="45.91"
       y1="45.650002"
       x2="6.23"
       y2="2.4300001"
       id="linearGradient3791"
       xlink:href="#lg3892"
       gradientUnits="userSpaceOnUse" />
    <clipPath
       id="clipPath3787">
      <rect
         width="48"
         height="48"
         ry="0"
         x="0"
         y="0"
         id="rect3789"
         style="fill:#000000;fill-opacity:1;fill-rule:evenodd;stroke:#d7d7d7;stroke-width:0.91000003;stroke-linecap:round;stroke-linejoin:miter;stroke-miterlimit:4;stroke-opacity:0.86000001;stroke-dasharray:none;stroke-dashoffset:0;marker:none;visibility:visible;display:inline;overflow:visible;enable-background:accumulate" />
    </clipPath>
    <filter
       color-interpolation-filters="sRGB"
       id="filter3783">
      <feBlend
         in2="BackgroundImage"
         mode="screen"
         id="feBlend3785" />
    </filter>
  </defs>
  <path
     d="M 0,0 0,48 48,48 48,0 0,0 z m 11.4375,27.71875 c 5.060395,-1e-6 9.15625,4.095855 9.15625,9.15625 1e-6,5.060395 -4.095855,9.15625 -9.15625,9.15625 -5.060396,10e-7 -9.15625,-4.095855 -9.15625,-9.15625 0,-5.060395 4.095855,-9.15625 9.15625,-9.15625 z"
     id="rect2533"
     style="fill:#ffffff;fill-opacity:1;fill-rule:evenodd;stroke:none;stroke-width:1;marker:none;visibility:visible;display:inline;overflow:visible;enable-background:accumulate" />
  <rect
     width="47.5"
     height="47.5"
     ry="4"
     x="0.25"
     y="0.25"
     id="r3365"
     style="fill:none;stroke:#000000;stroke-width:0.5;stroke-linecap:round;stroke-linejoin:miter;stroke-miterlimit:4;stroke-opacity:1;stroke-dasharray:none;stroke-dashoffset:0;marker:none;visibility:visible;display:inline;overflow:visible;enable-background:accumulate" />
  <g
     transform="matrix(0.93588199,0,0,0.93588199,1.1260604,1.5123706)"
     id="g3414">
    <g
       id="layer2"
       style="display:inline">
      <path
         d="m 45.882353,44.470588 c 0.907563,0.907563 -0.504202,1.815126 -1.109244,1.260504 C 44.168067,45.176471 20.722689,22.537815 19.159664,20.97479 17.596639,19.411765 16.235294,18.10084 15.932773,17.798319 15.630252,17.495798 15.478992,17.092437 15.327731,16.941176 15.176471,16.789916 14.773109,16.588235 14.420168,16.285714 14.067227,15.983193 14.117647,15.831933 13.865546,15.630252 13.613445,15.428571 11.697479,13.663866 10.840336,12.957983 9.9831933,12.252101 7.6134454,10.336134 7.1596639,9.9327731 6.7058824,9.5294117 2.2689076,5.2436975 2.2689076,5.2436975 l 0.1008403,-0.3025211 0.1008403,0.05042 0,-0.302521 L 3.3781513,3.8823527 3.5798319,4.0336132 3.4789916,3.7815124 4.0840336,3.2773107 4.184874,3.378151 l 0,-0.2521008 L 5.1932773,2.3193277 5.394958,2.1680672 8.5210084,5.8487395 8.7226891,5.7478991 c 0,0 1.0084033,1.0084034 1.4621849,1.5630252 0.453781,0.5546219 4.336134,5.0420167 4.840336,5.5966387 0.504202,0.554622 0.655462,0.756303 0.857143,0.957983 0.201681,0.201681 0.504202,0.453782 0.756302,0.756303 0.252101,0.302521 0.504202,0.504201 0.756303,0.705882 0.252101,0.201681 2.067227,1.815126 3.277311,3.02521 1.210084,1.210084 7.512605,7.512605 9.327731,9.428572 1.815126,1.915966 15.12605,15.831932 15.882353,16.689075 z"
         id="path2978"
         style="fill:#1b1e2c;fill-opacity:1;stroke:none" />
      <path
         d="M 5.40625,2.15625 5.1875,2.3125 l -1,0.8125 0,0.25 -0.09375,-0.09375 -0.625,0.5 0.125,0.25 L 3.375,3.875 2.46875,4.6875 2.46875,5 2.375,4.9375 2.28125,5.25 c 0,0 3.3803716,3.2850178 4.40625,4.25 L 9.71875,6.78125 c -0.4699904,-0.510446 -1,-1.03125 -1,-1.03125 l -0.1875,0.09375 -3.125,-3.6875 z"
         id="path3778"
         style="fill:#ccb183;fill-opacity:1;stroke:none;display:inline" />
      <path
         d="M 5.40625,2.15625 5.1875,2.3125 l -1,0.8125 0,0.25 -0.09375,-0.09375 -0.625,0.5 0.125,0.25 L 3.375,3.875 2.46875,4.6875 2.46875,5 2.375,4.9375 2.28125,5.25 c 0,0 0.5948089,0.6002558 0.78125,0.78125 l 0.34375,-0.6875 0.3125,0.125 L 3.75,5.375 3.6875,5.03125 3.90625,4.9375 4.25,5.34375 4.53125,5.09375 4.1875,4.84375 4.65625,4.3125 4.96875,4.625 5.1875,4.53125 4.90625,4.25 5.0625,4.03125 5.40625,4.375 5.84375,4.0625 5.375,3.65625 5.625,3.5 6.03125,3.875 6.4375,3.375 5.40625,2.15625 z"
         id="path3954"
         style="fill:#f7f8d1;fill-opacity:0.22932332;stroke:none" />
      <path
         d="M 5.375,2.4375 C 5.2799094,2.4185107 5.0978275,2.6369614 5.34375,2.625 6.3861852,3.8475501 7.2971614,5.1861535 8.21875,6.5 7.3392431,5.9397328 6.7353943,5.0634771 6,4.34375 5.541952,3.8261525 5.0942475,3.2846332 4.65625,2.75 L 4.4375,2.9375 C 4.4782471,3.0445408 4.4634308,3.1203697 4.28125,3.125 4.2704873,3.1145466 4.2607251,3.1042428 4.25,3.09375 L 4.1875,3.125 l 0,0.0625 c 0.1330714,0.1378159 0.2774148,0.2644544 0.40625,0.40625 0.7225853,0.439318 0.9691862,1.3092648 1.5625,1.875 C 6.2680426,5.7279585 6.7749781,6.2746184 6.53125,6.375 5.7131674,5.3996019 4.9851918,4.3666439 4.1875,3.375 l 0,-0.03125 L 4.15625,3.3125 4.09375,3.28125 4.03125,3.34375 C 4.6982512,4.0894997 5.2176268,4.9576099 5.90625,5.6875 5.950228,6.1651695 5.3973066,5.6329734 5.21875,5.53125 4.5421297,5.0955721 3.8549985,4.5845571 3.40625,3.90625 L 3.375,3.875 3.0625,4.15625 C 3.6735643,4.5601529 4.193044,5.0627372 4.53125,5.71875 5.0523754,6.4552608 5.6198854,7.1740443 6.1875,7.875 5.1367381,6.6490399 3.8752599,5.6115722 2.875,4.34375 L 2.75,4.4375 c 0.199923,0.296759 0.4225959,0.5997063 0.6875,0.84375 0.7375908,0.8092501 1.4340715,1.6402455 2.25,2.375 0.4882893,0.4632026 0.9963866,0.9268856 1.4375,1.4375 L 7.25,9 C 7.0556384,8.7667131 6.8406053,8.5540923 6.65625,8.3125 5.8340587,7.2859555 5.0489169,6.2243498 4.28125,5.15625 5.1963155,5.8494191 5.9305426,6.768911 6.8125,7.5 6.9421578,7.744076 7.3189304,8.1221705 7.5625,8 7.0093195,7.6236575 6.5734636,7.1197187 6.09375,6.65625 5.8484642,6.4192705 5.5846322,6.2057916 5.3125,6 5.2293501,5.9195831 5.1430153,5.8330572 5.0625,5.75 c 0.4525777,0.1541667 0.6962717,0.5948746 1.03125,0.90625 0.1116594,0.1037918 0.2307016,0.1883935 0.375,0.25 C 6.8677288,7.2359226 7.1854768,7.6470095 7.5625,8 7.56796,8.00512 7.588266,7.9949 7.59375,8 7.652172,7.963019 7.687938,7.8941418 7.71875,7.78125 7.9479542,7.4259567 8.3325017,8.1743767 8.375,7.875 7.0699579,6.3716694 5.7875013,4.8512737 4.6875,3.1875 c 0.5401355,0.076854 0.6128881,0.7468698 1.03125,1 0.6883564,0.7943484 1.3994109,1.5835551 2.1875,2.28125 C 7.8551489,6.945112 8.7428732,6.6042376 8.21875,6.3125 7.6735332,5.6361712 7.2307583,4.9194979 6.71875,4.21875 7.4528692,4.7234181 8.0394471,5.3663913 8.625,6.03125 8.5210734,6.3009324 9.1416931,6.3329324 8.8125,6.09375 8.7407286,5.9949738 8.671371,5.9058346 8.59375,5.8125 L 8.53125,5.84375 8,5.1875 C 7.9579613,5.1470268 7.917662,5.1023889 7.875,5.0625 7.0206168,4.2636533 6.0667899,3.5660579 5.4375,2.5625 5.452909,2.4854828 5.4066969,2.4438298 5.375,2.4375 z M 4.46875,5.125 c 0.1996313,0.09149 0.095064,0.1777267 0,0 z M 5.4375,5.8125 c 0.769097,0.5011067 1.4738977,1.1184018 2,1.875 -0.6496021,-0.6433271 -1.3718779,-1.2095105 -2,-1.875 z M 6.46875,5.84375 C 7.0661494,6.4278436 7.5638939,7.1017711 8.125,7.71875 7.3749384,7.3098432 6.8245993,6.6065506 6.46875,5.84375 z M 4.53125,6.3125 c 0.1076927,-0.059118 0.024154,0.1152805 0,0 z M 4.875,6.6875 C 5.1200093,6.604482 5.0025715,7.0372659 4.90625,6.71875 L 4.875,6.6875 z M 7,6.96875 c 0.148812,0.00947 -0.069282,0.1365289 0,0 z"
         id="path3840"
         style="font-size:medium;font-style:normal;font-variant:normal;font-weight:normal;font-stretch:normal;text-indent:0;text-align:start;text-decoration:none;line-height:normal;letter-spacing:normal;word-spacing:normal;text-transform:none;direction:ltr;block-progression:tb;writing-mode:lr-tb;text-anchor:start;color:#000000;fill:#eeebac;fill-opacity:0.31578944;stroke:none;stroke-width:0.1;marker:none;visibility:visible;display:inline;overflow:visible;enable-background:accumulate;font-family:AlArabiya;-inkscape-font-specification:AlArabiya" />
      <path
         d="M 5,2.46875 4.875,2.5625 C 5.4305558,3.2322095 6.0294768,3.8929372 6.5,4.625 5.8517236,4.0397532 5.02886,3.579821 4.46875,2.90625 l -0.1875,0.125 C 4.3492613,3.1020934 4.4046744,3.1872412 4.4375,3.25 5.6218071,4.7011771 6.9457691,6.03204 8.03125,7.5625 7.6008173,7.6578992 7.3899777,7.1976149 7.1875,6.90625 6.8563968,6.5513767 6.4588534,6.263893 6.125,5.90625 5.337935,5.130606 4.6087605,4.2893779 3.90625,3.4375 L 3.8125,3.5 C 4.1896397,3.9710412 4.5929484,4.4100648 4.9375,4.90625 5.766826,5.8665051 6.690432,6.7355537 7.375,7.8125 7.4226552,7.812183 7.4709862,7.8242562 7.5,7.84375 7.2651118,7.5498044 7.0248863,7.2690191 6.84375,6.9375 6.749901,6.7827237 6.3390686,6.3220636 6.4375,6.34375 7.0283084,6.8722215 7.5092576,7.5276094 8.09375,8.0625 8.4634877,7.7690756 7.9198295,7.3031773 8.03125,6.96875 6.8568696,5.888465 5.9915334,4.5152118 4.8125,3.4375 5.50473,3.8869925 6.1025948,4.4604964 6.75,4.96875 7.2004097,5.6022761 7.7211117,6.1908203 8.09375,6.875 8.1214747,6.8448341 8.1413613,6.8079704 8.1875,6.78125 8.2551821,6.2823469 7.1921086,6.0320646 7.5625,5.59375 8.0270742,5.657452 8.1956601,6.2292778 8.59375,6.4375 c 0.2493572,0.22305 0.4133651,0.5605287 0.6875,0.75 L 9.34375,7.09375 C 9.117516,6.7597049 8.8130586,6.4726621 8.5625,6.15625 7.4107149,4.8916471 6.1396375,3.7440174 5,2.46875 z M 8.09375,6.875 c -0.030568,0.03326 -0.050271,0.057045 -0.0625,0.09375 0.08688,0.079919 0.1591776,0.1738007 0.25,0.25 C 8.2288198,7.0990824 8.1557437,6.988823 8.09375,6.875 z M 5.6875,3.375 C 6.3635919,4.0419964 7.0860755,4.672508 7.65625,5.4375 6.7502233,5.0382804 6.2815099,4.1071961 5.6875,3.375 z M 5.09375,3.90625 C 5.7668577,4.5104301 6.2941473,5.249125 6.875,5.9375 6.3218545,5.2248415 5.6854217,4.5857164 5.09375,3.90625 z m -1.8125,0.0625 -0.09375,0.0625 c 1.3240279,1.3894341 2.6482325,2.7625558 4.03125,4.09375 0.040503,0.1649704 0.3155006,0.4190061 0.5,0.46875 L 7.875,8.4375 C 7.87379,8.405825 7.885202,8.387041 7.875,8.34375 7.7742363,8.2030589 7.6704868,8.0730493 7.5625,7.9375 7.6416479,8.126558 7.4477746,8.4542703 7.3125,8.09375 5.9537436,6.7277346 4.5995855,5.3740288 3.28125,3.96875 z M 3.15625,4.0625 3.09375,4.125 C 4.0739076,5.374738 5.124716,6.5917887 6.0625,7.875 5.1117763,7.0718052 4.2644455,6.1469553 3.4375,5.21875 3.2103893,4.9583835 2.9989393,4.6745633 2.78125,4.40625 L 2.65625,4.5 C 3.9337033,6.2119168 5.6709141,7.5563442 6.9375,9.28125 l 0.125,-0.125 C 6.2627033,8.1440271 5.6514013,6.9643149 4.75,6.03125 4.2052252,5.3801485 3.668328,4.7398691 3.15625,4.0625 z"
         id="path3894"
         style="font-size:medium;font-style:normal;font-variant:normal;font-weight:normal;font-stretch:normal;text-indent:0;text-align:start;text-decoration:none;line-height:normal;letter-spacing:normal;word-spacing:normal;text-transform:none;direction:ltr;block-progression:tb;writing-mode:lr-tb;text-anchor:start;color:#000000;fill:#746429;fill-opacity:0.20300754;stroke:none;stroke-width:0.1;marker:none;visibility:visible;display:inline;overflow:visible;enable-background:accumulate;font-family:AlArabiya;-inkscape-font-specification:AlArabiya" />
      <path
         d="m 8.71875,5.75 -0.125,0.0625 -2.75,2.875 c 0.5317098,0.5085644 1.190887,1.1418996 1.3125,1.25 0.4537815,0.403361 2.8303573,2.325368 3.6875,3.03125 0.857143,0.705883 2.779149,2.454569 3.03125,2.65625 0.252101,0.201681 0.178309,0.353729 0.53125,0.65625 0.352941,0.302521 0.75499,0.50499 0.90625,0.65625 0.151261,0.151261 0.322479,0.572479 0.625,0.875 0.768147,-0.994574 1.438191,-1.605664 2,-2 -0.172401,-0.151568 -0.477978,-0.457382 -0.53125,-0.5 C 17.154149,15.110819 16.877101,14.927521 16.625,14.625 16.3729,14.322479 16.076681,14.076681 15.875,13.875 15.673319,13.67332 15.535452,13.460872 15.03125,12.90625 14.527048,12.351628 10.641281,7.8671219 10.1875,7.3125 9.7337184,6.7578782 8.71875,5.75 8.71875,5.75 z"
         id="path3780"
         style="fill:#d5c5b8;fill-opacity:1;stroke:none;display:inline" />
      <path
         d="M 8.25,6.1875 6.28125,8.21875 c 1.2681422,1.1497459 1.53125,1.84375 1.53125,1.84375 0,0 0.6358801,-0.2156673 1.4375,0.375 0.80162,0.590667 1.935868,1.478058 2.90625,2.40625 0.970382,0.928191 2.090607,2.11406 2.34375,2.15625 0.253143,0.04219 0.08903,0.256225 0.46875,0.59375 0.379715,0.337524 0.84375,0.625 0.84375,0.625 0,0 0.01717,0.193725 0.3125,0.53125 0.0886,0.101257 0.209318,0.208432 0.375,0.375 0.191537,-0.216807 0.35421,-0.391118 0.53125,-0.5625 -0.187768,-0.20029 -0.321773,-0.384274 -0.40625,-0.46875 -0.253143,-0.253143 -0.5,-0.25 -0.5,-0.25 0,0 -0.107772,-0.326523 -0.65625,-0.875 -0.411357,-0.411358 -0.583076,-0.408621 -0.65625,-0.375 C 14.856009,14.518598 14.822716,14.260216 14,13.4375 12.903047,12.340546 10.512512,9.5187984 10.34375,8.84375 10.174988,8.1687017 10,7.53125 10,7.53125 c 0,0 -0.271736,0.084325 -1.75,-1.34375 z"
         id="path3966-0"
         style="fill:#02090c;fill-opacity:0.51127822;stroke:none;display:inline" />
      <path
         d="m 8.1875,6.0625 a 0.12658422,0.12658422 0 0 0 0,0.03125 0.12658422,0.12658422 0 0 0 -0.03125,0 L 6.1875,8.125 a 0.12658422,0.12658422 0 0 0 -0.03125,0.0625 0.12658422,0.12658422 0 0 0 0,0.03125 0.12658422,0.12658422 0 0 0 0,0.03125 0.12658422,0.12658422 0 0 0 0.03125,0.03125 0.12658422,0.12658422 0 0 0 0,0.03125 c 0.6279097,0.5692868 1.0002809,1.0347699 1.21875,1.34375 0.2184691,0.3089801 0.28125,0.4375 0.28125,0.4375 a 0.12658422,0.12658422 0 0 0 0.03125,0.03125 0.12658422,0.12658422 0 0 0 0,0.03125 0.12658422,0.12658422 0 0 0 0.03125,0.03125 0.12658422,0.12658422 0 0 0 0.03125,0 0.12658422,0.12658422 0 0 0 0.03125,0 0.12658422,0.12658422 0 0 0 0.03125,0 c 0,0 0.1371697,-0.04953 0.375,-0.03125 0.2378303,0.01828 0.5867295,0.09351 0.96875,0.375 0.7987843,0.588578 1.9111,1.484259 2.875,2.40625 0.483315,0.462301 1.002742,0.986786 1.4375,1.40625 0.217379,0.209732 0.43381,0.396126 0.59375,0.53125 0.07997,0.06756 0.124532,0.113782 0.1875,0.15625 0.06297,0.04247 0.115901,0.08182 0.1875,0.09375 0.04398,0.0073 0.05613,0.02363 0.0625,0.03125 0.0064,0.0076 0.01197,0.01136 0.03125,0.0625 0.03857,0.102274 0.105943,0.285146 0.3125,0.46875 0.366229,0.325536 0.789481,0.559828 0.84375,0.59375 0.0065,0.03104 7.83e-4,0.058 0.03125,0.125 0.04687,0.103076 0.126483,0.260621 0.28125,0.4375 0.09697,0.110826 0.211852,0.21098 0.375,0.375 a 0.12658422,0.12658422 0 0 0 0.03125,0.03125 0.12658422,0.12658422 0 0 0 0.03125,0 0.12658422,0.12658422 0 0 0 0.03125,0 0.12658422,0.12658422 0 0 0 0.03125,0 0.12658422,0.12658422 0 0 0 0.03125,0 0.12658422,0.12658422 0 0 0 0.03125,-0.03125 c 0.190281,-0.215385 0.357186,-0.393999 0.53125,-0.5625 a 0.12658422,0.12658422 0 0 0 0.03125,-0.03125 0.12658422,0.12658422 0 0 0 0,-0.03125 0.12658422,0.12658422 0 0 0 0,-0.03125 0.12658422,0.12658422 0 0 0 0,-0.03125 0.12658422,0.12658422 0 0 0 0,-0.03125 A 0.12658422,0.12658422 0 0 0 17.125,16.46875 C 16.943133,16.274754 16.820878,16.102127 16.71875,16 16.577447,15.858697 16.422247,15.786274 16.3125,15.75 c -0.05636,-0.01863 -0.05818,-0.02679 -0.09375,-0.03125 -0.01671,-0.03994 -0.05459,-0.07677 -0.125,-0.1875 -0.100862,-0.158618 -0.251062,-0.376062 -0.53125,-0.65625 -0.212005,-0.212005 -0.373855,-0.318284 -0.5,-0.375 -0.05094,-0.0229 -0.08085,-0.0261 -0.125,-0.03125 -0.0141,-0.06816 -0.03616,-0.153679 -0.09375,-0.25 -0.115178,-0.192641 -0.334561,-0.459561 -0.75,-0.875 -0.542613,-0.542613 -1.402925,-1.513657 -2.15625,-2.4375 -0.376663,-0.461922 -0.737783,-0.9085761 -1,-1.28125 C 10.675283,9.2523261 10.49892,8.9331802 10.46875,8.8125 10.299542,8.1356683 10.125,7.5 10.125,7.5 A 0.12658422,0.12658422 0 0 0 10.09375,7.4375 0.12658422,0.12658422 0 0 0 10.0625,7.40625 a 0.12658422,0.12658422 0 0 0 -0.03125,0 0.12658422,0.12658422 0 0 0 -0.03125,0 c -0.00102,-4.79e-5 -0.026282,-5.684e-4 -0.03125,0 C 9.9359563,7.3965224 9.8698862,7.3559322 9.75,7.28125 9.5102276,7.1318856 9.0791994,6.8042299 8.34375,6.09375 a 0.12658422,0.12658422 0 0 0 -0.0625,-0.03125 0.12658422,0.12658422 0 0 0 -0.03125,0 0.12658422,0.12658422 0 0 0 -0.03125,0 0.12658422,0.12658422 0 0 0 -0.03125,0 z"
         id="path4044"
         style="fill:#02090c;fill-opacity:0.51127822;stroke:none;display:inline" />
      <path
         d="M 8.25,6.1875 6.28125,8.21875 c 1.2681422,1.1497459 1.53125,1.84375 1.53125,1.84375 0,0 0.6358801,-0.2156673 1.4375,0.375 0.80162,0.590667 1.935868,1.478058 2.90625,2.40625 0.970382,0.928191 2.090607,2.11406 2.34375,2.15625 0.253143,0.04219 0.08903,0.256225 0.46875,0.59375 0.379715,0.337524 0.84375,0.625 0.84375,0.625 0,0 0.01717,0.193725 0.3125,0.53125 0.0886,0.101257 0.209318,0.208432 0.375,0.375 0.191537,-0.216807 0.35421,-0.391118 0.53125,-0.5625 -0.187768,-0.20029 -0.321773,-0.384274 -0.40625,-0.46875 -0.253143,-0.253143 -0.5,-0.25 -0.5,-0.25 0,0 -0.107772,-0.326523 -0.65625,-0.875 -0.411357,-0.411358 -0.583076,-0.408621 -0.65625,-0.375 C 14.856009,14.518598 14.822716,14.260216 14,13.4375 12.903047,12.340546 10.512512,9.5187984 10.34375,8.84375 10.174988,8.1687017 10,7.53125 10,7.53125 c 0,0 -0.271736,0.084325 -1.75,-1.34375 z"
         id="path3966"
         style="fill:#02090c;fill-opacity:0.51127822;stroke:none;display:inline" />
      <path
         d="m 9.96875,7.40625 -2.25,2.71875 a 0.12658422,0.12658422 0 0 0 0,0.03125 0.12658422,0.12658422 0 0 0 0.03125,0.03125 0.12658422,0.12658422 0 0 0 0.03125,0 0.12658422,0.12658422 0 0 0 0.03125,0 0.12658422,0.12658422 0 0 0 0.03125,0 c 0,0 0.1371697,-0.04953 0.375,-0.03125 0.2378303,0.01828 0.5867295,0.09351 0.96875,0.375 0.035909,0.02646 0.087866,0.06607 0.125,0.09375 0.00588,0.0044 0.025343,-0.0044 0.03125,0 C 9.6449623,10.473355 9.9382209,10.271437 10.1875,10 10.413271,9.7541609 10.540863,9.4496286 10.625,9.125 10.544361,8.9835443 10.483835,8.8728401 10.46875,8.8125 10.299542,8.1356683 10.125,7.5 10.125,7.5 a 0.12658422,0.12658422 0 0 0 0,-0.03125 0.12658422,0.12658422 0 0 0 -0.03125,-0.03125 0.12658422,0.12658422 0 0 0 -0.03125,-0.03125 0.12658422,0.12658422 0 0 0 -0.03125,0 0.12658422,0.12658422 0 0 0 -0.03125,0 l -0.03125,0 z"
         id="path4071"
         style="fill:#7da5b5;fill-opacity:0.10150374;stroke:none" />
      <path
         d="m 8.1875,6.0625 a 0.12658422,0.12658422 0 0 0 0,0.03125 0.12658422,0.12658422 0 0 0 -0.03125,0 L 7,7.28125 c 0.1357742,0.1362845 0.3872373,0.4044154 0.78125,0.8125 0.479437,0.4965597 0.1225462,1.4962805 -0.1875,1.875 0.013773,0.024475 0.09375,0.125 0.09375,0.125 a 0.12658422,0.12658422 0 0 0 0.03125,0.03125 0.12658422,0.12658422 0 0 0 0,0.03125 0.12658422,0.12658422 0 0 0 0.03125,0.03125 0.12658422,0.12658422 0 0 0 0.03125,0 0.12658422,0.12658422 0 0 0 0.03125,0 0.12658422,0.12658422 0 0 0 0.03125,0 c 0,0 0.1371697,-0.04953 0.375,-0.03125 0.1783727,0.01371 0.4170589,0.04673 0.6875,0.1875 C 9.5056198,10.34094 9.7716758,10.166532 9.59375,9.6875 9.3677855,9.0791342 9.3400493,9.2052557 9.53125,8.875 9.7224507,8.5447442 9.8785138,7.7285435 9.84375,8.25 c -0.034764,0.5214565 0.319154,1.1869392 0.5625,1.65625 0.243347,0.469311 0.63184,1.145708 0.71875,1.25 0.08691,0.104291 -0.135915,-0.906998 0.28125,-0.28125 0.403873,0.605809 1.762303,2.087832 2.96875,2.78125 -0.08933,-0.0968 -0.161573,-0.192823 -0.28125,-0.3125 -0.542613,-0.542613 -1.402925,-1.513657 -2.15625,-2.4375 -0.376663,-0.461922 -0.737783,-0.9085761 -1,-1.28125 C 10.675283,9.2523261 10.49892,8.9331802 10.46875,8.8125 10.299542,8.1356683 10.125,7.5 10.125,7.5 a 0.12658422,0.12658422 0 0 0 0,-0.03125 0.12658422,0.12658422 0 0 0 -0.03125,-0.03125 0.12658422,0.12658422 0 0 0 -0.03125,-0.03125 0.12658422,0.12658422 0 0 0 -0.03125,0 0.12658422,0.12658422 0 0 0 -0.03125,0 c -0.00102,-4.79e-5 -0.026282,-5.684e-4 -0.03125,0 C 9.9359563,7.3965224 9.8698862,7.3559322 9.75,7.28125 9.5102276,7.1318856 9.0791994,6.8042299 8.34375,6.09375 A 0.12658422,0.12658422 0 0 0 8.3125,6.0625 a 0.12658422,0.12658422 0 0 0 -0.03125,0 0.12658422,0.12658422 0 0 0 -0.03125,0 0.12658422,0.12658422 0 0 0 -0.03125,0 0.12658422,0.12658422 0 0 0 -0.03125,0 z"
         id="path4044-9"
         style="fill:#e1eff5;fill-opacity:0.12030077;stroke:none;display:inline" />
      <path
         d="M 8.0626035,6.2534262 6.40625,8.09375 C 7.3080724,8.9540411 7.96875,9.875 7.96875,9.875 l 1.8021178,-2.2465738 -1.7082643,-1.375 z"
         id="path3969"
         style="fill:#db8c47;fill-opacity:0.4323308;stroke:none;display:inline" />
      <path
         d="m 11.157467,11.365321 3.281609,3.162277"
         id="path4096"
         style="fill:none;stroke:#70441a;stroke-width:0.60000002;stroke-linecap:round;stroke-linejoin:miter;stroke-miterlimit:4;stroke-opacity:0.4661654;stroke-dasharray:none" />
      <path
         d="m 15.005899,15.124254 0.626489,0.566823"
         id="path4098"
         style="fill:none;stroke:#70441a;stroke-width:0.60000002;stroke-linecap:round;stroke-linejoin:miter;stroke-miterlimit:4;stroke-opacity:0.4661654;stroke-dasharray:none" />
      <path
         d="m 16.467706,16.377231 0.298328,0.328161"
         id="path4100"
         style="fill:none;stroke:#70441a;stroke-width:0.60000002;stroke-linecap:round;stroke-linejoin:miter;stroke-miterlimit:4;stroke-opacity:0.4661654;stroke-dasharray:none" />
      <path
         d="m 11.992786,12.230472 2.386624,2.267293"
         id="path4105"
         style="fill:none;stroke:#c8b297;stroke-width:0.5;stroke-linecap:round;stroke-linejoin:miter;stroke-miterlimit:4;stroke-opacity:0.48120303;stroke-dasharray:none" />
      <path
         d="m 15.095397,15.213752 0.596656,0.53699"
         id="path4108"
         style="fill:none;stroke:#c8b297;stroke-width:0.5;stroke-linecap:round;stroke-linejoin:miter;stroke-miterlimit:4;stroke-opacity:0.48120303;stroke-dasharray:none" />
      <path
         d="m 16.378208,16.317566 0.387826,0.417659"
         id="path4110"
         style="fill:none;stroke:#c8b297;stroke-width:0.5;stroke-linecap:round;stroke-linejoin:miter;stroke-miterlimit:4;stroke-opacity:0.48120303;stroke-dasharray:none" />
      <path
         d="m 13.434615,13.405258 0.996057,0.947468"
         id="path4112"
         style="fill:none;stroke:#f1f1f1;stroke-width:0.40000001;stroke-linecap:round;stroke-linejoin:miter;stroke-miterlimit:4;stroke-opacity:0.32706766;stroke-dasharray:none" />
      <path
         d="M 15.402434,15.300195 15.839727,15.6889"
         id="path4127"
         style="color:#000000;fill:none;stroke:#f1f1f1;stroke-width:0.40000001;stroke-linecap:round;stroke-linejoin:miter;stroke-miterlimit:4;stroke-opacity:0.32706766;stroke-dasharray:none;stroke-dashoffset:0;marker:none;visibility:visible;display:inline;overflow:visible;enable-background:accumulate" />
      <path
         d="m 16.519961,16.369133 0.437293,0.340117"
         id="path4137"
         style="color:#000000;fill:none;stroke:#f1f1f1;stroke-width:0.40000001;stroke-linecap:round;stroke-linejoin:miter;stroke-miterlimit:4;stroke-opacity:0.32706766;stroke-dasharray:none;stroke-dashoffset:0;marker:none;visibility:visible;display:inline;overflow:visible;enable-background:accumulate" />
      <path
         d="m 10.033447,7.7204477 0.12147,0.7409689"
         id="path4147"
         style="fill:none;stroke:#e6e6e6;stroke-width:0.2;stroke-linecap:round;stroke-linejoin:miter;stroke-miterlimit:4;stroke-opacity:0.95112783;stroke-dasharray:none" />
      <path
         d="M 9.1675674,8.5212017 9.6417111,7.9390697"
         id="path3974"
         style="fill:none;stroke:#f6e2e2;stroke-width:0.30000001;stroke-linecap:round;stroke-linejoin:miter;stroke-miterlimit:4;stroke-opacity:0.43984961;stroke-dasharray:none;display:inline" />
      <path
         d="M 8.1699665,9.6953437 8.6963487,9.0760452"
         id="path3972"
         style="fill:none;stroke:#f6e2e2;stroke-width:0.30000001;stroke-linecap:round;stroke-linejoin:miter;stroke-miterlimit:4;stroke-opacity:0.43984961;stroke-dasharray:none;display:inline" />
      <path
         d="m 13.917188,15.687763 c 0.05373,-0.411963 1.612029,-1.98817 2.059816,-1.826966"
         id="path4151"
         style="fill:none;stroke:#4a4a4a;stroke-width:0.2;stroke-linecap:butt;stroke-linejoin:miter;stroke-miterlimit:4;stroke-opacity:0.36842107;stroke-dasharray:none" />
      <path
         d="m 15.054564,16.857769 c 0.05373,-0.411963 1.612029,-1.98817 2.059816,-1.826966"
         id="path4151-9"
         style="fill:none;stroke:#4a4a4a;stroke-width:0.2;stroke-linecap:butt;stroke-linejoin:miter;stroke-miterlimit:4;stroke-opacity:0.36842107;stroke-dasharray:none;display:inline" />
      <path
         d="m 14.12317,15.800994 c 0.05373,-0.411963 1.612029,-1.98817 2.059816,-1.826966"
         id="path4151-5"
         style="fill:none;stroke:#fafafa;stroke-width:0.30000001;stroke-linecap:butt;stroke-linejoin:miter;stroke-miterlimit:4;stroke-opacity:0.54511276;stroke-dasharray:none;display:inline" />
      <path
         d="m 15.144121,17.072707 c 0.05373,-0.411963 1.612029,-1.98817 2.059816,-1.826966"
         id="path4151-5-7"
         style="fill:none;stroke:#fafafa;stroke-width:0.30000001;stroke-linecap:butt;stroke-linejoin:miter;stroke-miterlimit:4;stroke-opacity:0.42481205;stroke-dasharray:none;display:inline" />
      <path
         d="m 16.371056,15.634029 0.447786,-0.304494"
         id="path4207"
         style="fill:none;stroke:#fbfbfb;stroke-width:0.5;stroke-linecap:round;stroke-linejoin:miter;stroke-miterlimit:4;stroke-opacity:0.73684208;stroke-dasharray:none" />
      <path
         d="m 16.522696,17.231775 c 0,0 28.173315,27.590783 28.649931,28.173314 0.476616,0.582531 0.635488,0 0.264787,-0.476616 C 45.066712,44.451857 17.317056,16.331499 17.317056,16.331499 l -0.79436,0.900276 z"
         id="path4209"
         style="fill:#000000;fill-opacity:0.31578944;stroke:none;display:inline" />
      <path
         d="m 27.3125,26.46875 -0.65625,0.59375 1.4375,1.40625 0.625,-0.625 -1.40625,-1.375 z m 1.46875,1.4375 -0.59375,0.625 L 28.375,28.75 29,28.15625 l -0.21875,-0.25 z m 0.375,0.375 -0.625,0.625 0.1875,0.15625 0.59375,-0.59375 -0.15625,-0.1875 z m 0.3125,0.3125 -0.59375,0.625 0.09375,0.0625 0.59375,-0.59375 -0.09375,-0.09375 z m 0.375,0.375 L 29.25,29.5625 29.59375,29.90625 30.1875,29.3125 29.84375,28.96875 z M 30.25,29.40625 29.65625,30 29.78125,30.09375 30.375,29.5 30.25,29.40625 z m 0.28125,0.21875 -0.625,0.625 0.28125,0.21875 0.59375,-0.59375 -0.25,-0.25 z m 0.53125,0.53125 -0.59375,0.625 0.09375,0.0625 L 31.125,30.25 31.0625,30.15625 z m 0.15625,0.15625 -0.59375,0.59375 0.0625,0.0625 0.59375,-0.5625 -0.0625,-0.09375 z m 0.34375,0.375 -0.59375,0.5625 0.15625,0.15625 0.59375,-0.59375 -0.15625,-0.125 z m 0.21875,0.1875 -0.59375,0.59375 0.125,0.09375 L 31.875,31 31.78125,30.875 z M 32,31.125 l -0.5625,0.59375 0.15625,0.125 0.5625,-0.5625 L 32,31.125 z M 32.3125,31.40625 31.71875,32 l 0.125,0.09375 0.5625,-0.5625 -0.09375,-0.125 z m 0.1875,0.1875 -0.59375,0.59375 0.4375,0.40625 L 32.90625,32 32.5,31.59375 z m 0.53125,0.5625 -0.5625,0.5625 0.09375,0.0625 0.5625,-0.5625 -0.09375,-0.0625 z m 0.375,0.34375 -0.5625,0.5625 0.375,0.375 0.5625,-0.5625 -0.375,-0.375 z m 0.46875,0.46875 -0.5625,0.5625 0.09375,0.125 L 34,33.0625 33.875,32.96875 z m 0.28125,0.25 -0.5625,0.5625 0.09375,0.125 0.5625,-0.5625 -0.09375,-0.125 z m 0.1875,0.1875 -0.5625,0.5625 0.21875,0.25 0.5625,-0.5625 -0.21875,-0.25 z m 0.3125,0.3125 -0.59375,0.5625 0.25,0.21875 0.5625,-0.5625 -0.21875,-0.21875 z m 0.3125,0.3125 -0.5625,0.5625 1.375,1.34375 0.53125,-0.5625 -1.34375,-1.34375 z"
         id="path4212"
         style="fill:#a0a8af;fill-opacity:1;stroke:none;display:inline" />
      <g
         transform="matrix(0.74200805,-0.67039097,0.67039097,0.74200805,0,0)"
         id="text4547"
         style="font-size:1.10815847px;font-style:normal;font-weight:bold;fill:#c9cdcf;fill-opacity:1;stroke:none;display:inline;font-family:Bitstream Vera Sans;-inkscape-font-specification:Sans Bold">
        <path
           d="m 0.92569042,29.429077 c 0.0579827,0.02285 0.14473128,0.0259 0.17272668,-0.04228 0.034125,-0.08165 0.00502,-0.169799 0.011245,-0.254995 0,-0.07496 0,-0.149919 0,-0.224879 -0.054555,0.03924 -0.1557524,0.05254 -0.1939493,-0.01478 -0.009648,-0.07549 0.0862671,-0.104482 0.1410609,-0.129435 0.089363,-0.03491 0.199515,0.0037 0.2419684,0.09107 0.046249,0.08262 0.034842,0.182433 0.00427,0.268142 -0.02486,0.111397 -0.012703,0.25766 0.097156,0.319469 0.041855,0.02279 0.1184016,0.0056 0.083129,0.0775 -0.032851,0.07019 -0.1240942,0.06093 -0.1894346,0.0599 -0.1025453,-0.0095 -0.2050916,-0.0091 -0.30773394,-0.0032 -0.0799892,0.01065 -0.0652653,-0.06764 -0.0604388,-0.118152 1.5e-7,-0.0094 3e-7,-0.01891 4.5e-7,-0.02834 z"
           id="path4566" />
        <path
           d="m 1.8855894,29.419878 c 0.1184994,0 0.2369987,0 0.3554981,0 0.033861,0.07175 -0.014169,0.159012 -0.097744,0.154477 -0.086325,0.0071 -0.1735728,-0.0036 -0.2594935,-0.0044 -0.071172,-0.0098 -0.1469105,0.0272 -0.2145422,-0.0054 -0.052374,-0.05464 -0.00728,-0.142983 0.033807,-0.192043 0.088265,-0.105787 0.2370275,-0.154586 0.2975586,-0.283931 0.027911,-0.06793 0.011401,-0.178364 -0.079849,-0.180569 -0.082107,-0.01589 -0.166563,0.0176 -0.2473783,-0.0019 -0.031605,-0.05518 0.043788,-0.130999 0.098306,-0.146844 0.1449657,-0.04857 0.3259508,-0.01006 0.4235517,0.111852 0.05796,0.07294 0.043981,0.176962 -0.00422,0.251001 -0.067354,0.13009 -0.2013586,0.201841 -0.3054959,0.297805"
           id="path4568" />
      </g>
      <g
         transform="matrix(0.71815832,0.69587976,-0.69587976,0.71815832,0,0)"
         id="text4551"
         style="font-size:0.9140386px;font-style:normal;font-weight:bold;fill:#acb2b5;fill-opacity:1;stroke:none;display:inline;font-family:Bitstream Vera Sans;-inkscape-font-specification:Sans Bold">
        <path
           d="m 30.833842,0.2886864 c 0.28245,-0.23216122 -0.370207,-0.0653045 0,0 z m 0.0058,0.29143917 c 0.283727,-0.12166679 -0.177142,-0.22450216 -0.107494,-0.05151 0.03224,0.0240216 0.07001,0.0382636 0.107494,0.05151 z M 30.99943,0.34045821 c 0.254606,0.23160886 -0.155686,0.44594443 -0.362163,0.32017409 -0.224302,-0.10878847 -0.12859,-0.4518455 -0.0176,-0.60463851 0.167286,-0.13735923 0.611075,0.01474286 0.411396,0.25314675 l -0.03163,0.0313177 z"
           id="path4571"
           style="fill:#acb2b5;fill-opacity:1" />
        <path
           d="M 31.50732,0.32617627 C 31.805589,0.21414426 31.275778,0.11813294 31.45306,0.29417217 l 0.02427,0.0154427 0.02999,0.0165615 z m -0.0723,0.11871783 c 0.0079,0.23906662 -0.186628,0.18140127 -0.177686,-0.019856 -0.09172,-0.23756131 0.105666,-0.60431135 0.366322,-0.3682285 0.152719,0.12329056 0.216648,0.533506 0.07892,0.61199226 C 31.574222,0.64284651 31.582651,0.42475276 31.43502,0.4448941 z"
           id="path4573"
           style="fill:#acb2b5;fill-opacity:1" />
        <path
           d="m 31.966571,0.03072043 c 0.277113,0.02392371 0.234631,0.3995576 0.105633,0.56040539 -0.177548,0.0592316 -0.08691,-0.27593572 -0.105633,-0.4068773 0,-0.051176 0,-0.10235206 0,-0.15352809 z"
           id="path4575"
           style="fill:#acb2b5;fill-opacity:1" />
        <path
           d="m 32.771264,0.0516969 c -0.04494,0.12126964 -0.421267,0.16294105 -0.141467,0.24927328 0.336965,0.0764754 0.10901,0.44868879 -0.155523,0.37485311 -0.233241,-0.001581 0.0021,-0.12148601 0.102961,-0.11570144 -0.243091,-0.14205434 -0.378973,-0.65480113 0.05526,-0.53566646 0.04626,0.0090805 0.09251,0.01816101 0.138769,0.02724151 z"
           id="path4577"
           style="fill:#acb2b5;fill-opacity:1" />
        <path
           d="m 32.886858,0.03072043 c 0.155196,0.06546943 0.519207,-0.1176893 0.554839,0.06983631 -0.24326,0.0779619 -0.15468,0.41090054 -0.245146,0.55452272 -0.137944,-0.18894912 -0.03295,-0.51237395 -0.318026,-0.58321168 0.0028,-0.01371542 0.0055,-0.02743797 0.0083,-0.04114735 z"
           id="path4579"
           style="fill:#acb2b5;fill-opacity:1" />
        <path
           d="m 33.589347,0.03072043 c 0.299117,0.07820355 0.118955,0.52207137 0.362056,0.63360018 0.05531,0.0198793 -0.394158,0.14278062 -0.373491,-0.10584552 -0.02693,-0.17534456 0.01791,-0.35184908 0.01143,-0.52775466 z"
           id="path4581"
           style="fill:#acb2b5;fill-opacity:1" />
        <path
           d="m 34.171332,0.03072043 c 0.142121,-0.08359714 0.634754,0.05136798 0.275022,0.15720553 -0.218464,0.012247 0.306588,0.12848721 0.02761,0.25183838 -0.31873,0.1010971 0.258958,0.10203207 0.0665,0.23953131 -0.2296,0.0935966 -0.55327,-0.12802324 -0.369897,-0.37765331 0.0013,-0.0903004 5.96e-4,-0.18062616 7.57e-4,-0.27092191 z"
           id="path4583"
           style="fill:#acb2b5;fill-opacity:1" />
        <path
           d="m 35.113935,0.03072043 c 0.180995,0.0064307 0.349738,0.47663739 0.433708,0.10104711 0.189904,-0.14472586 0.228796,0.31874537 0.156951,0.4631815 -0.148647,0.25539763 -0.235258,-0.37558536 -0.410804,-0.0867253 -0.05352,0.12681917 -0.205809,0.21186502 -0.18544,0.006082 -0.0114,-0.16108736 0.01726,-0.32220334 0.0056,-0.48358487 z"
           id="path4585"
           style="fill:#acb2b5;fill-opacity:1" />
        <path
           d="m 36.284154,0.57566239 c -0.202348,0.0945262 -0.589373,0.0967583 -0.390875,-0.22257869 0.01761,-0.20866544 0.263256,-0.47982645 0.405227,-0.18890075 0.06637,0.12165815 0.259215,0.46544634 0.08609,0.51197363 -0.03997,-0.0262449 -0.07058,-0.0638038 -0.100441,-0.10049419 z M 36.058325,0.4520351 c 0.250767,0.10697838 0.101746,-0.3125926 -0.002,-0.12084771 -0.0068,0.040143 -0.0033,0.0808611 0.002,0.12084771 z"
           id="path4587"
           style="fill:#acb2b5;fill-opacity:1" />
        <path
           d="m 36.586751,0.03072043 c 0.277113,0.02392424 0.23463,0.39955744 0.105632,0.56040519 -0.177547,0.0592313 -0.08691,-0.27593563 -0.105632,-0.4068771 0,-0.051176 0,-0.10235206 0,-0.15352809 z"
           id="path4589"
           style="fill:#acb2b5;fill-opacity:1" />
        <path
           d="M 37.17186,0.32617627 C 37.470128,0.21414406 36.940318,0.11813318 37.117604,0.2941722 l 0.02427,0.0154426 0.02999,0.0165614 z m -0.0723,0.11871783 c 0.0079,0.2390674 -0.186625,0.18140074 -0.177684,-0.0198556 -0.09172,-0.23756179 0.105663,-0.60431166 0.36632,-0.36822847 0.16552,0.11392094 0.181939,0.54060404 0.09964,0.59303951 -0.10389,-0.0566848 -0.1952,-0.13267947 -0.288304,-0.20495548"
           id="path4591"
           style="fill:#acb2b5;fill-opacity:1" />
      </g>
      <g
         transform="matrix(0.63260645,0.62709078,-0.79035051,0.79730214,0,0)"
         id="text4555"
         style="font-size:0.63097763px;font-style:normal;font-weight:bold;fill:#b0b6b8;fill-opacity:0.87218047;stroke:none;display:inline;font-family:Bitstream Vera Sans;-inkscape-font-specification:Sans Bold">
        <path
           d="m 57.313709,-0.31986435 c 0.531158,-0.3219252 0.06922,0.85433936 0.167204,0.13354852 l -0.06132,-0.0731691 -0.105888,-0.0603794 z"
           id="path4594"
           style="fill:#b0b6b8;fill-opacity:0.87218047" />
        <path
           d="m 57.929898,-0.06568635 c -0.280782,0.17999167 0.284171,0.12207293 0,0 z m -0.08658,-0.03912801 c -0.0049,-0.55932902 0.608868,0.42112124 0.0019,0.23801263 -0.126555,-0.03609605 -0.130187,-0.20839844 -0.0019,-0.23801261 m 0.02773,-0.0921203 c 0.137328,0.22466658 0.09665,-0.22428652 0,0 z"
           id="path4596"
           style="fill:#b0b6b8;fill-opacity:0.87218047" />
        <path
           d="m 58.439178,-0.09033392 c -0.137411,-0.37422973 -0.132678,0.45064131 0,0 z m 0.118616,9.2429e-4 c -0.147056,0.62987281 -0.680219,-0.52219305 -0.04653,-0.17207983 0.04171,0.0452987 0.06271,0.11147745 0.04653,0.17207983 z"
           id="path4598"
           style="fill:#b0b6b8;fill-opacity:0.87218047" />
        <path
           d="m 58.807351,-0.06568635 c -0.280772,0.17999416 0.284177,0.12206816 0,0 z m -0.08657,-0.03912801 c -0.0049,-0.55932811 0.608869,0.42111743 0.0019,0.23801337 -0.126553,-0.03609564 -0.130188,-0.20839699 -0.0019,-0.23801335 m 0.02773,-0.0921203 c 0.137327,0.22466767 0.09665,-0.22428807 0,0 z"
           id="path4600"
           style="fill:#b0b6b8;fill-opacity:0.87218047" />
        <path
           d="m 59.316631,-0.09033392 c -0.13856,-0.37416849 -0.131201,0.45179744 0,0 z m 0.118617,9.2429e-4 c -0.147059,0.62987622 -0.680229,-0.52219533 -0.04653,-0.17208097 0.04171,0.0452985 0.06272,0.11147832 0.04653,0.17208097 z"
           id="path4602"
           style="fill:#b0b6b8;fill-opacity:0.87218047" />
        <path
           d="m 59.697436,-0.22219838 c -0.225597,0.13679148 0.05468,0.31932649 0,0 z m -0.01972,-0.097666 c 0.498288,0.14180912 -0.229926,0.72508311 -0.144132,0.20321667 0.04546,-0.0697438 0.110398,-0.12563537 0.144132,-0.20321667 z"
           id="path4604"
           style="fill:#b0b6b8;fill-opacity:0.87218047" />
        <path
           d="m 60.085635,0.05293005 c 0.380076,0.08441627 -0.440698,0.11470434 0.01758,-0.1625849 -0.213139,-0.53841438 0.51489,0.06107612 -0.01758,0.1625849 z"
           id="path4606"
           style="fill:#b0b6b8;fill-opacity:0.87218047" />
        <path
           d="m 60.384795,-0.31986435 c 0.531158,-0.32192519 0.06921,0.854339 0.167205,0.1335485 l -0.06132,-0.073169 -0.105888,-0.0603795 z"
           id="path4608"
           style="fill:#b0b6b8;fill-opacity:0.87218047" />
        <path
           d="m 61.071538,-0.09033392 c -0.13856,-0.37416843 -0.131201,0.45179745 0,0 z m 0.118616,9.2429e-4 c -0.147059,0.62987605 -0.680228,-0.52219585 -0.04653,-0.17208129 0.04171,0.0452986 0.06272,0.11147854 0.04653,0.17208129 z"
           id="path4610"
           style="fill:#b0b6b8;fill-opacity:0.87218047" />
        <path
           d="m 61.513962,-0.10789531 c 0.360948,0.17244883 -0.494298,0.34432997 -0.08401,0.13851038 7.19e-4,-0.24825618 -0.228527,-0.49777368 0.161616,-0.27229832 0.04688,0.0551807 -0.03143,0.12145412 -0.07761,0.13378794 z"
           id="path4612"
           style="fill:#b0b6b8;fill-opacity:0.87218047" />
        <path
           d="m 61.840542,0.05293005 c 0.380077,0.08441686 -0.440701,0.11470378 0.01758,-0.16258534 -0.213145,-0.53841122 0.514887,0.06107404 -0.01758,0.16258534 z"
           id="path4614"
           style="fill:#b0b6b8;fill-opacity:0.87218047" />
        <path
           d="m 62.139702,-0.31986435 c 0.531158,-0.32192519 0.06921,0.854339 0.167205,0.1335485 l -0.06132,-0.073169 -0.105888,-0.0603795 z"
           id="path4616"
           style="fill:#b0b6b8;fill-opacity:0.87218047" />
      </g>
    </g>
    <g
       id="layer3"
       style="display:inline">
      <path
         d="m 8.71875,5.75 -0.125,0.0625 -2.75,2.875 c 0.5317098,0.5085644 1.190887,1.1418996 1.3125,1.25 0.4537815,0.403361 2.8303573,2.325368 3.6875,3.03125 0.857143,0.705883 2.779149,2.454569 3.03125,2.65625 0.252101,0.201681 0.178309,0.353729 0.53125,0.65625 0.352941,0.302521 0.75499,0.50499 0.90625,0.65625 0.151261,0.151261 0.395361,0.645361 0.697882,0.947882 0.768147,-0.994574 1.438191,-1.605664 2,-2 C 17.837981,15.733814 17.459522,15.355118 17.40625,15.3125 17.154149,15.110819 16.877101,14.927521 16.625,14.625 16.3729,14.322479 16.076681,14.076681 15.875,13.875 15.673319,13.67332 15.535452,13.460872 15.03125,12.90625 14.527048,12.351628 10.641281,7.8671219 10.1875,7.3125 9.7337184,6.7578782 8.71875,5.75 8.71875,5.75 z"
         id="path3780-9"
         style="fill:none;stroke:#525757;stroke-width:0.30000001;stroke-miterlimit:4;stroke-opacity:1;stroke-dasharray:none;display:inline" />
      <path
         d="m 45.882353,44.470588 c 0.907563,0.907563 -0.504202,1.815126 -1.109244,1.260504 C 44.168067,45.176471 20.722689,22.537815 19.159664,20.97479 17.596639,19.411765 16.235294,18.10084 15.932773,17.798319 15.630252,17.495798 15.478992,17.092437 15.327731,16.941176 15.176471,16.789916 14.773109,16.588235 14.420168,16.285714 14.067227,15.983193 14.117647,15.831933 13.865546,15.630252 13.613445,15.428571 11.697479,13.663866 10.840336,12.957983 9.9831933,12.252101 7.6134454,10.336134 7.1596639,9.9327729 6.7058824,9.5294115 2.2689076,5.2436973 2.2689076,5.2436973 l 0.1008403,-0.3025211 0.1008403,0.05042 0,-0.302521 L 3.3781513,3.8823525 3.5798319,4.033613 3.4789916,3.7815122 4.0840336,3.2773105 4.184874,3.3781508 4.184874,3.12605 5.1932773,2.3193275 5.394958,2.168067 8.5210084,5.8487393 8.7226891,5.7478989 c 0,0 1.0084033,1.0084034 1.4621849,1.5630252 0.453781,0.5546219 4.336134,5.0420169 4.840336,5.5966389 0.504202,0.554622 0.655462,0.756303 0.857143,0.957983 0.201681,0.201681 0.504202,0.453782 0.756302,0.756303 0.252101,0.302521 0.504202,0.504201 0.756303,0.705882 0.252101,0.201681 2.067227,1.815126 3.277311,3.02521 1.210084,1.210084 7.512605,7.512605 9.327731,9.428572 1.815126,1.915966 15.12605,15.831932 15.882353,16.689075 z"
         id="path2978-7"
         style="fill:none;stroke:#0e0f0f;stroke-width:0.5;stroke-miterlimit:4;stroke-opacity:1;stroke-dasharray:none;display:inline" />
    </g>
  </g>
</svg>
