<?xml version="1.0" encoding="UTF-8" standalone="no"?>
<!-- Created with Inkscape (http://www.inkscape.org/) -->

<svg
   xmlns:svg="http://www.w3.org/2000/svg"
   xmlns="http://www.w3.org/2000/svg"
   xmlns:xlink="http://www.w3.org/1999/xlink"
   version="1.0"
   width="100%"
   height="100%"
   viewBox="0 0 48 48"
   id="_stabilo01"
   style="display:inline">
  <defs
     id="defs2385">
    <filter
       color-interpolation-filters="sRGB"
       id="filter4022">
      <feBlend
         in2="BackgroundImage"
         mode="screen"
         id="feBlend4024" />
    </filter>
    <clipPath
       id="clipPath3129">
      <rect
         width="48"
         height="48"
         ry="0"
         x="0"
         y="0"
         id="r3131"
         style="fill:#000000;fill-opacity:1;fill-rule:evenodd;stroke:#d7d7d7;stroke-width:0.91000003;stroke-linecap:round;stroke-linejoin:miter;stroke-miterlimit:4;stroke-opacity:0.86000001;stroke-dasharray:none;stroke-dashoffset:0;marker:none;visibility:visible;display:inline;overflow:visible;enable-background:accumulate" />
    </clipPath>
    <linearGradient
       x1="45.91"
       y1="45.650002"
       x2="6.23"
       y2="2.4300001"
       id="lg2418"
       xlink:href="#lg3892"
       gradientUnits="userSpaceOnUse" />
    <linearGradient
       id="lg3920-2">
      <stop
         id="s3922-8"
         style="stop-color:#000000;stop-opacity:1"
         offset="0" />
      <stop
         id="s3924-9"
         style="stop-color:#363838;stop-opacity:1"
         offset="1" />
    </linearGradient>
    <linearGradient
       x1="24.280001"
       y1="6.8600001"
       x2="24.280001"
       y2="37.880001"
       id="lg3926-9"
       xlink:href="#lg3920-2"
       gradientUnits="userSpaceOnUse" />
    <linearGradient
       x1="24.280001"
       y1="6.8600001"
       x2="24.280001"
       y2="37.880001"
       id="lg3926"
       xlink:href="#lg3920"
       gradientUnits="userSpaceOnUse" />
    <linearGradient
       x1="45.91"
       y1="45.650002"
       x2="6.23"
       y2="2.4300001"
       id="lg3898"
       xlink:href="#lg3892"
       gradientUnits="userSpaceOnUse" />
    <linearGradient
       id="lg3892">
      <stop
         id="s3894"
         style="stop-color:#050707;stop-opacity:1"
         offset="0" />
      <stop
         id="s3896"
         style="stop-color:#d6d6d6;stop-opacity:1"
         offset="1" />
    </linearGradient>
    <linearGradient
       id="lg3920">
      <stop
         id="s3922"
         style="stop-color:#000000;stop-opacity:1"
         offset="0" />
      <stop
         id="s3924"
         style="stop-color:#363838;stop-opacity:1"
         offset="1" />
    </linearGradient>
    <linearGradient
       x1="23.870001"
       y1="21.450001"
       x2="23.870001"
       y2="41.560001"
       id="lg2479"
       xlink:href="#lg3934"
       gradientUnits="userSpaceOnUse" />
    <linearGradient
       x1="9.8900003"
       y1="9.3900003"
       x2="40.07"
       y2="9.3900003"
       id="lg2475"
       xlink:href="#lg4189"
       gradientUnits="userSpaceOnUse" />
    <linearGradient
       x1="9.8900003"
       y1="9.3900003"
       x2="40.07"
       y2="9.3900003"
       id="lg4195"
       xlink:href="#lg4189"
       gradientUnits="userSpaceOnUse" />
    <linearGradient
       x1="23.870001"
       y1="21.450001"
       x2="23.870001"
       y2="41.560001"
       id="lg3940"
       xlink:href="#lg3934"
       gradientUnits="userSpaceOnUse" />
    <linearGradient
       id="lg3934">
      <stop
         id="s3936"
         style="stop-color:#772527;stop-opacity:1"
         offset="0" />
      <stop
         id="s3938"
         style="stop-color:#ff9f46;stop-opacity:1"
         offset="1" />
    </linearGradient>
    <linearGradient
       id="lg4189">
      <stop
         id="s4191"
         style="stop-color:#db2525;stop-opacity:1"
         offset="0" />
      <stop
         id="s4201"
         style="stop-color:#decd0e;stop-opacity:1"
         offset="0.25" />
      <stop
         id="s4203"
         style="stop-color:#36e41f;stop-opacity:1"
         offset="0.37" />
      <stop
         id="s4197"
         style="stop-color:#28ddbe;stop-opacity:1"
         offset="0.5" />
      <stop
         id="s4199"
         style="stop-color:#232bd8;stop-opacity:1"
         offset="0.75" />
      <stop
         id="s4193"
         style="stop-color:#dc2eb6;stop-opacity:1"
         offset="1" />
    </linearGradient>
    <linearGradient
       id="lg4189-954">
      <stop
         id="s2453"
         style="stop-color:#5b5b5b;stop-opacity:1"
         offset="0" />
      <stop
         id="s2455"
         style="stop-color:#bcbcbc;stop-opacity:1"
         offset="0.25" />
      <stop
         id="s2457"
         style="stop-color:#9a9a9a;stop-opacity:1"
         offset="0.37" />
      <stop
         id="s2459"
         style="stop-color:#a3a3a3;stop-opacity:1"
         offset="0.5" />
      <stop
         id="s2461"
         style="stop-color:#3c3c3c;stop-opacity:1"
         offset="0.75" />
      <stop
         id="s2463"
         style="stop-color:#727272;stop-opacity:1"
         offset="1" />
    </linearGradient>
    <linearGradient
       x1="9.8900003"
       y1="9.3900003"
       x2="40.07"
       y2="9.3900003"
       id="lg2475-51"
       xlink:href="#lg4189-954"
       gradientUnits="userSpaceOnUse" />
    <linearGradient
       id="lg3934-130">
      <stop
         id="s2447"
         style="stop-color:#3e3e3e;stop-opacity:1"
         offset="0" />
      <stop
         id="s2449"
         style="stop-color:#b2b2b2;stop-opacity:1"
         offset="1" />
    </linearGradient>
    <linearGradient
       x1="23.870001"
       y1="21.450001"
       x2="23.870001"
       y2="41.560001"
       id="lg2479-392"
       xlink:href="#lg3934-130"
       gradientUnits="userSpaceOnUse" />
    <linearGradient
       x1="23.870001"
       y1="21.450001"
       x2="23.870001"
       y2="41.560001"
       id="lg3444"
       xlink:href="#lg3934"
       gradientUnits="userSpaceOnUse" />
    <linearGradient
       x1="9.8900003"
       y1="9.3900003"
       x2="40.07"
       y2="9.3900003"
       id="lg3442"
       xlink:href="#lg4189"
       gradientUnits="userSpaceOnUse" />
    <linearGradient
       x1="9.8900003"
       y1="9.3900003"
       x2="40.07"
       y2="9.3900003"
       id="lg3440"
       xlink:href="#lg4189"
       gradientUnits="userSpaceOnUse" />
    <linearGradient
       x1="23.870001"
       y1="21.450001"
       x2="23.870001"
       y2="41.560001"
       id="lg3438"
       xlink:href="#lg3934"
       gradientUnits="userSpaceOnUse" />
    <linearGradient
       id="lg3432">
      <stop
         id="s3434"
         style="stop-color:#3e3e3e;stop-opacity:1"
         offset="0" />
      <stop
         id="s3436"
         style="stop-color:#b2b2b2;stop-opacity:1"
         offset="1" />
    </linearGradient>
    <linearGradient
       id="lg3418">
      <stop
         id="s3420"
         style="stop-color:#5b5b5b;stop-opacity:1"
         offset="0" />
      <stop
         id="s3422"
         style="stop-color:#bcbcbc;stop-opacity:1"
         offset="0.25" />
      <stop
         id="s3424"
         style="stop-color:#9a9a9a;stop-opacity:1"
         offset="0.37" />
      <stop
         id="s3426"
         style="stop-color:#a3a3a3;stop-opacity:1"
         offset="0.5" />
      <stop
         id="s3428"
         style="stop-color:#3c3c3c;stop-opacity:1"
         offset="0.75" />
      <stop
         id="s3430"
         style="stop-color:#727272;stop-opacity:1"
         offset="1" />
    </linearGradient>
    <linearGradient
       id="linearGradient2916">
      <stop
         id="stop2918"
         style="stop-color:#5b5b5b;stop-opacity:1"
         offset="0" />
      <stop
         id="stop2920"
         style="stop-color:#bcbcbc;stop-opacity:1"
         offset="0.25" />
      <stop
         id="stop2922"
         style="stop-color:#9a9a9a;stop-opacity:1"
         offset="0.37" />
      <stop
         id="stop2924"
         style="stop-color:#a3a3a3;stop-opacity:1"
         offset="0.5" />
      <stop
         id="stop2926"
         style="stop-color:#3c3c3c;stop-opacity:1"
         offset="0.75" />
      <stop
         id="stop2928"
         style="stop-color:#727272;stop-opacity:1"
         offset="1" />
    </linearGradient>
    <linearGradient
       id="linearGradient2910">
      <stop
         id="stop2912"
         style="stop-color:#3e3e3e;stop-opacity:1"
         offset="0" />
      <stop
         id="stop2914"
         style="stop-color:#b2b2b2;stop-opacity:1"
         offset="1" />
    </linearGradient>
    <linearGradient
       x1="23.870001"
       y1="21.450001"
       x2="23.870001"
       y2="41.560001"
       id="linearGradient2908"
       xlink:href="#lg3934"
       gradientUnits="userSpaceOnUse" />
    <linearGradient
       x1="9.8900003"
       y1="9.3900003"
       x2="40.07"
       y2="9.3900003"
       id="linearGradient2906"
       xlink:href="#lg4189"
       gradientUnits="userSpaceOnUse" />
    <linearGradient
       x1="9.8900003"
       y1="9.3900003"
       x2="40.07"
       y2="9.3900003"
       id="linearGradient2904"
       xlink:href="#lg4189"
       gradientUnits="userSpaceOnUse" />
    <linearGradient
       x1="23.870001"
       y1="21.450001"
       x2="23.870001"
       y2="41.560001"
       id="linearGradient2902"
       xlink:href="#lg3934"
       gradientUnits="userSpaceOnUse" />
    <linearGradient
       x1="23.870001"
       y1="21.450001"
       x2="23.870001"
       y2="41.560001"
       id="linearGradient2900"
       xlink:href="#lg3934-130"
       gradientUnits="userSpaceOnUse" />
    <linearGradient
       id="linearGradient2894">
      <stop
         id="stop2896"
         style="stop-color:#3e3e3e;stop-opacity:1"
         offset="0" />
      <stop
         id="stop2898"
         style="stop-color:#b2b2b2;stop-opacity:1"
         offset="1" />
    </linearGradient>
    <linearGradient
       x1="9.8900003"
       y1="9.3900003"
       x2="40.07"
       y2="9.3900003"
       id="linearGradient2892"
       xlink:href="#lg4189-954"
       gradientUnits="userSpaceOnUse" />
    <linearGradient
       id="linearGradient2878">
      <stop
         id="stop2880"
         style="stop-color:#5b5b5b;stop-opacity:1"
         offset="0" />
      <stop
         id="stop2882"
         style="stop-color:#bcbcbc;stop-opacity:1"
         offset="0.25" />
      <stop
         id="stop2884"
         style="stop-color:#9a9a9a;stop-opacity:1"
         offset="0.37" />
      <stop
         id="stop2886"
         style="stop-color:#a3a3a3;stop-opacity:1"
         offset="0.5" />
      <stop
         id="stop2888"
         style="stop-color:#3c3c3c;stop-opacity:1"
         offset="0.75" />
      <stop
         id="stop2890"
         style="stop-color:#727272;stop-opacity:1"
         offset="1" />
    </linearGradient>
    <linearGradient
       id="linearGradient2864">
      <stop
         id="stop2866"
         style="stop-color:#db2525;stop-opacity:1"
         offset="0" />
      <stop
         id="stop2868"
         style="stop-color:#decd0e;stop-opacity:1"
         offset="0.25" />
      <stop
         id="stop2870"
         style="stop-color:#36e41f;stop-opacity:1"
         offset="0.37" />
      <stop
         id="stop2872"
         style="stop-color:#28ddbe;stop-opacity:1"
         offset="0.5" />
      <stop
         id="stop2874"
         style="stop-color:#232bd8;stop-opacity:1"
         offset="0.75" />
      <stop
         id="stop2876"
         style="stop-color:#dc2eb6;stop-opacity:1"
         offset="1" />
    </linearGradient>
    <linearGradient
       id="linearGradient2858">
      <stop
         id="stop2860"
         style="stop-color:#772527;stop-opacity:1"
         offset="0" />
      <stop
         id="stop2862"
         style="stop-color:#ff9f46;stop-opacity:1"
         offset="1" />
    </linearGradient>
    <linearGradient
       x1="23.870001"
       y1="21.450001"
       x2="23.870001"
       y2="41.560001"
       id="linearGradient2856"
       xlink:href="#lg3934"
       gradientUnits="userSpaceOnUse" />
    <linearGradient
       x1="9.8900003"
       y1="9.3900003"
       x2="40.07"
       y2="9.3900003"
       id="linearGradient2854"
       xlink:href="#lg4189"
       gradientUnits="userSpaceOnUse" />
    <linearGradient
       x1="9.8900003"
       y1="9.3900003"
       x2="40.07"
       y2="9.3900003"
       id="linearGradient2852"
       xlink:href="#lg4189"
       gradientUnits="userSpaceOnUse" />
    <linearGradient
       x1="23.870001"
       y1="21.450001"
       x2="23.870001"
       y2="41.560001"
       id="linearGradient2850"
       xlink:href="#lg3934"
       gradientUnits="userSpaceOnUse" />
    <linearGradient
       id="linearGradient2844">
      <stop
         id="stop2846"
         style="stop-color:#000000;stop-opacity:1"
         offset="0" />
      <stop
         id="stop2848"
         style="stop-color:#363838;stop-opacity:1"
         offset="1" />
    </linearGradient>
    <linearGradient
       id="linearGradient2838">
      <stop
         id="stop2840"
         style="stop-color:#050707;stop-opacity:1"
         offset="0" />
      <stop
         id="stop2842"
         style="stop-color:#d6d6d6;stop-opacity:1"
         offset="1" />
    </linearGradient>
    <linearGradient
       x1="45.91"
       y1="45.650002"
       x2="6.23"
       y2="2.4300001"
       id="linearGradient2836"
       xlink:href="#lg3892"
       gradientUnits="userSpaceOnUse" />
    <linearGradient
       x1="24.280001"
       y1="6.8600001"
       x2="24.280001"
       y2="37.880001"
       id="linearGradient2834"
       xlink:href="#lg3920"
       gradientUnits="userSpaceOnUse" />
    <linearGradient
       x1="24.280001"
       y1="6.8600001"
       x2="24.280001"
       y2="37.880001"
       id="linearGradient2832"
       xlink:href="#lg3920-2"
       gradientUnits="userSpaceOnUse" />
    <linearGradient
       id="linearGradient2826">
      <stop
         id="stop2828"
         style="stop-color:#000000;stop-opacity:1"
         offset="0" />
      <stop
         id="stop2830"
         style="stop-color:#363838;stop-opacity:1"
         offset="1" />
    </linearGradient>
    <linearGradient
       x1="45.91"
       y1="45.650002"
       x2="6.23"
       y2="2.4300001"
       id="linearGradient2824"
       xlink:href="#lg3892"
       gradientUnits="userSpaceOnUse" />
    <clipPath
       id="clipPath2820">
      <rect
         width="48"
         height="48"
         ry="0"
         x="0"
         y="0"
         id="rect2822"
         style="fill:#000000;fill-opacity:1;fill-rule:evenodd;stroke:#d7d7d7;stroke-width:0.91000003;stroke-linecap:round;stroke-linejoin:miter;stroke-miterlimit:4;stroke-opacity:0.86000001;stroke-dasharray:none;stroke-dashoffset:0;marker:none;visibility:visible;display:inline;overflow:visible;enable-background:accumulate" />
    </clipPath>
    <filter
       color-interpolation-filters="sRGB"
       id="filter2816">
      <feBlend
         in2="BackgroundImage"
         mode="screen"
         id="feBlend2818" />
    </filter>
  </defs>
  <path
     d="M 0,0 0,48 48,48 48,0 0,0 z m 11.4375,27.71875 c 5.060395,-1e-6 9.15625,4.095855 9.15625,9.15625 1e-6,5.060395 -4.095855,9.15625 -9.15625,9.15625 -5.0603956,10e-7 -9.15625,-4.095855 -9.15625,-9.15625 10e-8,-5.060395 4.0958546,-9.15625 9.15625,-9.15625 z"
     id="rect2533"
     style="fill:#ffffff;fill-opacity:1;fill-rule:evenodd;stroke:none;stroke-width:1;marker:none;visibility:visible;display:inline;overflow:visible;enable-background:accumulate" />
  <rect
     width="47.5"
     height="47.5"
     ry="4"
     x="0.25"
     y="0.25"
     id="r3365"
     style="fill:none;stroke:#000000;stroke-width:0.5;stroke-linecap:round;stroke-linejoin:miter;stroke-miterlimit:4;stroke-opacity:1;stroke-dasharray:none;stroke-dashoffset:0;marker:none;visibility:visible;display:inline;overflow:visible;enable-background:accumulate" />
  <path
     d="m 6.5278546,7.0363228 c 0.08,-1.26 0.98,-2.31 1.3,-2.27 0.31,0.04 1.91,2.15 1.91,2.15 0,0 0.5900004,-0.2 0.9400004,0.04 0.36,0.23 1.86,1.89 2.63,2.7 0.78,0.8300002 1.04,0.9600002 2.94,1.4500002 1.28,0.34 2.69,1.31 3.75,2.35 2.11,2.07 20.91,23.12 21.33,23.48 0.78,0.67 -1.8,2.74 -3.01,3.76 -1.22,1.01 -3.29,3.05 -3.92,2.42 -0.62,-0.62 -20.19,-22.19 -21.13,-23.44 -0.94,-1.25 -1.73,-2.51 -1.88,-3.88 -0.16,-1.37 0,-1.91 -1.14,-3.2 -1.1300004,-1.3 -2.5000004,-2.7400002 -2.5000004,-3.1400002 0,-0.39 0.12,-0.82 0.12,-0.82 l -1.34,-1.6 z"
     id="p2482"
     style="fill:#89b79b;fill-opacity:0.98000004;fill-rule:evenodd;stroke:none" />
  <path
     d="m 7.8078546,4.7763228 c -0.31,-0.04 -1.2,1 -1.28,2.25 l 1.34,1.63 c 0,0 -0.12,0.42 -0.12,0.81 0,0.39 1.36,1.8300002 2.5000004,3.1200002 1.13,1.3 0.97,1.85 1.12,3.22 0.04,0.34 0.14,0.67 0.25,1 1.43,-1.85 3.59,-3.83 5.5,-5.37 -0.29,-0.14 -0.58,-0.24 -0.87,-0.31 -1.89,-0.5 -2.15,-0.64 -2.94,-1.4700002 -0.77,-0.81 -2.27,-2.46 -2.62,-2.69 -0.36,-0.24 -0.9400004,-0.06 -0.9400004,-0.06 0,0 -1.63,-2.09 -1.94,-2.13 z"
     id="p3259"
     style="fill:#b6b3ac;fill-opacity:1;fill-rule:evenodd;stroke:none" />
  <path
     d="m 34.337855,29.186323 c -0.38,0.45 -0.87,0.94 -1.47,1.5 l 0.32,0.34 c 0.59,-0.53 1.11,-1.02 1.5,-1.44 -0.19,-0.2 -0.16,-0.2 -0.35,-0.4 z m 0.78,0.84 c -0.4,0.44 -0.92,0.93 -1.53,1.47 l 0.5,0.53 c 0.59,-0.56 1.08,-1.08 1.44,-1.53 -0.2,-0.23 -0.2,-0.24 -0.41,-0.47 z m 0.82,0.94 c -0.39,0.46 -0.88,0.96 -1.47,1.53 l 0.56,0.63 c 0.59,-0.56 1.1,-1.09 1.47,-1.54 -0.25,-0.27 -0.3,-0.33 -0.56,-0.62 z m 1,1.09 c -0.39,0.47 -0.91,0.98 -1.5,1.53 l 0.68,0.75 c 0.6,-0.6 1.07,-1.15 1.41,-1.62 -0.23,-0.25 -0.34,-0.38 -0.59,-0.66 z m 1.03,1.13 c -0.36,0.48 -0.83,1.03 -1.41,1.62 l 0.63,0.75 c 0.57,-0.61 1.06,-1.17 1.4,-1.65 -0.19,-0.22 -0.4,-0.47 -0.62,-0.72 z m -9.25,0.87 c -0.38,0.28 -0.69,0.53 -1.1,0.82 -0.12,0.1 -0.29,0.24 -0.4,0.34 0.12,0.14 0.15,0.17 0.28,0.31 0.54,-0.4 1,-0.75 1.5,-1.12 l -0.28,-0.35 z m 10.31,0.32 c -0.36,0.5 -0.83,1.07 -1.41,1.68 l 0.91,1 c 0.58,-0.63 1.03,-1.21 1.38,-1.72 -0.17,-0.17 -0.65,-0.71 -0.88,-0.96 z m -9.59,0.5 c -0.5,0.38 -0.96,0.72 -1.5,1.12 0.2,0.22 0.23,0.28 0.43,0.5 0.55,-0.36 1.05,-0.72 1.54,-1.06 l -0.47,-0.56 z m 10.87,0.93 c -1.14,1.66 -3.28,3.94 -7,6.1 0.19,0.2 1.06,1.18 1.1,1.22 0.62,0.62 2.69,-1.42 3.9,-2.44 1.21,-1.02 3.82,-3.09 3.03,-3.75 -0.02,-0.02 -0.88,-0.97 -1.03,-1.13 z m -10,0.07 c -0.48,0.34 -0.99,0.7 -1.53,1.06 0.27,0.29 0.33,0.36 0.59,0.65 0.53,-0.35 1.02,-0.71 1.5,-1.06 l -0.56,-0.65 z m 0.97,1.12 c -0.48,0.34 -0.98,0.68 -1.5,1.03 0.27,0.3 0.37,0.44 0.63,0.72 0.54,-0.33 1.04,-0.67 1.53,-1 l -0.66,-0.75 z m 1.09,1.22 c -0.48,0.32 -0.98,0.67 -1.53,1 0.3,0.32 0.53,0.56 0.78,0.84 0.53,-0.33 1.01,-0.67 1.47,-1 l -0.72,-0.84 z m 1.16,1.34 c -0.47,0.33 -0.97,0.64 -1.5,0.97 0.25,0.28 0.69,0.74 0.88,0.94 0.53,-0.31 1.03,-0.6 1.5,-0.91 l -0.88,-1 z"
     id="p3261"
     style="fill:#0b0b0b;fill-opacity:0.98000004;fill-rule:evenodd;stroke:none" />
  <path
     d="m 7.8078546,4.7763228 c -0.31,-0.04 -1.2,1 -1.28,2.25 l 1.34,1.63 c 0,0 -0.03,0.11 -0.06,0.28 0.66,-0.8 1.37,-1.51 2.13,-2.06 -0.07,0.01 -0.19,0.03 -0.19,0.03 0,0 -1.63,-2.09 -1.94,-2.13 z"
     id="p3257"
     style="fill:#0b0b0b;fill-opacity:0.98000004;fill-rule:evenodd;stroke:none;display:inline" />
  <path
     d="m 8.3078546,5.2163228 c -0.49,0.51 -0.58,0.87 -0.44,1.06 0.07,0.09 0.68,0.77 1.19,1.31 0.28,-0.26 0.58,-0.5 0.88,-0.71 -0.07,0.01 -0.19,0.03 -0.19,0.03 0,0 -0.85,-1.07 -1.44,-1.69 z m -0.9,1.66 c 0,-0.01 -0.35,0.05 -0.75,0.31 l 1.21,1.47 c 0,0 -0.03,0.11 -0.06,0.28 0.21,-0.26 0.44,-0.49 0.66,-0.72 l -1.06,-1.34 z"
     id="p3326"
     style="fill:#5e5e5e;fill-opacity:0.41000001;fill-rule:evenodd;stroke:none;display:inline" />
  <path
     d="m 8.9678546,9.0263228 c -0.27,0.03 -0.58,0.47 -0.88,1.0600002 0.48,0.64 1.37,1.6 2.1600004,2.5 0.16,0.19 0.29,0.34 0.41,0.5 2.09,0.38 1.46,-0.84 1.03,-1.28 -0.52,-0.52 -2.0800004,-2.3600002 -2.5300004,-2.7500002 -0.06,-0.05 -0.13,-0.04 -0.19,-0.03 z"
     id="p3329"
     style="fill:#fafafa;fill-opacity:0.82999998;fill-rule:evenodd;stroke:none;display:inline" />
  <path
     d="m 10.837855,7.0863228 c -0.62,0.24 -1.0900004,0.6 -1.0900004,0.82 0,0.38 2.1400004,2.6700002 2.5900004,3.0600002 0.39,0.33 1.9,1.69 1.22,-1.0900002 -0.08,-0.08 -0.16,-0.13 -0.25,-0.22 -0.7,-0.75 -1.98,-2.15 -2.47,-2.57 z"
     id="p3332"
     style="fill:#fafafa;fill-opacity:0.82999998;fill-rule:evenodd;stroke:none;display:inline" />
  <path
     d="M 9.4178546,8.5563228 12.327855,11.726323"
     id="p3335"
     style="fill:none;stroke:#1f1f1f;stroke-width:0.80000001;stroke-linecap:round;stroke-linejoin:miter;stroke-miterlimit:4;stroke-opacity:0.31999996;stroke-dasharray:none;display:inline" />
  <path
     d="m 29.077855,26.886323 c -0.61,-0.27 -1.32,-0.15 -1.98,-0.16 0.1,-0.34 1.24,-0.57 0.57,-0.85 -0.88,-0.07 -1.48,0.38 -2.37,0.59 -0.4,0.01 -0.6,0.51 -0.07,0.37 0.74,-0.14 1.21,-0.7 1.95,-0.66 -0.24,0.17 -1.1,0.71 -0.47,0.89 0.38,0.09 1.03,-0.25 1.26,0.08 -0.49,0.32 -1.13,0.54 -1.45,1.04 0.28,0.44 0.73,-0.27 1.07,-0.41 0.44,-0.34 0.94,-0.57 1.43,-0.8 l 0.04,-0.04 0.02,-0.05 0,0 z m 2.8,2.87 c -0.79,0.08 -1.52,0.49 -2.3,0.62 -0.29,-0.04 -0.76,0.41 -0.24,0.38 0.3,-0.13 1.05,-0.31 0.57,0.21 -0.42,0.5 0.48,0.69 0.49,0.11 0.08,-0.68 0.66,-0.06 1.05,-0.31 0.14,-0.28 -0.93,-0.27 -0.36,-0.59 0.17,-0.06 1.1,-0.08 0.79,-0.42 z m 0.51,1.18 c -0.51,-0.25 -0.31,0.63 0.07,0.24 0.09,-0.08 0,-0.19 -0.07,-0.24 z m -0.12,0.67 c -0.57,0.07 -1.18,0.16 -1.67,0.52 0.42,0.27 0.98,-0.25 1.44,0.03 0.59,0.21 -0.14,0.56 -0.47,0.49 -0.51,0.38 0.41,0.32 0.65,0.19 0.42,-0.01 0.99,-0.61 0.38,-0.77 -0.22,-0.03 -0.59,-0.23 -0.25,-0.38 -0.01,-0.04 -0.05,-0.06 -0.08,-0.08 z m -2.71,-2.54 c -0.52,0.14 -1.13,0.12 -1.56,0.53 0.35,0.22 0.8,-0.09 1.2,-0.04 0.38,0.03 0.69,0.62 1.1,0.32 -0.12,-0.38 -0.82,-0.29 -0.74,-0.81 z m 4.55,4.32 c -0.5,0.08 -1.04,0.32 -1.52,0.11 -0.47,-0.4 0.47,-0.57 0.72,-0.33 0.14,0.13 0.62,0.33 0.5,-0.04 -0.33,-0.34 -0.88,-0.4 -1.35,-0.3 -0.52,0.03 -0.78,0.72 -0.17,0.81 0.33,0.36 -0.61,0.45 -0.86,0.34 -0.32,-0.07 -0.25,-0.87 -0.68,-0.42 -0.14,0.47 0.43,0.71 0.81,0.73 0.74,-0.01 1.43,-0.37 2.15,-0.54 0.15,-0.06 0.75,-0.15 0.4,-0.36 z m -5.4,-5.08 c -0.41,-0.33 -1.09,-0.32 -1.56,-0.01 -0.46,0.44 0.3,1.06 0.77,0.97 0.36,-0.18 1.06,-0.06 1.2,-0.51 -0.51,-0.17 -1.09,0.42 -1.56,0.06 -0.34,-0.53 0.78,-0.62 0.95,-0.22 0.22,0.19 0.64,-0.03 0.28,-0.24 l -0.08,-0.05 0,0 z m 2.98,2.83 c -0.5,0.18 -1.1,0.14 -1.51,0.55 0.47,0.21 0.98,-0.15 1.44,-0.3 0.24,-0.05 0.29,-0.14 0.07,-0.25 z"
     id="p3370"
     style="font-size:4px;font-style:normal;font-variant:normal;font-weight:bold;font-stretch:normal;fill:#000000;fill-opacity:1;stroke:none;display:inline;font-family:TSCu_Comic;-inkscape-font-specification:TSCu_Comic Bold" />
  <path
     d="m 25.107855,28.626323 c -0.49,-0.03 -1.71,-0.43 -0.82,-0.59 0.6,-0.14 1.46,0.33 0.82,0.59 z m -0.18,-0.17 c 0.34,-0.48 -0.86,-0.08 0,0 z m -0.03,1.01 c -0.87,-0.36 0.12,-1.1 0.82,-0.7 0.28,0.16 0.17,0.59 -0.13,0.2 -0.39,-0.18 -0.09,0.54 -0.48,0.13 -0.66,-0.34 0.29,0.41 -0.21,0.37 z m 0.68,0.72 c -0.19,-0.16 0.26,-0.64 -0.3,-0.45 -0.45,-0.63 1.78,-0.42 1.22,0.12 -0.24,0.17 -0.78,0.1 -0.92,0.33 z m 0.64,-0.39 c 0.44,-0.25 -0.82,-0.26 -0.13,-0.04 l 0.13,0.04 0,0 z m 0.24,1.33 c -0.37,-0.28 1.05,-0.44 0.1,-0.37 -0.71,0.06 -0.22,-0.39 -0.02,-0.46 -0.24,0.09 -1.01,0.15 -0.58,-0.12 0.43,-0.29 1.53,0.05 0.75,0.32 0.33,0.1 1.31,0.2 0.65,0.44 -0.29,0.07 -0.65,0.07 -0.9,0.19 z m 0.73,0.77 c 0.21,-0.31 -1.03,-0.79 -0.07,-0.76 0.78,-0.06 1.13,0.45 0.4,0.58 -0.11,0.06 -0.22,0.12 -0.33,0.18 z m 0.19,-0.39 c 0.83,-0.06 -0.41,-0.36 0,0 z m 0.44,1.06 c -0.37,-0.23 0.67,-0.7 -0.21,-0.53 -0.48,-0.14 1.06,-0.55 0.91,-0.09 -0.13,0.12 -0.33,0.43 0.16,0.27 0.88,-0.02 -0.71,0.31 -0.86,0.35 z m 0.65,0.69 c -0.88,-0.36 0.11,-1.1 0.82,-0.7 0.27,0.16 0.17,0.59 -0.13,0.2 -0.39,-0.18 -0.1,0.54 -0.48,0.12 -0.66,-0.33 0.29,0.42 -0.21,0.38 z m 0.64,0.68 c -0.36,-0.23 0.67,-0.69 -0.2,-0.52 -0.48,-0.15 1.05,-0.56 0.91,-0.1 -0.14,0.13 -0.34,0.43 0.15,0.27 0.88,-0.02 -0.71,0.31 -0.86,0.35 z m 1.56,0.43 c -0.14,-0.35 -1.44,0.12 -0.95,-0.2 0.42,-0.19 0.89,-0.54 1.11,0.08 0.04,0.07 -0.04,0.13 -0.16,0.12 z m 0.24,1.48 c -0.37,-0.28 1.05,-0.45 0.1,-0.37 -0.72,0.06 -0.23,-0.39 -0.03,-0.46 -0.24,0.08 -1,0.15 -0.58,-0.12 0.44,-0.29 1.53,0.05 0.76,0.32 0.32,0.1 1.31,0.2 0.64,0.43 -0.28,0.08 -0.65,0.08 -0.89,0.2 z m 0.72,0.77 c 0.21,-0.31 -1.03,-0.79 -0.07,-0.76 0.78,-0.06 1.13,0.45 0.41,0.57 -0.12,0.06 -0.22,0.13 -0.34,0.19 z m 0.2,-0.39 c 0.82,-0.06 -0.41,-0.36 0,0 z m 0.47,1.09 c -0.19,-0.15 0.26,-0.64 -0.3,-0.45 -0.46,-0.62 1.77,-0.42 1.21,0.13 -0.23,0.16 -0.77,0.1 -0.91,0.32 z m 0.64,-0.39 c 0.43,-0.24 -0.83,-0.26 -0.13,-0.04 l 0.13,0.04 0,0 z m 0.06,1.13 c -0.24,-0.16 0.28,-0.63 -0.34,-0.46 -0.66,-0.42 1.46,-0.49 0.66,-0.19 0.31,0.11 1.03,0.31 0.28,0.27 -0.31,0.05 -0.38,0.27 -0.6,0.38 z m 0.58,0.62 c -0.87,-0.36 0.12,-1.09 0.82,-0.69 0.28,0.16 0.17,0.59 -0.13,0.2 -0.39,-0.19 -0.1,0.53 -0.48,0.12 -0.66,-0.33 0.29,0.42 -0.21,0.37 z m 0.68,0.73 c -0.19,-0.16 0.26,-0.65 -0.3,-0.46 -0.46,-0.62 1.78,-0.42 1.22,0.13 -0.24,0.17 -0.78,0.1 -0.92,0.33 z m 0.64,-0.39 c 0.44,-0.25 -0.83,-0.26 -0.13,-0.05 l 0.13,0.05 0,0 z"
     id="text3378"
     style="font-size:1.73000002px;font-style:normal;font-variant:normal;font-weight:bold;font-stretch:normal;fill:#000000;fill-opacity:1;stroke:none;display:inline;font-family:UnBom;-inkscape-font-specification:UnBom Bold" />
  <path
     d="m 34.397855,35.136323 c -0.46,0.23 -1.03,0.27 -1.39,0 -0.15,-0.14 -0.28,-0.39 -0.12,-0.61 0.27,-0.41 0.79,-0.56 1.23,-0.61 0.36,-0.01 0.77,0.12 0.87,0.48 0.06,0.34 -0.3,0.61 -0.59,0.74 z m -0.28,-0.29 c 0.23,-0.02 0.47,-0.31 0.32,-0.5 -0.17,-0.24 -0.5,-0.05 -0.74,0.02 -0.19,0.09 -0.47,0.34 -0.37,0.55 0.17,0.14 0.46,0.08 0.67,-0.02 0.04,-0.02 0.08,-0.03 0.12,-0.05 z m 0.4,1.83 c -0.28,-0.13 -0.11,-0.49 0.09,-0.68 0.11,-0.16 0.46,-0.38 0.36,-0.54 -0.26,0.05 -0.48,0.26 -0.74,0.33 -0.15,0.25 -0.77,0.13 -0.4,-0.14 0.58,-0.17 1.09,-0.63 1.69,-0.7 0.35,0.02 0.2,0.46 -0.03,0.63 -0.09,0.11 -0.41,0.39 -0.23,0.45 0.3,-0.14 0.6,-0.37 0.92,-0.37 0.2,0.04 0.15,0.25 -0.05,0.27 -0.54,0.25 -1.08,0.5 -1.61,0.75 z m 2.97,0.3 c -0.56,0.09 -1.12,0.01 -1.67,0.23 -0.17,0.2 -0.47,0.23 -0.67,0.15 -0.23,-0.25 0.28,-0.32 0.44,-0.43 0.34,-0.2 0.55,-0.53 0.78,-0.83 0.25,-0.23 0.45,0.11 0.33,0.33 -0.02,0.17 -0.46,0.33 -0.15,0.39 0.25,-0.01 0.56,-0.17 0.78,-0.04 0.07,0.05 0.11,0.13 0.16,0.2 z m -0.81,1.97 c -0.24,-0.06 -0.3,-0.34 -0.14,-0.55 0.09,-0.15 0.34,-0.4 0.03,-0.31 -0.31,0.03 -0.7,0.12 -0.88,-0.15 -0.08,-0.15 0.31,-0.09 0.42,-0.1 0.36,0 0.81,0.05 1.08,-0.3 0.05,-0.25 0.39,-0.55 0.59,-0.32 0.21,0.21 -0.34,0.45 -0.15,0.62 0.22,-0.04 0.48,-0.15 0.67,0 0.15,0.04 0.21,0.27 -0.03,0.24 -0.27,-0.04 -0.56,-0.09 -0.83,0.07 -0.33,0.15 -0.56,0.46 -0.73,0.76 -0.01,0.02 -0.02,0.03 -0.03,0.04 z"
     id="text3389"
     style="font-size:4px;font-style:italic;font-variant:normal;font-weight:bold;font-stretch:normal;fill:#ffffff;fill-opacity:1;stroke:#121514;stroke-width:0.19;stroke-linecap:butt;stroke-linejoin:miter;stroke-miterlimit:4;stroke-opacity:1;stroke-dasharray:none;display:inline;font-family:UnBom;-inkscape-font-specification:Sans Italic" />
  <g
     transform="matrix(0.8722224,0,0,0.8722224,14.215036,0.74967245)"
     id="g3893">
    <path
       d="m 3.873699,18.171431 0.00893,0.01 c 0.09639,0.107561 0.08802,0.27189 -0.020205,0.368875 L 3.2442795,19.10425 C 3.1360545,19.20123 2.9711312,19.1922 2.8747413,19.08464 l -0.00892,-0.01 c -0.096985,-0.108225 -0.087356,-0.272484 0.020869,-0.369469 l 0.6181444,-0.553944 c 0.1082251,-0.09699 0.2718894,-0.08802 0.3688742,0.0202 z"
       id="r2481"
       style="color:#000000;fill:#f6be31;fill-opacity:1;fill-rule:evenodd;stroke:#000000;stroke-width:0.2;stroke-linecap:butt;stroke-linejoin:miter;stroke-miterlimit:4;stroke-opacity:1;stroke-dasharray:none;stroke-dashoffset:0;marker:none;visibility:visible;display:inline;overflow:visible;enable-background:accumulate" />
    <path
       d="m 5.523036,20.011921 0.00892,0.01 c 0.09639,0.107561 0.08802,0.271889 -0.020205,0.368874 l -0.6181444,0.553944 c -0.1082251,0.09699 -0.2731484,0.08795 -0.3695382,-0.01961 l -0.00893,-0.01 c -0.09639,-0.107562 -0.087356,-0.272485 0.020869,-0.36947 l 0.6181445,-0.553944 c 0.108225,-0.09698 0.2724844,-0.08736 0.3688742,0.02021 z"
       id="r3255"
       style="color:#000000;fill:#f6be31;fill-opacity:1;fill-rule:evenodd;stroke:#000000;stroke-width:0.2;stroke-linecap:butt;stroke-linejoin:miter;stroke-miterlimit:4;stroke-opacity:1;stroke-dasharray:none;stroke-dashoffset:0;marker:none;visibility:visible;display:inline;overflow:visible;enable-background:accumulate" />
    <path
       d="m 4.0588816,18.375404 c -0.00192,5.26e-4 -0.00266,0.0024 -0.00465,0.0042 l -1.1015055,0.987103 c -0.1075611,0.09639 -0.1172586,0.261908 -0.020869,0.369469 l 0.05593,0.06241 -0.3087402,0.276675 c -0.1082251,0.09699 -0.1172587,0.261908 -0.020274,0.370133 l 0.00893,0.01 c 0.096985,0.108225 0.2619081,0.117259 0.3701332,0.02027 l 0.3087402,-0.276674 0.1303048,0.145406 -0.3087402,0.276675 c -0.1082251,0.09699 -0.1172587,0.261908 -0.020274,0.370133 l 0.00893,0.01 c 0.096985,0.108225 0.2601231,0.115267 0.3683482,0.01828 l 0.3087402,-0.276674 0.048195,0.05378 c 0.096985,0.108225 0.2625721,0.116664 0.3701332,0.02027 L 5.353719,19.829757 c 0.00199,-0.0018 0.00332,-0.003 0.00465,-0.0042 L 4.0588816,18.375404 z"
       id="r3257"
       style="color:#000000;fill:#f6be31;fill-opacity:1;fill-rule:evenodd;stroke:#000000;stroke-width:0.2;stroke-linecap:butt;stroke-linejoin:miter;stroke-miterlimit:4;stroke-opacity:1;stroke-dasharray:none;stroke-dashoffset:0;marker:none;visibility:visible;display:inline;overflow:visible;enable-background:accumulate" />
    <path
       d="m 5.0978818,17.953107 c -0.00906,-0.0074 -0.019592,-0.01117 -0.031448,-0.01372 -0.046694,-0.01203 -0.093602,0.01445 -0.1056302,0.06114 l -0.05595,0.226121 c -0.2956757,-0.100166 -0.6162427,-0.05711 -0.845972,0.148756 l 1.2976926,1.448091 c 0.2303933,-0.206464 0.3090026,-0.523524 0.2405386,-0.829699 l 0.2264389,-0.03053 c 0.047728,-0.0069 0.079166,-0.05059 0.07231,-0.09832 -0.00619,-0.04832 -0.048601,-0.08095 -0.096329,-0.07409 L 5.5451905,18.82364 C 5.5005558,18.716388 5.436097,18.613733 5.3527971,18.520779 5.2683073,18.426497 5.1707885,18.351073 5.0671995,18.294259 l 0.06296,-0.250361 c 0.00889,-0.0355 -0.00495,-0.07098 -0.032278,-0.09079 z"
       id="p3274"
       style="color:#000000;fill:#f6be31;fill-opacity:1;fill-rule:evenodd;stroke:#000000;stroke-width:0.2;stroke-linecap:butt;stroke-linejoin:miter;stroke-miterlimit:4;stroke-opacity:1;stroke-dasharray:none;stroke-dashoffset:0;marker:none;visibility:visible;display:inline;overflow:visible;enable-background:accumulate" />
    <path
       d="m 4.817729,18.581365 c -0.041952,0.03759 -0.1055147,0.03509 -0.1419706,-0.0056 -0.036456,-0.04068 -0.032,-0.104136 0.00995,-0.141731 0.041952,-0.03759 0.1055146,-0.03509 0.1419705,0.0056 0.036456,0.04068 0.032,0.104137 -0.00995,0.141732 l 0,0 z"
       id="p3287"
       style="fill:#000000;fill-opacity:1;fill-rule:evenodd;stroke:none;marker:none;visibility:visible;display:inline;overflow:visible;enable-background:accumulate" />
    <path
       d="m 5.3389481,19.162992 c -0.041952,0.03759 -0.1055147,0.03509 -0.1419706,-0.0056 -0.036456,-0.04068 -0.032,-0.104136 0.00995,-0.141731 0.041952,-0.03759 0.1055146,-0.03509 0.1419705,0.0056 0.036456,0.04068 0.032,0.104137 -0.00995,0.141732 l 0,0 z"
       id="p3289"
       style="fill:#000000;fill-opacity:1;fill-rule:evenodd;stroke:none;marker:none;visibility:visible;display:inline;overflow:visible;enable-background:accumulate" />
  </g>
  <path
     d="m 17.927855,20.546323 c 0.75,0.82 4.65,5.03 4.96,5.41 0.32,0.37 4.4,-0.26 3.39,-1.45 -1,-1.19 -4.52,-4.96 -4.83,-5.4 -0.32,-0.44 -4.59,0.44 -3.52,1.44 z"
     id="p3400"
     style="fill:#f6be31;fill-opacity:1;fill-rule:evenodd;stroke:#000000;stroke-width:0.30000001;stroke-linecap:butt;stroke-linejoin:miter;stroke-miterlimit:4;stroke-opacity:1;stroke-dasharray:none;display:inline" />
  <path
     d="m 21.477855,19.706318 c -0.21,-0.27 -0.56,-0.169995 -0.6,0.05 -0.53,0.07 -1.06,0.12 -1.57,0.22 -0.32,0.05 -0.73,-0.27 -0.99,-0.14 0.08,0.3 0.43,0.49 0.61,0.76 0.46447,0.525051 1.198016,0.02947 1.364245,0.235809 0.27118,0.33662 0.673046,0.514469 1.345755,0.754186 0.36,0.11 0.82,0.1 1.01,-0.19 0.03,-0.28 -0.21,-0.57 -0.4,-0.8 -0.25,-0.3 -0.57,-0.55 -0.77,-0.89 z m 3.64,4.070005 c -0.79,-0.55 -1.76,-0.86 -2.53,-0.61 -0.35,0.11 -0.69,0.46 -0.52,0.93 0.24,0.63 0.92,1.03 1.5,1.19 0.21,0.07 0.82,0.18 0.51,-0.2 -0.3,-0.37 -0.75,-0.21 -1.09,-0.47 -0.43,-0.17 -0.22,-0.65 0.12,-0.6 0.28,-0.04 0.56,-0.1 0.86,-0.11 0.4,0 0.88,0.12 1.2,0.49 0.05,0.25 -0.37,0.53 0.11,0.69 0.27,0.14 0.8,0.08 0.58,-0.3 -0.15,-0.35 -0.41,-0.66 -0.67,-0.95 l -0.04,-0.03 -0.03,-0.03 z m -1.42,-1.54 c -0.18,-0.34 -0.67,-0.58 -0.79,-0.22 -0.38,0.09 -0.8,0.07 -1.19,0.16 -0.3,0.08 -0.64,0.09 -0.98,-0.03 -0.24,-0.16 -0.53,-0.01 -0.23,0.24 0.31,0.26 0.46,0.76 0.87,0.83 0.23,-0.01 0.26,-0.33 0.57,-0.24 0.45,-0.05 0.89,-0.12 1.32,-0.2 0.27,-0.06 0.81,0.35 0.91,0.05 -0.08,-0.25 -0.37,-0.37 -0.48,-0.59 z m -1.89,-1.55 c 0.06,0.44 -0.59,0.19 -0.82,-0.03 -0.15,-0.22 0.33,-0.14 0.47,-0.17 0.12,0.02 0.26,0.08 0.35,0.2 z"
     id="p3430"
     style="font-size:4px;font-style:normal;font-variant:normal;font-weight:bold;font-stretch:normal;fill:#000000;fill-opacity:1;stroke:none;display:inline;font-family:DejaVu Serif;-inkscape-font-specification:DejaVu Serif Bold" />
  <path
     d="m 10.807855,13.336323 c 0.5,0.82 0.44,1.4 0.56,2.47 0.01,0.08 0.02,0.15 0.04,0.22 1.29,-2.39 0.87,-2.75 -0.6,-2.69 z"
     id="p3467"
     style="fill:#5c5851;fill-opacity:0.25;fill-rule:evenodd;stroke:none;display:inline" />
  <path
     d="m 13.997855,10.276323 c -0.09,1.39 0.54,2.46 2.69,1 -0.15,-0.05 -0.3,-0.12 -0.44,-0.15 -1.28,-0.34 -1.8,-0.52 -2.25,-0.85 z"
     id="p3469"
     style="fill:#5c5851;fill-opacity:0.25;fill-rule:evenodd;stroke:none;display:inline" />
  <path
     d="m 14.467855,11.626323 c 0,0 -0.16,0.74 -0.91,1.34 -0.75,0.6 -1.34,0.91 -1.34,0.91 0,0 0.89,2.58 1.34,3.93 0.42,1.25 15.58,17.59 22.19,24.97 0.84,-0.55 1.85,-1.5 2.56,-2.09 0.73,-0.61 1.94,-1.6 2.63,-2.44 -2.9,-3.17 -22.16,-24.27 -23,-24.97 -0.91,-0.75 -3.47,-1.65 -3.47,-1.65 z"
     id="p3350"
     style="fill:#d9dad9;fill-opacity:0.18999999;fill-rule:evenodd;stroke:none;display:inline" />
  <path
     d="m 14.467855,11.626323 c 0,0 -0.16,0.74 -0.91,1.34 -0.75,0.6 -1.34,0.91 -1.34,0.91 0,0 0.89,2.58 1.34,3.93 0.42,1.25 15.58,17.59 22.19,24.97 0.36,-0.24 0.77,-0.55 1.16,-0.87 -3.32,-3.81 -16.71,-19.93 -18.19,-21 -1.66,-1.21 -7.27,-6.13 -5.31,-7.78 2.56,-1.51 5.89,3.47 7.25,6.18 1.2,2.41 14.97,17.34 18.25,20.88 0.69,-0.59 1.49,-1.29 2.03,-1.94 -2.9,-3.17 -22.16,-24.27 -23,-24.97 -0.91,-0.75 -3.47,-1.65 -3.47,-1.65 z"
     id="p3359"
     style="fill:#d9dad9;fill-opacity:0.41000001;fill-rule:evenodd;stroke:none;display:inline" />
  <path
     d="m 6.5278546,7.0363228 c 0.08,-1.26 0.98,-2.31 1.3,-2.27 0.31,0.04 1.91,2.15 1.91,2.15 0,0 0.5900004,-0.2 0.9400004,0.04 0.36,0.23 1.86,1.89 2.63,2.7 0.78,0.8300002 1.04,0.9600002 2.94,1.4500002 1.28,0.34 2.69,1.31 3.75,2.35 2.11,2.07 20.91,23.12 21.33,23.48 0.78,0.67 -1.8,2.74 -3.01,3.76 -1.22,1.01 -3.29,3.05 -3.92,2.42 -0.62,-0.62 -20.19,-22.19 -21.13,-23.44 -0.94,-1.25 -1.73,-2.51 -1.88,-3.88 -0.16,-1.37 0,-1.91 -1.14,-3.2 -1.1300004,-1.3 -2.5000004,-2.7400002 -2.5000004,-3.1400002 0,-0.39 0.12,-0.82 0.12,-0.82 l -1.34,-1.6 z"
     id="p3254"
     style="fill:none;stroke:#171b19;stroke-width:0.5;stroke-linecap:butt;stroke-linejoin:miter;stroke-miterlimit:4;stroke-opacity:1;stroke-dasharray:none" />
</svg>
