<?xml version="1.0" encoding="UTF-8" standalone="no"?>
<!-- Created with Inkscape (http://www.inkscape.org/) -->

<svg
   xmlns:svg="http://www.w3.org/2000/svg"
   xmlns="http://www.w3.org/2000/svg"
   xmlns:xlink="http://www.w3.org/1999/xlink"
   version="1.0"
   width="100%"
   height="100%"
   viewBox="0 0 48 48"
   id="_stabilo01"
   style="display:inline">
  <defs
     id="defs2385">
    <filter
       color-interpolation-filters="sRGB"
       id="filter4022">
      <feBlend
         in2="BackgroundImage"
         mode="screen"
         id="feBlend4024" />
    </filter>
    <clipPath
       id="clipPath3129">
      <rect
         width="48"
         height="48"
         ry="0"
         x="0"
         y="0"
         id="r3131"
         style="fill:#000000;fill-opacity:1;fill-rule:evenodd;stroke:#d7d7d7;stroke-width:0.91000003;stroke-linecap:round;stroke-linejoin:miter;stroke-miterlimit:4;stroke-opacity:0.86000001;stroke-dasharray:none;stroke-dashoffset:0;marker:none;visibility:visible;display:inline;overflow:visible;enable-background:accumulate" />
    </clipPath>
    <linearGradient
       x1="45.91"
       y1="45.650002"
       x2="6.23"
       y2="2.4300001"
       id="lg2418"
       xlink:href="#lg3892"
       gradientUnits="userSpaceOnUse" />
    <linearGradient
       id="lg3920-2">
      <stop
         id="s3922-8"
         style="stop-color:#000000;stop-opacity:1"
         offset="0" />
      <stop
         id="s3924-9"
         style="stop-color:#363838;stop-opacity:1"
         offset="1" />
    </linearGradient>
    <linearGradient
       x1="24.280001"
       y1="6.8600001"
       x2="24.280001"
       y2="37.880001"
       id="lg3926-9"
       xlink:href="#lg3920-2"
       gradientUnits="userSpaceOnUse" />
    <linearGradient
       x1="24.280001"
       y1="6.8600001"
       x2="24.280001"
       y2="37.880001"
       id="lg3926"
       xlink:href="#lg3920"
       gradientUnits="userSpaceOnUse" />
    <linearGradient
       x1="45.91"
       y1="45.650002"
       x2="6.23"
       y2="2.4300001"
       id="lg3898"
       xlink:href="#lg3892"
       gradientUnits="userSpaceOnUse" />
    <linearGradient
       id="lg3892">
      <stop
         id="s3894"
         style="stop-color:#050707;stop-opacity:1"
         offset="0" />
      <stop
         id="s3896"
         style="stop-color:#d6d6d6;stop-opacity:1"
         offset="1" />
    </linearGradient>
    <linearGradient
       id="lg3920">
      <stop
         id="s3922"
         style="stop-color:#000000;stop-opacity:1"
         offset="0" />
      <stop
         id="s3924"
         style="stop-color:#363838;stop-opacity:1"
         offset="1" />
    </linearGradient>
    <linearGradient
       x1="23.870001"
       y1="21.450001"
       x2="23.870001"
       y2="41.560001"
       id="lg2479"
       xlink:href="#lg3934"
       gradientUnits="userSpaceOnUse" />
    <linearGradient
       x1="9.8900003"
       y1="9.3900003"
       x2="40.07"
       y2="9.3900003"
       id="lg2475"
       xlink:href="#lg4189"
       gradientUnits="userSpaceOnUse" />
    <linearGradient
       x1="9.8900003"
       y1="9.3900003"
       x2="40.07"
       y2="9.3900003"
       id="lg4195"
       xlink:href="#lg4189"
       gradientUnits="userSpaceOnUse" />
    <linearGradient
       x1="23.870001"
       y1="21.450001"
       x2="23.870001"
       y2="41.560001"
       id="lg3940"
       xlink:href="#lg3934"
       gradientUnits="userSpaceOnUse" />
    <linearGradient
       id="lg3934">
      <stop
         id="s3936"
         style="stop-color:#772527;stop-opacity:1"
         offset="0" />
      <stop
         id="s3938"
         style="stop-color:#ff9f46;stop-opacity:1"
         offset="1" />
    </linearGradient>
    <linearGradient
       id="lg4189">
      <stop
         id="s4191"
         style="stop-color:#db2525;stop-opacity:1"
         offset="0" />
      <stop
         id="s4201"
         style="stop-color:#decd0e;stop-opacity:1"
         offset="0.25" />
      <stop
         id="s4203"
         style="stop-color:#36e41f;stop-opacity:1"
         offset="0.37" />
      <stop
         id="s4197"
         style="stop-color:#28ddbe;stop-opacity:1"
         offset="0.5" />
      <stop
         id="s4199"
         style="stop-color:#232bd8;stop-opacity:1"
         offset="0.75" />
      <stop
         id="s4193"
         style="stop-color:#dc2eb6;stop-opacity:1"
         offset="1" />
    </linearGradient>
    <linearGradient
       id="lg4189-954">
      <stop
         id="s2453"
         style="stop-color:#5b5b5b;stop-opacity:1"
         offset="0" />
      <stop
         id="s2455"
         style="stop-color:#bcbcbc;stop-opacity:1"
         offset="0.25" />
      <stop
         id="s2457"
         style="stop-color:#9a9a9a;stop-opacity:1"
         offset="0.37" />
      <stop
         id="s2459"
         style="stop-color:#a3a3a3;stop-opacity:1"
         offset="0.5" />
      <stop
         id="s2461"
         style="stop-color:#3c3c3c;stop-opacity:1"
         offset="0.75" />
      <stop
         id="s2463"
         style="stop-color:#727272;stop-opacity:1"
         offset="1" />
    </linearGradient>
    <linearGradient
       x1="9.8900003"
       y1="9.3900003"
       x2="40.07"
       y2="9.3900003"
       id="lg2475-51"
       xlink:href="#lg4189-954"
       gradientUnits="userSpaceOnUse" />
    <linearGradient
       id="lg3934-130">
      <stop
         id="s2447"
         style="stop-color:#3e3e3e;stop-opacity:1"
         offset="0" />
      <stop
         id="s2449"
         style="stop-color:#b2b2b2;stop-opacity:1"
         offset="1" />
    </linearGradient>
    <linearGradient
       x1="23.870001"
       y1="21.450001"
       x2="23.870001"
       y2="41.560001"
       id="lg2479-392"
       xlink:href="#lg3934-130"
       gradientUnits="userSpaceOnUse" />
    <linearGradient
       x1="23.870001"
       y1="21.450001"
       x2="23.870001"
       y2="41.560001"
       id="lg3444"
       xlink:href="#lg3934"
       gradientUnits="userSpaceOnUse" />
    <linearGradient
       x1="9.8900003"
       y1="9.3900003"
       x2="40.07"
       y2="9.3900003"
       id="lg3442"
       xlink:href="#lg4189"
       gradientUnits="userSpaceOnUse" />
    <linearGradient
       x1="9.8900003"
       y1="9.3900003"
       x2="40.07"
       y2="9.3900003"
       id="lg3440"
       xlink:href="#lg4189"
       gradientUnits="userSpaceOnUse" />
    <linearGradient
       x1="23.870001"
       y1="21.450001"
       x2="23.870001"
       y2="41.560001"
       id="lg3438"
       xlink:href="#lg3934"
       gradientUnits="userSpaceOnUse" />
    <linearGradient
       id="lg3432">
      <stop
         id="s3434"
         style="stop-color:#3e3e3e;stop-opacity:1"
         offset="0" />
      <stop
         id="s3436"
         style="stop-color:#b2b2b2;stop-opacity:1"
         offset="1" />
    </linearGradient>
    <linearGradient
       id="lg3418">
      <stop
         id="s3420"
         style="stop-color:#5b5b5b;stop-opacity:1"
         offset="0" />
      <stop
         id="s3422"
         style="stop-color:#bcbcbc;stop-opacity:1"
         offset="0.25" />
      <stop
         id="s3424"
         style="stop-color:#9a9a9a;stop-opacity:1"
         offset="0.37" />
      <stop
         id="s3426"
         style="stop-color:#a3a3a3;stop-opacity:1"
         offset="0.5" />
      <stop
         id="s3428"
         style="stop-color:#3c3c3c;stop-opacity:1"
         offset="0.75" />
      <stop
         id="s3430"
         style="stop-color:#727272;stop-opacity:1"
         offset="1" />
    </linearGradient>
    <linearGradient
       id="linearGradient2916">
      <stop
         id="stop2918"
         style="stop-color:#5b5b5b;stop-opacity:1"
         offset="0" />
      <stop
         id="stop2920"
         style="stop-color:#bcbcbc;stop-opacity:1"
         offset="0.25" />
      <stop
         id="stop2922"
         style="stop-color:#9a9a9a;stop-opacity:1"
         offset="0.37" />
      <stop
         id="stop2924"
         style="stop-color:#a3a3a3;stop-opacity:1"
         offset="0.5" />
      <stop
         id="stop2926"
         style="stop-color:#3c3c3c;stop-opacity:1"
         offset="0.75" />
      <stop
         id="stop2928"
         style="stop-color:#727272;stop-opacity:1"
         offset="1" />
    </linearGradient>
    <linearGradient
       id="linearGradient2910">
      <stop
         id="stop2912"
         style="stop-color:#3e3e3e;stop-opacity:1"
         offset="0" />
      <stop
         id="stop2914"
         style="stop-color:#b2b2b2;stop-opacity:1"
         offset="1" />
    </linearGradient>
    <linearGradient
       x1="23.870001"
       y1="21.450001"
       x2="23.870001"
       y2="41.560001"
       id="linearGradient2908"
       xlink:href="#lg3934"
       gradientUnits="userSpaceOnUse" />
    <linearGradient
       x1="9.8900003"
       y1="9.3900003"
       x2="40.07"
       y2="9.3900003"
       id="linearGradient2906"
       xlink:href="#lg4189"
       gradientUnits="userSpaceOnUse" />
    <linearGradient
       x1="9.8900003"
       y1="9.3900003"
       x2="40.07"
       y2="9.3900003"
       id="linearGradient2904"
       xlink:href="#lg4189"
       gradientUnits="userSpaceOnUse" />
    <linearGradient
       x1="23.870001"
       y1="21.450001"
       x2="23.870001"
       y2="41.560001"
       id="linearGradient2902"
       xlink:href="#lg3934"
       gradientUnits="userSpaceOnUse" />
    <linearGradient
       x1="23.870001"
       y1="21.450001"
       x2="23.870001"
       y2="41.560001"
       id="linearGradient2900"
       xlink:href="#lg3934-130"
       gradientUnits="userSpaceOnUse" />
    <linearGradient
       id="linearGradient2894">
      <stop
         id="stop2896"
         style="stop-color:#3e3e3e;stop-opacity:1"
         offset="0" />
      <stop
         id="stop2898"
         style="stop-color:#b2b2b2;stop-opacity:1"
         offset="1" />
    </linearGradient>
    <linearGradient
       x1="9.8900003"
       y1="9.3900003"
       x2="40.07"
       y2="9.3900003"
       id="linearGradient2892"
       xlink:href="#lg4189-954"
       gradientUnits="userSpaceOnUse" />
    <linearGradient
       id="linearGradient2878">
      <stop
         id="stop2880"
         style="stop-color:#5b5b5b;stop-opacity:1"
         offset="0" />
      <stop
         id="stop2882"
         style="stop-color:#bcbcbc;stop-opacity:1"
         offset="0.25" />
      <stop
         id="stop2884"
         style="stop-color:#9a9a9a;stop-opacity:1"
         offset="0.37" />
      <stop
         id="stop2886"
         style="stop-color:#a3a3a3;stop-opacity:1"
         offset="0.5" />
      <stop
         id="stop2888"
         style="stop-color:#3c3c3c;stop-opacity:1"
         offset="0.75" />
      <stop
         id="stop2890"
         style="stop-color:#727272;stop-opacity:1"
         offset="1" />
    </linearGradient>
    <linearGradient
       id="linearGradient2864">
      <stop
         id="stop2866"
         style="stop-color:#db2525;stop-opacity:1"
         offset="0" />
      <stop
         id="stop2868"
         style="stop-color:#decd0e;stop-opacity:1"
         offset="0.25" />
      <stop
         id="stop2870"
         style="stop-color:#36e41f;stop-opacity:1"
         offset="0.37" />
      <stop
         id="stop2872"
         style="stop-color:#28ddbe;stop-opacity:1"
         offset="0.5" />
      <stop
         id="stop2874"
         style="stop-color:#232bd8;stop-opacity:1"
         offset="0.75" />
      <stop
         id="stop2876"
         style="stop-color:#dc2eb6;stop-opacity:1"
         offset="1" />
    </linearGradient>
    <linearGradient
       id="linearGradient2858">
      <stop
         id="stop2860"
         style="stop-color:#772527;stop-opacity:1"
         offset="0" />
      <stop
         id="stop2862"
         style="stop-color:#ff9f46;stop-opacity:1"
         offset="1" />
    </linearGradient>
    <linearGradient
       x1="23.870001"
       y1="21.450001"
       x2="23.870001"
       y2="41.560001"
       id="linearGradient2856"
       xlink:href="#lg3934"
       gradientUnits="userSpaceOnUse" />
    <linearGradient
       x1="9.8900003"
       y1="9.3900003"
       x2="40.07"
       y2="9.3900003"
       id="linearGradient2854"
       xlink:href="#lg4189"
       gradientUnits="userSpaceOnUse" />
    <linearGradient
       x1="9.8900003"
       y1="9.3900003"
       x2="40.07"
       y2="9.3900003"
       id="linearGradient2852"
       xlink:href="#lg4189"
       gradientUnits="userSpaceOnUse" />
    <linearGradient
       x1="23.870001"
       y1="21.450001"
       x2="23.870001"
       y2="41.560001"
       id="linearGradient2850"
       xlink:href="#lg3934"
       gradientUnits="userSpaceOnUse" />
    <linearGradient
       id="linearGradient2844">
      <stop
         id="stop2846"
         style="stop-color:#000000;stop-opacity:1"
         offset="0" />
      <stop
         id="stop2848"
         style="stop-color:#363838;stop-opacity:1"
         offset="1" />
    </linearGradient>
    <linearGradient
       id="linearGradient2838">
      <stop
         id="stop2840"
         style="stop-color:#050707;stop-opacity:1"
         offset="0" />
      <stop
         id="stop2842"
         style="stop-color:#d6d6d6;stop-opacity:1"
         offset="1" />
    </linearGradient>
    <linearGradient
       x1="45.91"
       y1="45.650002"
       x2="6.23"
       y2="2.4300001"
       id="linearGradient2836"
       xlink:href="#lg3892"
       gradientUnits="userSpaceOnUse" />
    <linearGradient
       x1="24.280001"
       y1="6.8600001"
       x2="24.280001"
       y2="37.880001"
       id="linearGradient2834"
       xlink:href="#lg3920"
       gradientUnits="userSpaceOnUse" />
    <linearGradient
       x1="24.280001"
       y1="6.8600001"
       x2="24.280001"
       y2="37.880001"
       id="linearGradient2832"
       xlink:href="#lg3920-2"
       gradientUnits="userSpaceOnUse" />
    <linearGradient
       id="linearGradient2826">
      <stop
         id="stop2828"
         style="stop-color:#000000;stop-opacity:1"
         offset="0" />
      <stop
         id="stop2830"
         style="stop-color:#363838;stop-opacity:1"
         offset="1" />
    </linearGradient>
    <linearGradient
       x1="45.91"
       y1="45.650002"
       x2="6.23"
       y2="2.4300001"
       id="linearGradient2824"
       xlink:href="#lg3892"
       gradientUnits="userSpaceOnUse" />
    <clipPath
       id="clipPath2820">
      <rect
         width="48"
         height="48"
         ry="0"
         x="0"
         y="0"
         id="rect2822"
         style="fill:#000000;fill-opacity:1;fill-rule:evenodd;stroke:#d7d7d7;stroke-width:0.91000003;stroke-linecap:round;stroke-linejoin:miter;stroke-miterlimit:4;stroke-opacity:0.86000001;stroke-dasharray:none;stroke-dashoffset:0;marker:none;visibility:visible;display:inline;overflow:visible;enable-background:accumulate" />
    </clipPath>
    <filter
       color-interpolation-filters="sRGB"
       id="filter2816">
      <feBlend
         in2="BackgroundImage"
         mode="screen"
         id="feBlend2818" />
    </filter>
    <filter
       color-interpolation-filters="sRGB"
       id="filter4007">
      <feBlend
         in2="BackgroundImage"
         mode="screen"
         id="feBlend4009" />
    </filter>
    <clipPath
       id="clipPath4003">
      <rect
         width="48"
         height="48"
         ry="0"
         x="0"
         y="0"
         id="rect4005"
         style="fill:#000000;fill-opacity:1;fill-rule:evenodd;stroke:#d7d7d7;stroke-width:0.91000003;stroke-linecap:round;stroke-linejoin:miter;stroke-miterlimit:4;stroke-opacity:0.86000001;stroke-dasharray:none;stroke-dashoffset:0;marker:none;visibility:visible;display:inline;overflow:visible;enable-background:accumulate" />
    </clipPath>
    <linearGradient
       x1="45.91"
       y1="45.650002"
       x2="6.23"
       y2="2.4300001"
       id="linearGradient4001"
       xlink:href="#lg3892"
       gradientUnits="userSpaceOnUse" />
    <linearGradient
       id="linearGradient3995">
      <stop
         id="stop3997"
         style="stop-color:#000000;stop-opacity:1"
         offset="0" />
      <stop
         id="stop3999"
         style="stop-color:#363838;stop-opacity:1"
         offset="1" />
    </linearGradient>
    <linearGradient
       x1="24.280001"
       y1="6.8600001"
       x2="24.280001"
       y2="37.880001"
       id="linearGradient3993"
       xlink:href="#lg3920-2"
       gradientUnits="userSpaceOnUse" />
    <linearGradient
       x1="24.280001"
       y1="6.8600001"
       x2="24.280001"
       y2="37.880001"
       id="linearGradient3991"
       xlink:href="#lg3920"
       gradientUnits="userSpaceOnUse" />
    <linearGradient
       x1="45.91"
       y1="45.650002"
       x2="6.23"
       y2="2.4300001"
       id="linearGradient3989"
       xlink:href="#lg3892"
       gradientUnits="userSpaceOnUse" />
    <linearGradient
       id="linearGradient3983">
      <stop
         id="stop3985"
         style="stop-color:#050707;stop-opacity:1"
         offset="0" />
      <stop
         id="stop3987"
         style="stop-color:#d6d6d6;stop-opacity:1"
         offset="1" />
    </linearGradient>
    <linearGradient
       id="linearGradient3977">
      <stop
         id="stop3979"
         style="stop-color:#000000;stop-opacity:1"
         offset="0" />
      <stop
         id="stop3981"
         style="stop-color:#363838;stop-opacity:1"
         offset="1" />
    </linearGradient>
    <linearGradient
       x1="23.870001"
       y1="21.450001"
       x2="23.870001"
       y2="41.560001"
       id="linearGradient3975"
       xlink:href="#lg3934"
       gradientUnits="userSpaceOnUse" />
    <linearGradient
       x1="9.8900003"
       y1="9.3900003"
       x2="40.07"
       y2="9.3900003"
       id="linearGradient3973"
       xlink:href="#lg4189"
       gradientUnits="userSpaceOnUse" />
    <linearGradient
       x1="9.8900003"
       y1="9.3900003"
       x2="40.07"
       y2="9.3900003"
       id="linearGradient3971"
       xlink:href="#lg4189"
       gradientUnits="userSpaceOnUse" />
    <linearGradient
       x1="23.870001"
       y1="21.450001"
       x2="23.870001"
       y2="41.560001"
       id="linearGradient3969"
       xlink:href="#lg3934"
       gradientUnits="userSpaceOnUse" />
    <linearGradient
       id="linearGradient3963">
      <stop
         id="stop3965"
         style="stop-color:#772527;stop-opacity:1"
         offset="0" />
      <stop
         id="stop3967"
         style="stop-color:#ff9f46;stop-opacity:1"
         offset="1" />
    </linearGradient>
    <linearGradient
       id="linearGradient3949">
      <stop
         id="stop3951"
         style="stop-color:#db2525;stop-opacity:1"
         offset="0" />
      <stop
         id="stop3953"
         style="stop-color:#decd0e;stop-opacity:1"
         offset="0.25" />
      <stop
         id="stop3955"
         style="stop-color:#36e41f;stop-opacity:1"
         offset="0.37" />
      <stop
         id="stop3957"
         style="stop-color:#28ddbe;stop-opacity:1"
         offset="0.5" />
      <stop
         id="stop3959"
         style="stop-color:#232bd8;stop-opacity:1"
         offset="0.75" />
      <stop
         id="stop3961"
         style="stop-color:#dc2eb6;stop-opacity:1"
         offset="1" />
    </linearGradient>
    <linearGradient
       id="linearGradient3935">
      <stop
         id="stop3937"
         style="stop-color:#5b5b5b;stop-opacity:1"
         offset="0" />
      <stop
         id="stop3939"
         style="stop-color:#bcbcbc;stop-opacity:1"
         offset="0.25" />
      <stop
         id="stop3941"
         style="stop-color:#9a9a9a;stop-opacity:1"
         offset="0.37" />
      <stop
         id="stop3943"
         style="stop-color:#a3a3a3;stop-opacity:1"
         offset="0.5" />
      <stop
         id="stop3945"
         style="stop-color:#3c3c3c;stop-opacity:1"
         offset="0.75" />
      <stop
         id="stop3947"
         style="stop-color:#727272;stop-opacity:1"
         offset="1" />
    </linearGradient>
    <linearGradient
       x1="9.8900003"
       y1="9.3900003"
       x2="40.07"
       y2="9.3900003"
       id="linearGradient3933"
       xlink:href="#lg4189-954"
       gradientUnits="userSpaceOnUse" />
    <linearGradient
       id="linearGradient3927">
      <stop
         id="stop3929"
         style="stop-color:#3e3e3e;stop-opacity:1"
         offset="0" />
      <stop
         id="stop3931"
         style="stop-color:#b2b2b2;stop-opacity:1"
         offset="1" />
    </linearGradient>
    <linearGradient
       x1="23.870001"
       y1="21.450001"
       x2="23.870001"
       y2="41.560001"
       id="linearGradient3925"
       xlink:href="#lg3934-130"
       gradientUnits="userSpaceOnUse" />
    <linearGradient
       x1="23.870001"
       y1="21.450001"
       x2="23.870001"
       y2="41.560001"
       id="linearGradient3923"
       xlink:href="#lg3934"
       gradientUnits="userSpaceOnUse" />
    <linearGradient
       x1="9.8900003"
       y1="9.3900003"
       x2="40.07"
       y2="9.3900003"
       id="linearGradient3921"
       xlink:href="#lg4189"
       gradientUnits="userSpaceOnUse" />
    <linearGradient
       x1="9.8900003"
       y1="9.3900003"
       x2="40.07"
       y2="9.3900003"
       id="linearGradient3919"
       xlink:href="#lg4189"
       gradientUnits="userSpaceOnUse" />
    <linearGradient
       x1="23.870001"
       y1="21.450001"
       x2="23.870001"
       y2="41.560001"
       id="linearGradient3917"
       xlink:href="#lg3934"
       gradientUnits="userSpaceOnUse" />
    <linearGradient
       id="linearGradient3911">
      <stop
         id="stop3913"
         style="stop-color:#3e3e3e;stop-opacity:1"
         offset="0" />
      <stop
         id="stop3915"
         style="stop-color:#b2b2b2;stop-opacity:1"
         offset="1" />
    </linearGradient>
    <linearGradient
       id="linearGradient3897">
      <stop
         id="stop3899"
         style="stop-color:#5b5b5b;stop-opacity:1"
         offset="0" />
      <stop
         id="stop3901"
         style="stop-color:#bcbcbc;stop-opacity:1"
         offset="0.25" />
      <stop
         id="stop3903"
         style="stop-color:#9a9a9a;stop-opacity:1"
         offset="0.37" />
      <stop
         id="stop3905"
         style="stop-color:#a3a3a3;stop-opacity:1"
         offset="0.5" />
      <stop
         id="stop3907"
         style="stop-color:#3c3c3c;stop-opacity:1"
         offset="0.75" />
      <stop
         id="stop3909"
         style="stop-color:#727272;stop-opacity:1"
         offset="1" />
    </linearGradient>
    <linearGradient
       id="linearGradient3883">
      <stop
         id="stop3885"
         style="stop-color:#5b5b5b;stop-opacity:1"
         offset="0" />
      <stop
         id="stop3887"
         style="stop-color:#bcbcbc;stop-opacity:1"
         offset="0.25" />
      <stop
         id="stop3889"
         style="stop-color:#9a9a9a;stop-opacity:1"
         offset="0.37" />
      <stop
         id="stop3891"
         style="stop-color:#a3a3a3;stop-opacity:1"
         offset="0.5" />
      <stop
         id="stop3893"
         style="stop-color:#3c3c3c;stop-opacity:1"
         offset="0.75" />
      <stop
         id="stop3895"
         style="stop-color:#727272;stop-opacity:1"
         offset="1" />
    </linearGradient>
    <linearGradient
       id="linearGradient3877">
      <stop
         id="stop3879"
         style="stop-color:#3e3e3e;stop-opacity:1"
         offset="0" />
      <stop
         id="stop3881"
         style="stop-color:#b2b2b2;stop-opacity:1"
         offset="1" />
    </linearGradient>
    <linearGradient
       x1="23.870001"
       y1="21.450001"
       x2="23.870001"
       y2="41.560001"
       id="linearGradient3875"
       xlink:href="#lg3934"
       gradientUnits="userSpaceOnUse" />
    <linearGradient
       x1="9.8900003"
       y1="9.3900003"
       x2="40.07"
       y2="9.3900003"
       id="linearGradient3873"
       xlink:href="#lg4189"
       gradientUnits="userSpaceOnUse" />
    <linearGradient
       x1="9.8900003"
       y1="9.3900003"
       x2="40.07"
       y2="9.3900003"
       id="linearGradient3871"
       xlink:href="#lg4189"
       gradientUnits="userSpaceOnUse" />
    <linearGradient
       x1="23.870001"
       y1="21.450001"
       x2="23.870001"
       y2="41.560001"
       id="linearGradient3869"
       xlink:href="#lg3934"
       gradientUnits="userSpaceOnUse" />
    <linearGradient
       x1="23.870001"
       y1="21.450001"
       x2="23.870001"
       y2="41.560001"
       id="linearGradient3867"
       xlink:href="#lg3934-130"
       gradientUnits="userSpaceOnUse" />
    <linearGradient
       id="linearGradient3861">
      <stop
         id="stop3863"
         style="stop-color:#3e3e3e;stop-opacity:1"
         offset="0" />
      <stop
         id="stop3865"
         style="stop-color:#b2b2b2;stop-opacity:1"
         offset="1" />
    </linearGradient>
    <linearGradient
       x1="9.8900003"
       y1="9.3900003"
       x2="40.07"
       y2="9.3900003"
       id="linearGradient3859"
       xlink:href="#lg4189-954"
       gradientUnits="userSpaceOnUse" />
    <linearGradient
       id="linearGradient3845">
      <stop
         id="stop3847"
         style="stop-color:#5b5b5b;stop-opacity:1"
         offset="0" />
      <stop
         id="stop3849"
         style="stop-color:#bcbcbc;stop-opacity:1"
         offset="0.25" />
      <stop
         id="stop3851"
         style="stop-color:#9a9a9a;stop-opacity:1"
         offset="0.37" />
      <stop
         id="stop3853"
         style="stop-color:#a3a3a3;stop-opacity:1"
         offset="0.5" />
      <stop
         id="stop3855"
         style="stop-color:#3c3c3c;stop-opacity:1"
         offset="0.75" />
      <stop
         id="stop3857"
         style="stop-color:#727272;stop-opacity:1"
         offset="1" />
    </linearGradient>
    <linearGradient
       id="linearGradient3831">
      <stop
         id="stop3833"
         style="stop-color:#db2525;stop-opacity:1"
         offset="0" />
      <stop
         id="stop3835"
         style="stop-color:#decd0e;stop-opacity:1"
         offset="0.25" />
      <stop
         id="stop3837"
         style="stop-color:#36e41f;stop-opacity:1"
         offset="0.37" />
      <stop
         id="stop3839"
         style="stop-color:#28ddbe;stop-opacity:1"
         offset="0.5" />
      <stop
         id="stop3841"
         style="stop-color:#232bd8;stop-opacity:1"
         offset="0.75" />
      <stop
         id="stop3843"
         style="stop-color:#dc2eb6;stop-opacity:1"
         offset="1" />
    </linearGradient>
    <linearGradient
       id="linearGradient3825">
      <stop
         id="stop3827"
         style="stop-color:#772527;stop-opacity:1"
         offset="0" />
      <stop
         id="stop3829"
         style="stop-color:#ff9f46;stop-opacity:1"
         offset="1" />
    </linearGradient>
    <linearGradient
       x1="23.870001"
       y1="21.450001"
       x2="23.870001"
       y2="41.560001"
       id="linearGradient3823"
       xlink:href="#lg3934"
       gradientUnits="userSpaceOnUse" />
    <linearGradient
       x1="9.8900003"
       y1="9.3900003"
       x2="40.07"
       y2="9.3900003"
       id="linearGradient3821"
       xlink:href="#lg4189"
       gradientUnits="userSpaceOnUse" />
    <linearGradient
       x1="9.8900003"
       y1="9.3900003"
       x2="40.07"
       y2="9.3900003"
       id="linearGradient3819"
       xlink:href="#lg4189"
       gradientUnits="userSpaceOnUse" />
    <linearGradient
       x1="23.870001"
       y1="21.450001"
       x2="23.870001"
       y2="41.560001"
       id="linearGradient3817"
       xlink:href="#lg3934"
       gradientUnits="userSpaceOnUse" />
    <linearGradient
       id="linearGradient3811">
      <stop
         id="stop3813"
         style="stop-color:#000000;stop-opacity:1"
         offset="0" />
      <stop
         id="stop3815"
         style="stop-color:#363838;stop-opacity:1"
         offset="1" />
    </linearGradient>
    <linearGradient
       id="linearGradient3805">
      <stop
         id="stop3807"
         style="stop-color:#050707;stop-opacity:1"
         offset="0" />
      <stop
         id="stop3809"
         style="stop-color:#d6d6d6;stop-opacity:1"
         offset="1" />
    </linearGradient>
    <linearGradient
       x1="45.91"
       y1="45.650002"
       x2="6.23"
       y2="2.4300001"
       id="linearGradient3803"
       xlink:href="#lg3892"
       gradientUnits="userSpaceOnUse" />
    <linearGradient
       x1="24.280001"
       y1="6.8600001"
       x2="24.280001"
       y2="37.880001"
       id="linearGradient3801"
       xlink:href="#lg3920"
       gradientUnits="userSpaceOnUse" />
    <linearGradient
       x1="24.280001"
       y1="6.8600001"
       x2="24.280001"
       y2="37.880001"
       id="linearGradient3799"
       xlink:href="#lg3920-2"
       gradientUnits="userSpaceOnUse" />
    <linearGradient
       id="linearGradient3793">
      <stop
         id="stop3795"
         style="stop-color:#000000;stop-opacity:1"
         offset="0" />
      <stop
         id="stop3797"
         style="stop-color:#363838;stop-opacity:1"
         offset="1" />
    </linearGradient>
    <linearGradient
       x1="45.91"
       y1="45.650002"
       x2="6.23"
       y2="2.4300001"
       id="linearGradient3791"
       xlink:href="#lg3892"
       gradientUnits="userSpaceOnUse" />
    <clipPath
       id="clipPath3787">
      <rect
         width="48"
         height="48"
         ry="0"
         x="0"
         y="0"
         id="rect3789"
         style="fill:#000000;fill-opacity:1;fill-rule:evenodd;stroke:#d7d7d7;stroke-width:0.91000003;stroke-linecap:round;stroke-linejoin:miter;stroke-miterlimit:4;stroke-opacity:0.86000001;stroke-dasharray:none;stroke-dashoffset:0;marker:none;visibility:visible;display:inline;overflow:visible;enable-background:accumulate" />
    </clipPath>
    <filter
       color-interpolation-filters="sRGB"
       id="filter3783">
      <feBlend
         in2="BackgroundImage"
         mode="screen"
         id="feBlend3785" />
    </filter>
  </defs>
  <path
     d="M 48,0 48,48 0,48 0,0 48,0 z M 36.5625,27.71875 c -5.060395,-1e-6 -9.15625,4.095855 -9.15625,9.15625 -1e-6,5.060395 4.095855,9.15625 9.15625,9.15625 5.060396,10e-7 9.15625,-4.095855 9.15625,-9.15625 0,-5.060395 -4.095855,-9.15625 -9.15625,-9.15625 z"
     id="rect2533"
     style="fill:#ffffff;fill-opacity:1;fill-rule:evenodd;stroke:none;stroke-width:1;marker:none;visibility:visible;display:inline;overflow:visible;enable-background:accumulate" />
  <rect
     width="47.5"
     height="47.5"
     ry="4"
     x="0.25"
     y="0.25"
     id="r3365"
     style="fill:none;stroke:#000000;stroke-width:0.5;stroke-linecap:round;stroke-linejoin:miter;stroke-miterlimit:4;stroke-opacity:1;stroke-dasharray:none;stroke-dashoffset:0;marker:none;visibility:visible;display:inline;overflow:visible;enable-background:accumulate" />
  <g
     transform="translate(-0.46385916,-2.1522294)"
     id="eraser02"
     style="display:inline">
    <path
       d="m 44.21,11.05 c 1.17,0.96 0.69,2.34 0.35,3.1 -0.35,0.76 -2.21,4.48 -2.69,4.89 -0.48,0.42 -10.07,7.79 -12.2,9.38 C 27.53,30 13.81,40.76 13.26,40.76 12.71,40.76 10.99,40.62 9.75,39.65 8.51,38.69 3.61,34.35 3.2,33.52 2.79,32.69 2.79,32.07 3.27,31.04 3.75,30 4.3,27.87 5.54,26.42 c 1.24,-1.45 11.65,-8 16.75,-11.37 5.1,-3.38 11.17,-7.24 11.72,-7.45 0.55,-0.2 1.24,-0.41 2.14,-0.14 0.89,0.28 7.37,3.04 8.06,3.59 z"
       id="p2618"
       style="fill:#de5533;fill-opacity:1;fill-rule:evenodd;stroke:none" />
    <path
       d="m 44.96,12.5 c 0.03,0.62 -0.22,1.23 -0.41,1.65 -0.34,0.76 -2.2,4.49 -2.69,4.91 -0.48,0.41 -10.05,7.79 -12.18,9.37 -2.14,1.59 -15.86,12.32 -16.41,12.32 -0.15,0 -0.42,-0.03 -0.72,-0.07 1.07,-1.76 1.77,-4.24 2.41,-5.09 0.81,-1.08 14.58,-11.51 17.81,-13.94 2.54,-1.9 9,-7.48 12.19,-9.15 z"
       id="p3425"
       style="fill:#3d0902;fill-opacity:0.25;fill-rule:evenodd;stroke:none;display:inline" />
    <path
       d="m 35.52,7.34 c 0.2,0.01 0.4,0.05 0.63,0.12 0.89,0.28 7.37,3.05 8.06,3.6 1.17,0.96 0.69,2.33 0.34,3.09 -0.34,0.76 -2.2,4.49 -2.69,4.91 -0.29,0.25 -3.6,2.81 -6.9,5.34 0.06,-2.16 -0.11,-4.45 -0.41,-4.94 -0.41,-0.69 -0.46,-0.84 -1.22,-1.18 -0.56,-0.26 -5.69,-3.18 -8.87,-4.63 4.49,-2.94 9.09,-5.88 9.56,-6.06 0.41,-0.16 0.9,-0.3 1.5,-0.25 z"
       id="p3394"
       style="fill:#678aa6;fill-opacity:1;fill-rule:evenodd;stroke:none;display:inline" />
    <path
       d="m 35.52,7.34 c 0.06,0 0.13,0.02 0.19,0.03 0.11,0.16 0.85,0.44 0.87,0.28 1.53,0.57 6.99,2.9 7.63,3.41 1.17,0.96 0.69,2.33 0.34,3.09 -0.06,0.15 -0.34,0.65 -0.5,0.97 -0.13,-0.16 -0.33,-0.36 -0.75,-0.59 -0.18,0.63 0.23,0.94 0.56,1 -0.24,0.49 -0.39,0.79 -0.68,1.34 -0.02,-0.15 -0.2,-0.38 -0.63,-0.69 L 42.24,15.9 41.9,15.71 c -1.35,1.01 0.84,1.68 1.21,1.32 -0.51,0.95 -1.03,1.84 -1.25,2.03 -0.13,0.11 -1.87,1.46 -3.09,2.4 -0.07,-0.02 -0.13,-0.04 -0.22,-0.06 -0.1,0.16 -0.14,0.27 -0.19,0.38 -0.06,0.05 -0.08,0.07 -0.15,0.12 0,-0.03 -0.07,-0.07 -0.22,-0.06 -0.19,0.2 -0.03,0.21 0.09,0.16 -3.13,2.42 -7,5.4 -8.4,6.43 -0.09,0.06 -0.57,0.44 -0.69,0.53 -0.17,0.03 -0.22,0.09 -0.19,0.16 -0.14,0.11 -0.6,0.46 -0.78,0.59 -0.1,-0.02 -0.21,-0.07 -0.41,-0.06 -0.13,0.24 -0.2,0.41 -0.21,0.53 -0.15,0.11 -0.38,0.29 -0.54,0.41 -0.05,0 -0.09,-0.01 -0.15,0 -0.02,0.06 -0.02,0.1 -0.03,0.16 -0.29,0.22 -0.64,0.46 -0.97,0.71 -0.05,-0.02 -0.09,-0.03 -0.16,-0.06 -0.04,0.09 -0.06,0.16 -0.06,0.22 -0.12,0.09 -0.19,0.19 -0.31,0.28 -0.04,-0.13 -0.22,-0.23 -0.66,-0.25 -0.26,0.48 -0.22,0.71 -0.09,0.78 -0.37,0.29 -0.55,0.45 -0.94,0.75 -0.12,-0.16 -0.37,-0.41 -0.84,-0.68 0.27,0.41 0.51,0.65 0.68,0.78 -0.11,0.09 -0.16,0.12 -0.28,0.22 -0.58,-0.37 -1.25,-0.51 -1.87,-0.29 -0.73,0.29 -1.17,-0.68 -1.35,-1.21 -0.64,1.17 -0.38,2.59 0.35,3.71 -0.33,0.26 -0.59,0.45 -0.91,0.69 -0.7,-0.37 -1.39,-0.76 -1.78,-1.5 -0.86,0.77 -0.51,1.87 0.22,2.69 -2.31,1.74 -4.25,3.16 -4.44,3.16 -0.04,0 -0.13,0 -0.19,0 0.06,-0.19 0.1,-0.45 0.07,-0.88 -0.16,-0.62 -0.49,-1.2 -0.94,-1.66 -0.74,0.56 -0.33,1.83 0.15,2.44 C 11.71,40.56 10.9,40.36 10.15,39.9 9.79,38.56 9.42,37.21 9.18,35.84 9.09,37.02 9.19,38.19 9.4,39.34 8.65,38.73 7.37,37.62 6.08,36.43 5.87,33.21 5.89,29.96 6.21,26.75 5.43,29.59 4.83,32.7 5.24,35.65 4.73,35.17 4.25,34.71 3.9,34.34 3.96,34.24 3.99,33.86 3.96,33.09 3.88,32.56 3.74,32.05 3.55,31.56 3.3,32.27 3.54,33.72 3.74,34.18 3.48,33.9 3.27,33.66 3.21,33.53 2.8,32.7 2.79,32.06 3.27,31.03 3.43,30.68 3.6,30.19 3.8,29.65 3.96,30.42 4.22,31.18 4.55,31.9 4.74,30.19 5.48,28.32 5.46,26.56 5.49,26.52 5.52,26.47 5.55,26.43 5.88,26.05 6.87,25.28 8.21,24.34 8.38,24.38 8.52,24.35 8.65,24.25 8.6,24.2 8.56,24.16 8.52,24.12 8.7,23.99 8.95,23.85 9.15,23.71 c 0.3,0 0.58,-0.18 0.84,-0.53 -0.01,-0.01 -0.02,-0.02 -0.03,-0.03 2.37,-1.61 4.88,-3.24 7.59,-5 0.06,-0.04 0.1,-0.09 0.16,-0.12 1.12,-0.73 2.33,-1.47 3.28,-2.1 0.39,1.49 2.99,3.32 3.5,0.63 0.31,-0.83 -0.32,-1.96 -1.16,-2.16 0.35,-0.23 0.66,-0.43 1,-0.65 0.01,-0.01 0.03,0 0.03,0 0.24,0.11 0.5,-0.15 0.57,-0.41 4.33,-2.83 8.64,-5.58 9.09,-5.75 0.41,-0.16 0.9,-0.3 1.5,-0.25 z M 34.15,7.87 C 34.12,7.9 34.29,8.16 34.24,7.93 34.17,7.87 34.15,7.86 34.15,7.87 z m 2.25,0.81 c -2.31,1.99 3.92,2.39 1.4,0.38 C 37.36,8.83 36.89,8.68 36.4,8.68 z m 4.34,1.03 c 0.27,0.35 0.6,0.62 0.69,0.66 -0.03,-0.05 -0.21,-0.26 -0.69,-0.66 z m -7.59,0.35 c -2.2,0.83 2.28,3.12 0.37,0.81 l -0.22,-0.41 -0.15,-0.4 z m 5.93,1.06 c -2.26,0.6 0.96,1.97 0,0 z m 2.5,0.41 c 0.33,1.03 1.65,1.31 0.32,0.25 l -0.32,-0.25 z m -1.25,0.12 c -1.54,0.95 1.84,1.56 0,0 z m -3.37,0.22 c -1.53,0.12 -0.48,0.94 0,0.84 -0.08,0.31 1.28,0.94 0.69,-0.12 -0.24,-0.02 -0.42,-0.03 -0.54,0 0.08,-0.12 0.06,-0.34 -0.15,-0.72 z m 0.15,0.72 c -0.03,0.06 -0.08,0.11 -0.15,0.12 0.01,-0.05 0.04,-0.1 0.15,-0.12 z M 29.05,11.9 c -1.43,1.46 1.62,1.13 0,0 z m 2.47,0.19 c -1.95,0.11 0.97,4.49 0.5,1.47 -0.12,-0.47 -0.17,-0.97 -0.03,-1.44 -0.18,-0.03 -0.34,-0.04 -0.47,-0.03 z m 1.19,0.19 c -1.38,1.14 2.07,2.27 0.22,0.43 -0.08,-0.14 -0.14,-0.29 -0.22,-0.43 z m 11.62,0.4 c 0.2,0.06 0.38,0.13 0.57,0.22 -0.16,-0.12 -0.33,-0.21 -0.57,-0.22 z M 28.15,13 c -1.2,1.75 1.78,0.74 0,0 z m 1.68,0.43 c -0.76,0.65 0.89,0.35 0,0 z m 9.07,0.22 c -1.7,0.37 1.19,1.71 0,0.03 l 0,-0.03 z m 2.75,0.25 c -0.28,0.69 0.73,0.57 0,0 z m -14.94,0 c -0.04,-0.01 -0.12,0.01 -0.22,0.03 -0.46,0.65 0.51,0.02 0.22,-0.03 z m 12.87,0.25 c -2.39,1.43 3.11,2.85 1,0.63 -0.28,-0.28 -0.63,-0.48 -1,-0.63 z m -3.62,0.22 c -0.53,0.3 0.56,0.15 0,0 z m -5.56,0.22 c -1.05,1.86 1.94,1.04 0,0 z m -4.72,0.25 c -0.58,0.74 0.93,-0.01 0,0 z m 1.93,0.03 c -0.04,-0.04 -0.14,-0.01 -0.34,0.13 0.08,0.6 0.48,-0.02 0.34,-0.13 z m 7.38,0.16 c -0.34,-0.07 0.45,0.68 0.22,0.09 -0.1,-0.05 -0.17,-0.08 -0.22,-0.09 z m 1.94,0.22 c -0.94,1.58 2.76,4.74 1.59,1.5 -0.38,-0.64 -0.92,-1.18 -1.59,-1.5 z m -8.75,0.12 c -1.24,1.38 1.72,0.08 0,0 z m 8.09,0.16 c -0.18,1.63 0.87,1.18 0,0 z m -2.5,0.31 c -0.01,-0.03 -0.08,0 -0.22,0.09 -0.17,0.44 0.25,-0.01 0.22,-0.09 z m 1.69,0.12 c -0.2,0.59 0.68,0.18 0,0 z m -6.19,0.38 c -1.11,1.45 1.75,0.05 0,0 z m 5.41,0.03 c -1.27,1.53 1.96,0.81 0,0 z m -8.91,0.31 c -2.36,-0.03 0.52,2.23 0,0 z m 0.44,0.28 c -0.28,-0.01 0.31,0.56 0.19,0.07 C 26.32,17 26.25,16.97 26.21,16.96 z m 7.12,0.13 c -1.11,1.5 1.88,0.16 0,0 z m -13.78,0 c -0.08,0 -0.19,0 -0.34,0.06 -0.23,1.14 0.89,-0.05 0.34,-0.06 z m 20.1,0.28 c -2.43,1.53 3.25,2.94 0.96,0.59 -0.31,-0.21 -0.65,-0.37 -0.96,-0.59 z m -18.54,0 c -0.16,0 -0.35,0.03 -0.62,0.13 0.62,1.9 1.77,-0.11 0.62,-0.13 z m 5.85,0.28 c -1.68,0.56 1.39,0.72 0,0 z m -8.41,0.44 c -0.45,0.18 0.4,0.11 0,0 z m 1.5,0.09 c -0.12,-0.05 -0.35,0 -0.69,0.19 0.07,1.84 1.23,0.02 0.69,-0.19 z m 3.41,0.13 c -1.64,0.29 0.97,0.1 0,0 z m 0.78,0.47 c -0.7,0.07 0.62,1.97 0.84,0.31 -0.41,-0.24 -0.68,-0.33 -0.84,-0.31 z m 3.66,0.09 c -0.01,-0.02 -0.06,-0.01 -0.16,0.06 -0.01,0.05 0,0.08 0,0.1 0.05,-0.03 0.18,-0.13 0.16,-0.16 z m 2.03,0.06 c -0.05,0 -0.12,0.03 -0.22,0.07 -0.1,0.78 0.58,-0.05 0.22,-0.07 z m 8.09,0.16 c -0.06,0.01 -0.03,0.49 0.09,0.19 -0.04,-0.15 -0.07,-0.2 -0.09,-0.19 z m -11.97,0.03 c -1.92,0.09 1.02,1.3 0,0 z m -10.06,0.13 c 0.08,0.86 1.07,0.17 0,0 z m 6.22,0.43 c -0.1,0 -0.22,0.02 -0.35,0.03 -0.08,1.97 1.79,0 0.35,-0.03 z m 9.75,0.66 c -0.06,0 -0.14,0.01 -0.25,0.06 0.02,0.79 0.67,-0.09 0.25,-0.06 z m -3.53,0.09 c -2.55,0.79 2.45,1.16 0,0 z m -13.72,0.13 c -1.67,1.1 2.2,1.28 0,0 z m 6.69,0.19 c -0.08,-0.01 -0.16,0 -0.29,0.03 0.18,0.8 0.8,0.03 0.29,-0.03 z m -5.32,0.03 c -0.28,0.92 1.07,-0.07 0,0 z m 20.35,0.25 c -0.03,0.01 -0.08,0.04 -0.13,0.09 -0.11,0.62 0.3,-0.16 0.13,-0.09 z m -5.28,0.06 c -0.03,-0.01 -0.09,-0.02 -0.16,0 -0.18,0.44 0.37,0.03 0.16,0 z m -6.44,0.25 c -0.79,0.34 0.68,0.12 0,0 z m -1.91,0.03 c -0.13,0.02 0.58,0.99 0.47,0.41 -0.29,-0.3 -0.42,-0.42 -0.47,-0.41 z m 12.78,0.22 c -0.1,-0.01 -0.21,-0.02 -0.34,0 0.25,1.98 1.89,0.06 0.34,0 z m -9.93,0.16 c -0.97,0.22 0.74,0.18 0,0 z m -9.69,0.15 c -0.52,0.4 0.66,0.38 0,0 z m 3.15,0.1 c -0.05,0.04 0.23,0.47 0.19,0.12 C 19.19,22 19.13,21.98 19.11,22 z m -1.96,0.03 c -0.16,0.82 0.58,0.24 0,0 z m 16.25,0.25 c -1.79,-0.17 1.16,0.98 0,0 z m -4.85,0.15 c -0.03,-0.04 -0.05,-0.01 -0.09,0.16 0.19,0.66 0.18,-0.04 0.09,-0.16 z m -11.97,0.19 c -1.89,1.31 1.57,1.22 0,0 z m 10.85,0.03 c -0.95,0.21 1.54,0.23 0,0 z m -1.66,0.1 c -0.1,-0.02 -0.21,-0.02 -0.37,0 0.32,0.85 1.05,0.1 0.37,0 z m -13.56,0.21 c -2.61,1.08 2.86,3.36 0.81,0.88 -0.27,-0.29 -0.54,-0.59 -0.81,-0.88 z m 18.31,0.32 c -1.39,0.88 1.58,0.36 0,0 z m 1.81,0.09 c -0.76,1.65 2.33,0.06 0.07,0.03 l -0.07,-0.03 z m -10.37,0.19 c -0.11,-0.02 -0.25,-0.01 -0.47,0.03 -0.46,1.43 1.21,0.1 0.47,-0.03 z m -1.63,0.09 c -0.85,1.96 2.03,0.24 0,0 z m 14.85,0.28 c -0.01,-0.02 -0.07,-0.02 -0.25,0.07 -0.21,0.4 0.28,0.01 0.25,-0.07 z m -17.66,0.32 c -0.95,-0.11 0.79,1.49 0.59,0.15 -0.25,-0.1 -0.45,-0.14 -0.59,-0.15 z m 9.06,0.34 c -0.08,0 -0.16,0.03 -0.28,0.06 -0.91,1.86 1.49,-0.15 0.28,-0.06 z m -1.15,0.25 c -0.02,-0.04 -0.09,-0.02 -0.25,0.09 -0.08,0.6 0.31,0.03 0.25,-0.09 z m -2.63,0.28 c -0.06,0.11 0.84,1.1 0.47,0.28 -0.31,-0.25 -0.45,-0.32 -0.47,-0.28 z M 8.02,25.34 c -0.3,1.7 2.3,1.05 0,0 z m 20.28,0.03 c -2.05,2.4 4.56,1.83 1.63,0.22 -0.54,-0.06 -1.1,-0.08 -1.63,-0.22 z m 5.91,0.22 c -0.48,0.27 -0.29,0.16 0,0 z m -22.31,0 c -0.89,1.92 1.92,0.84 0,0 z m 12.25,0.09 c -0.86,1.4 1.9,0.7 0,0 z m -2.57,0.13 c -0.44,2.02 2,0.56 0,0 z M 18.9,25.87 C 18.16,25.83 20.44,27.39 19.43,26 19.18,25.91 19,25.88 18.9,25.87 z M 7.15,26.03 c -0.1,-0.02 -0.24,-0.02 -0.44,0.03 -0.4,1.41 1.14,0.08 0.44,-0.03 z m 7.78,0.59 c -1.89,1.16 1.31,1.71 0,0 z m 0.72,0.13 c -1.42,1.94 2,1.15 0,0 z M 27.27,27 c -0.08,0 -0.18,0.04 -0.31,0.09 0.1,0.92 0.85,-0.11 0.31,-0.09 z m -8.59,0.28 c -0.1,-0.01 -0.22,-0.01 -0.35,0 -0.26,1.88 1.78,0.11 0.35,0 z M 8.15,27.62 C 6.19,29.03 11.2,30.46 8.77,28.28 8.56,28.06 8.35,27.85 8.15,27.62 z m 11.62,0.09 c -2.24,2 3.94,2.58 1.41,0.54 -0.41,-0.29 -0.9,-0.51 -1.41,-0.54 z m 9.19,0.35 c -0.52,-0.13 -0.24,1.07 0.28,0.15 -0.11,-0.08 -0.21,-0.13 -0.28,-0.15 z m -15.31,0 c -0.8,1.33 1.91,1.29 0,0 z m -2.63,0.03 c -0.54,0.83 0.95,0.09 0,0 z m 5.81,0.19 c -3.12,0.42 2.21,4.29 0.91,1.12 -0.3,-0.37 -0.61,-0.74 -0.91,-1.12 z m 6.72,0.06 c -0.92,2.08 2.09,0.8 0,0 z m 1.06,0.06 c -0.31,0.88 1.09,0.29 0,0 z m -17.71,0 c 0.02,1.27 -1.31,3.6 0.62,4 0.23,-1.35 0.14,-2.82 -0.62,-4 z m 19.68,0.13 c -0.89,1.39 1.53,-0.04 0,0 z m -15.84,0.72 c -0.18,0.98 1.07,0.02 0,0 z m 2.09,0.5 c 0.15,1.91 1.86,-0.03 0,0 z m 13.19,0.56 c -0.97,0.46 0.83,0.18 0,0 z m -15.34,0.06 c -0.04,-0.01 -0.09,-0.01 -0.19,0 -0.63,0.55 0.42,0.07 0.19,0 z m 1.47,0.06 c -0.75,0.18 0.56,0.19 0,0 z m 12.78,0.35 c -0.01,-0.02 -0.06,-0.02 -0.16,0.03 -0.08,0.21 0.19,0.01 0.16,-0.03 z m -9.22,0.15 c -0.48,0.9 0.97,0.01 0,0 z m 7.44,0.25 c -1.18,1.62 2.23,0.8 0,0 z m -3.97,0 c -0.96,0.29 0.75,0.19 0,0 z m -6.41,0.13 c 0.05,2.18 2.28,0.21 0,0 z m -1.59,0.09 c -2.85,-0.37 1.03,4.24 0.34,0.85 -0.03,-0.3 -0.13,-0.62 -0.34,-0.85 z m 6.56,0.69 c -0.52,-0.2 0.4,1.24 0.31,0.19 -0.14,-0.11 -0.24,-0.16 -0.31,-0.19 z m -5.53,0.75 c -1.42,1.42 0.68,6.73 2.25,4 -0.07,-1.61 -1.32,-2.81 -2.25,-4 z m 2.9,0.09 c -0.91,1.67 1.62,0.97 0,0 z M 8.61,33 c -0.51,0.75 0.45,0.4 0,0 z m 8.82,0.34 c -0.03,-0.01 -0.08,-0.01 -0.16,0 -0.56,0.44 0.33,0.05 0.16,0 z m -3.82,0.19 c 0.08,1.04 0.64,0.09 0,0 z m -3.93,0.18 c 0,1.43 0.05,6.08 1.9,4.72 -0.08,-1.74 -0.88,-3.34 -1.9,-4.72 z m 6.84,0.16 c -0.09,-0.01 -0.19,0 -0.31,0 -0.77,1.95 1.65,0.19 0.31,0 z m 1.56,0.22 c -0.01,-0.03 -0.06,-0.03 -0.18,0.03 -0.07,0.42 0.24,0.07 0.18,-0.03 z M 7.61,34.12 C 6.18,34.8 8.01,37.53 7.58,35 7.59,34.71 7.61,34.41 7.61,34.12 z m 7.54,1 c -0.5,1.97 1.91,0.19 0,0 z m 0,1.5 c -1.13,1.3 1.6,0.35 0,0 z m 1.68,0.09 c -0.06,-0.01 -0.16,-0.01 -0.28,0 -0.22,0.75 0.7,0.12 0.28,0 z"
       id="p3444"
       style="fill:#300700;fill-opacity:0.02000002;fill-rule:evenodd;stroke:none" />
    <path
       d="m 5.18,26.93 c 0.55,0.08 1.12,0.27 1.62,0.66 1.17,0.9 5.4,4.77 5.94,5.31 0.54,0.54 0.63,0.56 1.34,1.1 0.81,1.88 -0.09,3.21 -0.81,4.56 -0.32,0.6 -0.84,1.36 -1.47,2 0,0 -0.02,-0.01 -0.03,0 C 11.12,40.4 10.36,40.13 9.74,39.65 8.5,38.69 3.62,34.35 3.21,33.53 2.8,32.7 2.79,32.06 3.27,31.03 3.7,30.11 4.2,28.34 5.18,26.93 z"
       id="p3413"
       style="fill:#f7a341;fill-opacity:0.2;fill-rule:evenodd;stroke:none;display:inline" />
    <path
       d="m 44.3,14.65 c -0.2,0.42 -0.48,0.96 -0.84,1.66 -1.37,1.03 -7.64,5.78 -14.28,10.78 -3.48,2.61 -6.91,5.18 -9.5,7.12 -1.36,1.02 -2.9,2.28 -4.1,3.04 -1.18,0.74 -1.84,1.77 -3.31,0.62 -1.47,-1.15 -5.78,-4.4 -8.94,-7 0.18,-0.41 0.37,-0.94 0.6,-1.53 0.03,0.02 0.06,0.07 0.09,0.09 3.13,2.63 6.57,5.04 9.78,7.57 0.38,0.26 0.65,0.05 1,-0.16 1.45,-1.09 2.92,-2.17 4.38,-3.25 2.59,-1.94 6.02,-4.54 9.5,-7.16 6.94,-5.22 14.03,-10.53 14.93,-11.22 0.01,0 0.03,-0.03 0.04,-0.03 0,0 -0.01,-0.02 0,-0.03 0.03,-0.03 0.08,-0.06 0.12,-0.09 0.08,-0.07 0.17,-0.13 0.28,-0.22 0.07,-0.06 0.17,-0.13 0.25,-0.19 z"
       id="p3396"
       style="fill:#ede3c3;fill-opacity:0.87000002;fill-rule:evenodd;stroke:none;display:inline" />
    <path
       d="m 5.93,26.09 c 0.24,0.63 0.36,1.4 0.72,1.87 0.54,0.72 7.06,4.93 7.87,5.47 0.81,0.54 0.83,1.1 1.09,1.91 0.19,0.55 -0.57,2.6 -1.68,5.06 -0.35,0.23 -0.6,0.35 -0.66,0.35 -0.55,0 -2.29,-0.13 -3.53,-1.1 C 8.5,38.69 3.62,34.35 3.21,33.53 2.8,32.7 2.79,32.06 3.27,31.03 3.75,29.99 4.31,27.88 5.55,26.43 5.62,26.35 5.81,26.2 5.93,26.09 z"
       id="p3416"
       style="fill:#f7c941;fill-opacity:0.15;fill-rule:evenodd;stroke:none;display:inline" />
    <path
       d="m 44.9,12.15 c 0.15,0.74 -0.12,1.51 -0.35,2 -0.34,0.76 -2.2,4.49 -2.69,4.91 -0.48,0.41 -10.05,7.79 -12.18,9.37 -2.14,1.59 -15.86,12.32 -16.41,12.32 -0.15,0 -0.42,-0.03 -0.72,-0.07 0.62,-2.31 1.57,-5.57 2.16,-6.09 0.72,-0.63 20.49,-15.99 22.37,-17.16 1.56,-0.96 5.94,-4.48 7.82,-5.28 z"
       id="p3431"
       style="fill:#1d0400;fill-opacity:0.18000004;fill-rule:evenodd;stroke:none;display:inline" />
    <path
       d="m 44.9,12.15 c 0.15,0.74 -0.12,1.51 -0.35,2 -0.34,0.76 -2.2,4.49 -2.69,4.91 -0.29,0.25 -3.6,2.81 -6.9,5.34 0.06,-2.16 -0.11,-4.45 -0.41,-4.94 -0.03,-0.04 -0.03,-0.08 -0.06,-0.12 1.25,-0.94 2.26,-1.7 2.59,-1.91 1.56,-0.96 5.94,-4.48 7.82,-5.28 z"
       id="p3428"
       style="fill:#000e30;fill-opacity:0.12000002;fill-rule:evenodd;stroke:none;display:inline" />
    <path
       d="m 44.21,11.05 c 1.17,0.96 0.69,2.34 0.35,3.1 -0.35,0.76 -2.21,4.48 -2.69,4.89 -0.48,0.42 -10.07,7.79 -12.2,9.38 C 27.53,30 13.81,40.76 13.26,40.76 12.71,40.76 10.99,40.62 9.75,39.65 8.51,38.69 3.61,34.35 3.2,33.52 2.79,32.69 2.79,32.07 3.27,31.04 3.75,30 4.3,27.87 5.54,26.42 c 1.24,-1.45 11.65,-8 16.75,-11.37 5.1,-3.38 11.17,-7.24 11.72,-7.45 0.55,-0.2 1.24,-0.41 2.14,-0.14 0.89,0.28 7.37,3.04 8.06,3.59 z"
       id="p3391"
       style="fill:none;stroke:#1c1212;stroke-width:0.5;stroke-linecap:butt;stroke-linejoin:round;stroke-miterlimit:4;stroke-opacity:1;stroke-dasharray:none;display:inline" />
  </g>
</svg>
