<?xml version="1.0" encoding="UTF-8" standalone="no"?>
<!-- Created with Inkscape (http://www.inkscape.org/) -->

<svg
   xmlns:svg="http://www.w3.org/2000/svg"
   xmlns="http://www.w3.org/2000/svg"
   xmlns:xlink="http://www.w3.org/1999/xlink"
   version="1.0"
   width="100%"
   height="100%"
   viewBox="0 0 48 48"
   id="_stabilo01"
   style="display:inline">
  <defs
     id="defs2385">
    <filter
       color-interpolation-filters="sRGB"
       id="filter4022">
      <feBlend
         in2="BackgroundImage"
         mode="screen"
         id="feBlend4024" />
    </filter>
    <clipPath
       id="clipPath3129">
      <rect
         width="48"
         height="48"
         ry="0"
         x="0"
         y="0"
         id="r3131"
         style="fill:#000000;fill-opacity:1;fill-rule:evenodd;stroke:#d7d7d7;stroke-width:0.91000003;stroke-linecap:round;stroke-linejoin:miter;stroke-miterlimit:4;stroke-opacity:0.86000001;stroke-dasharray:none;stroke-dashoffset:0;marker:none;visibility:visible;display:inline;overflow:visible;enable-background:accumulate" />
    </clipPath>
    <linearGradient
       x1="45.91"
       y1="45.650002"
       x2="6.23"
       y2="2.4300001"
       id="lg2418"
       xlink:href="#lg3892"
       gradientUnits="userSpaceOnUse" />
    <linearGradient
       id="lg3920-2">
      <stop
         id="s3922-8"
         style="stop-color:#000000;stop-opacity:1"
         offset="0" />
      <stop
         id="s3924-9"
         style="stop-color:#363838;stop-opacity:1"
         offset="1" />
    </linearGradient>
    <linearGradient
       x1="24.280001"
       y1="6.8600001"
       x2="24.280001"
       y2="37.880001"
       id="lg3926-9"
       xlink:href="#lg3920-2"
       gradientUnits="userSpaceOnUse" />
    <linearGradient
       x1="24.280001"
       y1="6.8600001"
       x2="24.280001"
       y2="37.880001"
       id="lg3926"
       xlink:href="#lg3920"
       gradientUnits="userSpaceOnUse" />
    <linearGradient
       x1="45.91"
       y1="45.650002"
       x2="6.23"
       y2="2.4300001"
       id="lg3898"
       xlink:href="#lg3892"
       gradientUnits="userSpaceOnUse" />
    <linearGradient
       id="lg3892">
      <stop
         id="s3894"
         style="stop-color:#050707;stop-opacity:1"
         offset="0" />
      <stop
         id="s3896"
         style="stop-color:#d6d6d6;stop-opacity:1"
         offset="1" />
    </linearGradient>
    <linearGradient
       id="lg3920">
      <stop
         id="s3922"
         style="stop-color:#000000;stop-opacity:1"
         offset="0" />
      <stop
         id="s3924"
         style="stop-color:#363838;stop-opacity:1"
         offset="1" />
    </linearGradient>
    <linearGradient
       x1="23.870001"
       y1="21.450001"
       x2="23.870001"
       y2="41.560001"
       id="lg2479"
       xlink:href="#lg3934"
       gradientUnits="userSpaceOnUse" />
    <linearGradient
       x1="9.8900003"
       y1="9.3900003"
       x2="40.07"
       y2="9.3900003"
       id="lg2475"
       xlink:href="#lg4189"
       gradientUnits="userSpaceOnUse" />
    <linearGradient
       x1="9.8900003"
       y1="9.3900003"
       x2="40.07"
       y2="9.3900003"
       id="lg4195"
       xlink:href="#lg4189"
       gradientUnits="userSpaceOnUse" />
    <linearGradient
       x1="23.870001"
       y1="21.450001"
       x2="23.870001"
       y2="41.560001"
       id="lg3940"
       xlink:href="#lg3934"
       gradientUnits="userSpaceOnUse" />
    <linearGradient
       id="lg3934">
      <stop
         id="s3936"
         style="stop-color:#772527;stop-opacity:1"
         offset="0" />
      <stop
         id="s3938"
         style="stop-color:#ff9f46;stop-opacity:1"
         offset="1" />
    </linearGradient>
    <linearGradient
       id="lg4189">
      <stop
         id="s4191"
         style="stop-color:#db2525;stop-opacity:1"
         offset="0" />
      <stop
         id="s4201"
         style="stop-color:#decd0e;stop-opacity:1"
         offset="0.25" />
      <stop
         id="s4203"
         style="stop-color:#36e41f;stop-opacity:1"
         offset="0.37" />
      <stop
         id="s4197"
         style="stop-color:#28ddbe;stop-opacity:1"
         offset="0.5" />
      <stop
         id="s4199"
         style="stop-color:#232bd8;stop-opacity:1"
         offset="0.75" />
      <stop
         id="s4193"
         style="stop-color:#dc2eb6;stop-opacity:1"
         offset="1" />
    </linearGradient>
    <linearGradient
       id="lg4189-954">
      <stop
         id="s2453"
         style="stop-color:#5b5b5b;stop-opacity:1"
         offset="0" />
      <stop
         id="s2455"
         style="stop-color:#bcbcbc;stop-opacity:1"
         offset="0.25" />
      <stop
         id="s2457"
         style="stop-color:#9a9a9a;stop-opacity:1"
         offset="0.37" />
      <stop
         id="s2459"
         style="stop-color:#a3a3a3;stop-opacity:1"
         offset="0.5" />
      <stop
         id="s2461"
         style="stop-color:#3c3c3c;stop-opacity:1"
         offset="0.75" />
      <stop
         id="s2463"
         style="stop-color:#727272;stop-opacity:1"
         offset="1" />
    </linearGradient>
    <linearGradient
       x1="9.8900003"
       y1="9.3900003"
       x2="40.07"
       y2="9.3900003"
       id="lg2475-51"
       xlink:href="#lg4189-954"
       gradientUnits="userSpaceOnUse" />
    <linearGradient
       id="lg3934-130">
      <stop
         id="s2447"
         style="stop-color:#3e3e3e;stop-opacity:1"
         offset="0" />
      <stop
         id="s2449"
         style="stop-color:#b2b2b2;stop-opacity:1"
         offset="1" />
    </linearGradient>
    <linearGradient
       x1="23.870001"
       y1="21.450001"
       x2="23.870001"
       y2="41.560001"
       id="lg2479-392"
       xlink:href="#lg3934-130"
       gradientUnits="userSpaceOnUse" />
    <linearGradient
       x1="23.870001"
       y1="21.450001"
       x2="23.870001"
       y2="41.560001"
       id="lg3444"
       xlink:href="#lg3934"
       gradientUnits="userSpaceOnUse" />
    <linearGradient
       x1="9.8900003"
       y1="9.3900003"
       x2="40.07"
       y2="9.3900003"
       id="lg3442"
       xlink:href="#lg4189"
       gradientUnits="userSpaceOnUse" />
    <linearGradient
       x1="9.8900003"
       y1="9.3900003"
       x2="40.07"
       y2="9.3900003"
       id="lg3440"
       xlink:href="#lg4189"
       gradientUnits="userSpaceOnUse" />
    <linearGradient
       x1="23.870001"
       y1="21.450001"
       x2="23.870001"
       y2="41.560001"
       id="lg3438"
       xlink:href="#lg3934"
       gradientUnits="userSpaceOnUse" />
    <linearGradient
       id="lg3432">
      <stop
         id="s3434"
         style="stop-color:#3e3e3e;stop-opacity:1"
         offset="0" />
      <stop
         id="s3436"
         style="stop-color:#b2b2b2;stop-opacity:1"
         offset="1" />
    </linearGradient>
    <linearGradient
       id="lg3418">
      <stop
         id="s3420"
         style="stop-color:#5b5b5b;stop-opacity:1"
         offset="0" />
      <stop
         id="s3422"
         style="stop-color:#bcbcbc;stop-opacity:1"
         offset="0.25" />
      <stop
         id="s3424"
         style="stop-color:#9a9a9a;stop-opacity:1"
         offset="0.37" />
      <stop
         id="s3426"
         style="stop-color:#a3a3a3;stop-opacity:1"
         offset="0.5" />
      <stop
         id="s3428"
         style="stop-color:#3c3c3c;stop-opacity:1"
         offset="0.75" />
      <stop
         id="s3430"
         style="stop-color:#727272;stop-opacity:1"
         offset="1" />
    </linearGradient>
    <linearGradient
       id="linearGradient2916">
      <stop
         id="stop2918"
         style="stop-color:#5b5b5b;stop-opacity:1"
         offset="0" />
      <stop
         id="stop2920"
         style="stop-color:#bcbcbc;stop-opacity:1"
         offset="0.25" />
      <stop
         id="stop2922"
         style="stop-color:#9a9a9a;stop-opacity:1"
         offset="0.37" />
      <stop
         id="stop2924"
         style="stop-color:#a3a3a3;stop-opacity:1"
         offset="0.5" />
      <stop
         id="stop2926"
         style="stop-color:#3c3c3c;stop-opacity:1"
         offset="0.75" />
      <stop
         id="stop2928"
         style="stop-color:#727272;stop-opacity:1"
         offset="1" />
    </linearGradient>
    <linearGradient
       id="linearGradient2910">
      <stop
         id="stop2912"
         style="stop-color:#3e3e3e;stop-opacity:1"
         offset="0" />
      <stop
         id="stop2914"
         style="stop-color:#b2b2b2;stop-opacity:1"
         offset="1" />
    </linearGradient>
    <linearGradient
       x1="23.870001"
       y1="21.450001"
       x2="23.870001"
       y2="41.560001"
       id="linearGradient2908"
       xlink:href="#lg3934"
       gradientUnits="userSpaceOnUse" />
    <linearGradient
       x1="9.8900003"
       y1="9.3900003"
       x2="40.07"
       y2="9.3900003"
       id="linearGradient2906"
       xlink:href="#lg4189"
       gradientUnits="userSpaceOnUse" />
    <linearGradient
       x1="9.8900003"
       y1="9.3900003"
       x2="40.07"
       y2="9.3900003"
       id="linearGradient2904"
       xlink:href="#lg4189"
       gradientUnits="userSpaceOnUse" />
    <linearGradient
       x1="23.870001"
       y1="21.450001"
       x2="23.870001"
       y2="41.560001"
       id="linearGradient2902"
       xlink:href="#lg3934"
       gradientUnits="userSpaceOnUse" />
    <linearGradient
       x1="23.870001"
       y1="21.450001"
       x2="23.870001"
       y2="41.560001"
       id="linearGradient2900"
       xlink:href="#lg3934-130"
       gradientUnits="userSpaceOnUse" />
    <linearGradient
       id="linearGradient2894">
      <stop
         id="stop2896"
         style="stop-color:#3e3e3e;stop-opacity:1"
         offset="0" />
      <stop
         id="stop2898"
         style="stop-color:#b2b2b2;stop-opacity:1"
         offset="1" />
    </linearGradient>
    <linearGradient
       x1="9.8900003"
       y1="9.3900003"
       x2="40.07"
       y2="9.3900003"
       id="linearGradient2892"
       xlink:href="#lg4189-954"
       gradientUnits="userSpaceOnUse" />
    <linearGradient
       id="linearGradient2878">
      <stop
         id="stop2880"
         style="stop-color:#5b5b5b;stop-opacity:1"
         offset="0" />
      <stop
         id="stop2882"
         style="stop-color:#bcbcbc;stop-opacity:1"
         offset="0.25" />
      <stop
         id="stop2884"
         style="stop-color:#9a9a9a;stop-opacity:1"
         offset="0.37" />
      <stop
         id="stop2886"
         style="stop-color:#a3a3a3;stop-opacity:1"
         offset="0.5" />
      <stop
         id="stop2888"
         style="stop-color:#3c3c3c;stop-opacity:1"
         offset="0.75" />
      <stop
         id="stop2890"
         style="stop-color:#727272;stop-opacity:1"
         offset="1" />
    </linearGradient>
    <linearGradient
       id="linearGradient2864">
      <stop
         id="stop2866"
         style="stop-color:#db2525;stop-opacity:1"
         offset="0" />
      <stop
         id="stop2868"
         style="stop-color:#decd0e;stop-opacity:1"
         offset="0.25" />
      <stop
         id="stop2870"
         style="stop-color:#36e41f;stop-opacity:1"
         offset="0.37" />
      <stop
         id="stop2872"
         style="stop-color:#28ddbe;stop-opacity:1"
         offset="0.5" />
      <stop
         id="stop2874"
         style="stop-color:#232bd8;stop-opacity:1"
         offset="0.75" />
      <stop
         id="stop2876"
         style="stop-color:#dc2eb6;stop-opacity:1"
         offset="1" />
    </linearGradient>
    <linearGradient
       id="linearGradient2858">
      <stop
         id="stop2860"
         style="stop-color:#772527;stop-opacity:1"
         offset="0" />
      <stop
         id="stop2862"
         style="stop-color:#ff9f46;stop-opacity:1"
         offset="1" />
    </linearGradient>
    <linearGradient
       x1="23.870001"
       y1="21.450001"
       x2="23.870001"
       y2="41.560001"
       id="linearGradient2856"
       xlink:href="#lg3934"
       gradientUnits="userSpaceOnUse" />
    <linearGradient
       x1="9.8900003"
       y1="9.3900003"
       x2="40.07"
       y2="9.3900003"
       id="linearGradient2854"
       xlink:href="#lg4189"
       gradientUnits="userSpaceOnUse" />
    <linearGradient
       x1="9.8900003"
       y1="9.3900003"
       x2="40.07"
       y2="9.3900003"
       id="linearGradient2852"
       xlink:href="#lg4189"
       gradientUnits="userSpaceOnUse" />
    <linearGradient
       x1="23.870001"
       y1="21.450001"
       x2="23.870001"
       y2="41.560001"
       id="linearGradient2850"
       xlink:href="#lg3934"
       gradientUnits="userSpaceOnUse" />
    <linearGradient
       id="linearGradient2844">
      <stop
         id="stop2846"
         style="stop-color:#000000;stop-opacity:1"
         offset="0" />
      <stop
         id="stop2848"
         style="stop-color:#363838;stop-opacity:1"
         offset="1" />
    </linearGradient>
    <linearGradient
       id="linearGradient2838">
      <stop
         id="stop2840"
         style="stop-color:#050707;stop-opacity:1"
         offset="0" />
      <stop
         id="stop2842"
         style="stop-color:#d6d6d6;stop-opacity:1"
         offset="1" />
    </linearGradient>
    <linearGradient
       x1="45.91"
       y1="45.650002"
       x2="6.23"
       y2="2.4300001"
       id="linearGradient2836"
       xlink:href="#lg3892"
       gradientUnits="userSpaceOnUse" />
    <linearGradient
       x1="24.280001"
       y1="6.8600001"
       x2="24.280001"
       y2="37.880001"
       id="linearGradient2834"
       xlink:href="#lg3920"
       gradientUnits="userSpaceOnUse" />
    <linearGradient
       x1="24.280001"
       y1="6.8600001"
       x2="24.280001"
       y2="37.880001"
       id="linearGradient2832"
       xlink:href="#lg3920-2"
       gradientUnits="userSpaceOnUse" />
    <linearGradient
       id="linearGradient2826">
      <stop
         id="stop2828"
         style="stop-color:#000000;stop-opacity:1"
         offset="0" />
      <stop
         id="stop2830"
         style="stop-color:#363838;stop-opacity:1"
         offset="1" />
    </linearGradient>
    <linearGradient
       x1="45.91"
       y1="45.650002"
       x2="6.23"
       y2="2.4300001"
       id="linearGradient2824"
       xlink:href="#lg3892"
       gradientUnits="userSpaceOnUse" />
    <clipPath
       id="clipPath2820">
      <rect
         width="48"
         height="48"
         ry="0"
         x="0"
         y="0"
         id="rect2822"
         style="fill:#000000;fill-opacity:1;fill-rule:evenodd;stroke:#d7d7d7;stroke-width:0.91000003;stroke-linecap:round;stroke-linejoin:miter;stroke-miterlimit:4;stroke-opacity:0.86000001;stroke-dasharray:none;stroke-dashoffset:0;marker:none;visibility:visible;display:inline;overflow:visible;enable-background:accumulate" />
    </clipPath>
    <filter
       color-interpolation-filters="sRGB"
       id="filter2816">
      <feBlend
         in2="BackgroundImage"
         mode="screen"
         id="feBlend2818" />
    </filter>
    <filter
       color-interpolation-filters="sRGB"
       id="filter4007">
      <feBlend
         in2="BackgroundImage"
         mode="screen"
         id="feBlend4009" />
    </filter>
    <clipPath
       id="clipPath4003">
      <rect
         width="48"
         height="48"
         ry="0"
         x="0"
         y="0"
         id="rect4005"
         style="fill:#000000;fill-opacity:1;fill-rule:evenodd;stroke:#d7d7d7;stroke-width:0.91000003;stroke-linecap:round;stroke-linejoin:miter;stroke-miterlimit:4;stroke-opacity:0.86000001;stroke-dasharray:none;stroke-dashoffset:0;marker:none;visibility:visible;display:inline;overflow:visible;enable-background:accumulate" />
    </clipPath>
    <linearGradient
       x1="45.91"
       y1="45.650002"
       x2="6.23"
       y2="2.4300001"
       id="linearGradient4001"
       xlink:href="#lg3892"
       gradientUnits="userSpaceOnUse" />
    <linearGradient
       id="linearGradient3995">
      <stop
         id="stop3997"
         style="stop-color:#000000;stop-opacity:1"
         offset="0" />
      <stop
         id="stop3999"
         style="stop-color:#363838;stop-opacity:1"
         offset="1" />
    </linearGradient>
    <linearGradient
       x1="24.280001"
       y1="6.8600001"
       x2="24.280001"
       y2="37.880001"
       id="linearGradient3993"
       xlink:href="#lg3920-2"
       gradientUnits="userSpaceOnUse" />
    <linearGradient
       x1="24.280001"
       y1="6.8600001"
       x2="24.280001"
       y2="37.880001"
       id="linearGradient3991"
       xlink:href="#lg3920"
       gradientUnits="userSpaceOnUse" />
    <linearGradient
       x1="45.91"
       y1="45.650002"
       x2="6.23"
       y2="2.4300001"
       id="linearGradient3989"
       xlink:href="#lg3892"
       gradientUnits="userSpaceOnUse" />
    <linearGradient
       id="linearGradient3983">
      <stop
         id="stop3985"
         style="stop-color:#050707;stop-opacity:1"
         offset="0" />
      <stop
         id="stop3987"
         style="stop-color:#d6d6d6;stop-opacity:1"
         offset="1" />
    </linearGradient>
    <linearGradient
       id="linearGradient3977">
      <stop
         id="stop3979"
         style="stop-color:#000000;stop-opacity:1"
         offset="0" />
      <stop
         id="stop3981"
         style="stop-color:#363838;stop-opacity:1"
         offset="1" />
    </linearGradient>
    <linearGradient
       x1="23.870001"
       y1="21.450001"
       x2="23.870001"
       y2="41.560001"
       id="linearGradient3975"
       xlink:href="#lg3934"
       gradientUnits="userSpaceOnUse" />
    <linearGradient
       x1="9.8900003"
       y1="9.3900003"
       x2="40.07"
       y2="9.3900003"
       id="linearGradient3973"
       xlink:href="#lg4189"
       gradientUnits="userSpaceOnUse" />
    <linearGradient
       x1="9.8900003"
       y1="9.3900003"
       x2="40.07"
       y2="9.3900003"
       id="linearGradient3971"
       xlink:href="#lg4189"
       gradientUnits="userSpaceOnUse" />
    <linearGradient
       x1="23.870001"
       y1="21.450001"
       x2="23.870001"
       y2="41.560001"
       id="linearGradient3969"
       xlink:href="#lg3934"
       gradientUnits="userSpaceOnUse" />
    <linearGradient
       id="linearGradient3963">
      <stop
         id="stop3965"
         style="stop-color:#772527;stop-opacity:1"
         offset="0" />
      <stop
         id="stop3967"
         style="stop-color:#ff9f46;stop-opacity:1"
         offset="1" />
    </linearGradient>
    <linearGradient
       id="linearGradient3949">
      <stop
         id="stop3951"
         style="stop-color:#db2525;stop-opacity:1"
         offset="0" />
      <stop
         id="stop3953"
         style="stop-color:#decd0e;stop-opacity:1"
         offset="0.25" />
      <stop
         id="stop3955"
         style="stop-color:#36e41f;stop-opacity:1"
         offset="0.37" />
      <stop
         id="stop3957"
         style="stop-color:#28ddbe;stop-opacity:1"
         offset="0.5" />
      <stop
         id="stop3959"
         style="stop-color:#232bd8;stop-opacity:1"
         offset="0.75" />
      <stop
         id="stop3961"
         style="stop-color:#dc2eb6;stop-opacity:1"
         offset="1" />
    </linearGradient>
    <linearGradient
       id="linearGradient3935">
      <stop
         id="stop3937"
         style="stop-color:#5b5b5b;stop-opacity:1"
         offset="0" />
      <stop
         id="stop3939"
         style="stop-color:#bcbcbc;stop-opacity:1"
         offset="0.25" />
      <stop
         id="stop3941"
         style="stop-color:#9a9a9a;stop-opacity:1"
         offset="0.37" />
      <stop
         id="stop3943"
         style="stop-color:#a3a3a3;stop-opacity:1"
         offset="0.5" />
      <stop
         id="stop3945"
         style="stop-color:#3c3c3c;stop-opacity:1"
         offset="0.75" />
      <stop
         id="stop3947"
         style="stop-color:#727272;stop-opacity:1"
         offset="1" />
    </linearGradient>
    <linearGradient
       x1="9.8900003"
       y1="9.3900003"
       x2="40.07"
       y2="9.3900003"
       id="linearGradient3933"
       xlink:href="#lg4189-954"
       gradientUnits="userSpaceOnUse" />
    <linearGradient
       id="linearGradient3927">
      <stop
         id="stop3929"
         style="stop-color:#3e3e3e;stop-opacity:1"
         offset="0" />
      <stop
         id="stop3931"
         style="stop-color:#b2b2b2;stop-opacity:1"
         offset="1" />
    </linearGradient>
    <linearGradient
       x1="23.870001"
       y1="21.450001"
       x2="23.870001"
       y2="41.560001"
       id="linearGradient3925"
       xlink:href="#lg3934-130"
       gradientUnits="userSpaceOnUse" />
    <linearGradient
       x1="23.870001"
       y1="21.450001"
       x2="23.870001"
       y2="41.560001"
       id="linearGradient3923"
       xlink:href="#lg3934"
       gradientUnits="userSpaceOnUse" />
    <linearGradient
       x1="9.8900003"
       y1="9.3900003"
       x2="40.07"
       y2="9.3900003"
       id="linearGradient3921"
       xlink:href="#lg4189"
       gradientUnits="userSpaceOnUse" />
    <linearGradient
       x1="9.8900003"
       y1="9.3900003"
       x2="40.07"
       y2="9.3900003"
       id="linearGradient3919"
       xlink:href="#lg4189"
       gradientUnits="userSpaceOnUse" />
    <linearGradient
       x1="23.870001"
       y1="21.450001"
       x2="23.870001"
       y2="41.560001"
       id="linearGradient3917"
       xlink:href="#lg3934"
       gradientUnits="userSpaceOnUse" />
    <linearGradient
       id="linearGradient3911">
      <stop
         id="stop3913"
         style="stop-color:#3e3e3e;stop-opacity:1"
         offset="0" />
      <stop
         id="stop3915"
         style="stop-color:#b2b2b2;stop-opacity:1"
         offset="1" />
    </linearGradient>
    <linearGradient
       id="linearGradient3897">
      <stop
         id="stop3899"
         style="stop-color:#5b5b5b;stop-opacity:1"
         offset="0" />
      <stop
         id="stop3901"
         style="stop-color:#bcbcbc;stop-opacity:1"
         offset="0.25" />
      <stop
         id="stop3903"
         style="stop-color:#9a9a9a;stop-opacity:1"
         offset="0.37" />
      <stop
         id="stop3905"
         style="stop-color:#a3a3a3;stop-opacity:1"
         offset="0.5" />
      <stop
         id="stop3907"
         style="stop-color:#3c3c3c;stop-opacity:1"
         offset="0.75" />
      <stop
         id="stop3909"
         style="stop-color:#727272;stop-opacity:1"
         offset="1" />
    </linearGradient>
    <linearGradient
       id="linearGradient3883">
      <stop
         id="stop3885"
         style="stop-color:#5b5b5b;stop-opacity:1"
         offset="0" />
      <stop
         id="stop3887"
         style="stop-color:#bcbcbc;stop-opacity:1"
         offset="0.25" />
      <stop
         id="stop3889"
         style="stop-color:#9a9a9a;stop-opacity:1"
         offset="0.37" />
      <stop
         id="stop3891"
         style="stop-color:#a3a3a3;stop-opacity:1"
         offset="0.5" />
      <stop
         id="stop3893"
         style="stop-color:#3c3c3c;stop-opacity:1"
         offset="0.75" />
      <stop
         id="stop3895"
         style="stop-color:#727272;stop-opacity:1"
         offset="1" />
    </linearGradient>
    <linearGradient
       id="linearGradient3877">
      <stop
         id="stop3879"
         style="stop-color:#3e3e3e;stop-opacity:1"
         offset="0" />
      <stop
         id="stop3881"
         style="stop-color:#b2b2b2;stop-opacity:1"
         offset="1" />
    </linearGradient>
    <linearGradient
       x1="23.870001"
       y1="21.450001"
       x2="23.870001"
       y2="41.560001"
       id="linearGradient3875"
       xlink:href="#lg3934"
       gradientUnits="userSpaceOnUse" />
    <linearGradient
       x1="9.8900003"
       y1="9.3900003"
       x2="40.07"
       y2="9.3900003"
       id="linearGradient3873"
       xlink:href="#lg4189"
       gradientUnits="userSpaceOnUse" />
    <linearGradient
       x1="9.8900003"
       y1="9.3900003"
       x2="40.07"
       y2="9.3900003"
       id="linearGradient3871"
       xlink:href="#lg4189"
       gradientUnits="userSpaceOnUse" />
    <linearGradient
       x1="23.870001"
       y1="21.450001"
       x2="23.870001"
       y2="41.560001"
       id="linearGradient3869"
       xlink:href="#lg3934"
       gradientUnits="userSpaceOnUse" />
    <linearGradient
       x1="23.870001"
       y1="21.450001"
       x2="23.870001"
       y2="41.560001"
       id="linearGradient3867"
       xlink:href="#lg3934-130"
       gradientUnits="userSpaceOnUse" />
    <linearGradient
       id="linearGradient3861">
      <stop
         id="stop3863"
         style="stop-color:#3e3e3e;stop-opacity:1"
         offset="0" />
      <stop
         id="stop3865"
         style="stop-color:#b2b2b2;stop-opacity:1"
         offset="1" />
    </linearGradient>
    <linearGradient
       x1="9.8900003"
       y1="9.3900003"
       x2="40.07"
       y2="9.3900003"
       id="linearGradient3859"
       xlink:href="#lg4189-954"
       gradientUnits="userSpaceOnUse" />
    <linearGradient
       id="linearGradient3845">
      <stop
         id="stop3847"
         style="stop-color:#5b5b5b;stop-opacity:1"
         offset="0" />
      <stop
         id="stop3849"
         style="stop-color:#bcbcbc;stop-opacity:1"
         offset="0.25" />
      <stop
         id="stop3851"
         style="stop-color:#9a9a9a;stop-opacity:1"
         offset="0.37" />
      <stop
         id="stop3853"
         style="stop-color:#a3a3a3;stop-opacity:1"
         offset="0.5" />
      <stop
         id="stop3855"
         style="stop-color:#3c3c3c;stop-opacity:1"
         offset="0.75" />
      <stop
         id="stop3857"
         style="stop-color:#727272;stop-opacity:1"
         offset="1" />
    </linearGradient>
    <linearGradient
       id="linearGradient3831">
      <stop
         id="stop3833"
         style="stop-color:#db2525;stop-opacity:1"
         offset="0" />
      <stop
         id="stop3835"
         style="stop-color:#decd0e;stop-opacity:1"
         offset="0.25" />
      <stop
         id="stop3837"
         style="stop-color:#36e41f;stop-opacity:1"
         offset="0.37" />
      <stop
         id="stop3839"
         style="stop-color:#28ddbe;stop-opacity:1"
         offset="0.5" />
      <stop
         id="stop3841"
         style="stop-color:#232bd8;stop-opacity:1"
         offset="0.75" />
      <stop
         id="stop3843"
         style="stop-color:#dc2eb6;stop-opacity:1"
         offset="1" />
    </linearGradient>
    <linearGradient
       id="linearGradient3825">
      <stop
         id="stop3827"
         style="stop-color:#772527;stop-opacity:1"
         offset="0" />
      <stop
         id="stop3829"
         style="stop-color:#ff9f46;stop-opacity:1"
         offset="1" />
    </linearGradient>
    <linearGradient
       x1="23.870001"
       y1="21.450001"
       x2="23.870001"
       y2="41.560001"
       id="linearGradient3823"
       xlink:href="#lg3934"
       gradientUnits="userSpaceOnUse" />
    <linearGradient
       x1="9.8900003"
       y1="9.3900003"
       x2="40.07"
       y2="9.3900003"
       id="linearGradient3821"
       xlink:href="#lg4189"
       gradientUnits="userSpaceOnUse" />
    <linearGradient
       x1="9.8900003"
       y1="9.3900003"
       x2="40.07"
       y2="9.3900003"
       id="linearGradient3819"
       xlink:href="#lg4189"
       gradientUnits="userSpaceOnUse" />
    <linearGradient
       x1="23.870001"
       y1="21.450001"
       x2="23.870001"
       y2="41.560001"
       id="linearGradient3817"
       xlink:href="#lg3934"
       gradientUnits="userSpaceOnUse" />
    <linearGradient
       id="linearGradient3811">
      <stop
         id="stop3813"
         style="stop-color:#000000;stop-opacity:1"
         offset="0" />
      <stop
         id="stop3815"
         style="stop-color:#363838;stop-opacity:1"
         offset="1" />
    </linearGradient>
    <linearGradient
       id="linearGradient3805">
      <stop
         id="stop3807"
         style="stop-color:#050707;stop-opacity:1"
         offset="0" />
      <stop
         id="stop3809"
         style="stop-color:#d6d6d6;stop-opacity:1"
         offset="1" />
    </linearGradient>
    <linearGradient
       x1="45.91"
       y1="45.650002"
       x2="6.23"
       y2="2.4300001"
       id="linearGradient3803"
       xlink:href="#lg3892"
       gradientUnits="userSpaceOnUse" />
    <linearGradient
       x1="24.280001"
       y1="6.8600001"
       x2="24.280001"
       y2="37.880001"
       id="linearGradient3801"
       xlink:href="#lg3920"
       gradientUnits="userSpaceOnUse" />
    <linearGradient
       x1="24.280001"
       y1="6.8600001"
       x2="24.280001"
       y2="37.880001"
       id="linearGradient3799"
       xlink:href="#lg3920-2"
       gradientUnits="userSpaceOnUse" />
    <linearGradient
       id="linearGradient3793">
      <stop
         id="stop3795"
         style="stop-color:#000000;stop-opacity:1"
         offset="0" />
      <stop
         id="stop3797"
         style="stop-color:#363838;stop-opacity:1"
         offset="1" />
    </linearGradient>
    <linearGradient
       x1="45.91"
       y1="45.650002"
       x2="6.23"
       y2="2.4300001"
       id="linearGradient3791"
       xlink:href="#lg3892"
       gradientUnits="userSpaceOnUse" />
    <clipPath
       id="clipPath3787">
      <rect
         width="48"
         height="48"
         ry="0"
         x="0"
         y="0"
         id="rect3789"
         style="fill:#000000;fill-opacity:1;fill-rule:evenodd;stroke:#d7d7d7;stroke-width:0.91000003;stroke-linecap:round;stroke-linejoin:miter;stroke-miterlimit:4;stroke-opacity:0.86000001;stroke-dasharray:none;stroke-dashoffset:0;marker:none;visibility:visible;display:inline;overflow:visible;enable-background:accumulate" />
    </clipPath>
    <filter
       color-interpolation-filters="sRGB"
       id="filter3783">
      <feBlend
         in2="BackgroundImage"
         mode="screen"
         id="feBlend3785" />
    </filter>
  </defs>
  <path
     d="M 48,0 48,48 0,48 0,0 48,0 z M 36.5625,27.71875 c -5.060395,-1e-6 -9.15625,4.095855 -9.15625,9.15625 -1e-6,5.060395 4.095855,9.15625 9.15625,9.15625 5.060396,10e-7 9.15625,-4.095855 9.15625,-9.15625 0,-5.060395 -4.095855,-9.15625 -9.15625,-9.15625 z"
     id="rect2533"
     style="fill:#ffffff;fill-opacity:1;fill-rule:evenodd;stroke:none;stroke-width:1;marker:none;visibility:visible;display:inline;overflow:visible;enable-background:accumulate" />
  <rect
     width="47.5"
     height="47.5"
     ry="4"
     x="0.25"
     y="0.25"
     id="r3365"
     style="fill:none;stroke:#000000;stroke-width:0.5;stroke-linecap:round;stroke-linejoin:miter;stroke-miterlimit:4;stroke-opacity:1;stroke-dasharray:none;stroke-dashoffset:0;marker:none;visibility:visible;display:inline;overflow:visible;enable-background:accumulate" />
  <g
     transform="translate(-0.46800991,-0.10843466)"
     id="red02"
     style="display:inline">
    <path
       d="m 41.81,5.4 c -0.21,0 -0.43,0.05 -0.56,0.19 -0.28,0.27 -1.41,1.37 -1.41,1.37 0,0 -0.67,0.04 -2.28,0.69 -1.62,0.65 -4.67,3.56 -6.28,5.38 -1.62,1.82 -3.85,4.57 -3.47,4.84 0.38,0.27 1.47,-0.47 1.47,-0.47 0,0 -8.64,8.4 -11.25,10.94 C 15.42,30.88 7.46,39.36 6.5,40.5 c -0.97,1.13 -0.66,1.81 -0.66,1.81 0,0 -1.14,0.77 -0.71,1.22 0.41,0.43 1.3,-0.66 1.3,-0.66 0,0 0.87,0.26 1.73,-0.65 0.85,-0.89 11.23,-10.05 12.43,-11.26 1.2,-1.2 22.31,-22 22.62,-22.34 0.31,-0.34 0.66,-0.65 0.69,-1.06 0.04,-0.41 -0.34,-0.78 -0.34,-0.78 0,0 0.32,-0.2 0.25,-0.44 C 43.74,6.1 43.13,5.5 43,5.5 c -0.14,0 -0.32,0.31 -0.32,0.31 0,0 -0.2,-0.21 -0.37,-0.31 -0.09,-0.06 -0.29,-0.09 -0.5,-0.1 z m -6.6,5.78 c 0.16,0.02 0.22,0.16 0.22,0.16 L 29.62,17 c -0.1,-0.11 -0.05,-0.3 0.19,-0.54 0.24,-0.24 4.94,-5.11 5.22,-5.25 0.06,-0.03 0.13,-0.03 0.18,-0.03 z"
       id="p2516-3"
       style="fill:#910505;fill-opacity:1;fill-rule:evenodd;stroke:none" />
    <path
       d="M 42.53,5.75 18.34,29.21 19.51,30.73 43.63,7.06 42.53,5.75 z"
       id="p3477-5"
       style="fill:#4f0707;fill-opacity:0.41000001;fill-rule:evenodd;stroke:none;display:inline" />
    <path
       d="m 18.15,28.21 c -0.03,0.03 -0.09,0.1 -0.12,0.13 C 15.42,30.88 7.46,39.36 6.5,40.5 c -0.97,1.13 -0.66,1.81 -0.66,1.81 0,0 -1.15,0.77 -0.72,1.22 0.41,0.43 1.31,-0.66 1.31,-0.66 0,0 0.86,0.25 1.72,-0.66 C 9,41.32 19.39,32.17 20.59,30.96 c 0,0 0.03,-0.03 0.03,-0.03 -0.74,-0.84 -1.58,-1.77 -2.47,-2.72 z"
       id="p3474-6"
       style="fill:#f8f5ee;fill-opacity:1;fill-rule:evenodd;stroke:none" />
    <path
       d="m 42.7,6.57 0.36,0.38"
       id="p3485-1"
       style="fill:none;stroke:#cee5f7;stroke-width:0.40000001;stroke-linecap:round;stroke-linejoin:miter;stroke-miterlimit:4;stroke-opacity:0.62000002;stroke-dasharray:none;display:inline" />
    <path
       d="M 43.66,6.65 42.76,5.67"
       id="p3483-4"
       style="fill:none;stroke:#f1f8ff;stroke-width:0.60000002;stroke-linecap:butt;stroke-linejoin:miter;stroke-miterlimit:4;stroke-opacity:0.62000002;stroke-dasharray:none;display:inline" />
    <path
       d="m 19,29.09 -9.47,9.22 0.9,0.94 9.47,-9.13 C 19.68,29.87 19.23,29.34 19,29.09 z"
       id="p3498-0"
       style="fill:#2c2c2c;fill-opacity:1;fill-rule:evenodd;stroke:none;display:inline" />
    <path
       d="m 9.56,38.28 -2.1,2.03 0.1,0.25 -2.6,2.53 0.66,0.59 2.5,-2.53 0.31,0.03 2.03,-1.97 -0.9,-0.93 z"
       id="p3508-3"
       style="fill:#d8c277;fill-opacity:1;fill-rule:evenodd;stroke:none;display:inline" />
    <path
       d="M 7.71,40.57 17,31.58"
       id="p3511-1"
       style="fill:none;stroke:#f2f2ee;stroke-width:0.30000001;stroke-linecap:round;stroke-linejoin:miter;stroke-miterlimit:4;stroke-opacity:0.62000002;stroke-dasharray:none;display:inline" />
    <path
       d="m 17.91,30.81 1.07,-1.07"
       id="p3513-2"
       style="fill:none;stroke:#e1e1e1;stroke-width:0.30000001;stroke-linecap:round;stroke-linejoin:miter;stroke-miterlimit:4;stroke-opacity:0.6;stroke-dasharray:none;display:inline" />
    <path
       d="m 8.06,39.75 -0.22,0.18 0.91,0.94 0.21,-0.22 -0.9,-0.9 z"
       id="p3529-7"
       style="fill:#514632;fill-opacity:0.65;fill-rule:evenodd;stroke:none;display:inline" />
    <path
       d="M 6.01,42.51 7.73,40.83"
       id="p3539-7"
       style="fill:none;stroke:#84642b;stroke-width:0.30000001;stroke-linecap:butt;stroke-linejoin:miter;stroke-miterlimit:4;stroke-opacity:0.33000004;stroke-dasharray:none;display:inline" />
    <path
       d="M 7.36,41.62 7.77,41.2"
       id="p3542-9"
       style="fill:none;stroke:#f3f3f3;stroke-width:0.30000001;stroke-linecap:round;stroke-linejoin:miter;stroke-miterlimit:4;stroke-opacity:0.7;stroke-dasharray:none" />
    <path
       d="M 40.14,8.59 42.13,6.56"
       id="p3546-8"
       style="fill:none;stroke:#f5f5f5;stroke-width:0.30000001;stroke-linecap:round;stroke-linejoin:miter;stroke-miterlimit:4;stroke-opacity:0.27999998;stroke-dasharray:none;display:inline" />
    <path
       d="m 19.25,29.23 19,-18.75"
       id="p3544-1"
       style="fill:none;stroke:#f5f5f5;stroke-width:0.30000001;stroke-linecap:round;stroke-linejoin:miter;stroke-miterlimit:4;stroke-opacity:0.37000002;stroke-dasharray:none;display:inline" />
    <path
       d="m 38.16,9.61 c -0.08,0.3 0.53,0.81 0.71,0.81 0.18,0 1.22,-1.04 1.22,-1.2 0,-0.15 -0.46,-0.56 -0.64,-0.56 -0.18,0 -0.81,0.31 -1.29,0.95 z"
       id="p3550-0"
       style="fill:#b8b4ab;fill-opacity:0.86000001;fill-rule:evenodd;stroke:none;display:inline" />
    <path
       d="m 35.5,10.5 c -0.14,-0.01 -0.31,0.01 -0.47,0.06 -0.64,0.2 -5.85,5.86 -5.88,6.09 -0.02,0.23 0.2,0.16 0.25,0.56 l 0.22,-0.25 c -0.08,-0.1 -0.04,-0.27 0.19,-0.5 0.24,-0.24 4.94,-5.11 5.22,-5.25 0.06,-0.03 0.13,-0.03 0.18,-0.03 0.16,0.02 0.22,0.16 0.22,0.16 l 0.75,-0.65 c 0,0 -0.27,-0.17 -0.68,-0.19 z"
       id="p3553-7"
       style="fill:#0d0b0b;fill-opacity:0.31000001;fill-rule:evenodd;stroke:none;display:inline" />
    <path
       d="m 38.31,8.34 c -0.14,0 -0.37,0.06 -0.69,0.28 -0.64,0.43 -0.77,0.98 -1.28,1.19 l -1.19,0.37 c -0.13,0.03 -0.26,0.12 -0.37,0.16 -0.13,0.04 -0.24,0.17 -0.41,0.31 -0.17,0.15 -0.38,0.33 -0.62,0.56 -0.49,0.47 -1.11,1.1 -1.75,1.79 -1.21,1.28 -2.51,2.74 -3.38,3.81 -0.15,0.01 -0.23,0.02 -0.37,0.03 -0.34,0.51 -0.57,0.94 -0.44,1.03 0.38,0.27 1.47,-0.47 1.47,-0.47 l 0.65,-0.62 c 0,0 -0.08,0 -0.09,0 L 29.62,17 c -0.05,-0.06 -0.06,-0.13 -0.03,-0.22 -0.04,0 -0.01,-0.01 -0.06,0 -0.09,0 -0.34,0.02 -0.5,0.03 0.86,-1.04 2.05,-2.38 3.18,-3.6 0.64,-0.68 1.24,-1.31 1.72,-1.78 0.24,-0.23 0.46,-0.42 0.63,-0.56 0.16,-0.14 0.29,-0.21 0.31,-0.22 0.45,-0.26 0.93,-0.17 1.28,-0.01 L 38.5,8.4 c 0,0 -0.06,-0.06 -0.19,-0.06 z m -9.03,9.06 c 0,0 -0.19,0.15 -0.19,0.16 l 0.09,-0.03 0.1,-0.13 z"
       id="p3556-6"
       style="fill:#a4a492;fill-opacity:0.37000002;fill-rule:evenodd;stroke:none;display:inline" />
    <path
       d="M 36.14,10.29 37.79,8.76"
       id="p3579-0"
       style="fill:none;stroke:#e9e9e9;stroke-width:0.40000001;stroke-linecap:round;stroke-linejoin:miter;stroke-miterlimit:4;stroke-opacity:0.12000002;stroke-dasharray:none;display:inline" />
    <path
       d="m 38.19,9.56 c -0.16,0.45 0.5,0.86 0.68,0.86 0.18,0 1.22,-1.04 1.22,-1.2 0,-0.15 -0.46,-0.56 -0.64,-0.56 -0.18,0 -1.11,0.47 -1.26,0.9 z"
       id="p3582-1"
       style="fill:none;stroke:#3d0404;stroke-width:0.2;stroke-linecap:butt;stroke-linejoin:miter;stroke-miterlimit:4;stroke-opacity:1;stroke-dasharray:none;display:inline" />
    <path
       d="m 40.06,9.12 c -1.06,0.5 -1.49,1.02 -1.28,1.28 0.02,0.01 0.07,0.03 0.09,0.03 0.18,0 1.22,-1.06 1.22,-1.22 0,-0.02 -0.02,-0.06 -0.03,-0.09 z"
       id="p3584-0"
       style="fill:#0d0d0b;fill-opacity:0.41000001;fill-rule:evenodd;stroke:none" />
    <path
       d="m 41.81,5.4 c -0.21,0 -0.43,0.05 -0.56,0.19 -0.28,0.27 -1.41,1.37 -1.41,1.37 0,0 -0.67,0.04 -2.28,0.69 -1.62,0.65 -4.67,3.56 -6.28,5.38 -1.62,1.82 -3.85,4.57 -3.47,4.84 0.38,0.27 1.47,-0.47 1.47,-0.47 0,0 -8.64,8.4 -11.25,10.94 C 15.42,30.88 7.46,39.36 6.5,40.5 c -0.97,1.13 -0.66,1.81 -0.66,1.81 0,0 -1.14,0.77 -0.71,1.22 0.41,0.43 1.3,-0.66 1.3,-0.66 0,0 0.87,0.26 1.73,-0.65 0.85,-0.89 11.23,-10.05 12.43,-11.26 1.2,-1.2 22.31,-22 22.62,-22.34 0.31,-0.34 0.66,-0.65 0.69,-1.06 0.04,-0.41 -0.34,-0.78 -0.34,-0.78 0,0 0.32,-0.2 0.25,-0.44 C 43.74,6.1 43.13,5.5 43,5.5 c -0.14,0 -0.32,0.31 -0.32,0.31 0,0 -0.2,-0.21 -0.37,-0.31 -0.09,-0.06 -0.29,-0.09 -0.5,-0.1 z"
       id="p3471-2"
       style="fill:none;stroke:#000000;stroke-width:0.5;stroke-linecap:butt;stroke-linejoin:round;stroke-miterlimit:4;stroke-opacity:1;stroke-dasharray:none" />
  </g>
</svg>
