<?xml version="1.0" encoding="UTF-8" standalone="no"?>
<!DOCTYPE svg PUBLIC "-//W3C//DTD SVG 1.0//EN" "http://www.w3.org/TR/2001/REC-SVG-20010904/DTD/svg10.dtd">
<svg xmlns:svg="http://www.w3.org/2000/svg" xmlns="http://www.w3.org/2000/svg" xmlns:xlink="http://www.w3.org/1999/xlink" version="1.0" width="100%" height="100%" viewBox="0 0 48 48" id="svg2383">
<defs id="defs2385">
<linearGradient id="lg3304">
<stop id="s3306" style="stop-color:#e3f4f4;stop-opacity:1" offset="0"/>
<stop id="s3308" style="stop-color:#adbdd8;stop-opacity:1" offset="1"/>
</linearGradient>
<linearGradient x1="6.82" y1="8.69" x2="42.71" y2="42.73" id="lg3310" xlink:href="#lg3304" gradientUnits="userSpaceOnUse"/>
<filter id="filter3333">
<feBlend id="feBlend3335" in2="BackgroundImage" mode="multiply" />
</filter>
</defs>
<g id="layer4" style="display:inline">
<path d="M 8.72,4.83 C 6.48,4.83 4.69,6.65 4.69,8.89 L 4.69,40.80 C 4.69,43.04 6.48,44.83 8.72,44.83 L 40.62,44.83 C 42.86,44.83 44.69,43.04 44.69,40.80 L 44.69,8.89 C 44.69,6.65 42.86,4.83 40.62,4.83 L 8.72,4.83 z M 10.72,6.61 C 12.39,6.61 13.75,7.94 13.75,9.61 C 13.75,11.28 12.39,12.64 10.72,12.64 C 9.05,12.64 7.72,11.28 7.72,9.61 C 7.72,7.94 9.05,6.61 10.72,6.61 z M 20.28,6.61 C 21.95,6.61 23.31,7.94 23.31,9.61 C 23.31,11.28 21.95,12.64 20.28,12.64 C 18.61,12.64 17.28,11.28 17.28,9.61 C 17.28,7.94 18.61,6.61 20.28,6.61 z M 29.47,6.61 C 31.14,6.61 32.47,7.94 32.47,9.61 C 32.47,11.28 31.14,12.64 29.47,12.64 C 27.80,12.64 26.44,11.28 26.44,9.61 C 26.44,7.94 27.80,6.61 29.47,6.61 z M 39.31,6.61 C 40.98,6.61 42.34,7.94 42.34,9.61 C 42.34,11.28 40.98,12.64 39.31,12.64 C 37.64,12.64 36.28,11.28 36.28,9.61 C 36.28,7.94 37.64,6.61 39.31,6.61 z" id="p3338" style="opacity:1;fill:none;fill-opacity:1;fill-rule:evenodd;stroke:#000000;stroke-width:1.39;stroke-linecap:square;stroke-linejoin:round;marker:none;stroke-miterlimit:4;stroke-dasharray:none;stroke-dashoffset:0;stroke-opacity:0.78;visibility:visible;display:inline;overflow:visible;filter:url(#filter3333);enable-background:accumulate"/>
<path d="M 8.03,4 C 5.79,4 4,5.82 4,8.06 L 4,39.96 C 4,42.20 5.79,43.99 8.03,44 L 39.93,44 C 42.17,44 44,42.20 44,39.96 L 44,8.06 C 44,5.82 42.17,4 39.93,4 L 8.03,4 z M 10.03,5.78 C 11.70,5.78 13.06,7.11 13.06,8.78 C 13.06,10.45 11.70,11.81 10.03,11.81 C 8.36,11.81 7.03,10.45 7.03,8.78 C 7.03,7.11 8.36,5.78 10.03,5.78 z M 19.59,5.78 C 21.26,5.78 22.62,7.11 22.62,8.78 C 22.62,10.45 21.26,11.81 19.59,11.81 C 17.92,11.81 16.59,10.45 16.59,8.78 C 16.59,7.11 17.92,5.78 19.59,5.78 z M 28.78,5.78 C 30.45,5.78 31.78,7.11 31.78,8.78 C 31.78,10.45 30.45,11.81 28.78,11.81 C 27.11,11.81 25.75,10.45 25.75,8.78 C 25.74,7.11 27.11,5.78 28.78,5.78 z M 38.62,5.78 C 40.29,5.78 41.65,7.11 41.65,8.78 C 41.65,10.45 40.29,11.81 38.62,11.81 C 36.95,11.81 35.59,10.45 35.59,8.78 C 35.59,7.11 36.95,5.78 38.62,5.78 z" id="r3302" style="opacity:1;fill:url(#lg3310);fill-opacity:1;fill-rule:evenodd;stroke:none;marker:none;visibility:visible;display:inline;overflow:visible;enable-background:accumulate"/>
<g id="layer6" style="opacity:0.95;display:inline">
<path d="M 5.26,43.01 L 42.27,43.01" id="p3366" style="fill:none;fill-rule:evenodd;stroke:#537387;stroke-width:0.40;stroke-linecap:butt;stroke-linejoin:miter;stroke-miterlimit:4;stroke-dasharray:none;stroke-opacity:0.39"/>
<path d="M 3.97,38.01 L 43.91,38.01" id="p3368" style="fill:none;fill-rule:evenodd;stroke:#537387;stroke-width:0.40;stroke-linecap:butt;stroke-linejoin:miter;stroke-miterlimit:4;stroke-dasharray:none;stroke-opacity:0.39"/>
<path d="M 3.76,32.95 L 43.91,32.95" id="p3370" style="fill:none;fill-rule:evenodd;stroke:#537387;stroke-width:0.40;stroke-linecap:butt;stroke-linejoin:miter;stroke-miterlimit:4;stroke-dasharray:none;stroke-opacity:0.39"/>
<path d="M 3.97,27.96 L 43.98,27.96" id="p3372" style="fill:none;fill-rule:evenodd;stroke:#537387;stroke-width:0.40;stroke-linecap:butt;stroke-linejoin:miter;stroke-miterlimit:4;stroke-dasharray:none;stroke-opacity:0.39"/>
<path d="M 4.04,22.98 L 43.83,22.98" id="p3374" style="fill:none;fill-rule:evenodd;stroke:#537387;stroke-width:0.40;stroke-linecap:butt;stroke-linejoin:miter;stroke-miterlimit:4;stroke-dasharray:none;stroke-opacity:0.39"/>
<path d="M 4.28,17.97 L 43.88,17.97" id="p3376" style="fill:none;fill-rule:evenodd;stroke:#537387;stroke-width:0.40;stroke-linecap:butt;stroke-linejoin:miter;stroke-miterlimit:4;stroke-dasharray:none;stroke-opacity:0.39"/>
<path d="M 4.08,12.99 L 43.88,12.99" id="p3378" style="fill:none;fill-rule:evenodd;stroke:#537387;stroke-width:0.40;stroke-linecap:butt;stroke-linejoin:miter;stroke-miterlimit:4;stroke-dasharray:none;stroke-opacity:0.39"/>
<path d="M 4.08,8.00 L 7.08,8.00" id="p3380" style="fill:none;fill-rule:evenodd;stroke:#537387;stroke-width:0.40;stroke-linecap:butt;stroke-linejoin:miter;stroke-miterlimit:4;stroke-dasharray:none;stroke-opacity:0.39"/>
<path d="M 12.96,8.00 L 16.35,8.00" id="p3382" style="fill:none;fill-rule:evenodd;stroke:#537387;stroke-width:0.40;stroke-linecap:butt;stroke-linejoin:miter;stroke-miterlimit:4;stroke-dasharray:none;stroke-opacity:0.39"/>
<path d="M 22.53,8.00 L 25.43,8.00" id="p3384" style="fill:none;fill-rule:evenodd;stroke:#537387;stroke-width:0.40;stroke-linecap:butt;stroke-linejoin:miter;stroke-miterlimit:4;stroke-dasharray:none;stroke-opacity:0.39"/>
<path d="M 31.61,8.00 L 35.40,8.00" id="p3386" style="fill:none;fill-rule:evenodd;stroke:#537387;stroke-width:0.40;stroke-linecap:butt;stroke-linejoin:miter;stroke-miterlimit:4;stroke-dasharray:none;stroke-opacity:0.39"/>
<path d="M 41.48,8.10 L 43.78,8.10" id="p3388" style="fill:none;fill-rule:evenodd;stroke:#537387;stroke-width:0.40;stroke-linecap:butt;stroke-linejoin:miter;stroke-miterlimit:4;stroke-dasharray:none;stroke-opacity:0.39"/>
</g>
<path d="M 8.03,4 C 5.79,4 4,5.82 4,8.06 L 4,39.96 C 4,42.20 5.79,43.99 8.03,44 L 39.93,44 C 42.17,44 44,42.20 44,39.96 L 44,8.06 C 44,5.82 42.17,4 39.93,4 L 8.03,4 z M 10.03,5.78 C 11.70,5.78 13.06,7.11 13.06,8.78 C 13.06,10.45 11.70,11.81 10.03,11.81 C 8.36,11.81 7.03,10.45 7.03,8.78 C 7.03,7.11 8.36,5.78 10.03,5.78 z M 19.59,5.78 C 21.26,5.78 22.62,7.11 22.62,8.78 C 22.62,10.45 21.26,11.81 19.59,11.81 C 17.92,11.81 16.59,10.45 16.59,8.78 C 16.59,7.11 17.92,5.78 19.59,5.78 z M 28.78,5.78 C 30.45,5.78 31.78,7.11 31.78,8.78 C 31.78,10.45 30.45,11.81 28.78,11.81 C 27.11,11.81 25.75,10.45 25.75,8.78 C 25.74,7.11 27.11,5.78 28.78,5.78 z M 38.62,5.78 C 40.29,5.78 41.65,7.11 41.65,8.78 C 41.65,10.45 40.29,11.81 38.62,11.81 C 36.95,11.81 35.59,10.45 35.59,8.78 C 35.59,7.11 36.95,5.78 38.62,5.78 z" id="p3329" style="opacity:1;fill:none;fill-opacity:1;fill-rule:evenodd;stroke:#404854;stroke-width:1;stroke-linecap:square;stroke-linejoin:round;marker:none;stroke-miterlimit:4;stroke-dasharray:none;stroke-dashoffset:0;stroke-opacity:1;visibility:visible;display:inline;overflow:visible;enable-background:accumulate"/>
<path d="M 10.25,1.78 C 9.56,1.78 9,2.31 9,3 L 9,7.59 C 9,8.27 9.56,8.81 10.25,8.81 C 10.93,8.81 11.46,8.27 11.46,7.59 L 11.46,3 C 11.46,2.31 10.93,1.78 10.25,1.78 z M 20.06,1.78 C 19.37,1.78 18.84,2.31 18.84,3 L 18.84,7.59 C 18.84,8.27 19.37,8.81 20.06,8.81 C 20.74,8.81 21.28,8.27 21.28,7.59 L 21.28,3 C 21.28,2.31 20.74,1.78 20.06,1.78 z M 29.18,1.78 C 28.50,1.78 27.96,2.31 27.96,3 L 27.96,7.59 C 27.96,8.27 28.50,8.81 29.18,8.81 C 29.87,8.81 30.40,8.27 30.40,7.59 L 30.40,3 C 30.40,2.31 29.87,1.78 29.18,1.78 z M 38.87,1.78 C 38.19,1.78 37.62,2.31 37.62,3 L 37.62,7.59 C 37.62,8.27 38.19,8.81 38.87,8.81 C 39.55,8.81 40.09,8.27 40.09,7.59 L 40.09,3 C 40.09,2.31 39.55,1.78 38.87,1.78 z" id="r3349" style="opacity:1;fill:#555555;fill-opacity:1;fill-rule:evenodd;stroke:none;marker:none;visibility:visible;display:inline;overflow:visible;enable-background:accumulate"/>
<path d="M 10.25,1.78 C 9.56,1.78 9,2.31 9,3 L 9,7.59 C 9,8.27 9.56,8.81 10.25,8.81 C 10.93,8.81 11.46,8.27 11.46,7.59 L 11.46,3 C 11.46,2.31 10.93,1.78 10.25,1.78 z M 20.06,1.78 C 19.37,1.78 18.84,2.31 18.84,3 L 18.84,7.59 C 18.84,8.27 19.37,8.81 20.06,8.81 C 20.74,8.81 21.28,8.27 21.28,7.59 L 21.28,3 C 21.28,2.31 20.74,1.78 20.06,1.78 z M 29.18,1.78 C 28.50,1.78 27.96,2.31 27.96,3 L 27.96,7.59 C 27.96,8.27 28.50,8.81 29.18,8.81 C 29.87,8.81 30.40,8.27 30.40,7.59 L 30.40,3 C 30.40,2.31 29.87,1.78 29.18,1.78 z M 38.87,1.78 C 38.19,1.78 37.62,2.31 37.62,3 L 37.62,7.59 C 37.62,8.27 38.19,8.81 38.87,8.81 C 39.55,8.81 40.09,8.27 40.09,7.59 L 40.09,3 C 40.09,2.31 39.55,1.78 38.87,1.78 z" id="p3390" style="opacity:1;fill:none;fill-opacity:1;fill-rule:evenodd;stroke:#252b2f;stroke-width:0.69;stroke-linecap:square;stroke-linejoin:round;marker:none;stroke-miterlimit:4;stroke-dasharray:none;stroke-dashoffset:0;stroke-opacity:1;visibility:visible;display:inline;overflow:visible;enable-background:accumulate"/>
<path d="M 9.65,4.61 L 9.65,3.26" id="p3392" style="fill:none;fill-rule:evenodd;stroke:#f1f1f1;stroke-width:1.20;stroke-linecap:round;stroke-linejoin:miter;stroke-miterlimit:4;stroke-dasharray:none;stroke-opacity:0.84"/>
<path d="M 19.57,4.61 L 19.57,3.26" id="p3394" style="fill:none;fill-rule:evenodd;stroke:#f1f1f1;stroke-width:1.20;stroke-linecap:round;stroke-linejoin:miter;stroke-miterlimit:4;stroke-dasharray:none;stroke-opacity:0.84;display:inline"/>
<path d="M 28.68,4.61 L 28.68,3.26" id="p3396" style="fill:none;fill-rule:evenodd;stroke:#f1f1f1;stroke-width:1.20;stroke-linecap:round;stroke-linejoin:miter;stroke-miterlimit:4;stroke-dasharray:none;stroke-opacity:0.84;display:inline"/>
<path d="M 38.33,4.61 L 38.33,3.26" id="p3398" style="fill:none;fill-rule:evenodd;stroke:#f1f1f1;stroke-width:1.20;stroke-linecap:round;stroke-linejoin:miter;stroke-miterlimit:4;stroke-dasharray:none;stroke-opacity:0.84;display:inline"/>
<path d="M 37.16,40.16 C 37.16,40.16 37.29,37.01 37.04,36.13 C 36.78,35.25 36.16,34.36 35.02,33.61 C 33.89,32.85 6.90,14.19 5.87,13.60 C 4.52,12.81 3.04,12.84 1.94,14.17 C 1.14,15.13 0.95,17.07 2.66,18.50 C 3.89,19.53 30.61,40.79 31.74,41.17 C 32.32,41.35 33.11,41.55 34.34,41.24 C 35.56,40.95 37.23,40.16 37.16,40.16 z" id="p3709" style="fill:none;fill-opacity:1;fill-rule:evenodd;stroke:#000000;stroke-width:1.16;stroke-linecap:butt;stroke-linejoin:miter;stroke-miterlimit:4;stroke-dasharray:none;stroke-opacity:0.49"/>
<path d="M 37.05,39.69 C 37.05,39.69 37.17,36.55 36.92,35.66 C 36.67,34.78 36.04,33.90 34.90,33.15 C 33.77,32.39 6.08,13.22 5.06,12.61 C 4.40,12.22 2.91,12.33 1.91,13.75 C 1.19,14.78 1.28,17.02 2.54,18.03 C 3.80,19.04 30.50,40.32 31.63,40.70 C 32.20,40.88 32.99,41.08 34.22,40.78 C 35.45,40.48 37.12,39.69 37.05,39.69 z" id="p2550" style="fill:#e3ba92;fill-opacity:1;fill-rule:evenodd;stroke:none"/>
<path d="M 35.12,36.15 C 35.12,36.15 33.22,33.08 32.86,32.79 C 32.49,32.49 24.00,25.84 20.64,23.57 C 17.28,21.30 5.57,12.97 3.16,12.82" id="p3398" style="fill:none;fill-rule:evenodd;stroke:#844808;stroke-width:0.29;stroke-linecap:butt;stroke-linejoin:miter;stroke-miterlimit:4;stroke-dasharray:none;stroke-opacity:0.33;display:inline"/>
<path d="M 2.32,13.29 C 7.13,16.30 24.97,28.67 33.01,34.48 L 33.10,40.90 C 32.49,40.92 32.01,40.82 31.64,40.70 C 30.51,40.32 3.79,19.05 2.53,18.04 C 1.28,17.03 1.20,14.77 1.92,13.75 C 2.04,13.57 2.18,13.42 2.32,13.29 z" id="p3401" style="fill:#954d2b;fill-opacity:0.28;fill-rule:evenodd;stroke:none;display:inline"/>
<path d="M 1.53,14.72 C 11.73,19.40 28.56,34.97 31.52,38.56 L 30.79,40.14 C 26.17,36.87 3.68,18.96 2.53,18.04 C 1.59,17.28 1.30,15.83 1.53,14.72 z" id="p3403" style="fill:#f1e7e3;fill-opacity:0.27;fill-rule:evenodd;stroke:none;display:inline"/>
<path d="M 33.29,33.21 C 35.36,33.21 37.04,35.05 37.04,37.29 C 37.04,38.45 36.57,39.47 35.85,40.21 C 35.33,40.42 34.76,40.66 34.23,40.79 C 33.00,41.09 32.21,40.88 31.64,40.70 C 31.52,40.65 31.05,40.32 30.39,39.84 C 29.86,39.14 29.52,38.26 29.52,37.29 C 29.52,35.05 31.21,33.21 33.29,33.21 z" id="p3327" style="fill:#bb8e6d;fill-opacity:1;fill-rule:evenodd;stroke:none;marker:none;visibility:visible;display:inline;overflow:visible;enable-background:accumulate"/>
<path d="M 2.43,13.26 C 6.81,15.23 16.84,21.74 19.03,23.42 C 21.22,25.11 26.56,29.78 27.88,31.18 C 29.19,32.56 30.51,33.88 30.80,33.88 C 31.09,33.88 33.88,36.73 33.88,36.73" id="p3395" style="fill:none;fill-rule:evenodd;stroke:#844808;stroke-width:0.38;stroke-linecap:butt;stroke-linejoin:miter;stroke-miterlimit:4;stroke-dasharray:none;stroke-opacity:0.33;display:inline"/>
<path d="M 1.62,14.20 C 6.23,15.89 10.04,18.01 15.08,21.52 C 20.12,25.03 25.32,30.37 26.56,31.54 C 27.81,32.71 29.63,34.98 30.07,34.83 C 30.51,34.69 32.93,36.66 33.44,37.17" id="p3389" style="fill:none;fill-rule:evenodd;stroke:#844808;stroke-width:0.38;stroke-linecap:butt;stroke-linejoin:miter;stroke-miterlimit:4;stroke-dasharray:none;stroke-opacity:0.33;display:inline"/>
<path d="M 30.76,34.27 C 32.19,35.48 34.42,37.43 36.34,39.60 C 36.19,39.81 36.02,40.03 35.85,40.21 C 35.33,40.42 34.76,40.66 34.23,40.79 C 33.00,41.09 32.21,40.88 31.64,40.70 C 31.52,40.65 31.05,40.32 30.39,39.84 C 29.86,39.14 29.52,38.26 29.52,37.29 C 29.52,36.09 30.00,35.02 30.76,34.27 z" id="p3357" style="fill:#592a15;fill-opacity:0.27;fill-rule:evenodd;stroke:none;display:inline"/>
<path d="M 30.30,34.81 L 36.37,39.54 C 36.32,39.61 36.27,39.68 36.21,39.75 L 29.52,37.40 C 29.52,37.37 29.52,37.33 29.52,37.29 C 29.52,36.35 29.82,35.50 30.30,34.81 z" id="p3359" style="fill:#742306;fill-opacity:0.21;fill-rule:evenodd;stroke:none;display:inline"/>
<path d="M 1.55,14.93 C 7.25,17.56 13.25,21.30 15.67,23.28 C 18.07,25.25 25.54,32.93 27.29,34.91 C 29.05,36.88 29.13,37.02 29.42,37.17 C 29.71,37.32 34.68,38.71 34.68,38.71" id="p3392" style="fill:none;fill-rule:evenodd;stroke:#844808;stroke-width:0.48;stroke-linecap:butt;stroke-linejoin:miter;stroke-miterlimit:4;stroke-dasharray:none;stroke-opacity:0.33;display:inline"/>
<path d="M 33.32,33.21 L 36.67,38.95 C 36.64,39.03 36.58,39.10 36.55,39.17 L 31.25,33.88 C 31.84,33.46 32.54,33.21 33.29,33.21 C 33.30,33.21 33.31,33.21 33.32,33.21 z" id="p3361" style="fill:#e0b39f;fill-opacity:0.45;fill-rule:evenodd;stroke:none;display:inline"/>
<path d="M 35.26,36.16 C 36.00,36.16 36.66,36.52 37.07,37.07 C 37.11,38.27 37.04,39.69 37.04,39.69 C 37.09,39.69 36.00,40.18 34.93,40.54 C 33.88,40.37 33.07,39.48 33.07,38.38 C 33.07,37.16 34.05,36.16 35.26,36.16 z" id="p3325" style="fill:#0e0e0e;fill-opacity:1;fill-rule:evenodd;stroke:none;marker:none;visibility:visible;display:inline;overflow:visible;enable-background:accumulate"/>
<path d="M 34.45,33.42 C 35.07,33.63 35.60,34.02 36.02,34.54 L 36.76,38.71 C 36.74,38.79 36.70,38.86 36.67,38.93 L 34.45,33.42 z" id="p3363" style="fill:#ebccbd;fill-opacity:0.45;fill-rule:evenodd;stroke:none;display:inline"/>
<path d="M 35.26,36.16 C 36.00,36.16 36.66,36.52 37.07,37.07 C 37.11,38.21 37.04,39.46 37.04,39.60 L 34.87,37.74 L 33.44,37.16 C 33.83,36.56 34.49,36.16 35.26,36.16 z" id="p3339" style="fill:#9a9a9a;fill-opacity:0.57;fill-rule:evenodd;stroke:none;display:inline"/>
<path d="M 33.07,38.35 L 36.73,39.84 C 36.40,40.00 35.74,40.27 34.93,40.54 C 33.88,40.37 33.07,39.48 33.07,38.38 C 33.07,38.37 33.07,38.36 33.07,38.35 z" id="p3341" style="fill:#555555;fill-opacity:0.31;fill-rule:evenodd;stroke:none;display:inline"/>
<path d="M 35.26,36.16 C 35.44,36.16 35.62,36.18 35.78,36.22 L 37.07,39.27 C 37.06,39.41 37.04,39.69 37.04,39.69 L 34.17,36.46 C 34.49,36.27 34.86,36.16 35.26,36.16 z" id="p3345" style="fill:#555555;fill-opacity:0.57;fill-rule:evenodd;stroke:none;display:inline"/>
<path d="M 4.42,12.44 C 4.67,12.46 4.90,12.52 5.06,12.61 C 5.29,12.75 7.16,14.03 9.41,15.57 C 5.86,15.21 2.85,14.74 3.02,18.43 C 2.98,18.40 2.55,18.05 2.53,18.04 C 1.28,17.03 1.20,14.77 1.92,13.75 C 2.67,12.68 3.67,12.37 4.42,12.44 z" id="p3413" style="fill:#650805;fill-opacity:0.08;fill-rule:evenodd;stroke:none;display:inline"/>
<path d="M 1.67,16.79 C 5.50,18.67 12.02,23.21 13.65,24.52 C 15.11,25.72 18.84,29.17 22.78,34.02 C 14.49,27.55 3.35,18.69 2.53,18.04 C 2.13,17.72 1.86,17.28 1.67,16.79 z" id="p3419" style="fill:#521917;fill-opacity:0.08;fill-rule:evenodd;stroke:none;display:inline"/>
<path d="M 4.51,19.59 C 7.72,21.30 10.81,23.54 12.64,24.92 C 14.58,26.38 15.79,27.80 17.24,29.70 C 11.18,24.92 6.45,21.14 4.51,19.59 z" id="p3422" style="fill:#f1dec9;fill-opacity:0.25;fill-rule:evenodd;stroke:none"/>
<path d="M 37.05,39.69 C 37.05,39.69 37.17,36.55 36.92,35.66 C 36.67,34.78 36.04,33.90 34.90,33.15 C 33.77,32.39 6.79,13.73 5.76,13.13 C 4.40,12.34 2.92,12.37 1.82,13.71 C 1.02,14.66 0.84,16.60 2.54,18.03 C 3.78,19.07 30.50,40.32 31.63,40.70 C 32.20,40.88 32.99,41.08 34.22,40.78 C 35.45,40.48 37.12,39.69 37.05,39.69 z" id="p3322" style="fill:none;fill-opacity:1;fill-rule:evenodd;stroke:#090400;stroke-width:0.77;stroke-linecap:butt;stroke-linejoin:miter;stroke-miterlimit:4;stroke-dasharray:none;stroke-opacity:1"/>
</g>
</svg>
