<?xml version="1.0" encoding="UTF-8" standalone="no"?>
<!-- Created with Inkscape (http://www.inkscape.org/) -->

<svg
   xmlns:dc="http://purl.org/dc/elements/1.1/"
   xmlns:cc="http://creativecommons.org/ns#"
   xmlns:rdf="http://www.w3.org/1999/02/22-rdf-syntax-ns#"
   xmlns:svg="http://www.w3.org/2000/svg"
   xmlns="http://www.w3.org/2000/svg"
   version="1.0"
   width="320"
   height="48"
   id="svg2">
  <metadata
     id="metadata8">
    <rdf:RDF>
      <cc:Work
         rdf:about="">
        <dc:format>image/svg+xml</dc:format>
        <dc:type
           rdf:resource="http://purl.org/dc/dcmitype/StillImage" />
        <dc:title></dc:title>
      </cc:Work>
    </rdf:RDF>
  </metadata>
  <defs
     id="defs4" />
  <rect
     width="320"
     height="48"
     ry="0"
     x="0"
     y="0"
     id="rect2383"
     style="fill:#ffffff;fill-opacity:1;fill-rule:evenodd;stroke:none;stroke-width:1.60000002;marker:none;visibility:visible;display:inline;overflow:visible;enable-background:accumulate" />
  <path
     d="M 3.0625,25 C 1.9717464,25 0.93617756,25.239733 0,25.65625 L 0,39.4375 c 0.93681352,0.417198 1.9708026,0.65625 3.0625,0.65625 4.1665489,0 7.53125,-3.364701 7.53125,-7.53125 C 10.59375,28.395951 7.2290489,25 3.0625,25 z"
     id="path2985"
     style="color:#000000;fill:#000000;fill-opacity:1;fill-rule:evenodd;stroke:none;stroke-width:1;marker:none;visibility:visible;display:inline;overflow:visible;enable-background:accumulate" />
  <path
     d="m 22.632613,-30.585463 a 7.5442042,7.5442042 0 1 1 -15.0884088,0 7.5442042,7.5442042 0 1 1 15.0884088,0 z"
     transform="translate(5.9332025,56.974461)"
     id="path2985-0"
     style="color:#000000;fill:#000000;fill-opacity:1;fill-rule:evenodd;stroke:none;stroke-width:1;marker:none;visibility:visible;display:inline;overflow:visible;enable-background:accumulate" />
  <path
     d="m 22.632613,-30.585463 a 7.5442042,7.5442042 0 1 1 -15.0884088,0 7.5442042,7.5442042 0 1 1 15.0884088,0 z"
     transform="translate(24.400787,51.866405)"
     id="path2985-3"
     style="color:#000000;fill:#000000;fill-opacity:1;fill-rule:evenodd;stroke:none;stroke-width:1;marker:none;visibility:visible;display:inline;overflow:visible;enable-background:accumulate" />
  <path
     d="m 22.632613,-30.585463 a 7.5442042,7.5442042 0 1 1 -15.0884088,0 7.5442042,7.5442042 0 1 1 15.0884088,0 z"
     transform="translate(41.886052,48.722987)"
     id="path2985-4"
     style="color:#000000;fill:#000000;fill-opacity:1;fill-rule:evenodd;stroke:none;stroke-width:1;marker:none;visibility:visible;display:inline;overflow:visible;enable-background:accumulate" />
  <path
     d="m 22.632613,-30.585463 a 7.5442042,7.5442042 0 1 1 -15.0884088,0 7.5442042,7.5442042 0 1 1 15.0884088,0 z"
     transform="translate(58.388999,46.758351)"
     id="path2985-9"
     style="color:#000000;fill:#000000;fill-opacity:1;fill-rule:evenodd;stroke:none;stroke-width:1;marker:none;visibility:visible;display:inline;overflow:visible;enable-background:accumulate" />
  <path
     d="m 22.632613,-30.585463 a 7.5442042,7.5442042 0 1 1 -15.0884088,0 7.5442042,7.5442042 0 1 1 15.0884088,0 z"
     transform="translate(73.123773,46.16896)"
     id="path2985-1"
     style="color:#000000;fill:#000000;fill-opacity:1;fill-rule:evenodd;stroke:none;stroke-width:1;marker:none;visibility:visible;display:inline;overflow:visible;enable-background:accumulate" />
  <path
     d="m 22.632613,-30.585463 a 7.5442042,7.5442042 0 1 1 -15.0884088,0 7.5442042,7.5442042 0 1 1 15.0884088,0 z"
     transform="translate(85.893909,47.347741)"
     id="path2985-96"
     style="color:#000000;fill:#000000;fill-opacity:1;fill-rule:evenodd;stroke:none;stroke-width:1;marker:none;visibility:visible;display:inline;overflow:visible;enable-background:accumulate" />
  <path
     d="m 22.632613,-30.585463 a 7.5442042,7.5442042 0 1 1 -15.0884088,0 7.5442042,7.5442042 0 1 1 15.0884088,0 z"
     transform="translate(95.913556,48.33006)"
     id="path2985-93"
     style="color:#000000;fill:#000000;fill-opacity:1;fill-rule:evenodd;stroke:none;stroke-width:1;marker:none;visibility:visible;display:inline;overflow:visible;enable-background:accumulate" />
  <path
     d="m 22.632613,-30.585463 a 7.5442042,7.5442042 0 1 1 -15.0884088,0 7.5442042,7.5442042 0 1 1 15.0884088,0 z"
     transform="translate(104.95088,49.508842)"
     id="path2985-38"
     style="color:#000000;fill:#000000;fill-opacity:1;fill-rule:evenodd;stroke:none;stroke-width:1;marker:none;visibility:visible;display:inline;overflow:visible;enable-background:accumulate" />
  <path
     d="m 22.632613,-30.585463 a 7.5442042,7.5442042 0 1 1 -15.0884088,0 7.5442042,7.5442042 0 1 1 15.0884088,0 z"
     transform="translate(113.0059,50.687624)"
     id="path2985-05"
     style="color:#000000;fill:#000000;fill-opacity:1;fill-rule:evenodd;stroke:none;stroke-width:1;marker:none;visibility:visible;display:inline;overflow:visible;enable-background:accumulate" />
  <path
     d="m 22.632613,-30.585463 a 7.5442042,7.5442042 0 1 1 -15.0884088,0 7.5442042,7.5442042 0 1 1 15.0884088,0 z"
     transform="translate(121.16605,51.926982)"
     id="path2985-2"
     style="color:#000000;fill:#000000;fill-opacity:1;fill-rule:evenodd;stroke:none;stroke-width:1;marker:none;visibility:visible;display:inline;overflow:visible;enable-background:accumulate" />
  <path
     d="m 22.632613,-30.585463 a 7.5442042,7.5442042 0 1 1 -15.0884088,0 7.5442042,7.5442042 0 1 1 15.0884088,0 z"
     transform="translate(129.39397,53.408008)"
     id="path2985-49"
     style="color:#000000;fill:#000000;fill-opacity:1;fill-rule:evenodd;stroke:none;stroke-width:1;marker:none;visibility:visible;display:inline;overflow:visible;enable-background:accumulate" />
  <path
     d="m 22.632613,-30.585463 a 7.5442042,7.5442042 0 1 1 -15.0884088,0 7.5442042,7.5442042 0 1 1 15.0884088,0 z"
     transform="translate(137.62191,55.053594)"
     id="path2985-936"
     style="color:#000000;fill:#000000;fill-opacity:1;fill-rule:evenodd;stroke:none;stroke-width:1;marker:none;visibility:visible;display:inline;overflow:visible;enable-background:accumulate" />
  <path
     d="m 22.632613,-30.585463 a 7.5442042,7.5442042 0 1 1 -15.0884088,0 7.5442042,7.5442042 0 1 1 15.0884088,0 z"
     transform="translate(146.17894,56.53462)"
     id="path2985-050"
     style="color:#000000;fill:#000000;fill-opacity:1;fill-rule:evenodd;stroke:none;stroke-width:1;marker:none;visibility:visible;display:inline;overflow:visible;enable-background:accumulate" />
  <path
     d="m 22.632613,-30.585463 a 7.5442042,7.5442042 0 1 1 -15.0884088,0 7.5442042,7.5442042 0 1 1 15.0884088,0 z"
     transform="translate(156.38158,58.344764)"
     id="path2985-29"
     style="color:#000000;fill:#000000;fill-opacity:1;fill-rule:evenodd;stroke:none;stroke-width:1;marker:none;visibility:visible;display:inline;overflow:visible;enable-background:accumulate" />
  <path
     d="m 22.632613,-30.585463 a 7.5442042,7.5442042 0 1 1 -15.0884088,0 7.5442042,7.5442042 0 1 1 15.0884088,0 z"
     transform="translate(168.55891,60.319466)"
     id="path2985-43"
     style="color:#000000;fill:#000000;fill-opacity:1;fill-rule:evenodd;stroke:none;stroke-width:1;marker:none;visibility:visible;display:inline;overflow:visible;enable-background:accumulate" />
  <path
     d="m 22.632613,-30.585463 a 7.5442042,7.5442042 0 1 1 -15.0884088,0 7.5442042,7.5442042 0 1 1 15.0884088,0 z"
     transform="translate(181.72359,63.116962)"
     id="path2985-5"
     style="color:#000000;fill:#000000;fill-opacity:1;fill-rule:evenodd;stroke:none;stroke-width:1;marker:none;visibility:visible;display:inline;overflow:visible;enable-background:accumulate" />
  <path
     d="m 22.632613,-30.585463 a 7.5442042,7.5442042 0 1 1 -15.0884088,0 7.5442042,7.5442042 0 1 1 15.0884088,0 z"
     transform="translate(196.69841,65.091663)"
     id="path2985-6"
     style="color:#000000;fill:#000000;fill-opacity:1;fill-rule:evenodd;stroke:none;stroke-width:1;marker:none;visibility:visible;display:inline;overflow:visible;enable-background:accumulate" />
  <path
     d="m 22.632613,-30.585463 a 7.5442042,7.5442042 0 1 1 -15.0884088,0 7.5442042,7.5442042 0 1 1 15.0884088,0 z"
     transform="translate(213.31882,66.737249)"
     id="path2985-94"
     style="color:#000000;fill:#000000;fill-opacity:1;fill-rule:evenodd;stroke:none;stroke-width:1;marker:none;visibility:visible;display:inline;overflow:visible;enable-background:accumulate" />
  <path
     d="m 22.632613,-30.585463 a 7.5442042,7.5442042 0 1 1 -15.0884088,0 7.5442042,7.5442042 0 1 1 15.0884088,0 z"
     transform="translate(231.42026,67.560042)"
     id="path2985-22"
     style="color:#000000;fill:#000000;fill-opacity:1;fill-rule:evenodd;stroke:none;stroke-width:1;marker:none;visibility:visible;display:inline;overflow:visible;enable-background:accumulate" />
  <path
     d="m 22.632613,-30.585463 a 7.5442042,7.5442042 0 1 1 -15.0884088,0 7.5442042,7.5442042 0 1 1 15.0884088,0 z"
     transform="translate(251.4964,67.066366)"
     id="path2985-64"
     style="color:#000000;fill:#000000;fill-opacity:1;fill-rule:evenodd;stroke:none;stroke-width:1;marker:none;visibility:visible;display:inline;overflow:visible;enable-background:accumulate" />
  <path
     d="m 22.632613,-30.585463 a 7.5442042,7.5442042 0 1 1 -15.0884088,0 7.5442042,7.5442042 0 1 1 15.0884088,0 z"
     transform="translate(272.39533,65.091664)"
     id="path2985-12"
     style="color:#000000;fill:#000000;fill-opacity:1;fill-rule:evenodd;stroke:none;stroke-width:1;marker:none;visibility:visible;display:inline;overflow:visible;enable-background:accumulate" />
  <path
     d="m 22.632613,-30.585463 a 7.5442042,7.5442042 0 1 1 -15.0884088,0 7.5442042,7.5442042 0 1 1 15.0884088,0 z"
     transform="translate(293.78794,61.635934)"
     id="path2985-8"
     style="color:#000000;fill:#000000;fill-opacity:1;fill-rule:evenodd;stroke:none;stroke-width:1;marker:none;visibility:visible;display:inline;overflow:visible;enable-background:accumulate" />
</svg>
